%TF.GenerationSoftware,KiCad,Pcbnew,8.0.5*%
%TF.CreationDate,2025-03-12T16:10:10-07:00*%
%TF.ProjectId,Mechatronics LED,4d656368-6174-4726-9f6e-696373204c45,rev?*%
%TF.SameCoordinates,Original*%
%TF.FileFunction,Drillmap*%
%TF.FilePolarity,Positive*%
%FSLAX45Y45*%
G04 Gerber Fmt 4.5, Leading zero omitted, Abs format (unit mm)*
G04 Created by KiCad (PCBNEW 8.0.5) date 2025-03-12 16:10:10*
%MOMM*%
%LPD*%
G01*
G04 APERTURE LIST*
%ADD10C,0.100000*%
%ADD11C,0.200000*%
G04 APERTURE END LIST*
D10*
X9115000Y-5067000D02*
X19115000Y-5067000D01*
X19115000Y-12867000D01*
X9115000Y-12867000D01*
X9115000Y-5067000D01*
D11*
X9370777Y-13183484D02*
X9370777Y-12983484D01*
X9370777Y-12983484D02*
X9418396Y-12983484D01*
X9418396Y-12983484D02*
X9446967Y-12993008D01*
X9446967Y-12993008D02*
X9466015Y-13012055D01*
X9466015Y-13012055D02*
X9475539Y-13031103D01*
X9475539Y-13031103D02*
X9485063Y-13069198D01*
X9485063Y-13069198D02*
X9485063Y-13097769D01*
X9485063Y-13097769D02*
X9475539Y-13135865D01*
X9475539Y-13135865D02*
X9466015Y-13154912D01*
X9466015Y-13154912D02*
X9446967Y-13173960D01*
X9446967Y-13173960D02*
X9418396Y-13183484D01*
X9418396Y-13183484D02*
X9370777Y-13183484D01*
X9570777Y-13183484D02*
X9570777Y-13050150D01*
X9570777Y-13088246D02*
X9580301Y-13069198D01*
X9580301Y-13069198D02*
X9589824Y-13059674D01*
X9589824Y-13059674D02*
X9608872Y-13050150D01*
X9608872Y-13050150D02*
X9627920Y-13050150D01*
X9694586Y-13183484D02*
X9694586Y-13050150D01*
X9694586Y-12983484D02*
X9685063Y-12993008D01*
X9685063Y-12993008D02*
X9694586Y-13002531D01*
X9694586Y-13002531D02*
X9704110Y-12993008D01*
X9704110Y-12993008D02*
X9694586Y-12983484D01*
X9694586Y-12983484D02*
X9694586Y-13002531D01*
X9818396Y-13183484D02*
X9799348Y-13173960D01*
X9799348Y-13173960D02*
X9789824Y-13154912D01*
X9789824Y-13154912D02*
X9789824Y-12983484D01*
X9923158Y-13183484D02*
X9904110Y-13173960D01*
X9904110Y-13173960D02*
X9894586Y-13154912D01*
X9894586Y-13154912D02*
X9894586Y-12983484D01*
X10151729Y-13183484D02*
X10151729Y-12983484D01*
X10151729Y-12983484D02*
X10218396Y-13126341D01*
X10218396Y-13126341D02*
X10285063Y-12983484D01*
X10285063Y-12983484D02*
X10285063Y-13183484D01*
X10466015Y-13183484D02*
X10466015Y-13078722D01*
X10466015Y-13078722D02*
X10456491Y-13059674D01*
X10456491Y-13059674D02*
X10437444Y-13050150D01*
X10437444Y-13050150D02*
X10399348Y-13050150D01*
X10399348Y-13050150D02*
X10380301Y-13059674D01*
X10466015Y-13173960D02*
X10446967Y-13183484D01*
X10446967Y-13183484D02*
X10399348Y-13183484D01*
X10399348Y-13183484D02*
X10380301Y-13173960D01*
X10380301Y-13173960D02*
X10370777Y-13154912D01*
X10370777Y-13154912D02*
X10370777Y-13135865D01*
X10370777Y-13135865D02*
X10380301Y-13116817D01*
X10380301Y-13116817D02*
X10399348Y-13107293D01*
X10399348Y-13107293D02*
X10446967Y-13107293D01*
X10446967Y-13107293D02*
X10466015Y-13097769D01*
X10561253Y-13050150D02*
X10561253Y-13250150D01*
X10561253Y-13059674D02*
X10580301Y-13050150D01*
X10580301Y-13050150D02*
X10618396Y-13050150D01*
X10618396Y-13050150D02*
X10637444Y-13059674D01*
X10637444Y-13059674D02*
X10646967Y-13069198D01*
X10646967Y-13069198D02*
X10656491Y-13088246D01*
X10656491Y-13088246D02*
X10656491Y-13145388D01*
X10656491Y-13145388D02*
X10646967Y-13164436D01*
X10646967Y-13164436D02*
X10637444Y-13173960D01*
X10637444Y-13173960D02*
X10618396Y-13183484D01*
X10618396Y-13183484D02*
X10580301Y-13183484D01*
X10580301Y-13183484D02*
X10561253Y-13173960D01*
X10742205Y-13164436D02*
X10751729Y-13173960D01*
X10751729Y-13173960D02*
X10742205Y-13183484D01*
X10742205Y-13183484D02*
X10732682Y-13173960D01*
X10732682Y-13173960D02*
X10742205Y-13164436D01*
X10742205Y-13164436D02*
X10742205Y-13183484D01*
X10742205Y-13059674D02*
X10751729Y-13069198D01*
X10751729Y-13069198D02*
X10742205Y-13078722D01*
X10742205Y-13078722D02*
X10732682Y-13069198D01*
X10732682Y-13069198D02*
X10742205Y-13059674D01*
X10742205Y-13059674D02*
X10742205Y-13078722D01*
M02*
