%TF.GenerationSoftware,KiCad,Pcbnew,8.0.5*%
%TF.CreationDate,2025-03-12T16:07:22-07:00*%
%TF.ProjectId,Mechatronics LED,4d656368-6174-4726-9f6e-696373204c45,rev?*%
%TF.SameCoordinates,Original*%
%TF.FileFunction,Soldermask,Bot*%
%TF.FilePolarity,Negative*%
%FSLAX46Y46*%
G04 Gerber Fmt 4.6, Leading zero omitted, Abs format (unit mm)*
G04 Created by KiCad (PCBNEW 8.0.5) date 2025-03-12 16:07:22*
%MOMM*%
%LPD*%
G01*
G04 APERTURE LIST*
%ADD10C,9.000000*%
%ADD11R,1.700000X1.700000*%
%ADD12O,1.700000X1.700000*%
%ADD13C,1.500000*%
G04 APERTURE END LIST*
D10*
%TO.C,REF\u002A\u002A*%
X186150000Y-123670000D03*
%TD*%
%TO.C,REF\u002A\u002A*%
X96150000Y-55670000D03*
%TD*%
D11*
%TO.C,J1*%
X184960000Y-66120000D03*
D12*
X187500000Y-66120000D03*
X184960000Y-68660000D03*
X187500000Y-68660000D03*
X184960000Y-71200000D03*
X187500000Y-71200000D03*
X184960000Y-73740000D03*
X187500000Y-73740000D03*
X184960000Y-76280000D03*
X187500000Y-76280000D03*
X184960000Y-78820000D03*
X187500000Y-78820000D03*
X184960000Y-81360000D03*
X187500000Y-81360000D03*
X184960000Y-83900000D03*
X187500000Y-83900000D03*
X184960000Y-86440000D03*
X187500000Y-86440000D03*
X184960000Y-88980000D03*
X187500000Y-88980000D03*
X184960000Y-91520000D03*
X187500000Y-91520000D03*
X184960000Y-94060000D03*
X187500000Y-94060000D03*
X184960000Y-96600000D03*
X187500000Y-96600000D03*
X184960000Y-99140000D03*
X187500000Y-99140000D03*
X184960000Y-101680000D03*
X187500000Y-101680000D03*
X184960000Y-104220000D03*
X187500000Y-104220000D03*
X184960000Y-106760000D03*
X187500000Y-106760000D03*
X184960000Y-109300000D03*
X187500000Y-109300000D03*
X184960000Y-111840000D03*
X187500000Y-111840000D03*
X184960000Y-114380000D03*
X187500000Y-114380000D03*
%TD*%
D11*
%TO.C,J3*%
X167680000Y-78600000D03*
D12*
X165140000Y-78600000D03*
X162600000Y-78600000D03*
X160060000Y-78600000D03*
%TD*%
D13*
%TO.C,Y1*%
X149925000Y-93650000D03*
X149925000Y-88770000D03*
%TD*%
D10*
%TO.C,REF\u002A\u002A*%
X96150000Y-123670000D03*
%TD*%
%TO.C,REF\u002A\u002A*%
X186150000Y-55670000D03*
%TD*%
D11*
%TO.C,J2*%
X170500000Y-126100000D03*
D12*
X173040000Y-126100000D03*
X175580000Y-126100000D03*
%TD*%
M02*
