M48
; DRILL file {KiCad 8.0.5} date 2025-03-12T16:09:29-0700
; FORMAT={-:-/ absolute / metric / decimal}
; #@! TF.CreationDate,2025-03-12T16:09:29-07:00
; #@! TF.GenerationSoftware,Kicad,Pcbnew,8.0.5
; #@! TF.FileFunction,Plated,1,4,PTH
FMAT,2
METRIC
; #@! TA.AperFunction,Plated,PTH,ViaDrill
T1C0.300
; #@! TA.AperFunction,Plated,PTH,ViaDrill
T2C0.400
; #@! TA.AperFunction,Plated,PTH,ComponentDrill
T3C0.800
; #@! TA.AperFunction,Plated,PTH,ComponentDrill
T4C1.000
; #@! TA.AperFunction,Plated,PTH,ComponentDrill
T5C5.000
%
G90
G05
T1
X145.225Y-98.025
X145.387Y-91.175
X153.2Y-92.85
X153.375Y-87.075
X153.975Y-82.95
X154.95Y-87.675
X156.425Y-84.575
X159.175Y-97.725
X174.7Y-88.375
X174.775Y-92.15
T2
X142.65Y-89.2
X142.65Y-91.3
X156.1Y-95.375
X160.725Y-85.325
X165.1Y-97.7
X166.975Y-121.925
X167.975Y-87.1
X168.025Y-89.025
X169.7Y-84.3
X169.8Y-92.1
X172.3Y-117.2
X177.075Y-120.8
X177.625Y-99.275
X177.625Y-114.65
T3
X149.925Y-88.77
X149.925Y-93.65
T4
X160.06Y-78.6
X162.6Y-78.6
X165.14Y-78.6
X167.68Y-78.6
X170.5Y-126.1
X173.04Y-126.1
X175.58Y-126.1
X184.96Y-66.12
X184.96Y-68.66
X184.96Y-71.2
X184.96Y-73.74
X184.96Y-76.28
X184.96Y-78.82
X184.96Y-81.36
X184.96Y-83.9
X184.96Y-86.44
X184.96Y-88.98
X184.96Y-91.52
X184.96Y-94.06
X184.96Y-96.6
X184.96Y-99.14
X184.96Y-101.68
X184.96Y-104.22
X184.96Y-106.76
X184.96Y-109.3
X184.96Y-111.84
X184.96Y-114.38
X187.5Y-66.12
X187.5Y-68.66
X187.5Y-71.2
X187.5Y-73.74
X187.5Y-76.28
X187.5Y-78.82
X187.5Y-81.36
X187.5Y-83.9
X187.5Y-86.44
X187.5Y-88.98
X187.5Y-91.52
X187.5Y-94.06
X187.5Y-96.6
X187.5Y-99.14
X187.5Y-101.68
X187.5Y-104.22
X187.5Y-106.76
X187.5Y-109.3
X187.5Y-111.84
X187.5Y-114.38
T5
X96.15Y-55.67
X96.15Y-123.67
X186.15Y-55.67
X186.15Y-123.67
M30
