%TF.GenerationSoftware,KiCad,Pcbnew,8.0.5*%
%TF.CreationDate,2025-03-12T16:07:22-07:00*%
%TF.ProjectId,Mechatronics LED,4d656368-6174-4726-9f6e-696373204c45,rev?*%
%TF.SameCoordinates,Original*%
%TF.FileFunction,Copper,L2,Inr*%
%TF.FilePolarity,Positive*%
%FSLAX46Y46*%
G04 Gerber Fmt 4.6, Leading zero omitted, Abs format (unit mm)*
G04 Created by KiCad (PCBNEW 8.0.5) date 2025-03-12 16:07:22*
%MOMM*%
%LPD*%
G01*
G04 APERTURE LIST*
%TA.AperFunction,ComponentPad*%
%ADD10C,9.000000*%
%TD*%
%TA.AperFunction,ComponentPad*%
%ADD11R,1.700000X1.700000*%
%TD*%
%TA.AperFunction,ComponentPad*%
%ADD12O,1.700000X1.700000*%
%TD*%
%TA.AperFunction,ComponentPad*%
%ADD13C,1.500000*%
%TD*%
%TA.AperFunction,ViaPad*%
%ADD14C,0.800000*%
%TD*%
%TA.AperFunction,ViaPad*%
%ADD15C,0.700000*%
%TD*%
G04 APERTURE END LIST*
D10*
%TO.N,N/C*%
%TO.C,REF\u002A\u002A*%
X186150000Y-123670000D03*
%TD*%
%TO.N,N/C*%
%TO.C,REF\u002A\u002A*%
X96150000Y-55670000D03*
%TD*%
D11*
%TO.N,VBATSW*%
%TO.C,J1*%
X184960000Y-66120000D03*
D12*
X187500000Y-66120000D03*
X184960000Y-68660000D03*
X187500000Y-68660000D03*
X184960000Y-71200000D03*
X187500000Y-71200000D03*
%TO.N,GND*%
X184960000Y-73740000D03*
X187500000Y-73740000D03*
%TO.N,unconnected-(J1-VAO-Pad9)*%
X184960000Y-76280000D03*
%TO.N,unconnected-(J1-EXT_MOTOR_KILL-Pad10)*%
X187500000Y-76280000D03*
%TO.N,unconnected-(J1-BUTTON_IN-Pad11)*%
X184960000Y-78820000D03*
%TO.N,unconnected-(J1-FAULT-Pad12)*%
X187500000Y-78820000D03*
%TO.N,unconnected-(J1-INT_MOTOR_KILL-Pad13)*%
X184960000Y-81360000D03*
%TO.N,unconnected-(J1-POWER_OFF-Pad14)*%
X187500000Y-81360000D03*
%TO.N,GND*%
X184960000Y-83900000D03*
X187500000Y-83900000D03*
%TO.N,5V*%
X184960000Y-86440000D03*
X187500000Y-86440000D03*
X184960000Y-88980000D03*
X187500000Y-88980000D03*
%TO.N,unconnected-(J1-I2C_0_SDA-Pad21)*%
X184960000Y-91520000D03*
%TO.N,unconnected-(J1-12C_0_SCL-Pad22)*%
X187500000Y-91520000D03*
%TO.N,unconnected-(J1-I2C_1_SDA-Pad23)*%
X184960000Y-94060000D03*
%TO.N,unconnected-(J1-I2C_1_SCL-Pad24)*%
X187500000Y-94060000D03*
%TO.N,GND*%
X184960000Y-96600000D03*
X187500000Y-96600000D03*
%TO.N,unconnected-(J1-UART_0_TX-Pad27)*%
X184960000Y-99140000D03*
%TO.N,unconnected-(J1-UART_0_RX-Pad28)*%
X187500000Y-99140000D03*
%TO.N,UART1_RX*%
X184960000Y-101680000D03*
%TO.N,UART1_TX*%
X187500000Y-101680000D03*
%TO.N,unconnected-(J1-UART_2_TX-Pad31)*%
X184960000Y-104220000D03*
%TO.N,unconnected-(J1-UART_2_RX-Pad32)*%
X187500000Y-104220000D03*
%TO.N,GND*%
X184960000Y-106760000D03*
X187500000Y-106760000D03*
%TO.N,unconnected-(J1-SPARE_5-Pad35)*%
X184960000Y-109300000D03*
%TO.N,unconnected-(J1-SPARE_4-Pad36)*%
X187500000Y-109300000D03*
%TO.N,unconnected-(J1-SPARE_3-Pad37)*%
X184960000Y-111840000D03*
%TO.N,unconnected-(J1-SPARE_2-Pad38)*%
X187500000Y-111840000D03*
%TO.N,unconnected-(J1-SPARE_1-Pad39)*%
X184960000Y-114380000D03*
%TO.N,unconnected-(J1-SPARE_0-Pad40)*%
X187500000Y-114380000D03*
%TD*%
D11*
%TO.N,3V3*%
%TO.C,J3*%
X167680000Y-78600000D03*
D12*
%TO.N,SWDIO*%
X165140000Y-78600000D03*
%TO.N,SWCLK*%
X162600000Y-78600000D03*
%TO.N,GND*%
X160060000Y-78600000D03*
%TD*%
D13*
%TO.N,Net-(U2-PD1)*%
%TO.C,Y1*%
X149925000Y-93650000D03*
%TO.N,Net-(U2-PD0)*%
X149925000Y-88770000D03*
%TD*%
D10*
%TO.N,N/C*%
%TO.C,REF\u002A\u002A*%
X96150000Y-123670000D03*
%TD*%
%TO.N,N/C*%
%TO.C,REF\u002A\u002A*%
X186150000Y-55670000D03*
%TD*%
D11*
%TO.N,GND*%
%TO.C,J2*%
X170500000Y-126100000D03*
D12*
%TO.N,TIM2_5V_SHIFT*%
X173040000Y-126100000D03*
%TO.N,5V*%
X175580000Y-126100000D03*
%TD*%
D14*
%TO.N,GND*%
X142650000Y-89200000D03*
X168025000Y-89025000D03*
X169800000Y-92100000D03*
D15*
X153975000Y-82950000D03*
X159175000Y-97725000D03*
D14*
X160725000Y-85325000D03*
X166975000Y-121925000D03*
X177075000Y-120800000D03*
D15*
X153375000Y-87075000D03*
X145225000Y-98025000D03*
X145387500Y-91175000D03*
D14*
X172300000Y-117200000D03*
X169700000Y-84300000D03*
D15*
X174700000Y-88375000D03*
X153200000Y-92850000D03*
D14*
%TO.N,3V3*%
X165100000Y-97700000D03*
D15*
X154950000Y-87675000D03*
X156425000Y-84575000D03*
D14*
X142650000Y-91300000D03*
D15*
X174775000Y-92150000D03*
D14*
X156100000Y-95375000D03*
X167975000Y-87100000D03*
%TO.N,5V*%
X177625000Y-99275000D03*
X177625000Y-114650000D03*
%TD*%
%TA.AperFunction,Conductor*%
%TO.N,GND*%
G36*
X187034075Y-106567007D02*
G01*
X187000000Y-106694174D01*
X187000000Y-106825826D01*
X187034075Y-106952993D01*
X187066988Y-107010000D01*
X185393012Y-107010000D01*
X185425925Y-106952993D01*
X185460000Y-106825826D01*
X185460000Y-106694174D01*
X185425925Y-106567007D01*
X185393012Y-106510000D01*
X187066988Y-106510000D01*
X187034075Y-106567007D01*
G37*
%TD.AperFunction*%
%TA.AperFunction,Conductor*%
G36*
X187034075Y-96407007D02*
G01*
X187000000Y-96534174D01*
X187000000Y-96665826D01*
X187034075Y-96792993D01*
X187066988Y-96850000D01*
X185393012Y-96850000D01*
X185425925Y-96792993D01*
X185460000Y-96665826D01*
X185460000Y-96534174D01*
X185425925Y-96407007D01*
X185393012Y-96350000D01*
X187066988Y-96350000D01*
X187034075Y-96407007D01*
G37*
%TD.AperFunction*%
%TA.AperFunction,Conductor*%
G36*
X187034075Y-83707007D02*
G01*
X187000000Y-83834174D01*
X187000000Y-83965826D01*
X187034075Y-84092993D01*
X187066988Y-84150000D01*
X185393012Y-84150000D01*
X185425925Y-84092993D01*
X185460000Y-83965826D01*
X185460000Y-83834174D01*
X185425925Y-83707007D01*
X185393012Y-83650000D01*
X187066988Y-83650000D01*
X187034075Y-83707007D01*
G37*
%TD.AperFunction*%
%TA.AperFunction,Conductor*%
G36*
X187034075Y-73547007D02*
G01*
X187000000Y-73674174D01*
X187000000Y-73805826D01*
X187034075Y-73932993D01*
X187066988Y-73990000D01*
X185393012Y-73990000D01*
X185425925Y-73932993D01*
X185460000Y-73805826D01*
X185460000Y-73674174D01*
X185425925Y-73547007D01*
X185393012Y-73490000D01*
X187066988Y-73490000D01*
X187034075Y-73547007D01*
G37*
%TD.AperFunction*%
%TA.AperFunction,Conductor*%
G36*
X184115047Y-50890185D02*
G01*
X184160802Y-50942989D01*
X184170746Y-51012147D01*
X184141721Y-51075703D01*
X184101810Y-51106220D01*
X183778039Y-51262139D01*
X183778033Y-51262142D01*
X183392458Y-51492512D01*
X183029108Y-51756502D01*
X183029080Y-51756524D01*
X182690868Y-52052011D01*
X182690865Y-52052014D01*
X182380465Y-52376667D01*
X182100429Y-52727821D01*
X182100428Y-52727822D01*
X181853004Y-53102654D01*
X181853004Y-53102655D01*
X181640165Y-53498175D01*
X181463636Y-53911187D01*
X181324843Y-54338347D01*
X181224901Y-54776223D01*
X181164611Y-55221307D01*
X181164610Y-55221316D01*
X181144460Y-55669996D01*
X181144460Y-55670003D01*
X181164610Y-56118683D01*
X181164611Y-56118692D01*
X181224901Y-56563776D01*
X181324843Y-57001652D01*
X181324845Y-57001658D01*
X181463639Y-57428821D01*
X181640164Y-57841822D01*
X181853000Y-58237338D01*
X181853004Y-58237344D01*
X181853004Y-58237345D01*
X182100428Y-58612177D01*
X182100429Y-58612178D01*
X182100433Y-58612183D01*
X182380471Y-58963339D01*
X182690858Y-59287979D01*
X182690865Y-59287985D01*
X182690868Y-59287988D01*
X183029080Y-59583475D01*
X183029089Y-59583482D01*
X183029097Y-59583489D01*
X183029107Y-59583496D01*
X183029108Y-59583497D01*
X183392458Y-59847487D01*
X183778033Y-60077857D01*
X183778039Y-60077860D01*
X184182688Y-60272729D01*
X184182702Y-60272735D01*
X184603189Y-60430546D01*
X184603193Y-60430547D01*
X184603203Y-60430551D01*
X185036163Y-60550041D01*
X185478090Y-60630239D01*
X185925427Y-60670500D01*
X185925434Y-60670500D01*
X186374566Y-60670500D01*
X186374573Y-60670500D01*
X186821910Y-60630239D01*
X187263837Y-60550041D01*
X187696797Y-60430551D01*
X188117303Y-60272733D01*
X188521969Y-60077856D01*
X188907537Y-59847490D01*
X189270903Y-59583489D01*
X189609142Y-59287979D01*
X189919529Y-58963339D01*
X190199567Y-58612183D01*
X190447000Y-58237338D01*
X190659836Y-57841822D01*
X190711479Y-57720996D01*
X190755927Y-57667090D01*
X190822464Y-57645770D01*
X190889966Y-57663808D01*
X190937000Y-57715476D01*
X190949500Y-57769733D01*
X190949500Y-121570266D01*
X190929815Y-121637305D01*
X190877011Y-121683060D01*
X190807853Y-121693004D01*
X190744297Y-121663979D01*
X190711479Y-121619001D01*
X190659841Y-121498188D01*
X190659837Y-121498180D01*
X190659834Y-121498175D01*
X190447000Y-121102662D01*
X190446995Y-121102654D01*
X190199571Y-120727822D01*
X190199570Y-120727821D01*
X189919534Y-120376667D01*
X189919532Y-120376665D01*
X189919529Y-120376661D01*
X189609142Y-120052021D01*
X189609131Y-120052011D01*
X189270919Y-119756524D01*
X189270907Y-119756515D01*
X189270903Y-119756511D01*
X189270891Y-119756502D01*
X188907541Y-119492512D01*
X188521966Y-119262142D01*
X188521960Y-119262139D01*
X188117311Y-119067270D01*
X188117297Y-119067264D01*
X187696810Y-118909453D01*
X187696785Y-118909445D01*
X187263843Y-118789960D01*
X186821916Y-118709762D01*
X186821915Y-118709761D01*
X186821910Y-118709761D01*
X186374573Y-118669500D01*
X185925427Y-118669500D01*
X185478090Y-118709761D01*
X185478085Y-118709761D01*
X185478083Y-118709762D01*
X185036156Y-118789960D01*
X184603214Y-118909445D01*
X184603189Y-118909453D01*
X184182702Y-119067264D01*
X184182688Y-119067270D01*
X183778039Y-119262139D01*
X183778033Y-119262142D01*
X183392458Y-119492512D01*
X183029108Y-119756502D01*
X183029080Y-119756524D01*
X182690868Y-120052011D01*
X182690865Y-120052014D01*
X182380465Y-120376667D01*
X182100429Y-120727821D01*
X182100428Y-120727822D01*
X181853004Y-121102654D01*
X181853004Y-121102655D01*
X181640165Y-121498175D01*
X181463636Y-121911187D01*
X181324843Y-122338347D01*
X181224901Y-122776223D01*
X181164611Y-123221307D01*
X181164610Y-123221316D01*
X181144460Y-123669996D01*
X181144460Y-123670003D01*
X181164610Y-124118683D01*
X181164611Y-124118692D01*
X181224901Y-124563776D01*
X181324843Y-125001652D01*
X181344290Y-125061505D01*
X181463639Y-125428821D01*
X181640164Y-125841822D01*
X181853000Y-126237338D01*
X181853004Y-126237344D01*
X181853004Y-126237345D01*
X182100428Y-126612177D01*
X182100429Y-126612178D01*
X182238921Y-126785842D01*
X182380471Y-126963339D01*
X182690858Y-127287979D01*
X182690865Y-127287985D01*
X182690868Y-127287988D01*
X183029080Y-127583475D01*
X183029089Y-127583482D01*
X183029097Y-127583489D01*
X183029107Y-127583496D01*
X183029108Y-127583497D01*
X183392458Y-127847487D01*
X183778033Y-128077857D01*
X183778039Y-128077860D01*
X184101810Y-128233780D01*
X184153669Y-128280602D01*
X184171982Y-128348029D01*
X184150934Y-128414653D01*
X184097208Y-128459322D01*
X184048008Y-128469500D01*
X98251992Y-128469500D01*
X98184953Y-128449815D01*
X98139198Y-128397011D01*
X98129254Y-128327853D01*
X98158279Y-128264297D01*
X98198190Y-128233780D01*
X98299065Y-128185200D01*
X98521969Y-128077856D01*
X98907537Y-127847490D01*
X99270903Y-127583489D01*
X99609142Y-127287979D01*
X99919529Y-126963339D01*
X100199567Y-126612183D01*
X100447000Y-126237338D01*
X100659836Y-125841822D01*
X100836361Y-125428821D01*
X100910009Y-125202155D01*
X169150000Y-125202155D01*
X169150000Y-125850000D01*
X170066988Y-125850000D01*
X170034075Y-125907007D01*
X170000000Y-126034174D01*
X170000000Y-126165826D01*
X170034075Y-126292993D01*
X170066988Y-126350000D01*
X169150000Y-126350000D01*
X169150000Y-126997844D01*
X169156401Y-127057372D01*
X169156403Y-127057379D01*
X169206645Y-127192086D01*
X169206649Y-127192093D01*
X169292809Y-127307187D01*
X169292812Y-127307190D01*
X169407906Y-127393350D01*
X169407913Y-127393354D01*
X169542620Y-127443596D01*
X169542627Y-127443598D01*
X169602155Y-127449999D01*
X169602172Y-127450000D01*
X170250000Y-127450000D01*
X170250000Y-126533012D01*
X170307007Y-126565925D01*
X170434174Y-126600000D01*
X170565826Y-126600000D01*
X170692993Y-126565925D01*
X170750000Y-126533012D01*
X170750000Y-127450000D01*
X171397828Y-127450000D01*
X171397844Y-127449999D01*
X171457372Y-127443598D01*
X171457379Y-127443596D01*
X171592086Y-127393354D01*
X171592093Y-127393350D01*
X171707187Y-127307190D01*
X171707190Y-127307187D01*
X171793350Y-127192093D01*
X171793354Y-127192086D01*
X171842422Y-127060529D01*
X171884293Y-127004595D01*
X171949757Y-126980178D01*
X172018030Y-126995030D01*
X172046285Y-127016181D01*
X172168599Y-127138495D01*
X172245135Y-127192086D01*
X172362165Y-127274032D01*
X172362167Y-127274033D01*
X172362170Y-127274035D01*
X172576337Y-127373903D01*
X172804592Y-127435063D01*
X172975319Y-127450000D01*
X173039999Y-127455659D01*
X173040000Y-127455659D01*
X173040001Y-127455659D01*
X173104681Y-127450000D01*
X173275408Y-127435063D01*
X173503663Y-127373903D01*
X173717830Y-127274035D01*
X173911401Y-127138495D01*
X174078495Y-126971401D01*
X174208425Y-126785842D01*
X174263002Y-126742217D01*
X174332500Y-126735023D01*
X174394855Y-126766546D01*
X174411575Y-126785842D01*
X174541500Y-126971395D01*
X174541505Y-126971401D01*
X174708599Y-127138495D01*
X174785135Y-127192086D01*
X174902165Y-127274032D01*
X174902167Y-127274033D01*
X174902170Y-127274035D01*
X175116337Y-127373903D01*
X175344592Y-127435063D01*
X175515319Y-127450000D01*
X175579999Y-127455659D01*
X175580000Y-127455659D01*
X175580001Y-127455659D01*
X175644681Y-127450000D01*
X175815408Y-127435063D01*
X176043663Y-127373903D01*
X176257830Y-127274035D01*
X176451401Y-127138495D01*
X176618495Y-126971401D01*
X176754035Y-126777830D01*
X176853903Y-126563663D01*
X176915063Y-126335408D01*
X176935659Y-126100000D01*
X176915063Y-125864592D01*
X176853903Y-125636337D01*
X176754035Y-125422171D01*
X176748425Y-125414158D01*
X176618494Y-125228597D01*
X176451402Y-125061506D01*
X176451395Y-125061501D01*
X176257834Y-124925967D01*
X176257830Y-124925965D01*
X176186727Y-124892809D01*
X176043663Y-124826097D01*
X176043659Y-124826096D01*
X176043655Y-124826094D01*
X175815413Y-124764938D01*
X175815403Y-124764936D01*
X175580001Y-124744341D01*
X175579999Y-124744341D01*
X175344596Y-124764936D01*
X175344586Y-124764938D01*
X175116344Y-124826094D01*
X175116335Y-124826098D01*
X174902171Y-124925964D01*
X174902169Y-124925965D01*
X174708597Y-125061505D01*
X174541505Y-125228597D01*
X174411575Y-125414158D01*
X174356998Y-125457783D01*
X174287500Y-125464977D01*
X174225145Y-125433454D01*
X174208425Y-125414158D01*
X174078494Y-125228597D01*
X173911402Y-125061506D01*
X173911395Y-125061501D01*
X173717834Y-124925967D01*
X173717830Y-124925965D01*
X173646727Y-124892809D01*
X173503663Y-124826097D01*
X173503659Y-124826096D01*
X173503655Y-124826094D01*
X173275413Y-124764938D01*
X173275403Y-124764936D01*
X173040001Y-124744341D01*
X173039999Y-124744341D01*
X172804596Y-124764936D01*
X172804586Y-124764938D01*
X172576344Y-124826094D01*
X172576335Y-124826098D01*
X172362171Y-124925964D01*
X172362169Y-124925965D01*
X172168600Y-125061503D01*
X172046284Y-125183819D01*
X171984961Y-125217303D01*
X171915269Y-125212319D01*
X171859336Y-125170447D01*
X171842421Y-125139470D01*
X171793354Y-125007913D01*
X171793350Y-125007906D01*
X171707190Y-124892812D01*
X171707187Y-124892809D01*
X171592093Y-124806649D01*
X171592086Y-124806645D01*
X171457379Y-124756403D01*
X171457372Y-124756401D01*
X171397844Y-124750000D01*
X170750000Y-124750000D01*
X170750000Y-125666988D01*
X170692993Y-125634075D01*
X170565826Y-125600000D01*
X170434174Y-125600000D01*
X170307007Y-125634075D01*
X170250000Y-125666988D01*
X170250000Y-124750000D01*
X169602155Y-124750000D01*
X169542627Y-124756401D01*
X169542620Y-124756403D01*
X169407913Y-124806645D01*
X169407906Y-124806649D01*
X169292812Y-124892809D01*
X169292809Y-124892812D01*
X169206649Y-125007906D01*
X169206645Y-125007913D01*
X169156403Y-125142620D01*
X169156401Y-125142627D01*
X169150000Y-125202155D01*
X100910009Y-125202155D01*
X100975155Y-125001658D01*
X101075099Y-124563774D01*
X101135389Y-124118693D01*
X101155540Y-123670000D01*
X101135389Y-123221307D01*
X101075099Y-122776226D01*
X100975155Y-122338342D01*
X100836361Y-121911179D01*
X100659836Y-121498178D01*
X100447000Y-121102662D01*
X100446995Y-121102654D01*
X100199571Y-120727822D01*
X100199570Y-120727821D01*
X99919534Y-120376667D01*
X99919532Y-120376665D01*
X99919529Y-120376661D01*
X99609142Y-120052021D01*
X99609131Y-120052011D01*
X99270919Y-119756524D01*
X99270907Y-119756515D01*
X99270903Y-119756511D01*
X99270891Y-119756502D01*
X98907541Y-119492512D01*
X98521966Y-119262142D01*
X98521960Y-119262139D01*
X98117311Y-119067270D01*
X98117297Y-119067264D01*
X97696810Y-118909453D01*
X97696785Y-118909445D01*
X97263843Y-118789960D01*
X96821916Y-118709762D01*
X96821915Y-118709761D01*
X96821910Y-118709761D01*
X96374573Y-118669500D01*
X95925427Y-118669500D01*
X95478090Y-118709761D01*
X95478085Y-118709761D01*
X95478083Y-118709762D01*
X95036156Y-118789960D01*
X94603214Y-118909445D01*
X94603189Y-118909453D01*
X94182702Y-119067264D01*
X94182688Y-119067270D01*
X93778039Y-119262139D01*
X93778033Y-119262142D01*
X93392458Y-119492512D01*
X93029108Y-119756502D01*
X93029080Y-119756524D01*
X92690868Y-120052011D01*
X92690865Y-120052014D01*
X92380465Y-120376667D01*
X92100429Y-120727821D01*
X92100428Y-120727822D01*
X91853004Y-121102654D01*
X91853004Y-121102655D01*
X91640162Y-121498180D01*
X91640158Y-121498188D01*
X91588521Y-121619001D01*
X91544073Y-121672909D01*
X91477535Y-121694229D01*
X91410034Y-121676191D01*
X91363000Y-121624523D01*
X91350500Y-121570266D01*
X91350500Y-114650000D01*
X176719540Y-114650000D01*
X176739326Y-114838256D01*
X176739327Y-114838259D01*
X176797818Y-115018277D01*
X176797821Y-115018284D01*
X176892467Y-115182216D01*
X176954762Y-115251401D01*
X177019129Y-115322888D01*
X177172265Y-115434148D01*
X177172270Y-115434151D01*
X177345192Y-115511142D01*
X177345197Y-115511144D01*
X177530354Y-115550500D01*
X177530355Y-115550500D01*
X177719644Y-115550500D01*
X177719646Y-115550500D01*
X177904803Y-115511144D01*
X178077730Y-115434151D01*
X178230871Y-115322888D01*
X178357533Y-115182216D01*
X178452179Y-115018284D01*
X178510674Y-114838256D01*
X178530460Y-114650000D01*
X178510674Y-114461744D01*
X178452179Y-114281716D01*
X178357533Y-114117784D01*
X178230871Y-113977112D01*
X178230870Y-113977111D01*
X178077734Y-113865851D01*
X178077729Y-113865848D01*
X177904807Y-113788857D01*
X177904802Y-113788855D01*
X177759001Y-113757865D01*
X177719646Y-113749500D01*
X177530354Y-113749500D01*
X177497897Y-113756398D01*
X177345197Y-113788855D01*
X177345192Y-113788857D01*
X177172270Y-113865848D01*
X177172265Y-113865851D01*
X177019129Y-113977111D01*
X176892466Y-114117785D01*
X176797821Y-114281715D01*
X176797818Y-114281722D01*
X176765886Y-114380000D01*
X176739326Y-114461744D01*
X176719540Y-114650000D01*
X91350500Y-114650000D01*
X91350500Y-99275000D01*
X176719540Y-99275000D01*
X176739326Y-99463256D01*
X176739327Y-99463259D01*
X176797818Y-99643277D01*
X176797821Y-99643284D01*
X176892467Y-99807216D01*
X177019129Y-99947888D01*
X177172265Y-100059148D01*
X177172270Y-100059151D01*
X177345192Y-100136142D01*
X177345197Y-100136144D01*
X177530354Y-100175500D01*
X177530355Y-100175500D01*
X177719644Y-100175500D01*
X177719646Y-100175500D01*
X177904803Y-100136144D01*
X178077730Y-100059151D01*
X178230871Y-99947888D01*
X178357533Y-99807216D01*
X178452179Y-99643284D01*
X178510674Y-99463256D01*
X178530460Y-99275000D01*
X178510674Y-99086744D01*
X178452179Y-98906716D01*
X178357533Y-98742784D01*
X178230871Y-98602112D01*
X178230870Y-98602111D01*
X178077734Y-98490851D01*
X178077729Y-98490848D01*
X177904807Y-98413857D01*
X177904802Y-98413855D01*
X177759001Y-98382865D01*
X177719646Y-98374500D01*
X177530354Y-98374500D01*
X177497897Y-98381398D01*
X177345197Y-98413855D01*
X177345192Y-98413857D01*
X177172270Y-98490848D01*
X177172265Y-98490851D01*
X177019129Y-98602111D01*
X176892466Y-98742785D01*
X176797821Y-98906715D01*
X176797818Y-98906722D01*
X176739327Y-99086740D01*
X176739326Y-99086744D01*
X176719540Y-99275000D01*
X91350500Y-99275000D01*
X91350500Y-97700000D01*
X164194540Y-97700000D01*
X164214326Y-97888256D01*
X164214327Y-97888259D01*
X164272818Y-98068277D01*
X164272821Y-98068284D01*
X164367467Y-98232216D01*
X164494129Y-98372888D01*
X164647265Y-98484148D01*
X164647270Y-98484151D01*
X164820192Y-98561142D01*
X164820197Y-98561144D01*
X165005354Y-98600500D01*
X165005355Y-98600500D01*
X165194644Y-98600500D01*
X165194646Y-98600500D01*
X165379803Y-98561144D01*
X165552730Y-98484151D01*
X165705871Y-98372888D01*
X165832533Y-98232216D01*
X165927179Y-98068284D01*
X165985674Y-97888256D01*
X166005460Y-97700000D01*
X165985674Y-97511744D01*
X165927179Y-97331716D01*
X165832533Y-97167784D01*
X165705871Y-97027112D01*
X165668691Y-97000099D01*
X165552734Y-96915851D01*
X165552729Y-96915848D01*
X165379807Y-96838857D01*
X165379802Y-96838855D01*
X165234001Y-96807865D01*
X165194646Y-96799500D01*
X165005354Y-96799500D01*
X164972897Y-96806398D01*
X164820197Y-96838855D01*
X164820192Y-96838857D01*
X164647270Y-96915848D01*
X164647265Y-96915851D01*
X164494129Y-97027111D01*
X164367466Y-97167785D01*
X164272821Y-97331715D01*
X164272818Y-97331722D01*
X164214327Y-97511740D01*
X164214326Y-97511744D01*
X164194540Y-97700000D01*
X91350500Y-97700000D01*
X91350500Y-95375000D01*
X155194540Y-95375000D01*
X155214326Y-95563256D01*
X155214327Y-95563259D01*
X155272818Y-95743277D01*
X155272821Y-95743284D01*
X155367467Y-95907216D01*
X155420260Y-95965848D01*
X155494129Y-96047888D01*
X155647265Y-96159148D01*
X155647270Y-96159151D01*
X155820192Y-96236142D01*
X155820197Y-96236144D01*
X156005354Y-96275500D01*
X156005355Y-96275500D01*
X156194644Y-96275500D01*
X156194646Y-96275500D01*
X156379803Y-96236144D01*
X156552730Y-96159151D01*
X156705871Y-96047888D01*
X156832533Y-95907216D01*
X156927179Y-95743284D01*
X156985674Y-95563256D01*
X157005460Y-95375000D01*
X156985674Y-95186744D01*
X156927179Y-95006716D01*
X156832533Y-94842784D01*
X156705871Y-94702112D01*
X156696114Y-94695023D01*
X156552734Y-94590851D01*
X156552729Y-94590848D01*
X156379807Y-94513857D01*
X156379802Y-94513855D01*
X156234001Y-94482865D01*
X156194646Y-94474500D01*
X156005354Y-94474500D01*
X155972897Y-94481398D01*
X155820197Y-94513855D01*
X155820192Y-94513857D01*
X155647270Y-94590848D01*
X155647265Y-94590851D01*
X155494129Y-94702111D01*
X155367466Y-94842785D01*
X155272821Y-95006715D01*
X155272818Y-95006722D01*
X155214327Y-95186740D01*
X155214326Y-95186744D01*
X155194540Y-95375000D01*
X91350500Y-95375000D01*
X91350500Y-93650000D01*
X148669723Y-93650000D01*
X148684997Y-93824592D01*
X148688793Y-93867975D01*
X148688793Y-93867979D01*
X148745422Y-94079322D01*
X148745424Y-94079326D01*
X148745425Y-94079330D01*
X148791661Y-94178484D01*
X148837897Y-94277638D01*
X148862998Y-94313486D01*
X148963402Y-94456877D01*
X149118123Y-94611598D01*
X149297361Y-94737102D01*
X149495670Y-94829575D01*
X149707023Y-94886207D01*
X149889926Y-94902208D01*
X149924998Y-94905277D01*
X149925000Y-94905277D01*
X149925002Y-94905277D01*
X149953254Y-94902805D01*
X150142977Y-94886207D01*
X150354330Y-94829575D01*
X150552639Y-94737102D01*
X150731877Y-94611598D01*
X150886598Y-94456877D01*
X151012102Y-94277639D01*
X151104575Y-94079330D01*
X151161207Y-93867977D01*
X151180277Y-93650000D01*
X151161207Y-93432023D01*
X151104575Y-93220670D01*
X151012102Y-93022362D01*
X151012100Y-93022359D01*
X151012099Y-93022357D01*
X150886599Y-92843124D01*
X150810975Y-92767500D01*
X150731877Y-92688402D01*
X150552639Y-92562898D01*
X150552640Y-92562898D01*
X150552638Y-92562897D01*
X150453484Y-92516661D01*
X150354330Y-92470425D01*
X150354326Y-92470424D01*
X150354322Y-92470422D01*
X150142977Y-92413793D01*
X149925002Y-92394723D01*
X149924998Y-92394723D01*
X149779682Y-92407436D01*
X149707023Y-92413793D01*
X149707020Y-92413793D01*
X149495677Y-92470422D01*
X149495668Y-92470426D01*
X149297361Y-92562898D01*
X149297357Y-92562900D01*
X149118121Y-92688402D01*
X148963402Y-92843121D01*
X148837900Y-93022357D01*
X148837898Y-93022361D01*
X148745426Y-93220668D01*
X148745422Y-93220677D01*
X148688793Y-93432020D01*
X148688793Y-93432023D01*
X148669723Y-93650000D01*
X91350500Y-93650000D01*
X91350500Y-91300000D01*
X141744540Y-91300000D01*
X141764326Y-91488256D01*
X141764327Y-91488259D01*
X141822818Y-91668277D01*
X141822821Y-91668284D01*
X141917467Y-91832216D01*
X142043502Y-91972192D01*
X142044129Y-91972888D01*
X142197265Y-92084148D01*
X142197270Y-92084151D01*
X142370192Y-92161142D01*
X142370197Y-92161144D01*
X142555354Y-92200500D01*
X142555355Y-92200500D01*
X142744644Y-92200500D01*
X142744646Y-92200500D01*
X142929803Y-92161144D01*
X142954833Y-92150000D01*
X173919815Y-92150000D01*
X173938503Y-92327805D01*
X173938504Y-92327807D01*
X173993747Y-92497829D01*
X173993750Y-92497835D01*
X174083141Y-92652665D01*
X174115319Y-92688402D01*
X174202764Y-92785521D01*
X174202767Y-92785523D01*
X174202770Y-92785526D01*
X174347407Y-92890612D01*
X174510733Y-92963329D01*
X174685609Y-93000500D01*
X174685610Y-93000500D01*
X174864389Y-93000500D01*
X174864391Y-93000500D01*
X175039267Y-92963329D01*
X175202593Y-92890612D01*
X175347230Y-92785526D01*
X175466859Y-92652665D01*
X175556250Y-92497835D01*
X175611497Y-92327803D01*
X175630185Y-92150000D01*
X175611497Y-91972197D01*
X175556250Y-91802165D01*
X175466859Y-91647335D01*
X175420003Y-91595296D01*
X175347235Y-91514478D01*
X175347232Y-91514476D01*
X175347231Y-91514475D01*
X175347230Y-91514474D01*
X175202593Y-91409388D01*
X175039267Y-91336671D01*
X175039265Y-91336670D01*
X174911594Y-91309533D01*
X174864391Y-91299500D01*
X174685609Y-91299500D01*
X174654954Y-91306015D01*
X174510733Y-91336670D01*
X174510728Y-91336672D01*
X174347408Y-91409387D01*
X174202768Y-91514475D01*
X174083140Y-91647336D01*
X173993750Y-91802164D01*
X173993747Y-91802170D01*
X173938504Y-91972192D01*
X173938503Y-91972194D01*
X173919815Y-92150000D01*
X142954833Y-92150000D01*
X143102730Y-92084151D01*
X143255871Y-91972888D01*
X143382533Y-91832216D01*
X143477179Y-91668284D01*
X143535674Y-91488256D01*
X143555460Y-91300000D01*
X143535674Y-91111744D01*
X143477179Y-90931716D01*
X143382533Y-90767784D01*
X143255871Y-90627112D01*
X143255870Y-90627111D01*
X143102734Y-90515851D01*
X143102729Y-90515848D01*
X142929807Y-90438857D01*
X142929802Y-90438855D01*
X142784001Y-90407865D01*
X142744646Y-90399500D01*
X142555354Y-90399500D01*
X142522897Y-90406398D01*
X142370197Y-90438855D01*
X142370192Y-90438857D01*
X142197270Y-90515848D01*
X142197265Y-90515851D01*
X142044129Y-90627111D01*
X141917466Y-90767785D01*
X141822821Y-90931715D01*
X141822818Y-90931722D01*
X141764327Y-91111740D01*
X141764326Y-91111744D01*
X141744540Y-91300000D01*
X91350500Y-91300000D01*
X91350500Y-88769997D01*
X148669723Y-88769997D01*
X148669723Y-88770002D01*
X148688793Y-88987975D01*
X148688793Y-88987979D01*
X148745422Y-89199322D01*
X148745424Y-89199326D01*
X148745425Y-89199330D01*
X148752925Y-89215413D01*
X148837897Y-89397638D01*
X148837898Y-89397639D01*
X148963402Y-89576877D01*
X149118123Y-89731598D01*
X149297361Y-89857102D01*
X149495670Y-89949575D01*
X149707023Y-90006207D01*
X149889926Y-90022208D01*
X149924998Y-90025277D01*
X149925000Y-90025277D01*
X149925002Y-90025277D01*
X149953254Y-90022805D01*
X150142977Y-90006207D01*
X150354330Y-89949575D01*
X150552639Y-89857102D01*
X150731877Y-89731598D01*
X150886598Y-89576877D01*
X151012102Y-89397639D01*
X151104575Y-89199330D01*
X151161207Y-88987977D01*
X151180277Y-88770000D01*
X151178054Y-88744596D01*
X151176569Y-88727618D01*
X151161207Y-88552023D01*
X151104575Y-88340670D01*
X151012102Y-88142362D01*
X151012100Y-88142359D01*
X151012099Y-88142357D01*
X150886599Y-87963124D01*
X150864976Y-87941501D01*
X150731877Y-87808402D01*
X150591345Y-87710000D01*
X150552638Y-87682897D01*
X150535703Y-87675000D01*
X154094815Y-87675000D01*
X154113503Y-87852805D01*
X154113504Y-87852807D01*
X154168747Y-88022829D01*
X154168750Y-88022835D01*
X154258141Y-88177665D01*
X154299812Y-88223946D01*
X154377764Y-88310521D01*
X154377767Y-88310523D01*
X154377770Y-88310526D01*
X154522407Y-88415612D01*
X154685733Y-88488329D01*
X154860609Y-88525500D01*
X154860610Y-88525500D01*
X155039389Y-88525500D01*
X155039391Y-88525500D01*
X155214267Y-88488329D01*
X155377593Y-88415612D01*
X155522230Y-88310526D01*
X155641859Y-88177665D01*
X155731250Y-88022835D01*
X155786497Y-87852803D01*
X155805185Y-87675000D01*
X155786497Y-87497197D01*
X155731250Y-87327165D01*
X155641859Y-87172335D01*
X155576728Y-87100000D01*
X167069540Y-87100000D01*
X167089326Y-87288256D01*
X167089327Y-87288259D01*
X167147818Y-87468277D01*
X167147821Y-87468284D01*
X167242467Y-87632216D01*
X167354822Y-87756998D01*
X167369129Y-87772888D01*
X167522265Y-87884148D01*
X167522270Y-87884151D01*
X167695192Y-87961142D01*
X167695197Y-87961144D01*
X167880354Y-88000500D01*
X167880355Y-88000500D01*
X168069644Y-88000500D01*
X168069646Y-88000500D01*
X168254803Y-87961144D01*
X168427730Y-87884151D01*
X168580871Y-87772888D01*
X168707533Y-87632216D01*
X168802179Y-87468284D01*
X168860674Y-87288256D01*
X168880460Y-87100000D01*
X168860674Y-86911744D01*
X168802179Y-86731716D01*
X168707533Y-86567784D01*
X168580871Y-86427112D01*
X168580870Y-86427111D01*
X168427734Y-86315851D01*
X168427729Y-86315848D01*
X168254807Y-86238857D01*
X168254802Y-86238855D01*
X168093574Y-86204586D01*
X168069646Y-86199500D01*
X167880354Y-86199500D01*
X167856426Y-86204586D01*
X167695197Y-86238855D01*
X167695192Y-86238857D01*
X167522270Y-86315848D01*
X167522265Y-86315851D01*
X167369129Y-86427111D01*
X167242466Y-86567785D01*
X167147821Y-86731715D01*
X167147818Y-86731722D01*
X167091951Y-86903664D01*
X167089326Y-86911744D01*
X167069540Y-87100000D01*
X155576728Y-87100000D01*
X155522235Y-87039478D01*
X155522232Y-87039476D01*
X155522231Y-87039475D01*
X155522230Y-87039474D01*
X155377593Y-86934388D01*
X155214267Y-86861671D01*
X155214265Y-86861670D01*
X155086594Y-86834533D01*
X155039391Y-86824500D01*
X154860609Y-86824500D01*
X154829954Y-86831015D01*
X154685733Y-86861670D01*
X154685728Y-86861672D01*
X154522408Y-86934387D01*
X154377768Y-87039475D01*
X154258140Y-87172336D01*
X154168750Y-87327164D01*
X154168747Y-87327170D01*
X154113504Y-87497192D01*
X154113503Y-87497194D01*
X154094815Y-87675000D01*
X150535703Y-87675000D01*
X150428787Y-87625145D01*
X150354330Y-87590425D01*
X150354326Y-87590424D01*
X150354322Y-87590422D01*
X150142977Y-87533793D01*
X149925002Y-87514723D01*
X149924998Y-87514723D01*
X149779682Y-87527436D01*
X149707023Y-87533793D01*
X149707020Y-87533793D01*
X149495677Y-87590422D01*
X149495668Y-87590426D01*
X149297361Y-87682898D01*
X149297357Y-87682900D01*
X149118121Y-87808402D01*
X148963402Y-87963121D01*
X148837900Y-88142357D01*
X148837898Y-88142361D01*
X148745426Y-88340668D01*
X148745422Y-88340677D01*
X148688793Y-88552020D01*
X148688793Y-88552024D01*
X148669723Y-88769997D01*
X91350500Y-88769997D01*
X91350500Y-84575000D01*
X155569815Y-84575000D01*
X155588503Y-84752805D01*
X155588504Y-84752807D01*
X155643747Y-84922829D01*
X155643750Y-84922835D01*
X155733141Y-85077665D01*
X155739601Y-85084839D01*
X155852764Y-85210521D01*
X155852767Y-85210523D01*
X155852770Y-85210526D01*
X155997407Y-85315612D01*
X156160733Y-85388329D01*
X156335609Y-85425500D01*
X156335610Y-85425500D01*
X156514389Y-85425500D01*
X156514391Y-85425500D01*
X156689267Y-85388329D01*
X156852593Y-85315612D01*
X156997230Y-85210526D01*
X157013736Y-85192195D01*
X157054255Y-85147193D01*
X157116859Y-85077665D01*
X157206250Y-84922835D01*
X157261497Y-84752803D01*
X157280185Y-84575000D01*
X157261497Y-84397197D01*
X157206250Y-84227165D01*
X157116859Y-84072335D01*
X157020958Y-83965826D01*
X156997235Y-83939478D01*
X156997232Y-83939476D01*
X156997231Y-83939475D01*
X156997230Y-83939474D01*
X156852593Y-83834388D01*
X156689267Y-83761671D01*
X156689265Y-83761670D01*
X156561594Y-83734533D01*
X156514391Y-83724500D01*
X156335609Y-83724500D01*
X156304954Y-83731015D01*
X156160733Y-83761670D01*
X156160728Y-83761672D01*
X155997408Y-83834387D01*
X155852768Y-83939475D01*
X155733140Y-84072336D01*
X155643750Y-84227164D01*
X155643747Y-84227170D01*
X155588504Y-84397192D01*
X155588503Y-84397194D01*
X155569815Y-84575000D01*
X91350500Y-84575000D01*
X91350500Y-78349999D01*
X158729364Y-78349999D01*
X158729364Y-78350000D01*
X159626988Y-78350000D01*
X159594075Y-78407007D01*
X159560000Y-78534174D01*
X159560000Y-78665826D01*
X159594075Y-78792993D01*
X159626988Y-78850000D01*
X158729364Y-78850000D01*
X158786567Y-79063486D01*
X158786570Y-79063492D01*
X158886399Y-79277578D01*
X159021894Y-79471082D01*
X159188917Y-79638105D01*
X159382421Y-79773600D01*
X159596507Y-79873429D01*
X159596516Y-79873433D01*
X159810000Y-79930634D01*
X159810000Y-79033012D01*
X159867007Y-79065925D01*
X159994174Y-79100000D01*
X160125826Y-79100000D01*
X160252993Y-79065925D01*
X160310000Y-79033012D01*
X160310000Y-79930633D01*
X160523483Y-79873433D01*
X160523492Y-79873429D01*
X160737578Y-79773600D01*
X160931082Y-79638105D01*
X161098105Y-79471082D01*
X161228119Y-79285405D01*
X161282696Y-79241781D01*
X161352195Y-79234588D01*
X161414549Y-79266110D01*
X161431269Y-79285405D01*
X161561505Y-79471401D01*
X161728599Y-79638495D01*
X161825384Y-79706265D01*
X161922165Y-79774032D01*
X161922167Y-79774033D01*
X161922170Y-79774035D01*
X162136337Y-79873903D01*
X162364592Y-79935063D01*
X162541034Y-79950500D01*
X162599999Y-79955659D01*
X162600000Y-79955659D01*
X162600001Y-79955659D01*
X162658966Y-79950500D01*
X162835408Y-79935063D01*
X163063663Y-79873903D01*
X163277830Y-79774035D01*
X163471401Y-79638495D01*
X163638495Y-79471401D01*
X163768425Y-79285842D01*
X163823002Y-79242217D01*
X163892500Y-79235023D01*
X163954855Y-79266546D01*
X163971575Y-79285842D01*
X164101281Y-79471082D01*
X164101505Y-79471401D01*
X164268599Y-79638495D01*
X164365384Y-79706265D01*
X164462165Y-79774032D01*
X164462167Y-79774033D01*
X164462170Y-79774035D01*
X164676337Y-79873903D01*
X164904592Y-79935063D01*
X165081034Y-79950500D01*
X165139999Y-79955659D01*
X165140000Y-79955659D01*
X165140001Y-79955659D01*
X165198966Y-79950500D01*
X165375408Y-79935063D01*
X165603663Y-79873903D01*
X165817830Y-79774035D01*
X166011401Y-79638495D01*
X166133329Y-79516566D01*
X166194648Y-79483084D01*
X166264340Y-79488068D01*
X166320274Y-79529939D01*
X166337189Y-79560917D01*
X166386202Y-79692328D01*
X166386206Y-79692335D01*
X166472452Y-79807544D01*
X166472455Y-79807547D01*
X166587664Y-79893793D01*
X166587671Y-79893797D01*
X166722517Y-79944091D01*
X166722516Y-79944091D01*
X166729444Y-79944835D01*
X166782127Y-79950500D01*
X168577872Y-79950499D01*
X168637483Y-79944091D01*
X168772331Y-79893796D01*
X168887546Y-79807546D01*
X168973796Y-79692331D01*
X169024091Y-79557483D01*
X169030500Y-79497873D01*
X169030499Y-77702128D01*
X169024091Y-77642517D01*
X169022810Y-77639083D01*
X168973797Y-77507671D01*
X168973793Y-77507664D01*
X168887547Y-77392455D01*
X168887544Y-77392452D01*
X168772335Y-77306206D01*
X168772328Y-77306202D01*
X168637482Y-77255908D01*
X168637483Y-77255908D01*
X168577883Y-77249501D01*
X168577881Y-77249500D01*
X168577873Y-77249500D01*
X168577864Y-77249500D01*
X166782129Y-77249500D01*
X166782123Y-77249501D01*
X166722516Y-77255908D01*
X166587671Y-77306202D01*
X166587664Y-77306206D01*
X166472455Y-77392452D01*
X166472452Y-77392455D01*
X166386206Y-77507664D01*
X166386203Y-77507669D01*
X166337189Y-77639083D01*
X166295317Y-77695016D01*
X166229853Y-77719433D01*
X166161580Y-77704581D01*
X166133326Y-77683430D01*
X166011402Y-77561506D01*
X166011395Y-77561501D01*
X165817834Y-77425967D01*
X165817830Y-77425965D01*
X165817828Y-77425964D01*
X165603663Y-77326097D01*
X165603659Y-77326096D01*
X165603655Y-77326094D01*
X165375413Y-77264938D01*
X165375403Y-77264936D01*
X165140001Y-77244341D01*
X165139999Y-77244341D01*
X164904596Y-77264936D01*
X164904586Y-77264938D01*
X164676344Y-77326094D01*
X164676335Y-77326098D01*
X164462171Y-77425964D01*
X164462169Y-77425965D01*
X164268597Y-77561505D01*
X164101505Y-77728597D01*
X163971575Y-77914158D01*
X163916998Y-77957783D01*
X163847500Y-77964977D01*
X163785145Y-77933454D01*
X163768425Y-77914158D01*
X163638494Y-77728597D01*
X163471402Y-77561506D01*
X163471395Y-77561501D01*
X163277834Y-77425967D01*
X163277830Y-77425965D01*
X163277828Y-77425964D01*
X163063663Y-77326097D01*
X163063659Y-77326096D01*
X163063655Y-77326094D01*
X162835413Y-77264938D01*
X162835403Y-77264936D01*
X162600001Y-77244341D01*
X162599999Y-77244341D01*
X162364596Y-77264936D01*
X162364586Y-77264938D01*
X162136344Y-77326094D01*
X162136335Y-77326098D01*
X161922171Y-77425964D01*
X161922169Y-77425965D01*
X161728597Y-77561505D01*
X161561508Y-77728594D01*
X161431269Y-77914595D01*
X161376692Y-77958219D01*
X161307193Y-77965412D01*
X161244839Y-77933890D01*
X161228119Y-77914594D01*
X161098113Y-77728926D01*
X161098108Y-77728920D01*
X160931082Y-77561894D01*
X160737578Y-77426399D01*
X160523492Y-77326570D01*
X160523486Y-77326567D01*
X160310000Y-77269364D01*
X160310000Y-78166988D01*
X160252993Y-78134075D01*
X160125826Y-78100000D01*
X159994174Y-78100000D01*
X159867007Y-78134075D01*
X159810000Y-78166988D01*
X159810000Y-77269364D01*
X159809999Y-77269364D01*
X159596513Y-77326567D01*
X159596507Y-77326570D01*
X159382422Y-77426399D01*
X159382420Y-77426400D01*
X159188926Y-77561886D01*
X159188920Y-77561891D01*
X159021891Y-77728920D01*
X159021886Y-77728926D01*
X158886400Y-77922420D01*
X158886399Y-77922422D01*
X158786570Y-78136507D01*
X158786567Y-78136513D01*
X158729364Y-78349999D01*
X91350500Y-78349999D01*
X91350500Y-68659999D01*
X183604341Y-68659999D01*
X183604341Y-68660000D01*
X183624936Y-68895403D01*
X183624938Y-68895413D01*
X183686094Y-69123655D01*
X183686096Y-69123659D01*
X183686097Y-69123663D01*
X183690000Y-69132032D01*
X183785965Y-69337830D01*
X183785967Y-69337834D01*
X183894281Y-69492521D01*
X183921501Y-69531396D01*
X183921506Y-69531402D01*
X184088597Y-69698493D01*
X184088603Y-69698498D01*
X184274158Y-69828425D01*
X184317783Y-69883002D01*
X184324977Y-69952500D01*
X184293454Y-70014855D01*
X184274158Y-70031575D01*
X184088597Y-70161505D01*
X183921505Y-70328597D01*
X183785965Y-70522169D01*
X183785964Y-70522171D01*
X183686098Y-70736335D01*
X183686094Y-70736344D01*
X183624938Y-70964586D01*
X183624936Y-70964596D01*
X183604341Y-71199999D01*
X183604341Y-71200000D01*
X183624936Y-71435403D01*
X183624938Y-71435413D01*
X183686094Y-71663655D01*
X183686096Y-71663659D01*
X183686097Y-71663663D01*
X183690000Y-71672032D01*
X183785965Y-71877830D01*
X183785967Y-71877834D01*
X183894281Y-72032521D01*
X183921501Y-72071396D01*
X183921506Y-72071402D01*
X184088597Y-72238493D01*
X184088603Y-72238498D01*
X184274594Y-72368730D01*
X184318219Y-72423307D01*
X184325413Y-72492805D01*
X184293890Y-72555160D01*
X184274595Y-72571880D01*
X184088922Y-72701890D01*
X184088920Y-72701891D01*
X183921891Y-72868920D01*
X183921886Y-72868926D01*
X183786400Y-73062420D01*
X183786399Y-73062422D01*
X183686570Y-73276507D01*
X183686567Y-73276513D01*
X183629364Y-73489999D01*
X183629364Y-73490000D01*
X184526988Y-73490000D01*
X184494075Y-73547007D01*
X184460000Y-73674174D01*
X184460000Y-73805826D01*
X184494075Y-73932993D01*
X184526988Y-73990000D01*
X183629364Y-73990000D01*
X183686567Y-74203486D01*
X183686570Y-74203492D01*
X183786399Y-74417578D01*
X183921894Y-74611082D01*
X184088917Y-74778105D01*
X184274595Y-74908119D01*
X184318219Y-74962696D01*
X184325412Y-75032195D01*
X184293890Y-75094549D01*
X184274595Y-75111269D01*
X184088594Y-75241508D01*
X183921505Y-75408597D01*
X183785965Y-75602169D01*
X183785964Y-75602171D01*
X183686098Y-75816335D01*
X183686094Y-75816344D01*
X183624938Y-76044586D01*
X183624936Y-76044596D01*
X183604341Y-76279999D01*
X183604341Y-76280000D01*
X183624936Y-76515403D01*
X183624938Y-76515413D01*
X183686094Y-76743655D01*
X183686096Y-76743659D01*
X183686097Y-76743663D01*
X183690000Y-76752032D01*
X183785965Y-76957830D01*
X183785967Y-76957834D01*
X183894281Y-77112521D01*
X183921501Y-77151396D01*
X183921506Y-77151402D01*
X184088597Y-77318493D01*
X184088603Y-77318498D01*
X184274158Y-77448425D01*
X184317783Y-77503002D01*
X184324977Y-77572500D01*
X184293454Y-77634855D01*
X184274158Y-77651575D01*
X184088597Y-77781505D01*
X183921505Y-77948597D01*
X183785965Y-78142169D01*
X183785964Y-78142171D01*
X183715635Y-78292993D01*
X183689053Y-78349999D01*
X183686098Y-78356335D01*
X183686094Y-78356344D01*
X183624938Y-78584586D01*
X183624936Y-78584596D01*
X183604341Y-78819999D01*
X183604341Y-78820000D01*
X183624936Y-79055403D01*
X183624938Y-79055413D01*
X183686094Y-79283655D01*
X183686096Y-79283659D01*
X183686097Y-79283663D01*
X183773641Y-79471401D01*
X183785965Y-79497830D01*
X183785967Y-79497834D01*
X183830139Y-79560917D01*
X183921501Y-79691396D01*
X183921506Y-79691402D01*
X184088597Y-79858493D01*
X184088603Y-79858498D01*
X184274158Y-79988425D01*
X184317783Y-80043002D01*
X184324977Y-80112500D01*
X184293454Y-80174855D01*
X184274158Y-80191575D01*
X184088597Y-80321505D01*
X183921505Y-80488597D01*
X183785965Y-80682169D01*
X183785964Y-80682171D01*
X183686098Y-80896335D01*
X183686094Y-80896344D01*
X183624938Y-81124586D01*
X183624936Y-81124596D01*
X183604341Y-81359999D01*
X183604341Y-81360000D01*
X183624936Y-81595403D01*
X183624938Y-81595413D01*
X183686094Y-81823655D01*
X183686096Y-81823659D01*
X183686097Y-81823663D01*
X183690000Y-81832032D01*
X183785965Y-82037830D01*
X183785967Y-82037834D01*
X183894281Y-82192521D01*
X183921501Y-82231396D01*
X183921506Y-82231402D01*
X184088597Y-82398493D01*
X184088603Y-82398498D01*
X184274594Y-82528730D01*
X184318219Y-82583307D01*
X184325413Y-82652805D01*
X184293890Y-82715160D01*
X184274595Y-82731880D01*
X184088922Y-82861890D01*
X184088920Y-82861891D01*
X183921891Y-83028920D01*
X183921886Y-83028926D01*
X183786400Y-83222420D01*
X183786399Y-83222422D01*
X183686570Y-83436507D01*
X183686567Y-83436513D01*
X183629364Y-83649999D01*
X183629364Y-83650000D01*
X184526988Y-83650000D01*
X184494075Y-83707007D01*
X184460000Y-83834174D01*
X184460000Y-83965826D01*
X184494075Y-84092993D01*
X184526988Y-84150000D01*
X183629364Y-84150000D01*
X183686567Y-84363486D01*
X183686570Y-84363492D01*
X183786399Y-84577578D01*
X183921894Y-84771082D01*
X184088917Y-84938105D01*
X184274595Y-85068119D01*
X184318219Y-85122696D01*
X184325412Y-85192195D01*
X184293890Y-85254549D01*
X184274595Y-85271269D01*
X184088594Y-85401508D01*
X183921505Y-85568597D01*
X183785965Y-85762169D01*
X183785964Y-85762171D01*
X183686098Y-85976335D01*
X183686094Y-85976344D01*
X183624938Y-86204586D01*
X183624936Y-86204596D01*
X183604341Y-86439999D01*
X183604341Y-86440000D01*
X183624936Y-86675403D01*
X183624938Y-86675413D01*
X183686094Y-86903655D01*
X183686096Y-86903659D01*
X183686097Y-86903663D01*
X183749428Y-87039476D01*
X183785965Y-87117830D01*
X183785967Y-87117834D01*
X183894281Y-87272521D01*
X183921501Y-87311396D01*
X183921506Y-87311402D01*
X184088597Y-87478493D01*
X184088603Y-87478498D01*
X184274158Y-87608425D01*
X184317783Y-87663002D01*
X184324977Y-87732500D01*
X184293454Y-87794855D01*
X184274158Y-87811575D01*
X184088597Y-87941505D01*
X183921505Y-88108597D01*
X183785965Y-88302169D01*
X183785964Y-88302171D01*
X183686098Y-88516335D01*
X183686094Y-88516344D01*
X183624938Y-88744586D01*
X183624936Y-88744596D01*
X183604341Y-88979999D01*
X183604341Y-88980000D01*
X183624936Y-89215403D01*
X183624938Y-89215413D01*
X183686094Y-89443655D01*
X183686096Y-89443659D01*
X183686097Y-89443663D01*
X183690000Y-89452032D01*
X183785965Y-89657830D01*
X183785967Y-89657834D01*
X183837614Y-89731593D01*
X183921501Y-89851396D01*
X183921506Y-89851402D01*
X184088597Y-90018493D01*
X184088603Y-90018498D01*
X184274158Y-90148425D01*
X184317783Y-90203002D01*
X184324977Y-90272500D01*
X184293454Y-90334855D01*
X184274158Y-90351575D01*
X184088597Y-90481505D01*
X183921505Y-90648597D01*
X183785965Y-90842169D01*
X183785964Y-90842171D01*
X183686098Y-91056335D01*
X183686094Y-91056344D01*
X183624938Y-91284586D01*
X183624936Y-91284596D01*
X183604341Y-91519999D01*
X183604341Y-91520000D01*
X183624936Y-91755403D01*
X183624938Y-91755413D01*
X183686094Y-91983655D01*
X183686096Y-91983659D01*
X183686097Y-91983663D01*
X183766004Y-92155023D01*
X183785965Y-92197830D01*
X183785967Y-92197834D01*
X183876976Y-92327807D01*
X183921501Y-92391396D01*
X183921506Y-92391402D01*
X184088597Y-92558493D01*
X184088603Y-92558498D01*
X184274158Y-92688425D01*
X184317783Y-92743002D01*
X184324977Y-92812500D01*
X184293454Y-92874855D01*
X184274158Y-92891575D01*
X184088597Y-93021505D01*
X183921505Y-93188597D01*
X183785965Y-93382169D01*
X183785964Y-93382171D01*
X183686098Y-93596335D01*
X183686094Y-93596344D01*
X183624938Y-93824586D01*
X183624936Y-93824596D01*
X183604341Y-94059999D01*
X183604341Y-94060000D01*
X183624936Y-94295403D01*
X183624938Y-94295413D01*
X183686094Y-94523655D01*
X183686096Y-94523659D01*
X183686097Y-94523663D01*
X183727100Y-94611593D01*
X183785965Y-94737830D01*
X183785967Y-94737834D01*
X183859455Y-94842785D01*
X183921501Y-94931396D01*
X183921506Y-94931402D01*
X184088597Y-95098493D01*
X184088603Y-95098498D01*
X184274594Y-95228730D01*
X184318219Y-95283307D01*
X184325413Y-95352805D01*
X184293890Y-95415160D01*
X184274595Y-95431880D01*
X184088922Y-95561890D01*
X184088920Y-95561891D01*
X183921891Y-95728920D01*
X183921886Y-95728926D01*
X183786400Y-95922420D01*
X183786399Y-95922422D01*
X183686570Y-96136507D01*
X183686567Y-96136513D01*
X183629364Y-96349999D01*
X183629364Y-96350000D01*
X184526988Y-96350000D01*
X184494075Y-96407007D01*
X184460000Y-96534174D01*
X184460000Y-96665826D01*
X184494075Y-96792993D01*
X184526988Y-96850000D01*
X183629364Y-96850000D01*
X183686567Y-97063486D01*
X183686570Y-97063492D01*
X183786399Y-97277578D01*
X183921894Y-97471082D01*
X184088917Y-97638105D01*
X184274595Y-97768119D01*
X184318219Y-97822696D01*
X184325412Y-97892195D01*
X184293890Y-97954549D01*
X184274595Y-97971269D01*
X184088594Y-98101508D01*
X183921505Y-98268597D01*
X183785965Y-98462169D01*
X183785964Y-98462171D01*
X183686098Y-98676335D01*
X183686094Y-98676344D01*
X183624938Y-98904586D01*
X183624936Y-98904596D01*
X183604341Y-99139999D01*
X183604341Y-99140000D01*
X183624936Y-99375403D01*
X183624938Y-99375413D01*
X183686094Y-99603655D01*
X183686096Y-99603659D01*
X183686097Y-99603663D01*
X183704573Y-99643284D01*
X183785965Y-99817830D01*
X183785967Y-99817834D01*
X183877033Y-99947888D01*
X183921501Y-100011396D01*
X183921506Y-100011402D01*
X184088597Y-100178493D01*
X184088603Y-100178498D01*
X184274158Y-100308425D01*
X184317783Y-100363002D01*
X184324977Y-100432500D01*
X184293454Y-100494855D01*
X184274158Y-100511575D01*
X184088597Y-100641505D01*
X183921505Y-100808597D01*
X183785965Y-101002169D01*
X183785964Y-101002171D01*
X183686098Y-101216335D01*
X183686094Y-101216344D01*
X183624938Y-101444586D01*
X183624936Y-101444596D01*
X183604341Y-101679999D01*
X183604341Y-101680000D01*
X183624936Y-101915403D01*
X183624938Y-101915413D01*
X183686094Y-102143655D01*
X183686096Y-102143659D01*
X183686097Y-102143663D01*
X183690000Y-102152032D01*
X183785965Y-102357830D01*
X183785967Y-102357834D01*
X183894281Y-102512521D01*
X183921501Y-102551396D01*
X183921506Y-102551402D01*
X184088597Y-102718493D01*
X184088603Y-102718498D01*
X184274158Y-102848425D01*
X184317783Y-102903002D01*
X184324977Y-102972500D01*
X184293454Y-103034855D01*
X184274158Y-103051575D01*
X184088597Y-103181505D01*
X183921505Y-103348597D01*
X183785965Y-103542169D01*
X183785964Y-103542171D01*
X183686098Y-103756335D01*
X183686094Y-103756344D01*
X183624938Y-103984586D01*
X183624936Y-103984596D01*
X183604341Y-104219999D01*
X183604341Y-104220000D01*
X183624936Y-104455403D01*
X183624938Y-104455413D01*
X183686094Y-104683655D01*
X183686096Y-104683659D01*
X183686097Y-104683663D01*
X183690000Y-104692032D01*
X183785965Y-104897830D01*
X183785967Y-104897834D01*
X183894281Y-105052521D01*
X183921501Y-105091396D01*
X183921506Y-105091402D01*
X184088597Y-105258493D01*
X184088603Y-105258498D01*
X184274594Y-105388730D01*
X184318219Y-105443307D01*
X184325413Y-105512805D01*
X184293890Y-105575160D01*
X184274595Y-105591880D01*
X184088922Y-105721890D01*
X184088920Y-105721891D01*
X183921891Y-105888920D01*
X183921886Y-105888926D01*
X183786400Y-106082420D01*
X183786399Y-106082422D01*
X183686570Y-106296507D01*
X183686567Y-106296513D01*
X183629364Y-106509999D01*
X183629364Y-106510000D01*
X184526988Y-106510000D01*
X184494075Y-106567007D01*
X184460000Y-106694174D01*
X184460000Y-106825826D01*
X184494075Y-106952993D01*
X184526988Y-107010000D01*
X183629364Y-107010000D01*
X183686567Y-107223486D01*
X183686570Y-107223492D01*
X183786399Y-107437578D01*
X183921894Y-107631082D01*
X184088917Y-107798105D01*
X184274595Y-107928119D01*
X184318219Y-107982696D01*
X184325412Y-108052195D01*
X184293890Y-108114549D01*
X184274595Y-108131269D01*
X184088594Y-108261508D01*
X183921505Y-108428597D01*
X183785965Y-108622169D01*
X183785964Y-108622171D01*
X183686098Y-108836335D01*
X183686094Y-108836344D01*
X183624938Y-109064586D01*
X183624936Y-109064596D01*
X183604341Y-109299999D01*
X183604341Y-109300000D01*
X183624936Y-109535403D01*
X183624938Y-109535413D01*
X183686094Y-109763655D01*
X183686096Y-109763659D01*
X183686097Y-109763663D01*
X183690000Y-109772032D01*
X183785965Y-109977830D01*
X183785967Y-109977834D01*
X183894281Y-110132521D01*
X183921501Y-110171396D01*
X183921506Y-110171402D01*
X184088597Y-110338493D01*
X184088603Y-110338498D01*
X184274158Y-110468425D01*
X184317783Y-110523002D01*
X184324977Y-110592500D01*
X184293454Y-110654855D01*
X184274158Y-110671575D01*
X184088597Y-110801505D01*
X183921505Y-110968597D01*
X183785965Y-111162169D01*
X183785964Y-111162171D01*
X183686098Y-111376335D01*
X183686094Y-111376344D01*
X183624938Y-111604586D01*
X183624936Y-111604596D01*
X183604341Y-111839999D01*
X183604341Y-111840000D01*
X183624936Y-112075403D01*
X183624938Y-112075413D01*
X183686094Y-112303655D01*
X183686096Y-112303659D01*
X183686097Y-112303663D01*
X183690000Y-112312032D01*
X183785965Y-112517830D01*
X183785967Y-112517834D01*
X183894281Y-112672521D01*
X183921501Y-112711396D01*
X183921506Y-112711402D01*
X184088597Y-112878493D01*
X184088603Y-112878498D01*
X184274158Y-113008425D01*
X184317783Y-113063002D01*
X184324977Y-113132500D01*
X184293454Y-113194855D01*
X184274158Y-113211575D01*
X184088597Y-113341505D01*
X183921505Y-113508597D01*
X183785965Y-113702169D01*
X183785964Y-113702171D01*
X183686098Y-113916335D01*
X183686094Y-113916344D01*
X183624938Y-114144586D01*
X183624936Y-114144596D01*
X183604341Y-114379999D01*
X183604341Y-114380000D01*
X183624936Y-114615403D01*
X183624938Y-114615413D01*
X183686094Y-114843655D01*
X183686096Y-114843659D01*
X183686097Y-114843663D01*
X183690000Y-114852032D01*
X183785965Y-115057830D01*
X183785967Y-115057834D01*
X183873060Y-115182214D01*
X183921505Y-115251401D01*
X184088599Y-115418495D01*
X184185384Y-115486265D01*
X184282165Y-115554032D01*
X184282167Y-115554033D01*
X184282170Y-115554035D01*
X184496337Y-115653903D01*
X184724592Y-115715063D01*
X184912918Y-115731539D01*
X184959999Y-115735659D01*
X184960000Y-115735659D01*
X184960001Y-115735659D01*
X184999234Y-115732226D01*
X185195408Y-115715063D01*
X185423663Y-115653903D01*
X185637830Y-115554035D01*
X185831401Y-115418495D01*
X185998495Y-115251401D01*
X186128425Y-115065842D01*
X186183002Y-115022217D01*
X186252500Y-115015023D01*
X186314855Y-115046546D01*
X186331575Y-115065842D01*
X186461500Y-115251395D01*
X186461505Y-115251401D01*
X186628599Y-115418495D01*
X186725384Y-115486265D01*
X186822165Y-115554032D01*
X186822167Y-115554033D01*
X186822170Y-115554035D01*
X187036337Y-115653903D01*
X187264592Y-115715063D01*
X187452918Y-115731539D01*
X187499999Y-115735659D01*
X187500000Y-115735659D01*
X187500001Y-115735659D01*
X187539234Y-115732226D01*
X187735408Y-115715063D01*
X187963663Y-115653903D01*
X188177830Y-115554035D01*
X188371401Y-115418495D01*
X188538495Y-115251401D01*
X188674035Y-115057830D01*
X188773903Y-114843663D01*
X188835063Y-114615408D01*
X188855659Y-114380000D01*
X188835063Y-114144592D01*
X188773903Y-113916337D01*
X188674035Y-113702171D01*
X188668425Y-113694158D01*
X188538494Y-113508597D01*
X188371402Y-113341506D01*
X188371396Y-113341501D01*
X188185842Y-113211575D01*
X188142217Y-113156998D01*
X188135023Y-113087500D01*
X188166546Y-113025145D01*
X188185842Y-113008425D01*
X188208026Y-112992891D01*
X188371401Y-112878495D01*
X188538495Y-112711401D01*
X188674035Y-112517830D01*
X188773903Y-112303663D01*
X188835063Y-112075408D01*
X188855659Y-111840000D01*
X188835063Y-111604592D01*
X188773903Y-111376337D01*
X188674035Y-111162171D01*
X188668425Y-111154158D01*
X188538494Y-110968597D01*
X188371402Y-110801506D01*
X188371396Y-110801501D01*
X188185842Y-110671575D01*
X188142217Y-110616998D01*
X188135023Y-110547500D01*
X188166546Y-110485145D01*
X188185842Y-110468425D01*
X188208026Y-110452891D01*
X188371401Y-110338495D01*
X188538495Y-110171401D01*
X188674035Y-109977830D01*
X188773903Y-109763663D01*
X188835063Y-109535408D01*
X188855659Y-109300000D01*
X188835063Y-109064592D01*
X188773903Y-108836337D01*
X188674035Y-108622171D01*
X188668425Y-108614158D01*
X188538494Y-108428597D01*
X188371402Y-108261506D01*
X188371401Y-108261505D01*
X188185405Y-108131269D01*
X188141781Y-108076692D01*
X188134588Y-108007193D01*
X188166110Y-107944839D01*
X188185405Y-107928119D01*
X188371082Y-107798105D01*
X188538105Y-107631082D01*
X188673600Y-107437578D01*
X188773429Y-107223492D01*
X188773432Y-107223486D01*
X188830636Y-107010000D01*
X187933012Y-107010000D01*
X187965925Y-106952993D01*
X188000000Y-106825826D01*
X188000000Y-106694174D01*
X187965925Y-106567007D01*
X187933012Y-106510000D01*
X188830636Y-106510000D01*
X188830635Y-106509999D01*
X188773432Y-106296513D01*
X188773429Y-106296507D01*
X188673600Y-106082422D01*
X188673599Y-106082420D01*
X188538113Y-105888926D01*
X188538108Y-105888920D01*
X188371078Y-105721890D01*
X188185405Y-105591879D01*
X188141780Y-105537302D01*
X188134588Y-105467804D01*
X188166110Y-105405449D01*
X188185406Y-105388730D01*
X188371401Y-105258495D01*
X188538495Y-105091401D01*
X188674035Y-104897830D01*
X188773903Y-104683663D01*
X188835063Y-104455408D01*
X188855659Y-104220000D01*
X188835063Y-103984592D01*
X188773903Y-103756337D01*
X188674035Y-103542171D01*
X188668425Y-103534158D01*
X188538494Y-103348597D01*
X188371402Y-103181506D01*
X188371396Y-103181501D01*
X188185842Y-103051575D01*
X188142217Y-102996998D01*
X188135023Y-102927500D01*
X188166546Y-102865145D01*
X188185842Y-102848425D01*
X188208026Y-102832891D01*
X188371401Y-102718495D01*
X188538495Y-102551401D01*
X188674035Y-102357830D01*
X188773903Y-102143663D01*
X188835063Y-101915408D01*
X188855659Y-101680000D01*
X188835063Y-101444592D01*
X188773903Y-101216337D01*
X188674035Y-101002171D01*
X188668425Y-100994158D01*
X188538494Y-100808597D01*
X188371402Y-100641506D01*
X188371396Y-100641501D01*
X188185842Y-100511575D01*
X188142217Y-100456998D01*
X188135023Y-100387500D01*
X188166546Y-100325145D01*
X188185842Y-100308425D01*
X188208026Y-100292891D01*
X188371401Y-100178495D01*
X188538495Y-100011401D01*
X188674035Y-99817830D01*
X188773903Y-99603663D01*
X188835063Y-99375408D01*
X188855659Y-99140000D01*
X188835063Y-98904592D01*
X188773903Y-98676337D01*
X188674035Y-98462171D01*
X188668425Y-98454158D01*
X188538494Y-98268597D01*
X188371402Y-98101506D01*
X188371401Y-98101505D01*
X188185405Y-97971269D01*
X188141781Y-97916692D01*
X188134588Y-97847193D01*
X188166110Y-97784839D01*
X188185405Y-97768119D01*
X188371082Y-97638105D01*
X188538105Y-97471082D01*
X188673600Y-97277578D01*
X188773429Y-97063492D01*
X188773432Y-97063486D01*
X188830636Y-96850000D01*
X187933012Y-96850000D01*
X187965925Y-96792993D01*
X188000000Y-96665826D01*
X188000000Y-96534174D01*
X187965925Y-96407007D01*
X187933012Y-96350000D01*
X188830636Y-96350000D01*
X188830635Y-96349999D01*
X188773432Y-96136513D01*
X188773429Y-96136507D01*
X188673600Y-95922422D01*
X188673599Y-95922420D01*
X188538113Y-95728926D01*
X188538108Y-95728920D01*
X188371078Y-95561890D01*
X188185405Y-95431879D01*
X188141780Y-95377302D01*
X188134588Y-95307804D01*
X188166110Y-95245449D01*
X188185406Y-95228730D01*
X188245374Y-95186740D01*
X188371401Y-95098495D01*
X188538495Y-94931401D01*
X188674035Y-94737830D01*
X188773903Y-94523663D01*
X188835063Y-94295408D01*
X188855659Y-94060000D01*
X188835063Y-93824592D01*
X188773903Y-93596337D01*
X188674035Y-93382171D01*
X188668425Y-93374158D01*
X188538494Y-93188597D01*
X188371402Y-93021506D01*
X188371396Y-93021501D01*
X188185842Y-92891575D01*
X188142217Y-92836998D01*
X188135023Y-92767500D01*
X188166546Y-92705145D01*
X188185842Y-92688425D01*
X188236915Y-92652663D01*
X188371401Y-92558495D01*
X188538495Y-92391401D01*
X188674035Y-92197830D01*
X188773903Y-91983663D01*
X188835063Y-91755408D01*
X188855659Y-91520000D01*
X188835063Y-91284592D01*
X188773903Y-91056337D01*
X188674035Y-90842171D01*
X188668425Y-90834158D01*
X188538494Y-90648597D01*
X188371402Y-90481506D01*
X188371396Y-90481501D01*
X188185842Y-90351575D01*
X188142217Y-90296998D01*
X188135023Y-90227500D01*
X188166546Y-90165145D01*
X188185842Y-90148425D01*
X188361715Y-90025277D01*
X188371401Y-90018495D01*
X188538495Y-89851401D01*
X188674035Y-89657830D01*
X188773903Y-89443663D01*
X188835063Y-89215408D01*
X188855659Y-88980000D01*
X188835063Y-88744592D01*
X188773903Y-88516337D01*
X188674035Y-88302171D01*
X188668425Y-88294158D01*
X188538494Y-88108597D01*
X188371402Y-87941506D01*
X188371396Y-87941501D01*
X188185842Y-87811575D01*
X188142217Y-87756998D01*
X188135023Y-87687500D01*
X188166546Y-87625145D01*
X188185842Y-87608425D01*
X188319662Y-87514723D01*
X188371401Y-87478495D01*
X188538495Y-87311401D01*
X188674035Y-87117830D01*
X188773903Y-86903663D01*
X188835063Y-86675408D01*
X188855659Y-86440000D01*
X188835063Y-86204592D01*
X188773903Y-85976337D01*
X188674035Y-85762171D01*
X188668425Y-85754158D01*
X188538494Y-85568597D01*
X188371402Y-85401506D01*
X188371401Y-85401505D01*
X188185405Y-85271269D01*
X188141781Y-85216692D01*
X188134588Y-85147193D01*
X188166110Y-85084839D01*
X188185405Y-85068119D01*
X188371082Y-84938105D01*
X188538105Y-84771082D01*
X188673600Y-84577578D01*
X188773429Y-84363492D01*
X188773432Y-84363486D01*
X188830636Y-84150000D01*
X187933012Y-84150000D01*
X187965925Y-84092993D01*
X188000000Y-83965826D01*
X188000000Y-83834174D01*
X187965925Y-83707007D01*
X187933012Y-83650000D01*
X188830636Y-83650000D01*
X188830635Y-83649999D01*
X188773432Y-83436513D01*
X188773429Y-83436507D01*
X188673600Y-83222422D01*
X188673599Y-83222420D01*
X188538113Y-83028926D01*
X188538108Y-83028920D01*
X188371078Y-82861890D01*
X188185405Y-82731879D01*
X188141780Y-82677302D01*
X188134588Y-82607804D01*
X188166110Y-82545449D01*
X188185406Y-82528730D01*
X188371401Y-82398495D01*
X188538495Y-82231401D01*
X188674035Y-82037830D01*
X188773903Y-81823663D01*
X188835063Y-81595408D01*
X188855659Y-81360000D01*
X188835063Y-81124592D01*
X188773903Y-80896337D01*
X188674035Y-80682171D01*
X188668425Y-80674158D01*
X188538494Y-80488597D01*
X188371402Y-80321506D01*
X188371396Y-80321501D01*
X188185842Y-80191575D01*
X188142217Y-80136998D01*
X188135023Y-80067500D01*
X188166546Y-80005145D01*
X188185842Y-79988425D01*
X188208026Y-79972891D01*
X188371401Y-79858495D01*
X188538495Y-79691401D01*
X188674035Y-79497830D01*
X188773903Y-79283663D01*
X188835063Y-79055408D01*
X188855659Y-78820000D01*
X188835063Y-78584592D01*
X188773903Y-78356337D01*
X188674035Y-78142171D01*
X188670074Y-78136513D01*
X188538494Y-77948597D01*
X188371402Y-77781506D01*
X188371396Y-77781501D01*
X188185842Y-77651575D01*
X188142217Y-77596998D01*
X188135023Y-77527500D01*
X188166546Y-77465145D01*
X188185842Y-77448425D01*
X188217918Y-77425965D01*
X188371401Y-77318495D01*
X188538495Y-77151401D01*
X188674035Y-76957830D01*
X188773903Y-76743663D01*
X188835063Y-76515408D01*
X188855659Y-76280000D01*
X188835063Y-76044592D01*
X188773903Y-75816337D01*
X188674035Y-75602171D01*
X188668425Y-75594158D01*
X188538494Y-75408597D01*
X188371402Y-75241506D01*
X188371401Y-75241505D01*
X188185405Y-75111269D01*
X188141781Y-75056692D01*
X188134588Y-74987193D01*
X188166110Y-74924839D01*
X188185405Y-74908119D01*
X188371082Y-74778105D01*
X188538105Y-74611082D01*
X188673600Y-74417578D01*
X188773429Y-74203492D01*
X188773432Y-74203486D01*
X188830636Y-73990000D01*
X187933012Y-73990000D01*
X187965925Y-73932993D01*
X188000000Y-73805826D01*
X188000000Y-73674174D01*
X187965925Y-73547007D01*
X187933012Y-73490000D01*
X188830636Y-73490000D01*
X188830635Y-73489999D01*
X188773432Y-73276513D01*
X188773429Y-73276507D01*
X188673600Y-73062422D01*
X188673599Y-73062420D01*
X188538113Y-72868926D01*
X188538108Y-72868920D01*
X188371078Y-72701890D01*
X188185405Y-72571879D01*
X188141780Y-72517302D01*
X188134588Y-72447804D01*
X188166110Y-72385449D01*
X188185406Y-72368730D01*
X188371401Y-72238495D01*
X188538495Y-72071401D01*
X188674035Y-71877830D01*
X188773903Y-71663663D01*
X188835063Y-71435408D01*
X188855659Y-71200000D01*
X188835063Y-70964592D01*
X188773903Y-70736337D01*
X188674035Y-70522171D01*
X188668425Y-70514158D01*
X188538494Y-70328597D01*
X188371402Y-70161506D01*
X188371396Y-70161501D01*
X188185842Y-70031575D01*
X188142217Y-69976998D01*
X188135023Y-69907500D01*
X188166546Y-69845145D01*
X188185842Y-69828425D01*
X188208026Y-69812891D01*
X188371401Y-69698495D01*
X188538495Y-69531401D01*
X188674035Y-69337830D01*
X188773903Y-69123663D01*
X188835063Y-68895408D01*
X188855659Y-68660000D01*
X188835063Y-68424592D01*
X188773903Y-68196337D01*
X188674035Y-67982171D01*
X188668425Y-67974158D01*
X188538494Y-67788597D01*
X188371402Y-67621506D01*
X188371396Y-67621501D01*
X188185842Y-67491575D01*
X188142217Y-67436998D01*
X188135023Y-67367500D01*
X188166546Y-67305145D01*
X188185842Y-67288425D01*
X188208026Y-67272891D01*
X188371401Y-67158495D01*
X188538495Y-66991401D01*
X188674035Y-66797830D01*
X188773903Y-66583663D01*
X188835063Y-66355408D01*
X188855659Y-66120000D01*
X188835063Y-65884592D01*
X188773903Y-65656337D01*
X188674035Y-65442171D01*
X188538495Y-65248599D01*
X188538494Y-65248597D01*
X188371402Y-65081506D01*
X188371395Y-65081501D01*
X188177834Y-64945967D01*
X188177830Y-64945965D01*
X188177828Y-64945964D01*
X187963663Y-64846097D01*
X187963659Y-64846096D01*
X187963655Y-64846094D01*
X187735413Y-64784938D01*
X187735403Y-64784936D01*
X187500001Y-64764341D01*
X187499999Y-64764341D01*
X187264596Y-64784936D01*
X187264586Y-64784938D01*
X187036344Y-64846094D01*
X187036335Y-64846098D01*
X186822171Y-64945964D01*
X186822169Y-64945965D01*
X186628600Y-65081503D01*
X186506673Y-65203430D01*
X186445350Y-65236914D01*
X186375658Y-65231930D01*
X186319725Y-65190058D01*
X186302810Y-65159081D01*
X186253797Y-65027671D01*
X186253793Y-65027664D01*
X186167547Y-64912455D01*
X186167544Y-64912452D01*
X186052335Y-64826206D01*
X186052328Y-64826202D01*
X185917482Y-64775908D01*
X185917483Y-64775908D01*
X185857883Y-64769501D01*
X185857881Y-64769500D01*
X185857873Y-64769500D01*
X185857864Y-64769500D01*
X184062129Y-64769500D01*
X184062123Y-64769501D01*
X184002516Y-64775908D01*
X183867671Y-64826202D01*
X183867664Y-64826206D01*
X183752455Y-64912452D01*
X183752452Y-64912455D01*
X183666206Y-65027664D01*
X183666202Y-65027671D01*
X183615908Y-65162517D01*
X183609501Y-65222116D01*
X183609500Y-65222135D01*
X183609500Y-67017870D01*
X183609501Y-67017876D01*
X183615908Y-67077483D01*
X183666202Y-67212328D01*
X183666206Y-67212335D01*
X183752452Y-67327544D01*
X183752455Y-67327547D01*
X183867664Y-67413793D01*
X183867671Y-67413797D01*
X183999081Y-67462810D01*
X184055015Y-67504681D01*
X184079432Y-67570145D01*
X184064580Y-67638418D01*
X184043430Y-67666673D01*
X183921503Y-67788600D01*
X183785965Y-67982169D01*
X183785964Y-67982171D01*
X183686098Y-68196335D01*
X183686094Y-68196344D01*
X183624938Y-68424586D01*
X183624936Y-68424596D01*
X183604341Y-68659999D01*
X91350500Y-68659999D01*
X91350500Y-57769733D01*
X91370185Y-57702694D01*
X91422989Y-57656939D01*
X91492147Y-57646995D01*
X91555703Y-57676020D01*
X91588520Y-57720995D01*
X91640164Y-57841822D01*
X91853000Y-58237338D01*
X91853004Y-58237344D01*
X91853004Y-58237345D01*
X92100428Y-58612177D01*
X92100429Y-58612178D01*
X92100433Y-58612183D01*
X92380471Y-58963339D01*
X92690858Y-59287979D01*
X92690865Y-59287985D01*
X92690868Y-59287988D01*
X93029080Y-59583475D01*
X93029089Y-59583482D01*
X93029097Y-59583489D01*
X93029107Y-59583496D01*
X93029108Y-59583497D01*
X93392458Y-59847487D01*
X93778033Y-60077857D01*
X93778039Y-60077860D01*
X94182688Y-60272729D01*
X94182702Y-60272735D01*
X94603189Y-60430546D01*
X94603193Y-60430547D01*
X94603203Y-60430551D01*
X95036163Y-60550041D01*
X95478090Y-60630239D01*
X95925427Y-60670500D01*
X95925434Y-60670500D01*
X96374566Y-60670500D01*
X96374573Y-60670500D01*
X96821910Y-60630239D01*
X97263837Y-60550041D01*
X97696797Y-60430551D01*
X98117303Y-60272733D01*
X98521969Y-60077856D01*
X98907537Y-59847490D01*
X99270903Y-59583489D01*
X99609142Y-59287979D01*
X99919529Y-58963339D01*
X100199567Y-58612183D01*
X100447000Y-58237338D01*
X100659836Y-57841822D01*
X100836361Y-57428821D01*
X100975155Y-57001658D01*
X101075099Y-56563774D01*
X101135389Y-56118693D01*
X101155540Y-55670000D01*
X101135389Y-55221307D01*
X101075099Y-54776226D01*
X100975155Y-54338342D01*
X100836361Y-53911179D01*
X100659836Y-53498178D01*
X100447000Y-53102662D01*
X100446995Y-53102654D01*
X100199571Y-52727822D01*
X100199570Y-52727821D01*
X99919534Y-52376667D01*
X99919532Y-52376665D01*
X99919529Y-52376661D01*
X99609142Y-52052021D01*
X99609131Y-52052011D01*
X99270919Y-51756524D01*
X99270907Y-51756515D01*
X99270903Y-51756511D01*
X99270891Y-51756502D01*
X98907541Y-51492512D01*
X98521966Y-51262142D01*
X98521960Y-51262139D01*
X98198190Y-51106220D01*
X98146331Y-51059398D01*
X98128018Y-50991971D01*
X98149066Y-50925347D01*
X98202792Y-50880678D01*
X98251992Y-50870500D01*
X184048008Y-50870500D01*
X184115047Y-50890185D01*
G37*
%TD.AperFunction*%
%TD*%
M02*
