%TF.GenerationSoftware,KiCad,Pcbnew,8.0.5*%
%TF.CreationDate,2025-03-12T16:07:22-07:00*%
%TF.ProjectId,Mechatronics LED,4d656368-6174-4726-9f6e-696373204c45,rev?*%
%TF.SameCoordinates,Original*%
%TF.FileFunction,Copper,L4,Bot*%
%TF.FilePolarity,Positive*%
%FSLAX46Y46*%
G04 Gerber Fmt 4.6, Leading zero omitted, Abs format (unit mm)*
G04 Created by KiCad (PCBNEW 8.0.5) date 2025-03-12 16:07:22*
%MOMM*%
%LPD*%
G01*
G04 APERTURE LIST*
%TA.AperFunction,ComponentPad*%
%ADD10C,9.000000*%
%TD*%
%TA.AperFunction,ComponentPad*%
%ADD11R,1.700000X1.700000*%
%TD*%
%TA.AperFunction,ComponentPad*%
%ADD12O,1.700000X1.700000*%
%TD*%
%TA.AperFunction,ComponentPad*%
%ADD13C,1.500000*%
%TD*%
%TA.AperFunction,ViaPad*%
%ADD14C,0.800000*%
%TD*%
%TA.AperFunction,ViaPad*%
%ADD15C,0.700000*%
%TD*%
%TA.AperFunction,Conductor*%
%ADD16C,0.500000*%
%TD*%
G04 APERTURE END LIST*
D10*
%TO.P,REF\u002A\u002A,1*%
%TO.N,N/C*%
X186150000Y-123670000D03*
%TD*%
%TO.P,REF\u002A\u002A,1*%
%TO.N,N/C*%
X96150000Y-55670000D03*
%TD*%
D11*
%TO.P,J1,1,VBATSW*%
%TO.N,VBATSW*%
X184960000Y-66120000D03*
D12*
%TO.P,J1,2,VBATSW*%
X187500000Y-66120000D03*
%TO.P,J1,3,VBATSW*%
X184960000Y-68660000D03*
%TO.P,J1,4,VBATSW*%
X187500000Y-68660000D03*
%TO.P,J1,5,VBATSW*%
X184960000Y-71200000D03*
%TO.P,J1,6,VBATSW*%
X187500000Y-71200000D03*
%TO.P,J1,7,GND*%
%TO.N,GND*%
X184960000Y-73740000D03*
%TO.P,J1,8,GND*%
X187500000Y-73740000D03*
%TO.P,J1,9,VAO*%
%TO.N,unconnected-(J1-VAO-Pad9)*%
X184960000Y-76280000D03*
%TO.P,J1,10,EXT_MOTOR_KILL*%
%TO.N,unconnected-(J1-EXT_MOTOR_KILL-Pad10)*%
X187500000Y-76280000D03*
%TO.P,J1,11,BUTTON_IN*%
%TO.N,unconnected-(J1-BUTTON_IN-Pad11)*%
X184960000Y-78820000D03*
%TO.P,J1,12,FAULT*%
%TO.N,unconnected-(J1-FAULT-Pad12)*%
X187500000Y-78820000D03*
%TO.P,J1,13,INT_MOTOR_KILL*%
%TO.N,unconnected-(J1-INT_MOTOR_KILL-Pad13)*%
X184960000Y-81360000D03*
%TO.P,J1,14,POWER_OFF*%
%TO.N,unconnected-(J1-POWER_OFF-Pad14)*%
X187500000Y-81360000D03*
%TO.P,J1,15,GND*%
%TO.N,GND*%
X184960000Y-83900000D03*
%TO.P,J1,16,GND*%
X187500000Y-83900000D03*
%TO.P,J1,17,5V*%
%TO.N,5V*%
X184960000Y-86440000D03*
%TO.P,J1,18,5V*%
X187500000Y-86440000D03*
%TO.P,J1,19,5V*%
X184960000Y-88980000D03*
%TO.P,J1,20,5V*%
X187500000Y-88980000D03*
%TO.P,J1,21,I2C_0_SDA*%
%TO.N,unconnected-(J1-I2C_0_SDA-Pad21)*%
X184960000Y-91520000D03*
%TO.P,J1,22,12C_0_SCL*%
%TO.N,unconnected-(J1-12C_0_SCL-Pad22)*%
X187500000Y-91520000D03*
%TO.P,J1,23,I2C_1_SDA*%
%TO.N,unconnected-(J1-I2C_1_SDA-Pad23)*%
X184960000Y-94060000D03*
%TO.P,J1,24,I2C_1_SCL*%
%TO.N,unconnected-(J1-I2C_1_SCL-Pad24)*%
X187500000Y-94060000D03*
%TO.P,J1,25,GND*%
%TO.N,GND*%
X184960000Y-96600000D03*
%TO.P,J1,26,GND*%
X187500000Y-96600000D03*
%TO.P,J1,27,UART_0_TX*%
%TO.N,unconnected-(J1-UART_0_TX-Pad27)*%
X184960000Y-99140000D03*
%TO.P,J1,28,UART_0_RX*%
%TO.N,unconnected-(J1-UART_0_RX-Pad28)*%
X187500000Y-99140000D03*
%TO.P,J1,29,UART_1_TX*%
%TO.N,UART1_RX*%
X184960000Y-101680000D03*
%TO.P,J1,30,UART_1_RX*%
%TO.N,UART1_TX*%
X187500000Y-101680000D03*
%TO.P,J1,31,UART_2_TX*%
%TO.N,unconnected-(J1-UART_2_TX-Pad31)*%
X184960000Y-104220000D03*
%TO.P,J1,32,UART_2_RX*%
%TO.N,unconnected-(J1-UART_2_RX-Pad32)*%
X187500000Y-104220000D03*
%TO.P,J1,33,GND*%
%TO.N,GND*%
X184960000Y-106760000D03*
%TO.P,J1,34,GND*%
X187500000Y-106760000D03*
%TO.P,J1,35,SPARE_5*%
%TO.N,unconnected-(J1-SPARE_5-Pad35)*%
X184960000Y-109300000D03*
%TO.P,J1,36,SPARE_4*%
%TO.N,unconnected-(J1-SPARE_4-Pad36)*%
X187500000Y-109300000D03*
%TO.P,J1,37,SPARE_3*%
%TO.N,unconnected-(J1-SPARE_3-Pad37)*%
X184960000Y-111840000D03*
%TO.P,J1,38,SPARE_2*%
%TO.N,unconnected-(J1-SPARE_2-Pad38)*%
X187500000Y-111840000D03*
%TO.P,J1,39,SPARE_1*%
%TO.N,unconnected-(J1-SPARE_1-Pad39)*%
X184960000Y-114380000D03*
%TO.P,J1,40,SPARE_0*%
%TO.N,unconnected-(J1-SPARE_0-Pad40)*%
X187500000Y-114380000D03*
%TD*%
D11*
%TO.P,J3,1,Pin_1*%
%TO.N,3V3*%
X167680000Y-78600000D03*
D12*
%TO.P,J3,2,Pin_2*%
%TO.N,SWDIO*%
X165140000Y-78600000D03*
%TO.P,J3,3,Pin_3*%
%TO.N,SWCLK*%
X162600000Y-78600000D03*
%TO.P,J3,4,Pin_4*%
%TO.N,GND*%
X160060000Y-78600000D03*
%TD*%
D13*
%TO.P,Y1,1,1*%
%TO.N,Net-(U2-PD1)*%
X149925000Y-93650000D03*
%TO.P,Y1,2,2*%
%TO.N,Net-(U2-PD0)*%
X149925000Y-88770000D03*
%TD*%
D10*
%TO.P,REF\u002A\u002A,1*%
%TO.N,N/C*%
X96150000Y-123670000D03*
%TD*%
%TO.P,REF\u002A\u002A,1*%
%TO.N,N/C*%
X186150000Y-55670000D03*
%TD*%
D11*
%TO.P,J2,1,Pin_1*%
%TO.N,GND*%
X170500000Y-126100000D03*
D12*
%TO.P,J2,2,Pin_2*%
%TO.N,TIM2_5V_SHIFT*%
X173040000Y-126100000D03*
%TO.P,J2,3,Pin_3*%
%TO.N,5V*%
X175580000Y-126100000D03*
%TD*%
D14*
%TO.N,GND*%
X142650000Y-89200000D03*
X168025000Y-89025000D03*
X169800000Y-92100000D03*
D15*
X153975000Y-82950000D03*
X159175000Y-97725000D03*
D14*
X160725000Y-85325000D03*
X166975000Y-121925000D03*
X177075000Y-120800000D03*
D15*
X153375000Y-87075000D03*
X145225000Y-98025000D03*
X145387500Y-91175000D03*
D14*
X172300000Y-117200000D03*
X169700000Y-84300000D03*
D15*
X174700000Y-88375000D03*
X153200000Y-92850000D03*
D14*
%TO.N,3V3*%
X165100000Y-97700000D03*
D15*
X154950000Y-87675000D03*
X156425000Y-84575000D03*
D14*
X142650000Y-91300000D03*
D15*
X174775000Y-92150000D03*
D14*
X156100000Y-95375000D03*
X167975000Y-87100000D03*
%TO.N,5V*%
X177625000Y-99275000D03*
X177625000Y-114650000D03*
%TD*%
D16*
%TO.N,5V*%
X177625000Y-99300000D02*
X177625000Y-99275000D01*
X184960000Y-88980000D02*
X175580000Y-98360000D01*
X177625000Y-114650000D02*
X177625000Y-99300000D01*
X185661522Y-88980000D02*
X187500000Y-88980000D01*
X175580000Y-98360000D02*
X175580000Y-126100000D01*
%TD*%
M02*
