%TF.GenerationSoftware,KiCad,Pcbnew,8.0.5*%
%TF.CreationDate,2025-03-12T16:07:22-07:00*%
%TF.ProjectId,Mechatronics LED,4d656368-6174-4726-9f6e-696373204c45,rev?*%
%TF.SameCoordinates,Original*%
%TF.FileFunction,Legend,Top*%
%TF.FilePolarity,Positive*%
%FSLAX46Y46*%
G04 Gerber Fmt 4.6, Leading zero omitted, Abs format (unit mm)*
G04 Created by KiCad (PCBNEW 8.0.5) date 2025-03-12 16:07:22*
%MOMM*%
%LPD*%
G01*
G04 APERTURE LIST*
G04 Aperture macros list*
%AMRoundRect*
0 Rectangle with rounded corners*
0 $1 Rounding radius*
0 $2 $3 $4 $5 $6 $7 $8 $9 X,Y pos of 4 corners*
0 Add a 4 corners polygon primitive as box body*
4,1,4,$2,$3,$4,$5,$6,$7,$8,$9,$2,$3,0*
0 Add four circle primitives for the rounded corners*
1,1,$1+$1,$2,$3*
1,1,$1+$1,$4,$5*
1,1,$1+$1,$6,$7*
1,1,$1+$1,$8,$9*
0 Add four rect primitives between the rounded corners*
20,1,$1+$1,$2,$3,$4,$5,0*
20,1,$1+$1,$4,$5,$6,$7,0*
20,1,$1+$1,$6,$7,$8,$9,0*
20,1,$1+$1,$8,$9,$2,$3,0*%
%AMFreePoly0*
4,1,9,3.862500,-0.866500,0.737500,-0.866500,0.737500,-0.450000,-0.737500,-0.450000,-0.737500,0.450000,0.737500,0.450000,0.737500,0.866500,3.862500,0.866500,3.862500,-0.866500,3.862500,-0.866500,$1*%
G04 Aperture macros list end*
%ADD10C,0.150000*%
%ADD11C,0.120000*%
%ADD12C,9.000000*%
%ADD13RoundRect,0.250000X0.475000X-0.250000X0.475000X0.250000X-0.475000X0.250000X-0.475000X-0.250000X0*%
%ADD14RoundRect,0.250000X-0.475000X0.250000X-0.475000X-0.250000X0.475000X-0.250000X0.475000X0.250000X0*%
%ADD15RoundRect,0.225000X0.425000X0.225000X-0.425000X0.225000X-0.425000X-0.225000X0.425000X-0.225000X0*%
%ADD16FreePoly0,180.000000*%
%ADD17RoundRect,0.225000X-0.250000X0.225000X-0.250000X-0.225000X0.250000X-0.225000X0.250000X0.225000X0*%
%ADD18R,1.700000X1.700000*%
%ADD19O,1.700000X1.700000*%
%ADD20RoundRect,0.150000X-0.512500X-0.150000X0.512500X-0.150000X0.512500X0.150000X-0.512500X0.150000X0*%
%ADD21RoundRect,0.225000X0.225000X0.250000X-0.225000X0.250000X-0.225000X-0.250000X0.225000X-0.250000X0*%
%ADD22C,1.500000*%
%ADD23RoundRect,0.225000X-0.225000X-0.250000X0.225000X-0.250000X0.225000X0.250000X-0.225000X0.250000X0*%
%ADD24RoundRect,0.250000X-0.262500X-0.450000X0.262500X-0.450000X0.262500X0.450000X-0.262500X0.450000X0*%
%ADD25RoundRect,0.075000X-0.662500X-0.075000X0.662500X-0.075000X0.662500X0.075000X-0.662500X0.075000X0*%
%ADD26RoundRect,0.075000X-0.075000X-0.662500X0.075000X-0.662500X0.075000X0.662500X-0.075000X0.662500X0*%
%ADD27RoundRect,0.250000X0.262500X0.450000X-0.262500X0.450000X-0.262500X-0.450000X0.262500X-0.450000X0*%
%ADD28RoundRect,0.250000X0.250000X0.475000X-0.250000X0.475000X-0.250000X-0.475000X0.250000X-0.475000X0*%
%ADD29RoundRect,0.225000X0.250000X-0.225000X0.250000X0.225000X-0.250000X0.225000X-0.250000X-0.225000X0*%
%ADD30RoundRect,0.243750X0.456250X-0.243750X0.456250X0.243750X-0.456250X0.243750X-0.456250X-0.243750X0*%
G04 APERTURE END LIST*
D10*
X145208333Y-86384580D02*
X145160714Y-86432200D01*
X145160714Y-86432200D02*
X145017857Y-86479819D01*
X145017857Y-86479819D02*
X144922619Y-86479819D01*
X144922619Y-86479819D02*
X144779762Y-86432200D01*
X144779762Y-86432200D02*
X144684524Y-86336961D01*
X144684524Y-86336961D02*
X144636905Y-86241723D01*
X144636905Y-86241723D02*
X144589286Y-86051247D01*
X144589286Y-86051247D02*
X144589286Y-85908390D01*
X144589286Y-85908390D02*
X144636905Y-85717914D01*
X144636905Y-85717914D02*
X144684524Y-85622676D01*
X144684524Y-85622676D02*
X144779762Y-85527438D01*
X144779762Y-85527438D02*
X144922619Y-85479819D01*
X144922619Y-85479819D02*
X145017857Y-85479819D01*
X145017857Y-85479819D02*
X145160714Y-85527438D01*
X145160714Y-85527438D02*
X145208333Y-85575057D01*
X145541667Y-85479819D02*
X146160714Y-85479819D01*
X146160714Y-85479819D02*
X145827381Y-85860771D01*
X145827381Y-85860771D02*
X145970238Y-85860771D01*
X145970238Y-85860771D02*
X146065476Y-85908390D01*
X146065476Y-85908390D02*
X146113095Y-85956009D01*
X146113095Y-85956009D02*
X146160714Y-86051247D01*
X146160714Y-86051247D02*
X146160714Y-86289342D01*
X146160714Y-86289342D02*
X146113095Y-86384580D01*
X146113095Y-86384580D02*
X146065476Y-86432200D01*
X146065476Y-86432200D02*
X145970238Y-86479819D01*
X145970238Y-86479819D02*
X145684524Y-86479819D01*
X145684524Y-86479819D02*
X145589286Y-86432200D01*
X145589286Y-86432200D02*
X145541667Y-86384580D01*
X145208333Y-96844580D02*
X145160714Y-96892200D01*
X145160714Y-96892200D02*
X145017857Y-96939819D01*
X145017857Y-96939819D02*
X144922619Y-96939819D01*
X144922619Y-96939819D02*
X144779762Y-96892200D01*
X144779762Y-96892200D02*
X144684524Y-96796961D01*
X144684524Y-96796961D02*
X144636905Y-96701723D01*
X144636905Y-96701723D02*
X144589286Y-96511247D01*
X144589286Y-96511247D02*
X144589286Y-96368390D01*
X144589286Y-96368390D02*
X144636905Y-96177914D01*
X144636905Y-96177914D02*
X144684524Y-96082676D01*
X144684524Y-96082676D02*
X144779762Y-95987438D01*
X144779762Y-95987438D02*
X144922619Y-95939819D01*
X144922619Y-95939819D02*
X145017857Y-95939819D01*
X145017857Y-95939819D02*
X145160714Y-95987438D01*
X145160714Y-95987438D02*
X145208333Y-96035057D01*
X146065476Y-96273152D02*
X146065476Y-96939819D01*
X145827381Y-95892200D02*
X145589286Y-96606485D01*
X145589286Y-96606485D02*
X146208333Y-96606485D01*
X167938095Y-84654819D02*
X167938095Y-85464342D01*
X167938095Y-85464342D02*
X167985714Y-85559580D01*
X167985714Y-85559580D02*
X168033333Y-85607200D01*
X168033333Y-85607200D02*
X168128571Y-85654819D01*
X168128571Y-85654819D02*
X168319047Y-85654819D01*
X168319047Y-85654819D02*
X168414285Y-85607200D01*
X168414285Y-85607200D02*
X168461904Y-85559580D01*
X168461904Y-85559580D02*
X168509523Y-85464342D01*
X168509523Y-85464342D02*
X168509523Y-84654819D01*
X169509523Y-85654819D02*
X168938095Y-85654819D01*
X169223809Y-85654819D02*
X169223809Y-84654819D01*
X169223809Y-84654819D02*
X169128571Y-84797676D01*
X169128571Y-84797676D02*
X169033333Y-84892914D01*
X169033333Y-84892914D02*
X168938095Y-84940533D01*
X175664580Y-118317857D02*
X175712200Y-118365476D01*
X175712200Y-118365476D02*
X175759819Y-118508333D01*
X175759819Y-118508333D02*
X175759819Y-118603571D01*
X175759819Y-118603571D02*
X175712200Y-118746428D01*
X175712200Y-118746428D02*
X175616961Y-118841666D01*
X175616961Y-118841666D02*
X175521723Y-118889285D01*
X175521723Y-118889285D02*
X175331247Y-118936904D01*
X175331247Y-118936904D02*
X175188390Y-118936904D01*
X175188390Y-118936904D02*
X174997914Y-118889285D01*
X174997914Y-118889285D02*
X174902676Y-118841666D01*
X174902676Y-118841666D02*
X174807438Y-118746428D01*
X174807438Y-118746428D02*
X174759819Y-118603571D01*
X174759819Y-118603571D02*
X174759819Y-118508333D01*
X174759819Y-118508333D02*
X174807438Y-118365476D01*
X174807438Y-118365476D02*
X174855057Y-118317857D01*
X175759819Y-117365476D02*
X175759819Y-117936904D01*
X175759819Y-117651190D02*
X174759819Y-117651190D01*
X174759819Y-117651190D02*
X174902676Y-117746428D01*
X174902676Y-117746428D02*
X174997914Y-117841666D01*
X174997914Y-117841666D02*
X175045533Y-117936904D01*
X174855057Y-116984523D02*
X174807438Y-116936904D01*
X174807438Y-116936904D02*
X174759819Y-116841666D01*
X174759819Y-116841666D02*
X174759819Y-116603571D01*
X174759819Y-116603571D02*
X174807438Y-116508333D01*
X174807438Y-116508333D02*
X174855057Y-116460714D01*
X174855057Y-116460714D02*
X174950295Y-116413095D01*
X174950295Y-116413095D02*
X175045533Y-116413095D01*
X175045533Y-116413095D02*
X175188390Y-116460714D01*
X175188390Y-116460714D02*
X175759819Y-117032142D01*
X175759819Y-117032142D02*
X175759819Y-116413095D01*
X185896666Y-63244819D02*
X185896666Y-63959104D01*
X185896666Y-63959104D02*
X185849047Y-64101961D01*
X185849047Y-64101961D02*
X185753809Y-64197200D01*
X185753809Y-64197200D02*
X185610952Y-64244819D01*
X185610952Y-64244819D02*
X185515714Y-64244819D01*
X186896666Y-64244819D02*
X186325238Y-64244819D01*
X186610952Y-64244819D02*
X186610952Y-63244819D01*
X186610952Y-63244819D02*
X186515714Y-63387676D01*
X186515714Y-63387676D02*
X186420476Y-63482914D01*
X186420476Y-63482914D02*
X186325238Y-63530533D01*
X171225595Y-118079819D02*
X171225595Y-118889342D01*
X171225595Y-118889342D02*
X171273214Y-118984580D01*
X171273214Y-118984580D02*
X171320833Y-119032200D01*
X171320833Y-119032200D02*
X171416071Y-119079819D01*
X171416071Y-119079819D02*
X171606547Y-119079819D01*
X171606547Y-119079819D02*
X171701785Y-119032200D01*
X171701785Y-119032200D02*
X171749404Y-118984580D01*
X171749404Y-118984580D02*
X171797023Y-118889342D01*
X171797023Y-118889342D02*
X171797023Y-118079819D01*
X172177976Y-118079819D02*
X172797023Y-118079819D01*
X172797023Y-118079819D02*
X172463690Y-118460771D01*
X172463690Y-118460771D02*
X172606547Y-118460771D01*
X172606547Y-118460771D02*
X172701785Y-118508390D01*
X172701785Y-118508390D02*
X172749404Y-118556009D01*
X172749404Y-118556009D02*
X172797023Y-118651247D01*
X172797023Y-118651247D02*
X172797023Y-118889342D01*
X172797023Y-118889342D02*
X172749404Y-118984580D01*
X172749404Y-118984580D02*
X172701785Y-119032200D01*
X172701785Y-119032200D02*
X172606547Y-119079819D01*
X172606547Y-119079819D02*
X172320833Y-119079819D01*
X172320833Y-119079819D02*
X172225595Y-119032200D01*
X172225595Y-119032200D02*
X172177976Y-118984580D01*
X160483333Y-98984580D02*
X160435714Y-99032200D01*
X160435714Y-99032200D02*
X160292857Y-99079819D01*
X160292857Y-99079819D02*
X160197619Y-99079819D01*
X160197619Y-99079819D02*
X160054762Y-99032200D01*
X160054762Y-99032200D02*
X159959524Y-98936961D01*
X159959524Y-98936961D02*
X159911905Y-98841723D01*
X159911905Y-98841723D02*
X159864286Y-98651247D01*
X159864286Y-98651247D02*
X159864286Y-98508390D01*
X159864286Y-98508390D02*
X159911905Y-98317914D01*
X159911905Y-98317914D02*
X159959524Y-98222676D01*
X159959524Y-98222676D02*
X160054762Y-98127438D01*
X160054762Y-98127438D02*
X160197619Y-98079819D01*
X160197619Y-98079819D02*
X160292857Y-98079819D01*
X160292857Y-98079819D02*
X160435714Y-98127438D01*
X160435714Y-98127438D02*
X160483333Y-98175057D01*
X161054762Y-98508390D02*
X160959524Y-98460771D01*
X160959524Y-98460771D02*
X160911905Y-98413152D01*
X160911905Y-98413152D02*
X160864286Y-98317914D01*
X160864286Y-98317914D02*
X160864286Y-98270295D01*
X160864286Y-98270295D02*
X160911905Y-98175057D01*
X160911905Y-98175057D02*
X160959524Y-98127438D01*
X160959524Y-98127438D02*
X161054762Y-98079819D01*
X161054762Y-98079819D02*
X161245238Y-98079819D01*
X161245238Y-98079819D02*
X161340476Y-98127438D01*
X161340476Y-98127438D02*
X161388095Y-98175057D01*
X161388095Y-98175057D02*
X161435714Y-98270295D01*
X161435714Y-98270295D02*
X161435714Y-98317914D01*
X161435714Y-98317914D02*
X161388095Y-98413152D01*
X161388095Y-98413152D02*
X161340476Y-98460771D01*
X161340476Y-98460771D02*
X161245238Y-98508390D01*
X161245238Y-98508390D02*
X161054762Y-98508390D01*
X161054762Y-98508390D02*
X160959524Y-98556009D01*
X160959524Y-98556009D02*
X160911905Y-98603628D01*
X160911905Y-98603628D02*
X160864286Y-98698866D01*
X160864286Y-98698866D02*
X160864286Y-98889342D01*
X160864286Y-98889342D02*
X160911905Y-98984580D01*
X160911905Y-98984580D02*
X160959524Y-99032200D01*
X160959524Y-99032200D02*
X161054762Y-99079819D01*
X161054762Y-99079819D02*
X161245238Y-99079819D01*
X161245238Y-99079819D02*
X161340476Y-99032200D01*
X161340476Y-99032200D02*
X161388095Y-98984580D01*
X161388095Y-98984580D02*
X161435714Y-98889342D01*
X161435714Y-98889342D02*
X161435714Y-98698866D01*
X161435714Y-98698866D02*
X161388095Y-98603628D01*
X161388095Y-98603628D02*
X161340476Y-98556009D01*
X161340476Y-98556009D02*
X161245238Y-98508390D01*
X170076666Y-77124819D02*
X170076666Y-77839104D01*
X170076666Y-77839104D02*
X170029047Y-77981961D01*
X170029047Y-77981961D02*
X169933809Y-78077200D01*
X169933809Y-78077200D02*
X169790952Y-78124819D01*
X169790952Y-78124819D02*
X169695714Y-78124819D01*
X170457619Y-77124819D02*
X171076666Y-77124819D01*
X171076666Y-77124819D02*
X170743333Y-77505771D01*
X170743333Y-77505771D02*
X170886190Y-77505771D01*
X170886190Y-77505771D02*
X170981428Y-77553390D01*
X170981428Y-77553390D02*
X171029047Y-77601009D01*
X171029047Y-77601009D02*
X171076666Y-77696247D01*
X171076666Y-77696247D02*
X171076666Y-77934342D01*
X171076666Y-77934342D02*
X171029047Y-78029580D01*
X171029047Y-78029580D02*
X170981428Y-78077200D01*
X170981428Y-78077200D02*
X170886190Y-78124819D01*
X170886190Y-78124819D02*
X170600476Y-78124819D01*
X170600476Y-78124819D02*
X170505238Y-78077200D01*
X170505238Y-78077200D02*
X170457619Y-78029580D01*
X166133333Y-87384580D02*
X166085714Y-87432200D01*
X166085714Y-87432200D02*
X165942857Y-87479819D01*
X165942857Y-87479819D02*
X165847619Y-87479819D01*
X165847619Y-87479819D02*
X165704762Y-87432200D01*
X165704762Y-87432200D02*
X165609524Y-87336961D01*
X165609524Y-87336961D02*
X165561905Y-87241723D01*
X165561905Y-87241723D02*
X165514286Y-87051247D01*
X165514286Y-87051247D02*
X165514286Y-86908390D01*
X165514286Y-86908390D02*
X165561905Y-86717914D01*
X165561905Y-86717914D02*
X165609524Y-86622676D01*
X165609524Y-86622676D02*
X165704762Y-86527438D01*
X165704762Y-86527438D02*
X165847619Y-86479819D01*
X165847619Y-86479819D02*
X165942857Y-86479819D01*
X165942857Y-86479819D02*
X166085714Y-86527438D01*
X166085714Y-86527438D02*
X166133333Y-86575057D01*
X166466667Y-86479819D02*
X167133333Y-86479819D01*
X167133333Y-86479819D02*
X166704762Y-87479819D01*
X147348809Y-84378628D02*
X147348809Y-84854819D01*
X147015476Y-83854819D02*
X147348809Y-84378628D01*
X147348809Y-84378628D02*
X147682142Y-83854819D01*
X148539285Y-84854819D02*
X147967857Y-84854819D01*
X148253571Y-84854819D02*
X148253571Y-83854819D01*
X148253571Y-83854819D02*
X148158333Y-83997676D01*
X148158333Y-83997676D02*
X148063095Y-84092914D01*
X148063095Y-84092914D02*
X147967857Y-84140533D01*
X174657142Y-123984580D02*
X174609523Y-124032200D01*
X174609523Y-124032200D02*
X174466666Y-124079819D01*
X174466666Y-124079819D02*
X174371428Y-124079819D01*
X174371428Y-124079819D02*
X174228571Y-124032200D01*
X174228571Y-124032200D02*
X174133333Y-123936961D01*
X174133333Y-123936961D02*
X174085714Y-123841723D01*
X174085714Y-123841723D02*
X174038095Y-123651247D01*
X174038095Y-123651247D02*
X174038095Y-123508390D01*
X174038095Y-123508390D02*
X174085714Y-123317914D01*
X174085714Y-123317914D02*
X174133333Y-123222676D01*
X174133333Y-123222676D02*
X174228571Y-123127438D01*
X174228571Y-123127438D02*
X174371428Y-123079819D01*
X174371428Y-123079819D02*
X174466666Y-123079819D01*
X174466666Y-123079819D02*
X174609523Y-123127438D01*
X174609523Y-123127438D02*
X174657142Y-123175057D01*
X175609523Y-124079819D02*
X175038095Y-124079819D01*
X175323809Y-124079819D02*
X175323809Y-123079819D01*
X175323809Y-123079819D02*
X175228571Y-123222676D01*
X175228571Y-123222676D02*
X175133333Y-123317914D01*
X175133333Y-123317914D02*
X175038095Y-123365533D01*
X176561904Y-124079819D02*
X175990476Y-124079819D01*
X176276190Y-124079819D02*
X176276190Y-123079819D01*
X176276190Y-123079819D02*
X176180952Y-123222676D01*
X176180952Y-123222676D02*
X176085714Y-123317914D01*
X176085714Y-123317914D02*
X175990476Y-123365533D01*
X167882142Y-118959580D02*
X167834523Y-119007200D01*
X167834523Y-119007200D02*
X167691666Y-119054819D01*
X167691666Y-119054819D02*
X167596428Y-119054819D01*
X167596428Y-119054819D02*
X167453571Y-119007200D01*
X167453571Y-119007200D02*
X167358333Y-118911961D01*
X167358333Y-118911961D02*
X167310714Y-118816723D01*
X167310714Y-118816723D02*
X167263095Y-118626247D01*
X167263095Y-118626247D02*
X167263095Y-118483390D01*
X167263095Y-118483390D02*
X167310714Y-118292914D01*
X167310714Y-118292914D02*
X167358333Y-118197676D01*
X167358333Y-118197676D02*
X167453571Y-118102438D01*
X167453571Y-118102438D02*
X167596428Y-118054819D01*
X167596428Y-118054819D02*
X167691666Y-118054819D01*
X167691666Y-118054819D02*
X167834523Y-118102438D01*
X167834523Y-118102438D02*
X167882142Y-118150057D01*
X168834523Y-119054819D02*
X168263095Y-119054819D01*
X168548809Y-119054819D02*
X168548809Y-118054819D01*
X168548809Y-118054819D02*
X168453571Y-118197676D01*
X168453571Y-118197676D02*
X168358333Y-118292914D01*
X168358333Y-118292914D02*
X168263095Y-118340533D01*
X169453571Y-118054819D02*
X169548809Y-118054819D01*
X169548809Y-118054819D02*
X169644047Y-118102438D01*
X169644047Y-118102438D02*
X169691666Y-118150057D01*
X169691666Y-118150057D02*
X169739285Y-118245295D01*
X169739285Y-118245295D02*
X169786904Y-118435771D01*
X169786904Y-118435771D02*
X169786904Y-118673866D01*
X169786904Y-118673866D02*
X169739285Y-118864342D01*
X169739285Y-118864342D02*
X169691666Y-118959580D01*
X169691666Y-118959580D02*
X169644047Y-119007200D01*
X169644047Y-119007200D02*
X169548809Y-119054819D01*
X169548809Y-119054819D02*
X169453571Y-119054819D01*
X169453571Y-119054819D02*
X169358333Y-119007200D01*
X169358333Y-119007200D02*
X169310714Y-118959580D01*
X169310714Y-118959580D02*
X169263095Y-118864342D01*
X169263095Y-118864342D02*
X169215476Y-118673866D01*
X169215476Y-118673866D02*
X169215476Y-118435771D01*
X169215476Y-118435771D02*
X169263095Y-118245295D01*
X169263095Y-118245295D02*
X169310714Y-118150057D01*
X169310714Y-118150057D02*
X169358333Y-118102438D01*
X169358333Y-118102438D02*
X169453571Y-118054819D01*
X159233333Y-84159580D02*
X159185714Y-84207200D01*
X159185714Y-84207200D02*
X159042857Y-84254819D01*
X159042857Y-84254819D02*
X158947619Y-84254819D01*
X158947619Y-84254819D02*
X158804762Y-84207200D01*
X158804762Y-84207200D02*
X158709524Y-84111961D01*
X158709524Y-84111961D02*
X158661905Y-84016723D01*
X158661905Y-84016723D02*
X158614286Y-83826247D01*
X158614286Y-83826247D02*
X158614286Y-83683390D01*
X158614286Y-83683390D02*
X158661905Y-83492914D01*
X158661905Y-83492914D02*
X158709524Y-83397676D01*
X158709524Y-83397676D02*
X158804762Y-83302438D01*
X158804762Y-83302438D02*
X158947619Y-83254819D01*
X158947619Y-83254819D02*
X159042857Y-83254819D01*
X159042857Y-83254819D02*
X159185714Y-83302438D01*
X159185714Y-83302438D02*
X159233333Y-83350057D01*
X160090476Y-83254819D02*
X159900000Y-83254819D01*
X159900000Y-83254819D02*
X159804762Y-83302438D01*
X159804762Y-83302438D02*
X159757143Y-83350057D01*
X159757143Y-83350057D02*
X159661905Y-83492914D01*
X159661905Y-83492914D02*
X159614286Y-83683390D01*
X159614286Y-83683390D02*
X159614286Y-84064342D01*
X159614286Y-84064342D02*
X159661905Y-84159580D01*
X159661905Y-84159580D02*
X159709524Y-84207200D01*
X159709524Y-84207200D02*
X159804762Y-84254819D01*
X159804762Y-84254819D02*
X159995238Y-84254819D01*
X159995238Y-84254819D02*
X160090476Y-84207200D01*
X160090476Y-84207200D02*
X160138095Y-84159580D01*
X160138095Y-84159580D02*
X160185714Y-84064342D01*
X160185714Y-84064342D02*
X160185714Y-83826247D01*
X160185714Y-83826247D02*
X160138095Y-83731009D01*
X160138095Y-83731009D02*
X160090476Y-83683390D01*
X160090476Y-83683390D02*
X159995238Y-83635771D01*
X159995238Y-83635771D02*
X159804762Y-83635771D01*
X159804762Y-83635771D02*
X159709524Y-83683390D01*
X159709524Y-83683390D02*
X159661905Y-83731009D01*
X159661905Y-83731009D02*
X159614286Y-83826247D01*
X142558333Y-82304819D02*
X142225000Y-81828628D01*
X141986905Y-82304819D02*
X141986905Y-81304819D01*
X141986905Y-81304819D02*
X142367857Y-81304819D01*
X142367857Y-81304819D02*
X142463095Y-81352438D01*
X142463095Y-81352438D02*
X142510714Y-81400057D01*
X142510714Y-81400057D02*
X142558333Y-81495295D01*
X142558333Y-81495295D02*
X142558333Y-81638152D01*
X142558333Y-81638152D02*
X142510714Y-81733390D01*
X142510714Y-81733390D02*
X142463095Y-81781009D01*
X142463095Y-81781009D02*
X142367857Y-81828628D01*
X142367857Y-81828628D02*
X141986905Y-81828628D01*
X143510714Y-82304819D02*
X142939286Y-82304819D01*
X143225000Y-82304819D02*
X143225000Y-81304819D01*
X143225000Y-81304819D02*
X143129762Y-81447676D01*
X143129762Y-81447676D02*
X143034524Y-81542914D01*
X143034524Y-81542914D02*
X142939286Y-81590533D01*
X153233333Y-84834580D02*
X153185714Y-84882200D01*
X153185714Y-84882200D02*
X153042857Y-84929819D01*
X153042857Y-84929819D02*
X152947619Y-84929819D01*
X152947619Y-84929819D02*
X152804762Y-84882200D01*
X152804762Y-84882200D02*
X152709524Y-84786961D01*
X152709524Y-84786961D02*
X152661905Y-84691723D01*
X152661905Y-84691723D02*
X152614286Y-84501247D01*
X152614286Y-84501247D02*
X152614286Y-84358390D01*
X152614286Y-84358390D02*
X152661905Y-84167914D01*
X152661905Y-84167914D02*
X152709524Y-84072676D01*
X152709524Y-84072676D02*
X152804762Y-83977438D01*
X152804762Y-83977438D02*
X152947619Y-83929819D01*
X152947619Y-83929819D02*
X153042857Y-83929819D01*
X153042857Y-83929819D02*
X153185714Y-83977438D01*
X153185714Y-83977438D02*
X153233333Y-84025057D01*
X154138095Y-83929819D02*
X153661905Y-83929819D01*
X153661905Y-83929819D02*
X153614286Y-84406009D01*
X153614286Y-84406009D02*
X153661905Y-84358390D01*
X153661905Y-84358390D02*
X153757143Y-84310771D01*
X153757143Y-84310771D02*
X153995238Y-84310771D01*
X153995238Y-84310771D02*
X154090476Y-84358390D01*
X154090476Y-84358390D02*
X154138095Y-84406009D01*
X154138095Y-84406009D02*
X154185714Y-84501247D01*
X154185714Y-84501247D02*
X154185714Y-84739342D01*
X154185714Y-84739342D02*
X154138095Y-84834580D01*
X154138095Y-84834580D02*
X154090476Y-84882200D01*
X154090476Y-84882200D02*
X153995238Y-84929819D01*
X153995238Y-84929819D02*
X153757143Y-84929819D01*
X153757143Y-84929819D02*
X153661905Y-84882200D01*
X153661905Y-84882200D02*
X153614286Y-84834580D01*
X167546666Y-124714819D02*
X167546666Y-125429104D01*
X167546666Y-125429104D02*
X167499047Y-125571961D01*
X167499047Y-125571961D02*
X167403809Y-125667200D01*
X167403809Y-125667200D02*
X167260952Y-125714819D01*
X167260952Y-125714819D02*
X167165714Y-125714819D01*
X167975238Y-124810057D02*
X168022857Y-124762438D01*
X168022857Y-124762438D02*
X168118095Y-124714819D01*
X168118095Y-124714819D02*
X168356190Y-124714819D01*
X168356190Y-124714819D02*
X168451428Y-124762438D01*
X168451428Y-124762438D02*
X168499047Y-124810057D01*
X168499047Y-124810057D02*
X168546666Y-124905295D01*
X168546666Y-124905295D02*
X168546666Y-125000533D01*
X168546666Y-125000533D02*
X168499047Y-125143390D01*
X168499047Y-125143390D02*
X167927619Y-125714819D01*
X167927619Y-125714819D02*
X168546666Y-125714819D01*
X161538095Y-85054819D02*
X161538095Y-85864342D01*
X161538095Y-85864342D02*
X161585714Y-85959580D01*
X161585714Y-85959580D02*
X161633333Y-86007200D01*
X161633333Y-86007200D02*
X161728571Y-86054819D01*
X161728571Y-86054819D02*
X161919047Y-86054819D01*
X161919047Y-86054819D02*
X162014285Y-86007200D01*
X162014285Y-86007200D02*
X162061904Y-85959580D01*
X162061904Y-85959580D02*
X162109523Y-85864342D01*
X162109523Y-85864342D02*
X162109523Y-85054819D01*
X162538095Y-85150057D02*
X162585714Y-85102438D01*
X162585714Y-85102438D02*
X162680952Y-85054819D01*
X162680952Y-85054819D02*
X162919047Y-85054819D01*
X162919047Y-85054819D02*
X163014285Y-85102438D01*
X163014285Y-85102438D02*
X163061904Y-85150057D01*
X163061904Y-85150057D02*
X163109523Y-85245295D01*
X163109523Y-85245295D02*
X163109523Y-85340533D01*
X163109523Y-85340533D02*
X163061904Y-85483390D01*
X163061904Y-85483390D02*
X162490476Y-86054819D01*
X162490476Y-86054819D02*
X163109523Y-86054819D01*
X155558333Y-81804819D02*
X155225000Y-81328628D01*
X154986905Y-81804819D02*
X154986905Y-80804819D01*
X154986905Y-80804819D02*
X155367857Y-80804819D01*
X155367857Y-80804819D02*
X155463095Y-80852438D01*
X155463095Y-80852438D02*
X155510714Y-80900057D01*
X155510714Y-80900057D02*
X155558333Y-80995295D01*
X155558333Y-80995295D02*
X155558333Y-81138152D01*
X155558333Y-81138152D02*
X155510714Y-81233390D01*
X155510714Y-81233390D02*
X155463095Y-81281009D01*
X155463095Y-81281009D02*
X155367857Y-81328628D01*
X155367857Y-81328628D02*
X154986905Y-81328628D01*
X155939286Y-80900057D02*
X155986905Y-80852438D01*
X155986905Y-80852438D02*
X156082143Y-80804819D01*
X156082143Y-80804819D02*
X156320238Y-80804819D01*
X156320238Y-80804819D02*
X156415476Y-80852438D01*
X156415476Y-80852438D02*
X156463095Y-80900057D01*
X156463095Y-80900057D02*
X156510714Y-80995295D01*
X156510714Y-80995295D02*
X156510714Y-81090533D01*
X156510714Y-81090533D02*
X156463095Y-81233390D01*
X156463095Y-81233390D02*
X155891667Y-81804819D01*
X155891667Y-81804819D02*
X156510714Y-81804819D01*
X171853333Y-94139580D02*
X171805714Y-94187200D01*
X171805714Y-94187200D02*
X171662857Y-94234819D01*
X171662857Y-94234819D02*
X171567619Y-94234819D01*
X171567619Y-94234819D02*
X171424762Y-94187200D01*
X171424762Y-94187200D02*
X171329524Y-94091961D01*
X171329524Y-94091961D02*
X171281905Y-93996723D01*
X171281905Y-93996723D02*
X171234286Y-93806247D01*
X171234286Y-93806247D02*
X171234286Y-93663390D01*
X171234286Y-93663390D02*
X171281905Y-93472914D01*
X171281905Y-93472914D02*
X171329524Y-93377676D01*
X171329524Y-93377676D02*
X171424762Y-93282438D01*
X171424762Y-93282438D02*
X171567619Y-93234819D01*
X171567619Y-93234819D02*
X171662857Y-93234819D01*
X171662857Y-93234819D02*
X171805714Y-93282438D01*
X171805714Y-93282438D02*
X171853333Y-93330057D01*
X172234286Y-93330057D02*
X172281905Y-93282438D01*
X172281905Y-93282438D02*
X172377143Y-93234819D01*
X172377143Y-93234819D02*
X172615238Y-93234819D01*
X172615238Y-93234819D02*
X172710476Y-93282438D01*
X172710476Y-93282438D02*
X172758095Y-93330057D01*
X172758095Y-93330057D02*
X172805714Y-93425295D01*
X172805714Y-93425295D02*
X172805714Y-93520533D01*
X172805714Y-93520533D02*
X172758095Y-93663390D01*
X172758095Y-93663390D02*
X172186667Y-94234819D01*
X172186667Y-94234819D02*
X172805714Y-94234819D01*
X154233333Y-96184580D02*
X154185714Y-96232200D01*
X154185714Y-96232200D02*
X154042857Y-96279819D01*
X154042857Y-96279819D02*
X153947619Y-96279819D01*
X153947619Y-96279819D02*
X153804762Y-96232200D01*
X153804762Y-96232200D02*
X153709524Y-96136961D01*
X153709524Y-96136961D02*
X153661905Y-96041723D01*
X153661905Y-96041723D02*
X153614286Y-95851247D01*
X153614286Y-95851247D02*
X153614286Y-95708390D01*
X153614286Y-95708390D02*
X153661905Y-95517914D01*
X153661905Y-95517914D02*
X153709524Y-95422676D01*
X153709524Y-95422676D02*
X153804762Y-95327438D01*
X153804762Y-95327438D02*
X153947619Y-95279819D01*
X153947619Y-95279819D02*
X154042857Y-95279819D01*
X154042857Y-95279819D02*
X154185714Y-95327438D01*
X154185714Y-95327438D02*
X154233333Y-95375057D01*
X154709524Y-96279819D02*
X154900000Y-96279819D01*
X154900000Y-96279819D02*
X154995238Y-96232200D01*
X154995238Y-96232200D02*
X155042857Y-96184580D01*
X155042857Y-96184580D02*
X155138095Y-96041723D01*
X155138095Y-96041723D02*
X155185714Y-95851247D01*
X155185714Y-95851247D02*
X155185714Y-95470295D01*
X155185714Y-95470295D02*
X155138095Y-95375057D01*
X155138095Y-95375057D02*
X155090476Y-95327438D01*
X155090476Y-95327438D02*
X154995238Y-95279819D01*
X154995238Y-95279819D02*
X154804762Y-95279819D01*
X154804762Y-95279819D02*
X154709524Y-95327438D01*
X154709524Y-95327438D02*
X154661905Y-95375057D01*
X154661905Y-95375057D02*
X154614286Y-95470295D01*
X154614286Y-95470295D02*
X154614286Y-95708390D01*
X154614286Y-95708390D02*
X154661905Y-95803628D01*
X154661905Y-95803628D02*
X154709524Y-95851247D01*
X154709524Y-95851247D02*
X154804762Y-95898866D01*
X154804762Y-95898866D02*
X154995238Y-95898866D01*
X154995238Y-95898866D02*
X155090476Y-95851247D01*
X155090476Y-95851247D02*
X155138095Y-95803628D01*
X155138095Y-95803628D02*
X155185714Y-95708390D01*
X142583333Y-99304819D02*
X142250000Y-98828628D01*
X142011905Y-99304819D02*
X142011905Y-98304819D01*
X142011905Y-98304819D02*
X142392857Y-98304819D01*
X142392857Y-98304819D02*
X142488095Y-98352438D01*
X142488095Y-98352438D02*
X142535714Y-98400057D01*
X142535714Y-98400057D02*
X142583333Y-98495295D01*
X142583333Y-98495295D02*
X142583333Y-98638152D01*
X142583333Y-98638152D02*
X142535714Y-98733390D01*
X142535714Y-98733390D02*
X142488095Y-98781009D01*
X142488095Y-98781009D02*
X142392857Y-98828628D01*
X142392857Y-98828628D02*
X142011905Y-98828628D01*
X142916667Y-98304819D02*
X143535714Y-98304819D01*
X143535714Y-98304819D02*
X143202381Y-98685771D01*
X143202381Y-98685771D02*
X143345238Y-98685771D01*
X143345238Y-98685771D02*
X143440476Y-98733390D01*
X143440476Y-98733390D02*
X143488095Y-98781009D01*
X143488095Y-98781009D02*
X143535714Y-98876247D01*
X143535714Y-98876247D02*
X143535714Y-99114342D01*
X143535714Y-99114342D02*
X143488095Y-99209580D01*
X143488095Y-99209580D02*
X143440476Y-99257200D01*
X143440476Y-99257200D02*
X143345238Y-99304819D01*
X143345238Y-99304819D02*
X143059524Y-99304819D01*
X143059524Y-99304819D02*
X142964286Y-99257200D01*
X142964286Y-99257200D02*
X142916667Y-99209580D01*
X141379819Y-87163094D02*
X140379819Y-87163094D01*
X140379819Y-87163094D02*
X140379819Y-86924999D01*
X140379819Y-86924999D02*
X140427438Y-86782142D01*
X140427438Y-86782142D02*
X140522676Y-86686904D01*
X140522676Y-86686904D02*
X140617914Y-86639285D01*
X140617914Y-86639285D02*
X140808390Y-86591666D01*
X140808390Y-86591666D02*
X140951247Y-86591666D01*
X140951247Y-86591666D02*
X141141723Y-86639285D01*
X141141723Y-86639285D02*
X141236961Y-86686904D01*
X141236961Y-86686904D02*
X141332200Y-86782142D01*
X141332200Y-86782142D02*
X141379819Y-86924999D01*
X141379819Y-86924999D02*
X141379819Y-87163094D01*
X141379819Y-85639285D02*
X141379819Y-86210713D01*
X141379819Y-85924999D02*
X140379819Y-85924999D01*
X140379819Y-85924999D02*
X140522676Y-86020237D01*
X140522676Y-86020237D02*
X140617914Y-86115475D01*
X140617914Y-86115475D02*
X140665533Y-86210713D01*
X141329819Y-94863094D02*
X140329819Y-94863094D01*
X140329819Y-94863094D02*
X140329819Y-94624999D01*
X140329819Y-94624999D02*
X140377438Y-94482142D01*
X140377438Y-94482142D02*
X140472676Y-94386904D01*
X140472676Y-94386904D02*
X140567914Y-94339285D01*
X140567914Y-94339285D02*
X140758390Y-94291666D01*
X140758390Y-94291666D02*
X140901247Y-94291666D01*
X140901247Y-94291666D02*
X141091723Y-94339285D01*
X141091723Y-94339285D02*
X141186961Y-94386904D01*
X141186961Y-94386904D02*
X141282200Y-94482142D01*
X141282200Y-94482142D02*
X141329819Y-94624999D01*
X141329819Y-94624999D02*
X141329819Y-94863094D01*
X140425057Y-93910713D02*
X140377438Y-93863094D01*
X140377438Y-93863094D02*
X140329819Y-93767856D01*
X140329819Y-93767856D02*
X140329819Y-93529761D01*
X140329819Y-93529761D02*
X140377438Y-93434523D01*
X140377438Y-93434523D02*
X140425057Y-93386904D01*
X140425057Y-93386904D02*
X140520295Y-93339285D01*
X140520295Y-93339285D02*
X140615533Y-93339285D01*
X140615533Y-93339285D02*
X140758390Y-93386904D01*
X140758390Y-93386904D02*
X141329819Y-93958332D01*
X141329819Y-93958332D02*
X141329819Y-93339285D01*
X172703333Y-83259580D02*
X172655714Y-83307200D01*
X172655714Y-83307200D02*
X172512857Y-83354819D01*
X172512857Y-83354819D02*
X172417619Y-83354819D01*
X172417619Y-83354819D02*
X172274762Y-83307200D01*
X172274762Y-83307200D02*
X172179524Y-83211961D01*
X172179524Y-83211961D02*
X172131905Y-83116723D01*
X172131905Y-83116723D02*
X172084286Y-82926247D01*
X172084286Y-82926247D02*
X172084286Y-82783390D01*
X172084286Y-82783390D02*
X172131905Y-82592914D01*
X172131905Y-82592914D02*
X172179524Y-82497676D01*
X172179524Y-82497676D02*
X172274762Y-82402438D01*
X172274762Y-82402438D02*
X172417619Y-82354819D01*
X172417619Y-82354819D02*
X172512857Y-82354819D01*
X172512857Y-82354819D02*
X172655714Y-82402438D01*
X172655714Y-82402438D02*
X172703333Y-82450057D01*
X173655714Y-83354819D02*
X173084286Y-83354819D01*
X173370000Y-83354819D02*
X173370000Y-82354819D01*
X173370000Y-82354819D02*
X173274762Y-82497676D01*
X173274762Y-82497676D02*
X173179524Y-82592914D01*
X173179524Y-82592914D02*
X173084286Y-82640533D01*
D11*
%TO.C,C3*%
X144640000Y-88686252D02*
X144640000Y-88163748D01*
X146110000Y-88686252D02*
X146110000Y-88163748D01*
%TO.C,C4*%
X144640000Y-93763748D02*
X144640000Y-94286252D01*
X146110000Y-93763748D02*
X146110000Y-94286252D01*
%TO.C,U1*%
X169530000Y-86020000D02*
X172250000Y-86020000D01*
X169530000Y-87000000D02*
X169530000Y-86020000D01*
X169530000Y-89760000D02*
X169530000Y-90740000D01*
X172110000Y-90740000D02*
X169530000Y-90740000D01*
X172900000Y-90920000D02*
X172420000Y-90920000D01*
X172660000Y-90590000D01*
X172900000Y-90920000D01*
G36*
X172900000Y-90920000D02*
G01*
X172420000Y-90920000D01*
X172660000Y-90590000D01*
X172900000Y-90920000D01*
G37*
%TO.C,C12*%
X173365000Y-117534420D02*
X173365000Y-117815580D01*
X174385000Y-117534420D02*
X174385000Y-117815580D01*
%TO.C,J1*%
X183630000Y-64790000D02*
X184960000Y-64790000D01*
X183630000Y-66120000D02*
X183630000Y-64790000D01*
X183630000Y-67390000D02*
X183630000Y-115710000D01*
X183630000Y-67390000D02*
X186230000Y-67390000D01*
X183630000Y-115710000D02*
X188830000Y-115710000D01*
X186230000Y-64790000D02*
X188830000Y-64790000D01*
X186230000Y-67390000D02*
X186230000Y-64790000D01*
X188830000Y-64790000D02*
X188830000Y-115710000D01*
%TO.C,U3*%
X171987500Y-119465000D02*
X171187500Y-119465000D01*
X171987500Y-119465000D02*
X172787500Y-119465000D01*
X171987500Y-122585000D02*
X171187500Y-122585000D01*
X171987500Y-122585000D02*
X172787500Y-122585000D01*
X170687500Y-119515000D02*
X170447500Y-119185000D01*
X170927500Y-119185000D01*
X170687500Y-119515000D01*
G36*
X170687500Y-119515000D02*
G01*
X170447500Y-119185000D01*
X170927500Y-119185000D01*
X170687500Y-119515000D01*
G37*
%TO.C,C8*%
X163240580Y-97190000D02*
X162959420Y-97190000D01*
X163240580Y-98210000D02*
X162959420Y-98210000D01*
%TO.C,J3*%
X158730000Y-77270000D02*
X158730000Y-79930000D01*
X166410000Y-77270000D02*
X158730000Y-77270000D01*
X166410000Y-77270000D02*
X166410000Y-79930000D01*
X166410000Y-79930000D02*
X158730000Y-79930000D01*
X169010000Y-78600000D02*
X169010000Y-79930000D01*
X169010000Y-79930000D02*
X167680000Y-79930000D01*
%TO.C,C7*%
X166190000Y-88959420D02*
X166190000Y-89240580D01*
X167210000Y-88959420D02*
X167210000Y-89240580D01*
%TO.C,Y1*%
X147400000Y-94410000D02*
X147400000Y-88010000D01*
X152450000Y-94410000D02*
X152450000Y-88010000D01*
X147400000Y-88010000D02*
G75*
G02*
X152450000Y-88010000I2525000J0D01*
G01*
X152450000Y-94410000D02*
G75*
G02*
X147400000Y-94410000I-2525000J0D01*
G01*
%TO.C,C11*%
X174565000Y-121436252D02*
X174565000Y-120913748D01*
X176035000Y-121436252D02*
X176035000Y-120913748D01*
%TO.C,C10*%
X167915000Y-120763748D02*
X167915000Y-121286252D01*
X169385000Y-120763748D02*
X169385000Y-121286252D01*
%TO.C,C6*%
X158359420Y-84815000D02*
X158640580Y-84815000D01*
X158359420Y-85835000D02*
X158640580Y-85835000D01*
%TO.C,R1*%
X142510436Y-82790000D02*
X142964564Y-82790000D01*
X142510436Y-84260000D02*
X142964564Y-84260000D01*
%TO.C,C5*%
X155109420Y-85290000D02*
X155390580Y-85290000D01*
X155109420Y-86310000D02*
X155390580Y-86310000D01*
%TO.C,J2*%
X169170000Y-127430000D02*
X169170000Y-126100000D01*
X170500000Y-127430000D02*
X169170000Y-127430000D01*
X171770000Y-124770000D02*
X176910000Y-124770000D01*
X171770000Y-127430000D02*
X171770000Y-124770000D01*
X171770000Y-127430000D02*
X176910000Y-127430000D01*
X176910000Y-127430000D02*
X176910000Y-124770000D01*
%TO.C,U2*%
X157015000Y-87897500D02*
X157015000Y-88347500D01*
X157015000Y-95117500D02*
X157015000Y-94667500D01*
X157465000Y-87897500D02*
X157015000Y-87897500D01*
X157465000Y-95117500D02*
X157015000Y-95117500D01*
X163785000Y-87897500D02*
X164235000Y-87897500D01*
X163785000Y-95117500D02*
X164235000Y-95117500D01*
X164235000Y-87897500D02*
X164235000Y-88347500D01*
X164235000Y-95117500D02*
X164235000Y-94667500D01*
X156425000Y-88347500D02*
X156085000Y-87877500D01*
X156765000Y-87877500D01*
X156425000Y-88347500D01*
G36*
X156425000Y-88347500D02*
G01*
X156085000Y-87877500D01*
X156765000Y-87877500D01*
X156425000Y-88347500D01*
G37*
%TO.C,R2*%
X156752064Y-82215000D02*
X156297936Y-82215000D01*
X156752064Y-83685000D02*
X156297936Y-83685000D01*
%TO.C,C2*%
X172281252Y-91365000D02*
X171758748Y-91365000D01*
X172281252Y-92835000D02*
X171758748Y-92835000D01*
%TO.C,C9*%
X153890000Y-93765580D02*
X153890000Y-93484420D01*
X154910000Y-93765580D02*
X154910000Y-93484420D01*
%TO.C,R3*%
X142422936Y-96340000D02*
X142877064Y-96340000D01*
X142422936Y-97810000D02*
X142877064Y-97810000D01*
%TO.C,D1*%
X141690000Y-85525000D02*
X141690000Y-88210000D01*
X141690000Y-88210000D02*
X143610000Y-88210000D01*
X143610000Y-88210000D02*
X143610000Y-85525000D01*
%TO.C,D2*%
X141690000Y-92975000D02*
X141690000Y-95660000D01*
X141690000Y-95660000D02*
X143610000Y-95660000D01*
X143610000Y-95660000D02*
X143610000Y-92975000D01*
%TO.C,C1*%
X172221252Y-83905000D02*
X171698748Y-83905000D01*
X172221252Y-85375000D02*
X171698748Y-85375000D01*
%TD*%
%LPC*%
D12*
%TO.C,REF\u002A\u002A*%
X186150000Y-123670000D03*
%TD*%
D13*
%TO.C,C3*%
X145375000Y-89375000D03*
X145375000Y-87475000D03*
%TD*%
D14*
%TO.C,C4*%
X145375000Y-93075000D03*
X145375000Y-94975000D03*
%TD*%
D12*
%TO.C,REF\u002A\u002A*%
X96150000Y-55670000D03*
%TD*%
D15*
%TO.C,U1*%
X172840000Y-89880000D03*
D16*
X172752500Y-88380000D03*
D15*
X172840000Y-86880000D03*
%TD*%
D17*
%TO.C,C12*%
X173875000Y-116900000D03*
X173875000Y-118450000D03*
%TD*%
D18*
%TO.C,J1*%
X184960000Y-66120000D03*
D19*
X187500000Y-66120000D03*
X184960000Y-68660000D03*
X187500000Y-68660000D03*
X184960000Y-71200000D03*
X187500000Y-71200000D03*
X184960000Y-73740000D03*
X187500000Y-73740000D03*
X184960000Y-76280000D03*
X187500000Y-76280000D03*
X184960000Y-78820000D03*
X187500000Y-78820000D03*
X184960000Y-81360000D03*
X187500000Y-81360000D03*
X184960000Y-83900000D03*
X187500000Y-83900000D03*
X184960000Y-86440000D03*
X187500000Y-86440000D03*
X184960000Y-88980000D03*
X187500000Y-88980000D03*
X184960000Y-91520000D03*
X187500000Y-91520000D03*
X184960000Y-94060000D03*
X187500000Y-94060000D03*
X184960000Y-96600000D03*
X187500000Y-96600000D03*
X184960000Y-99140000D03*
X187500000Y-99140000D03*
X184960000Y-101680000D03*
X187500000Y-101680000D03*
X184960000Y-104220000D03*
X187500000Y-104220000D03*
X184960000Y-106760000D03*
X187500000Y-106760000D03*
X184960000Y-109300000D03*
X187500000Y-109300000D03*
X184960000Y-111840000D03*
X187500000Y-111840000D03*
X184960000Y-114380000D03*
X187500000Y-114380000D03*
%TD*%
D20*
%TO.C,U3*%
X170850000Y-120075000D03*
X170850000Y-121025000D03*
X170850000Y-121975000D03*
X173125000Y-121975000D03*
X173125000Y-120075000D03*
%TD*%
D21*
%TO.C,C8*%
X163875000Y-97700000D03*
X162325000Y-97700000D03*
%TD*%
D18*
%TO.C,J3*%
X167680000Y-78600000D03*
D19*
X165140000Y-78600000D03*
X162600000Y-78600000D03*
X160060000Y-78600000D03*
%TD*%
D17*
%TO.C,C7*%
X166700000Y-88325000D03*
X166700000Y-89875000D03*
%TD*%
D22*
%TO.C,Y1*%
X149925000Y-93650000D03*
X149925000Y-88770000D03*
%TD*%
D13*
%TO.C,C11*%
X175300000Y-122125000D03*
X175300000Y-120225000D03*
%TD*%
D12*
%TO.C,REF\u002A\u002A*%
X96150000Y-123670000D03*
%TD*%
D14*
%TO.C,C10*%
X168650000Y-120075000D03*
X168650000Y-121975000D03*
%TD*%
D23*
%TO.C,C6*%
X157725000Y-85325000D03*
X159275000Y-85325000D03*
%TD*%
D24*
%TO.C,R1*%
X141825000Y-83525000D03*
X143650000Y-83525000D03*
%TD*%
D12*
%TO.C,REF\u002A\u002A*%
X186150000Y-55670000D03*
%TD*%
D23*
%TO.C,C5*%
X154475000Y-85800000D03*
X156025000Y-85800000D03*
%TD*%
D18*
%TO.C,J2*%
X170500000Y-126100000D03*
D19*
X173040000Y-126100000D03*
X175580000Y-126100000D03*
%TD*%
D25*
%TO.C,U2*%
X156462500Y-88757500D03*
X156462500Y-89257500D03*
X156462500Y-89757500D03*
X156462500Y-90257500D03*
X156462500Y-90757500D03*
X156462500Y-91257500D03*
X156462500Y-91757500D03*
X156462500Y-92257500D03*
X156462500Y-92757500D03*
X156462500Y-93257500D03*
X156462500Y-93757500D03*
X156462500Y-94257500D03*
D26*
X157875000Y-95670000D03*
X158375000Y-95670000D03*
X158875000Y-95670000D03*
X159375000Y-95670000D03*
X159875000Y-95670000D03*
X160375000Y-95670000D03*
X160875000Y-95670000D03*
X161375000Y-95670000D03*
X161875000Y-95670000D03*
X162375000Y-95670000D03*
X162875000Y-95670000D03*
X163375000Y-95670000D03*
D25*
X164787500Y-94257500D03*
X164787500Y-93757500D03*
X164787500Y-93257500D03*
X164787500Y-92757500D03*
X164787500Y-92257500D03*
X164787500Y-91757500D03*
X164787500Y-91257500D03*
X164787500Y-90757500D03*
X164787500Y-90257500D03*
X164787500Y-89757500D03*
X164787500Y-89257500D03*
X164787500Y-88757500D03*
D26*
X163375000Y-87345000D03*
X162875000Y-87345000D03*
X162375000Y-87345000D03*
X161875000Y-87345000D03*
X161375000Y-87345000D03*
X160875000Y-87345000D03*
X160375000Y-87345000D03*
X159875000Y-87345000D03*
X159375000Y-87345000D03*
X158875000Y-87345000D03*
X158375000Y-87345000D03*
X157875000Y-87345000D03*
%TD*%
D27*
%TO.C,R2*%
X157437500Y-82950000D03*
X155612500Y-82950000D03*
%TD*%
D28*
%TO.C,C2*%
X172970000Y-92100000D03*
X171070000Y-92100000D03*
%TD*%
D29*
%TO.C,C9*%
X154400000Y-94400000D03*
X154400000Y-92850000D03*
%TD*%
D24*
%TO.C,R3*%
X141737500Y-97075000D03*
X143562500Y-97075000D03*
%TD*%
D30*
%TO.C,D1*%
X142650000Y-87462500D03*
X142650000Y-85587500D03*
%TD*%
%TO.C,D2*%
X142650000Y-94912500D03*
X142650000Y-93037500D03*
%TD*%
D28*
%TO.C,C1*%
X172910000Y-84640000D03*
X171010000Y-84640000D03*
%TD*%
%LPD*%
M02*
