%TF.GenerationSoftware,KiCad,Pcbnew,8.0.5*%
%TF.CreationDate,2025-03-12T16:10:10-07:00*%
%TF.ProjectId,Mechatronics LED,4d656368-6174-4726-9f6e-696373204c45,rev?*%
%TF.SameCoordinates,Original*%
%TF.FileFunction,Drillmap*%
%TF.FilePolarity,Positive*%
%FSLAX45Y45*%
G04 Gerber Fmt 4.5, Leading zero omitted, Abs format (unit mm)*
G04 Created by KiCad (PCBNEW 8.0.5) date 2025-03-12 16:10:10*
%MOMM*%
%LPD*%
G01*
G04 APERTURE LIST*
%ADD10C,0.100000*%
%ADD11C,0.200000*%
%ADD12C,0.500000*%
G04 APERTURE END LIST*
D10*
X9115000Y-5067000D02*
X19115000Y-5067000D01*
X19115000Y-12867000D01*
X9115000Y-12867000D01*
X9115000Y-5067000D01*
D11*
D10*
X14507500Y-9787500D02*
X14537500Y-9817500D01*
X14537500Y-9787500D02*
X14507500Y-9817500D01*
X14523750Y-9102500D02*
X14553750Y-9132500D01*
X14553750Y-9102500D02*
X14523750Y-9132500D01*
X15305000Y-9270000D02*
X15335000Y-9300000D01*
X15335000Y-9270000D02*
X15305000Y-9300000D01*
X15322500Y-8692500D02*
X15352500Y-8722500D01*
X15352500Y-8692500D02*
X15322500Y-8722500D01*
X15382500Y-8280000D02*
X15412500Y-8310000D01*
X15412500Y-8280000D02*
X15382500Y-8310000D01*
X15480000Y-8752500D02*
X15510000Y-8782500D01*
X15510000Y-8752500D02*
X15480000Y-8782500D01*
X15627500Y-8442500D02*
X15657500Y-8472500D01*
X15657500Y-8442500D02*
X15627500Y-8472500D01*
X15902500Y-9757500D02*
X15932500Y-9787500D01*
X15932500Y-9757500D02*
X15902500Y-9787500D01*
X17455000Y-8822500D02*
X17485000Y-8852500D01*
X17485000Y-8822500D02*
X17455000Y-8852500D01*
X17462500Y-9200000D02*
X17492500Y-9230000D01*
X17492500Y-9200000D02*
X17462500Y-9230000D01*
X14285000Y-8920000D02*
G75*
G02*
X14245000Y-8920000I-20000J0D01*
G01*
X14245000Y-8920000D02*
G75*
G02*
X14285000Y-8920000I20000J0D01*
G01*
X14285000Y-9130000D02*
G75*
G02*
X14245000Y-9130000I-20000J0D01*
G01*
X14245000Y-9130000D02*
G75*
G02*
X14285000Y-9130000I20000J0D01*
G01*
X15630000Y-9537500D02*
G75*
G02*
X15590000Y-9537500I-20000J0D01*
G01*
X15590000Y-9537500D02*
G75*
G02*
X15630000Y-9537500I20000J0D01*
G01*
X16092500Y-8532500D02*
G75*
G02*
X16052500Y-8532500I-20000J0D01*
G01*
X16052500Y-8532500D02*
G75*
G02*
X16092500Y-8532500I20000J0D01*
G01*
X16530000Y-9770000D02*
G75*
G02*
X16490000Y-9770000I-20000J0D01*
G01*
X16490000Y-9770000D02*
G75*
G02*
X16530000Y-9770000I20000J0D01*
G01*
X16717500Y-12192500D02*
G75*
G02*
X16677500Y-12192500I-20000J0D01*
G01*
X16677500Y-12192500D02*
G75*
G02*
X16717500Y-12192500I20000J0D01*
G01*
X16817500Y-8710000D02*
G75*
G02*
X16777500Y-8710000I-20000J0D01*
G01*
X16777500Y-8710000D02*
G75*
G02*
X16817500Y-8710000I20000J0D01*
G01*
X16822500Y-8902500D02*
G75*
G02*
X16782500Y-8902500I-20000J0D01*
G01*
X16782500Y-8902500D02*
G75*
G02*
X16822500Y-8902500I20000J0D01*
G01*
X16990000Y-8430000D02*
G75*
G02*
X16950000Y-8430000I-20000J0D01*
G01*
X16950000Y-8430000D02*
G75*
G02*
X16990000Y-8430000I20000J0D01*
G01*
X17000000Y-9210000D02*
G75*
G02*
X16960000Y-9210000I-20000J0D01*
G01*
X16960000Y-9210000D02*
G75*
G02*
X17000000Y-9210000I20000J0D01*
G01*
X17250000Y-11720000D02*
G75*
G02*
X17210000Y-11720000I-20000J0D01*
G01*
X17210000Y-11720000D02*
G75*
G02*
X17250000Y-11720000I20000J0D01*
G01*
X17727500Y-12080000D02*
G75*
G02*
X17687500Y-12080000I-20000J0D01*
G01*
X17687500Y-12080000D02*
G75*
G02*
X17727500Y-12080000I20000J0D01*
G01*
X17782500Y-9927500D02*
G75*
G02*
X17742500Y-9927500I-20000J0D01*
G01*
X17742500Y-9927500D02*
G75*
G02*
X17782500Y-9927500I20000J0D01*
G01*
X17782500Y-11465000D02*
G75*
G02*
X17742500Y-11465000I-20000J0D01*
G01*
X17742500Y-11465000D02*
G75*
G02*
X17782500Y-11465000I20000J0D01*
G01*
X14992500Y-8837000D02*
X14992500Y-8917000D01*
X14952500Y-8877000D02*
X15032500Y-8877000D01*
X14992500Y-9325000D02*
X14992500Y-9405000D01*
X14952500Y-9365000D02*
X15032500Y-9365000D01*
X16041356Y-7895356D02*
X16041356Y-7824644D01*
X15970644Y-7824644D01*
X15970644Y-7895356D01*
X16041356Y-7895356D01*
X16295356Y-7895356D02*
X16295356Y-7824644D01*
X16224644Y-7824644D01*
X16224644Y-7895356D01*
X16295356Y-7895356D01*
X16549356Y-7895356D02*
X16549356Y-7824644D01*
X16478644Y-7824644D01*
X16478644Y-7895356D01*
X16549356Y-7895356D01*
X16803356Y-7895356D02*
X16803356Y-7824644D01*
X16732644Y-7824644D01*
X16732644Y-7895356D01*
X16803356Y-7895356D01*
X17085356Y-12645356D02*
X17085356Y-12574644D01*
X17014644Y-12574644D01*
X17014644Y-12645356D01*
X17085356Y-12645356D01*
X17339356Y-12645356D02*
X17339356Y-12574644D01*
X17268644Y-12574644D01*
X17268644Y-12645356D01*
X17339356Y-12645356D01*
X17593356Y-12645356D02*
X17593356Y-12574644D01*
X17522644Y-12574644D01*
X17522644Y-12645356D01*
X17593356Y-12645356D01*
X18531356Y-6647356D02*
X18531356Y-6576644D01*
X18460644Y-6576644D01*
X18460644Y-6647356D01*
X18531356Y-6647356D01*
X18531356Y-6901356D02*
X18531356Y-6830644D01*
X18460644Y-6830644D01*
X18460644Y-6901356D01*
X18531356Y-6901356D01*
X18531356Y-7155356D02*
X18531356Y-7084644D01*
X18460644Y-7084644D01*
X18460644Y-7155356D01*
X18531356Y-7155356D01*
X18531356Y-7409356D02*
X18531356Y-7338644D01*
X18460644Y-7338644D01*
X18460644Y-7409356D01*
X18531356Y-7409356D01*
X18531356Y-7663356D02*
X18531356Y-7592644D01*
X18460644Y-7592644D01*
X18460644Y-7663356D01*
X18531356Y-7663356D01*
X18531356Y-7917356D02*
X18531356Y-7846644D01*
X18460644Y-7846644D01*
X18460644Y-7917356D01*
X18531356Y-7917356D01*
X18531356Y-8171356D02*
X18531356Y-8100644D01*
X18460644Y-8100644D01*
X18460644Y-8171356D01*
X18531356Y-8171356D01*
X18531356Y-8425356D02*
X18531356Y-8354644D01*
X18460644Y-8354644D01*
X18460644Y-8425356D01*
X18531356Y-8425356D01*
X18531356Y-8679356D02*
X18531356Y-8608644D01*
X18460644Y-8608644D01*
X18460644Y-8679356D01*
X18531356Y-8679356D01*
X18531356Y-8933356D02*
X18531356Y-8862644D01*
X18460644Y-8862644D01*
X18460644Y-8933356D01*
X18531356Y-8933356D01*
X18531356Y-9187356D02*
X18531356Y-9116644D01*
X18460644Y-9116644D01*
X18460644Y-9187356D01*
X18531356Y-9187356D01*
X18531356Y-9441356D02*
X18531356Y-9370644D01*
X18460644Y-9370644D01*
X18460644Y-9441356D01*
X18531356Y-9441356D01*
X18531356Y-9695356D02*
X18531356Y-9624644D01*
X18460644Y-9624644D01*
X18460644Y-9695356D01*
X18531356Y-9695356D01*
X18531356Y-9949356D02*
X18531356Y-9878644D01*
X18460644Y-9878644D01*
X18460644Y-9949356D01*
X18531356Y-9949356D01*
X18531356Y-10203356D02*
X18531356Y-10132644D01*
X18460644Y-10132644D01*
X18460644Y-10203356D01*
X18531356Y-10203356D01*
X18531356Y-10457356D02*
X18531356Y-10386644D01*
X18460644Y-10386644D01*
X18460644Y-10457356D01*
X18531356Y-10457356D01*
X18531356Y-10711356D02*
X18531356Y-10640644D01*
X18460644Y-10640644D01*
X18460644Y-10711356D01*
X18531356Y-10711356D01*
X18531356Y-10965356D02*
X18531356Y-10894644D01*
X18460644Y-10894644D01*
X18460644Y-10965356D01*
X18531356Y-10965356D01*
X18531356Y-11219356D02*
X18531356Y-11148644D01*
X18460644Y-11148644D01*
X18460644Y-11219356D01*
X18531356Y-11219356D01*
X18531356Y-11473356D02*
X18531356Y-11402644D01*
X18460644Y-11402644D01*
X18460644Y-11473356D01*
X18531356Y-11473356D01*
X18785356Y-6647356D02*
X18785356Y-6576644D01*
X18714644Y-6576644D01*
X18714644Y-6647356D01*
X18785356Y-6647356D01*
X18785356Y-6901356D02*
X18785356Y-6830644D01*
X18714644Y-6830644D01*
X18714644Y-6901356D01*
X18785356Y-6901356D01*
X18785356Y-7155356D02*
X18785356Y-7084644D01*
X18714644Y-7084644D01*
X18714644Y-7155356D01*
X18785356Y-7155356D01*
X18785356Y-7409356D02*
X18785356Y-7338644D01*
X18714644Y-7338644D01*
X18714644Y-7409356D01*
X18785356Y-7409356D01*
X18785356Y-7663356D02*
X18785356Y-7592644D01*
X18714644Y-7592644D01*
X18714644Y-7663356D01*
X18785356Y-7663356D01*
X18785356Y-7917356D02*
X18785356Y-7846644D01*
X18714644Y-7846644D01*
X18714644Y-7917356D01*
X18785356Y-7917356D01*
X18785356Y-8171356D02*
X18785356Y-8100644D01*
X18714644Y-8100644D01*
X18714644Y-8171356D01*
X18785356Y-8171356D01*
X18785356Y-8425356D02*
X18785356Y-8354644D01*
X18714644Y-8354644D01*
X18714644Y-8425356D01*
X18785356Y-8425356D01*
X18785356Y-8679356D02*
X18785356Y-8608644D01*
X18714644Y-8608644D01*
X18714644Y-8679356D01*
X18785356Y-8679356D01*
X18785356Y-8933356D02*
X18785356Y-8862644D01*
X18714644Y-8862644D01*
X18714644Y-8933356D01*
X18785356Y-8933356D01*
X18785356Y-9187356D02*
X18785356Y-9116644D01*
X18714644Y-9116644D01*
X18714644Y-9187356D01*
X18785356Y-9187356D01*
X18785356Y-9441356D02*
X18785356Y-9370644D01*
X18714644Y-9370644D01*
X18714644Y-9441356D01*
X18785356Y-9441356D01*
X18785356Y-9695356D02*
X18785356Y-9624644D01*
X18714644Y-9624644D01*
X18714644Y-9695356D01*
X18785356Y-9695356D01*
X18785356Y-9949356D02*
X18785356Y-9878644D01*
X18714644Y-9878644D01*
X18714644Y-9949356D01*
X18785356Y-9949356D01*
X18785356Y-10203356D02*
X18785356Y-10132644D01*
X18714644Y-10132644D01*
X18714644Y-10203356D01*
X18785356Y-10203356D01*
X18785356Y-10457356D02*
X18785356Y-10386644D01*
X18714644Y-10386644D01*
X18714644Y-10457356D01*
X18785356Y-10457356D01*
X18785356Y-10711356D02*
X18785356Y-10640644D01*
X18714644Y-10640644D01*
X18714644Y-10711356D01*
X18785356Y-10711356D01*
X18785356Y-10965356D02*
X18785356Y-10894644D01*
X18714644Y-10894644D01*
X18714644Y-10965356D01*
X18785356Y-10965356D01*
X18785356Y-11219356D02*
X18785356Y-11148644D01*
X18714644Y-11148644D01*
X18714644Y-11219356D01*
X18785356Y-11219356D01*
X18785356Y-11473356D02*
X18785356Y-11402644D01*
X18714644Y-11402644D01*
X18714644Y-11473356D01*
X18785356Y-11473356D01*
D12*
X9615000Y-5817000D02*
X9865000Y-5567000D01*
X9615000Y-5317000D01*
X9365000Y-5567000D01*
X9615000Y-5817000D01*
X9615000Y-12617000D02*
X9865000Y-12367000D01*
X9615000Y-12117000D01*
X9365000Y-12367000D01*
X9615000Y-12617000D01*
X18615000Y-5817000D02*
X18865000Y-5567000D01*
X18615000Y-5317000D01*
X18365000Y-5567000D01*
X18615000Y-5817000D01*
X18615000Y-12617000D02*
X18865000Y-12367000D01*
X18615000Y-12117000D01*
X18365000Y-12367000D01*
X18615000Y-12617000D01*
D11*
X9370777Y-13183484D02*
X9370777Y-12983484D01*
X9370777Y-12983484D02*
X9418396Y-12983484D01*
X9418396Y-12983484D02*
X9446967Y-12993008D01*
X9446967Y-12993008D02*
X9466015Y-13012055D01*
X9466015Y-13012055D02*
X9475539Y-13031103D01*
X9475539Y-13031103D02*
X9485063Y-13069198D01*
X9485063Y-13069198D02*
X9485063Y-13097769D01*
X9485063Y-13097769D02*
X9475539Y-13135865D01*
X9475539Y-13135865D02*
X9466015Y-13154912D01*
X9466015Y-13154912D02*
X9446967Y-13173960D01*
X9446967Y-13173960D02*
X9418396Y-13183484D01*
X9418396Y-13183484D02*
X9370777Y-13183484D01*
X9570777Y-13183484D02*
X9570777Y-13050150D01*
X9570777Y-13088246D02*
X9580301Y-13069198D01*
X9580301Y-13069198D02*
X9589824Y-13059674D01*
X9589824Y-13059674D02*
X9608872Y-13050150D01*
X9608872Y-13050150D02*
X9627920Y-13050150D01*
X9694586Y-13183484D02*
X9694586Y-13050150D01*
X9694586Y-12983484D02*
X9685063Y-12993008D01*
X9685063Y-12993008D02*
X9694586Y-13002531D01*
X9694586Y-13002531D02*
X9704110Y-12993008D01*
X9704110Y-12993008D02*
X9694586Y-12983484D01*
X9694586Y-12983484D02*
X9694586Y-13002531D01*
X9818396Y-13183484D02*
X9799348Y-13173960D01*
X9799348Y-13173960D02*
X9789824Y-13154912D01*
X9789824Y-13154912D02*
X9789824Y-12983484D01*
X9923158Y-13183484D02*
X9904110Y-13173960D01*
X9904110Y-13173960D02*
X9894586Y-13154912D01*
X9894586Y-13154912D02*
X9894586Y-12983484D01*
X10151729Y-13183484D02*
X10151729Y-12983484D01*
X10151729Y-12983484D02*
X10218396Y-13126341D01*
X10218396Y-13126341D02*
X10285063Y-12983484D01*
X10285063Y-12983484D02*
X10285063Y-13183484D01*
X10466015Y-13183484D02*
X10466015Y-13078722D01*
X10466015Y-13078722D02*
X10456491Y-13059674D01*
X10456491Y-13059674D02*
X10437444Y-13050150D01*
X10437444Y-13050150D02*
X10399348Y-13050150D01*
X10399348Y-13050150D02*
X10380301Y-13059674D01*
X10466015Y-13173960D02*
X10446967Y-13183484D01*
X10446967Y-13183484D02*
X10399348Y-13183484D01*
X10399348Y-13183484D02*
X10380301Y-13173960D01*
X10380301Y-13173960D02*
X10370777Y-13154912D01*
X10370777Y-13154912D02*
X10370777Y-13135865D01*
X10370777Y-13135865D02*
X10380301Y-13116817D01*
X10380301Y-13116817D02*
X10399348Y-13107293D01*
X10399348Y-13107293D02*
X10446967Y-13107293D01*
X10446967Y-13107293D02*
X10466015Y-13097769D01*
X10561253Y-13050150D02*
X10561253Y-13250150D01*
X10561253Y-13059674D02*
X10580301Y-13050150D01*
X10580301Y-13050150D02*
X10618396Y-13050150D01*
X10618396Y-13050150D02*
X10637444Y-13059674D01*
X10637444Y-13059674D02*
X10646967Y-13069198D01*
X10646967Y-13069198D02*
X10656491Y-13088246D01*
X10656491Y-13088246D02*
X10656491Y-13145388D01*
X10656491Y-13145388D02*
X10646967Y-13164436D01*
X10646967Y-13164436D02*
X10637444Y-13173960D01*
X10637444Y-13173960D02*
X10618396Y-13183484D01*
X10618396Y-13183484D02*
X10580301Y-13183484D01*
X10580301Y-13183484D02*
X10561253Y-13173960D01*
X10742205Y-13164436D02*
X10751729Y-13173960D01*
X10751729Y-13173960D02*
X10742205Y-13183484D01*
X10742205Y-13183484D02*
X10732682Y-13173960D01*
X10732682Y-13173960D02*
X10742205Y-13164436D01*
X10742205Y-13164436D02*
X10742205Y-13183484D01*
X10742205Y-13059674D02*
X10751729Y-13069198D01*
X10751729Y-13069198D02*
X10742205Y-13078722D01*
X10742205Y-13078722D02*
X10732682Y-13069198D01*
X10732682Y-13069198D02*
X10742205Y-13059674D01*
X10742205Y-13059674D02*
X10742205Y-13078722D01*
D10*
X9080000Y-13497000D02*
X9110000Y-13527000D01*
X9110000Y-13497000D02*
X9080000Y-13527000D01*
D11*
X9408872Y-13403484D02*
X9427920Y-13403484D01*
X9427920Y-13403484D02*
X9446967Y-13413008D01*
X9446967Y-13413008D02*
X9456491Y-13422531D01*
X9456491Y-13422531D02*
X9466015Y-13441579D01*
X9466015Y-13441579D02*
X9475539Y-13479674D01*
X9475539Y-13479674D02*
X9475539Y-13527293D01*
X9475539Y-13527293D02*
X9466015Y-13565388D01*
X9466015Y-13565388D02*
X9456491Y-13584436D01*
X9456491Y-13584436D02*
X9446967Y-13593960D01*
X9446967Y-13593960D02*
X9427920Y-13603484D01*
X9427920Y-13603484D02*
X9408872Y-13603484D01*
X9408872Y-13603484D02*
X9389824Y-13593960D01*
X9389824Y-13593960D02*
X9380301Y-13584436D01*
X9380301Y-13584436D02*
X9370777Y-13565388D01*
X9370777Y-13565388D02*
X9361253Y-13527293D01*
X9361253Y-13527293D02*
X9361253Y-13479674D01*
X9361253Y-13479674D02*
X9370777Y-13441579D01*
X9370777Y-13441579D02*
X9380301Y-13422531D01*
X9380301Y-13422531D02*
X9389824Y-13413008D01*
X9389824Y-13413008D02*
X9408872Y-13403484D01*
X9561253Y-13584436D02*
X9570777Y-13593960D01*
X9570777Y-13593960D02*
X9561253Y-13603484D01*
X9561253Y-13603484D02*
X9551729Y-13593960D01*
X9551729Y-13593960D02*
X9561253Y-13584436D01*
X9561253Y-13584436D02*
X9561253Y-13603484D01*
X9637444Y-13403484D02*
X9761253Y-13403484D01*
X9761253Y-13403484D02*
X9694586Y-13479674D01*
X9694586Y-13479674D02*
X9723158Y-13479674D01*
X9723158Y-13479674D02*
X9742205Y-13489198D01*
X9742205Y-13489198D02*
X9751729Y-13498722D01*
X9751729Y-13498722D02*
X9761253Y-13517769D01*
X9761253Y-13517769D02*
X9761253Y-13565388D01*
X9761253Y-13565388D02*
X9751729Y-13584436D01*
X9751729Y-13584436D02*
X9742205Y-13593960D01*
X9742205Y-13593960D02*
X9723158Y-13603484D01*
X9723158Y-13603484D02*
X9666015Y-13603484D01*
X9666015Y-13603484D02*
X9646967Y-13593960D01*
X9646967Y-13593960D02*
X9637444Y-13584436D01*
X9885063Y-13403484D02*
X9904110Y-13403484D01*
X9904110Y-13403484D02*
X9923158Y-13413008D01*
X9923158Y-13413008D02*
X9932682Y-13422531D01*
X9932682Y-13422531D02*
X9942205Y-13441579D01*
X9942205Y-13441579D02*
X9951729Y-13479674D01*
X9951729Y-13479674D02*
X9951729Y-13527293D01*
X9951729Y-13527293D02*
X9942205Y-13565388D01*
X9942205Y-13565388D02*
X9932682Y-13584436D01*
X9932682Y-13584436D02*
X9923158Y-13593960D01*
X9923158Y-13593960D02*
X9904110Y-13603484D01*
X9904110Y-13603484D02*
X9885063Y-13603484D01*
X9885063Y-13603484D02*
X9866015Y-13593960D01*
X9866015Y-13593960D02*
X9856491Y-13584436D01*
X9856491Y-13584436D02*
X9846967Y-13565388D01*
X9846967Y-13565388D02*
X9837444Y-13527293D01*
X9837444Y-13527293D02*
X9837444Y-13479674D01*
X9837444Y-13479674D02*
X9846967Y-13441579D01*
X9846967Y-13441579D02*
X9856491Y-13422531D01*
X9856491Y-13422531D02*
X9866015Y-13413008D01*
X9866015Y-13413008D02*
X9885063Y-13403484D01*
X10075539Y-13403484D02*
X10094586Y-13403484D01*
X10094586Y-13403484D02*
X10113634Y-13413008D01*
X10113634Y-13413008D02*
X10123158Y-13422531D01*
X10123158Y-13422531D02*
X10132682Y-13441579D01*
X10132682Y-13441579D02*
X10142205Y-13479674D01*
X10142205Y-13479674D02*
X10142205Y-13527293D01*
X10142205Y-13527293D02*
X10132682Y-13565388D01*
X10132682Y-13565388D02*
X10123158Y-13584436D01*
X10123158Y-13584436D02*
X10113634Y-13593960D01*
X10113634Y-13593960D02*
X10094586Y-13603484D01*
X10094586Y-13603484D02*
X10075539Y-13603484D01*
X10075539Y-13603484D02*
X10056491Y-13593960D01*
X10056491Y-13593960D02*
X10046967Y-13584436D01*
X10046967Y-13584436D02*
X10037444Y-13565388D01*
X10037444Y-13565388D02*
X10027920Y-13527293D01*
X10027920Y-13527293D02*
X10027920Y-13479674D01*
X10027920Y-13479674D02*
X10037444Y-13441579D01*
X10037444Y-13441579D02*
X10046967Y-13422531D01*
X10046967Y-13422531D02*
X10056491Y-13413008D01*
X10056491Y-13413008D02*
X10075539Y-13403484D01*
X10227920Y-13603484D02*
X10227920Y-13470150D01*
X10227920Y-13489198D02*
X10237444Y-13479674D01*
X10237444Y-13479674D02*
X10256491Y-13470150D01*
X10256491Y-13470150D02*
X10285063Y-13470150D01*
X10285063Y-13470150D02*
X10304110Y-13479674D01*
X10304110Y-13479674D02*
X10313634Y-13498722D01*
X10313634Y-13498722D02*
X10313634Y-13603484D01*
X10313634Y-13498722D02*
X10323158Y-13479674D01*
X10323158Y-13479674D02*
X10342205Y-13470150D01*
X10342205Y-13470150D02*
X10370777Y-13470150D01*
X10370777Y-13470150D02*
X10389825Y-13479674D01*
X10389825Y-13479674D02*
X10399348Y-13498722D01*
X10399348Y-13498722D02*
X10399348Y-13603484D01*
X10494586Y-13603484D02*
X10494586Y-13470150D01*
X10494586Y-13489198D02*
X10504110Y-13479674D01*
X10504110Y-13479674D02*
X10523158Y-13470150D01*
X10523158Y-13470150D02*
X10551729Y-13470150D01*
X10551729Y-13470150D02*
X10570777Y-13479674D01*
X10570777Y-13479674D02*
X10580301Y-13498722D01*
X10580301Y-13498722D02*
X10580301Y-13603484D01*
X10580301Y-13498722D02*
X10589825Y-13479674D01*
X10589825Y-13479674D02*
X10608872Y-13470150D01*
X10608872Y-13470150D02*
X10637444Y-13470150D01*
X10637444Y-13470150D02*
X10656491Y-13479674D01*
X10656491Y-13479674D02*
X10666015Y-13498722D01*
X10666015Y-13498722D02*
X10666015Y-13603484D01*
X11056491Y-13393960D02*
X10885063Y-13651103D01*
X11313634Y-13403484D02*
X11332682Y-13403484D01*
X11332682Y-13403484D02*
X11351729Y-13413008D01*
X11351729Y-13413008D02*
X11361253Y-13422531D01*
X11361253Y-13422531D02*
X11370777Y-13441579D01*
X11370777Y-13441579D02*
X11380301Y-13479674D01*
X11380301Y-13479674D02*
X11380301Y-13527293D01*
X11380301Y-13527293D02*
X11370777Y-13565388D01*
X11370777Y-13565388D02*
X11361253Y-13584436D01*
X11361253Y-13584436D02*
X11351729Y-13593960D01*
X11351729Y-13593960D02*
X11332682Y-13603484D01*
X11332682Y-13603484D02*
X11313634Y-13603484D01*
X11313634Y-13603484D02*
X11294586Y-13593960D01*
X11294586Y-13593960D02*
X11285063Y-13584436D01*
X11285063Y-13584436D02*
X11275539Y-13565388D01*
X11275539Y-13565388D02*
X11266015Y-13527293D01*
X11266015Y-13527293D02*
X11266015Y-13479674D01*
X11266015Y-13479674D02*
X11275539Y-13441579D01*
X11275539Y-13441579D02*
X11285063Y-13422531D01*
X11285063Y-13422531D02*
X11294586Y-13413008D01*
X11294586Y-13413008D02*
X11313634Y-13403484D01*
X11466015Y-13584436D02*
X11475539Y-13593960D01*
X11475539Y-13593960D02*
X11466015Y-13603484D01*
X11466015Y-13603484D02*
X11456491Y-13593960D01*
X11456491Y-13593960D02*
X11466015Y-13584436D01*
X11466015Y-13584436D02*
X11466015Y-13603484D01*
X11599348Y-13403484D02*
X11618396Y-13403484D01*
X11618396Y-13403484D02*
X11637444Y-13413008D01*
X11637444Y-13413008D02*
X11646967Y-13422531D01*
X11646967Y-13422531D02*
X11656491Y-13441579D01*
X11656491Y-13441579D02*
X11666015Y-13479674D01*
X11666015Y-13479674D02*
X11666015Y-13527293D01*
X11666015Y-13527293D02*
X11656491Y-13565388D01*
X11656491Y-13565388D02*
X11646967Y-13584436D01*
X11646967Y-13584436D02*
X11637444Y-13593960D01*
X11637444Y-13593960D02*
X11618396Y-13603484D01*
X11618396Y-13603484D02*
X11599348Y-13603484D01*
X11599348Y-13603484D02*
X11580301Y-13593960D01*
X11580301Y-13593960D02*
X11570777Y-13584436D01*
X11570777Y-13584436D02*
X11561253Y-13565388D01*
X11561253Y-13565388D02*
X11551729Y-13527293D01*
X11551729Y-13527293D02*
X11551729Y-13479674D01*
X11551729Y-13479674D02*
X11561253Y-13441579D01*
X11561253Y-13441579D02*
X11570777Y-13422531D01*
X11570777Y-13422531D02*
X11580301Y-13413008D01*
X11580301Y-13413008D02*
X11599348Y-13403484D01*
X11856491Y-13603484D02*
X11742206Y-13603484D01*
X11799348Y-13603484D02*
X11799348Y-13403484D01*
X11799348Y-13403484D02*
X11780301Y-13432055D01*
X11780301Y-13432055D02*
X11761253Y-13451103D01*
X11761253Y-13451103D02*
X11742206Y-13460627D01*
X12046967Y-13603484D02*
X11932682Y-13603484D01*
X11989825Y-13603484D02*
X11989825Y-13403484D01*
X11989825Y-13403484D02*
X11970777Y-13432055D01*
X11970777Y-13432055D02*
X11951729Y-13451103D01*
X11951729Y-13451103D02*
X11932682Y-13460627D01*
X12161253Y-13489198D02*
X12142206Y-13479674D01*
X12142206Y-13479674D02*
X12132682Y-13470150D01*
X12132682Y-13470150D02*
X12123158Y-13451103D01*
X12123158Y-13451103D02*
X12123158Y-13441579D01*
X12123158Y-13441579D02*
X12132682Y-13422531D01*
X12132682Y-13422531D02*
X12142206Y-13413008D01*
X12142206Y-13413008D02*
X12161253Y-13403484D01*
X12161253Y-13403484D02*
X12199348Y-13403484D01*
X12199348Y-13403484D02*
X12218396Y-13413008D01*
X12218396Y-13413008D02*
X12227920Y-13422531D01*
X12227920Y-13422531D02*
X12237444Y-13441579D01*
X12237444Y-13441579D02*
X12237444Y-13451103D01*
X12237444Y-13451103D02*
X12227920Y-13470150D01*
X12227920Y-13470150D02*
X12218396Y-13479674D01*
X12218396Y-13479674D02*
X12199348Y-13489198D01*
X12199348Y-13489198D02*
X12161253Y-13489198D01*
X12161253Y-13489198D02*
X12142206Y-13498722D01*
X12142206Y-13498722D02*
X12132682Y-13508246D01*
X12132682Y-13508246D02*
X12123158Y-13527293D01*
X12123158Y-13527293D02*
X12123158Y-13565388D01*
X12123158Y-13565388D02*
X12132682Y-13584436D01*
X12132682Y-13584436D02*
X12142206Y-13593960D01*
X12142206Y-13593960D02*
X12161253Y-13603484D01*
X12161253Y-13603484D02*
X12199348Y-13603484D01*
X12199348Y-13603484D02*
X12218396Y-13593960D01*
X12218396Y-13593960D02*
X12227920Y-13584436D01*
X12227920Y-13584436D02*
X12237444Y-13565388D01*
X12237444Y-13565388D02*
X12237444Y-13527293D01*
X12237444Y-13527293D02*
X12227920Y-13508246D01*
X12227920Y-13508246D02*
X12218396Y-13498722D01*
X12218396Y-13498722D02*
X12199348Y-13489198D01*
X12313634Y-13403484D02*
X12313634Y-13441579D01*
X12389825Y-13403484D02*
X12389825Y-13441579D01*
X12685063Y-13679674D02*
X12675539Y-13670150D01*
X12675539Y-13670150D02*
X12656491Y-13641579D01*
X12656491Y-13641579D02*
X12646968Y-13622531D01*
X12646968Y-13622531D02*
X12637444Y-13593960D01*
X12637444Y-13593960D02*
X12627920Y-13546341D01*
X12627920Y-13546341D02*
X12627920Y-13508246D01*
X12627920Y-13508246D02*
X12637444Y-13460627D01*
X12637444Y-13460627D02*
X12646968Y-13432055D01*
X12646968Y-13432055D02*
X12656491Y-13413008D01*
X12656491Y-13413008D02*
X12675539Y-13384436D01*
X12675539Y-13384436D02*
X12685063Y-13374912D01*
X12866015Y-13603484D02*
X12751729Y-13603484D01*
X12808872Y-13603484D02*
X12808872Y-13403484D01*
X12808872Y-13403484D02*
X12789825Y-13432055D01*
X12789825Y-13432055D02*
X12770777Y-13451103D01*
X12770777Y-13451103D02*
X12751729Y-13460627D01*
X12989825Y-13403484D02*
X13008872Y-13403484D01*
X13008872Y-13403484D02*
X13027920Y-13413008D01*
X13027920Y-13413008D02*
X13037444Y-13422531D01*
X13037444Y-13422531D02*
X13046968Y-13441579D01*
X13046968Y-13441579D02*
X13056491Y-13479674D01*
X13056491Y-13479674D02*
X13056491Y-13527293D01*
X13056491Y-13527293D02*
X13046968Y-13565388D01*
X13046968Y-13565388D02*
X13037444Y-13584436D01*
X13037444Y-13584436D02*
X13027920Y-13593960D01*
X13027920Y-13593960D02*
X13008872Y-13603484D01*
X13008872Y-13603484D02*
X12989825Y-13603484D01*
X12989825Y-13603484D02*
X12970777Y-13593960D01*
X12970777Y-13593960D02*
X12961253Y-13584436D01*
X12961253Y-13584436D02*
X12951729Y-13565388D01*
X12951729Y-13565388D02*
X12942206Y-13527293D01*
X12942206Y-13527293D02*
X12942206Y-13479674D01*
X12942206Y-13479674D02*
X12951729Y-13441579D01*
X12951729Y-13441579D02*
X12961253Y-13422531D01*
X12961253Y-13422531D02*
X12970777Y-13413008D01*
X12970777Y-13413008D02*
X12989825Y-13403484D01*
X13294587Y-13603484D02*
X13294587Y-13403484D01*
X13380301Y-13603484D02*
X13380301Y-13498722D01*
X13380301Y-13498722D02*
X13370777Y-13479674D01*
X13370777Y-13479674D02*
X13351730Y-13470150D01*
X13351730Y-13470150D02*
X13323158Y-13470150D01*
X13323158Y-13470150D02*
X13304110Y-13479674D01*
X13304110Y-13479674D02*
X13294587Y-13489198D01*
X13504110Y-13603484D02*
X13485063Y-13593960D01*
X13485063Y-13593960D02*
X13475539Y-13584436D01*
X13475539Y-13584436D02*
X13466015Y-13565388D01*
X13466015Y-13565388D02*
X13466015Y-13508246D01*
X13466015Y-13508246D02*
X13475539Y-13489198D01*
X13475539Y-13489198D02*
X13485063Y-13479674D01*
X13485063Y-13479674D02*
X13504110Y-13470150D01*
X13504110Y-13470150D02*
X13532682Y-13470150D01*
X13532682Y-13470150D02*
X13551730Y-13479674D01*
X13551730Y-13479674D02*
X13561253Y-13489198D01*
X13561253Y-13489198D02*
X13570777Y-13508246D01*
X13570777Y-13508246D02*
X13570777Y-13565388D01*
X13570777Y-13565388D02*
X13561253Y-13584436D01*
X13561253Y-13584436D02*
X13551730Y-13593960D01*
X13551730Y-13593960D02*
X13532682Y-13603484D01*
X13532682Y-13603484D02*
X13504110Y-13603484D01*
X13685063Y-13603484D02*
X13666015Y-13593960D01*
X13666015Y-13593960D02*
X13656491Y-13574912D01*
X13656491Y-13574912D02*
X13656491Y-13403484D01*
X13837444Y-13593960D02*
X13818396Y-13603484D01*
X13818396Y-13603484D02*
X13780301Y-13603484D01*
X13780301Y-13603484D02*
X13761253Y-13593960D01*
X13761253Y-13593960D02*
X13751730Y-13574912D01*
X13751730Y-13574912D02*
X13751730Y-13498722D01*
X13751730Y-13498722D02*
X13761253Y-13479674D01*
X13761253Y-13479674D02*
X13780301Y-13470150D01*
X13780301Y-13470150D02*
X13818396Y-13470150D01*
X13818396Y-13470150D02*
X13837444Y-13479674D01*
X13837444Y-13479674D02*
X13846968Y-13498722D01*
X13846968Y-13498722D02*
X13846968Y-13517769D01*
X13846968Y-13517769D02*
X13751730Y-13536817D01*
X13923158Y-13593960D02*
X13942206Y-13603484D01*
X13942206Y-13603484D02*
X13980301Y-13603484D01*
X13980301Y-13603484D02*
X13999349Y-13593960D01*
X13999349Y-13593960D02*
X14008872Y-13574912D01*
X14008872Y-13574912D02*
X14008872Y-13565388D01*
X14008872Y-13565388D02*
X13999349Y-13546341D01*
X13999349Y-13546341D02*
X13980301Y-13536817D01*
X13980301Y-13536817D02*
X13951730Y-13536817D01*
X13951730Y-13536817D02*
X13932682Y-13527293D01*
X13932682Y-13527293D02*
X13923158Y-13508246D01*
X13923158Y-13508246D02*
X13923158Y-13498722D01*
X13923158Y-13498722D02*
X13932682Y-13479674D01*
X13932682Y-13479674D02*
X13951730Y-13470150D01*
X13951730Y-13470150D02*
X13980301Y-13470150D01*
X13980301Y-13470150D02*
X13999349Y-13479674D01*
X14075539Y-13679674D02*
X14085063Y-13670150D01*
X14085063Y-13670150D02*
X14104111Y-13641579D01*
X14104111Y-13641579D02*
X14113634Y-13622531D01*
X14113634Y-13622531D02*
X14123158Y-13593960D01*
X14123158Y-13593960D02*
X14132682Y-13546341D01*
X14132682Y-13546341D02*
X14132682Y-13508246D01*
X14132682Y-13508246D02*
X14123158Y-13460627D01*
X14123158Y-13460627D02*
X14113634Y-13432055D01*
X14113634Y-13432055D02*
X14104111Y-13413008D01*
X14104111Y-13413008D02*
X14085063Y-13384436D01*
X14085063Y-13384436D02*
X14075539Y-13374912D01*
D10*
X9110000Y-13776000D02*
G75*
G02*
X9070000Y-13776000I-20000J0D01*
G01*
X9070000Y-13776000D02*
G75*
G02*
X9110000Y-13776000I20000J0D01*
G01*
D11*
X9408872Y-13667484D02*
X9427920Y-13667484D01*
X9427920Y-13667484D02*
X9446967Y-13677008D01*
X9446967Y-13677008D02*
X9456491Y-13686531D01*
X9456491Y-13686531D02*
X9466015Y-13705579D01*
X9466015Y-13705579D02*
X9475539Y-13743674D01*
X9475539Y-13743674D02*
X9475539Y-13791293D01*
X9475539Y-13791293D02*
X9466015Y-13829388D01*
X9466015Y-13829388D02*
X9456491Y-13848436D01*
X9456491Y-13848436D02*
X9446967Y-13857960D01*
X9446967Y-13857960D02*
X9427920Y-13867484D01*
X9427920Y-13867484D02*
X9408872Y-13867484D01*
X9408872Y-13867484D02*
X9389824Y-13857960D01*
X9389824Y-13857960D02*
X9380301Y-13848436D01*
X9380301Y-13848436D02*
X9370777Y-13829388D01*
X9370777Y-13829388D02*
X9361253Y-13791293D01*
X9361253Y-13791293D02*
X9361253Y-13743674D01*
X9361253Y-13743674D02*
X9370777Y-13705579D01*
X9370777Y-13705579D02*
X9380301Y-13686531D01*
X9380301Y-13686531D02*
X9389824Y-13677008D01*
X9389824Y-13677008D02*
X9408872Y-13667484D01*
X9561253Y-13848436D02*
X9570777Y-13857960D01*
X9570777Y-13857960D02*
X9561253Y-13867484D01*
X9561253Y-13867484D02*
X9551729Y-13857960D01*
X9551729Y-13857960D02*
X9561253Y-13848436D01*
X9561253Y-13848436D02*
X9561253Y-13867484D01*
X9742205Y-13734150D02*
X9742205Y-13867484D01*
X9694586Y-13657960D02*
X9646967Y-13800817D01*
X9646967Y-13800817D02*
X9770777Y-13800817D01*
X9885063Y-13667484D02*
X9904110Y-13667484D01*
X9904110Y-13667484D02*
X9923158Y-13677008D01*
X9923158Y-13677008D02*
X9932682Y-13686531D01*
X9932682Y-13686531D02*
X9942205Y-13705579D01*
X9942205Y-13705579D02*
X9951729Y-13743674D01*
X9951729Y-13743674D02*
X9951729Y-13791293D01*
X9951729Y-13791293D02*
X9942205Y-13829388D01*
X9942205Y-13829388D02*
X9932682Y-13848436D01*
X9932682Y-13848436D02*
X9923158Y-13857960D01*
X9923158Y-13857960D02*
X9904110Y-13867484D01*
X9904110Y-13867484D02*
X9885063Y-13867484D01*
X9885063Y-13867484D02*
X9866015Y-13857960D01*
X9866015Y-13857960D02*
X9856491Y-13848436D01*
X9856491Y-13848436D02*
X9846967Y-13829388D01*
X9846967Y-13829388D02*
X9837444Y-13791293D01*
X9837444Y-13791293D02*
X9837444Y-13743674D01*
X9837444Y-13743674D02*
X9846967Y-13705579D01*
X9846967Y-13705579D02*
X9856491Y-13686531D01*
X9856491Y-13686531D02*
X9866015Y-13677008D01*
X9866015Y-13677008D02*
X9885063Y-13667484D01*
X10075539Y-13667484D02*
X10094586Y-13667484D01*
X10094586Y-13667484D02*
X10113634Y-13677008D01*
X10113634Y-13677008D02*
X10123158Y-13686531D01*
X10123158Y-13686531D02*
X10132682Y-13705579D01*
X10132682Y-13705579D02*
X10142205Y-13743674D01*
X10142205Y-13743674D02*
X10142205Y-13791293D01*
X10142205Y-13791293D02*
X10132682Y-13829388D01*
X10132682Y-13829388D02*
X10123158Y-13848436D01*
X10123158Y-13848436D02*
X10113634Y-13857960D01*
X10113634Y-13857960D02*
X10094586Y-13867484D01*
X10094586Y-13867484D02*
X10075539Y-13867484D01*
X10075539Y-13867484D02*
X10056491Y-13857960D01*
X10056491Y-13857960D02*
X10046967Y-13848436D01*
X10046967Y-13848436D02*
X10037444Y-13829388D01*
X10037444Y-13829388D02*
X10027920Y-13791293D01*
X10027920Y-13791293D02*
X10027920Y-13743674D01*
X10027920Y-13743674D02*
X10037444Y-13705579D01*
X10037444Y-13705579D02*
X10046967Y-13686531D01*
X10046967Y-13686531D02*
X10056491Y-13677008D01*
X10056491Y-13677008D02*
X10075539Y-13667484D01*
X10227920Y-13867484D02*
X10227920Y-13734150D01*
X10227920Y-13753198D02*
X10237444Y-13743674D01*
X10237444Y-13743674D02*
X10256491Y-13734150D01*
X10256491Y-13734150D02*
X10285063Y-13734150D01*
X10285063Y-13734150D02*
X10304110Y-13743674D01*
X10304110Y-13743674D02*
X10313634Y-13762722D01*
X10313634Y-13762722D02*
X10313634Y-13867484D01*
X10313634Y-13762722D02*
X10323158Y-13743674D01*
X10323158Y-13743674D02*
X10342205Y-13734150D01*
X10342205Y-13734150D02*
X10370777Y-13734150D01*
X10370777Y-13734150D02*
X10389825Y-13743674D01*
X10389825Y-13743674D02*
X10399348Y-13762722D01*
X10399348Y-13762722D02*
X10399348Y-13867484D01*
X10494586Y-13867484D02*
X10494586Y-13734150D01*
X10494586Y-13753198D02*
X10504110Y-13743674D01*
X10504110Y-13743674D02*
X10523158Y-13734150D01*
X10523158Y-13734150D02*
X10551729Y-13734150D01*
X10551729Y-13734150D02*
X10570777Y-13743674D01*
X10570777Y-13743674D02*
X10580301Y-13762722D01*
X10580301Y-13762722D02*
X10580301Y-13867484D01*
X10580301Y-13762722D02*
X10589825Y-13743674D01*
X10589825Y-13743674D02*
X10608872Y-13734150D01*
X10608872Y-13734150D02*
X10637444Y-13734150D01*
X10637444Y-13734150D02*
X10656491Y-13743674D01*
X10656491Y-13743674D02*
X10666015Y-13762722D01*
X10666015Y-13762722D02*
X10666015Y-13867484D01*
X11056491Y-13657960D02*
X10885063Y-13915103D01*
X11313634Y-13667484D02*
X11332682Y-13667484D01*
X11332682Y-13667484D02*
X11351729Y-13677008D01*
X11351729Y-13677008D02*
X11361253Y-13686531D01*
X11361253Y-13686531D02*
X11370777Y-13705579D01*
X11370777Y-13705579D02*
X11380301Y-13743674D01*
X11380301Y-13743674D02*
X11380301Y-13791293D01*
X11380301Y-13791293D02*
X11370777Y-13829388D01*
X11370777Y-13829388D02*
X11361253Y-13848436D01*
X11361253Y-13848436D02*
X11351729Y-13857960D01*
X11351729Y-13857960D02*
X11332682Y-13867484D01*
X11332682Y-13867484D02*
X11313634Y-13867484D01*
X11313634Y-13867484D02*
X11294586Y-13857960D01*
X11294586Y-13857960D02*
X11285063Y-13848436D01*
X11285063Y-13848436D02*
X11275539Y-13829388D01*
X11275539Y-13829388D02*
X11266015Y-13791293D01*
X11266015Y-13791293D02*
X11266015Y-13743674D01*
X11266015Y-13743674D02*
X11275539Y-13705579D01*
X11275539Y-13705579D02*
X11285063Y-13686531D01*
X11285063Y-13686531D02*
X11294586Y-13677008D01*
X11294586Y-13677008D02*
X11313634Y-13667484D01*
X11466015Y-13848436D02*
X11475539Y-13857960D01*
X11475539Y-13857960D02*
X11466015Y-13867484D01*
X11466015Y-13867484D02*
X11456491Y-13857960D01*
X11456491Y-13857960D02*
X11466015Y-13848436D01*
X11466015Y-13848436D02*
X11466015Y-13867484D01*
X11599348Y-13667484D02*
X11618396Y-13667484D01*
X11618396Y-13667484D02*
X11637444Y-13677008D01*
X11637444Y-13677008D02*
X11646967Y-13686531D01*
X11646967Y-13686531D02*
X11656491Y-13705579D01*
X11656491Y-13705579D02*
X11666015Y-13743674D01*
X11666015Y-13743674D02*
X11666015Y-13791293D01*
X11666015Y-13791293D02*
X11656491Y-13829388D01*
X11656491Y-13829388D02*
X11646967Y-13848436D01*
X11646967Y-13848436D02*
X11637444Y-13857960D01*
X11637444Y-13857960D02*
X11618396Y-13867484D01*
X11618396Y-13867484D02*
X11599348Y-13867484D01*
X11599348Y-13867484D02*
X11580301Y-13857960D01*
X11580301Y-13857960D02*
X11570777Y-13848436D01*
X11570777Y-13848436D02*
X11561253Y-13829388D01*
X11561253Y-13829388D02*
X11551729Y-13791293D01*
X11551729Y-13791293D02*
X11551729Y-13743674D01*
X11551729Y-13743674D02*
X11561253Y-13705579D01*
X11561253Y-13705579D02*
X11570777Y-13686531D01*
X11570777Y-13686531D02*
X11580301Y-13677008D01*
X11580301Y-13677008D02*
X11599348Y-13667484D01*
X11856491Y-13867484D02*
X11742206Y-13867484D01*
X11799348Y-13867484D02*
X11799348Y-13667484D01*
X11799348Y-13667484D02*
X11780301Y-13696055D01*
X11780301Y-13696055D02*
X11761253Y-13715103D01*
X11761253Y-13715103D02*
X11742206Y-13724627D01*
X12037444Y-13667484D02*
X11942206Y-13667484D01*
X11942206Y-13667484D02*
X11932682Y-13762722D01*
X11932682Y-13762722D02*
X11942206Y-13753198D01*
X11942206Y-13753198D02*
X11961253Y-13743674D01*
X11961253Y-13743674D02*
X12008872Y-13743674D01*
X12008872Y-13743674D02*
X12027920Y-13753198D01*
X12027920Y-13753198D02*
X12037444Y-13762722D01*
X12037444Y-13762722D02*
X12046967Y-13781769D01*
X12046967Y-13781769D02*
X12046967Y-13829388D01*
X12046967Y-13829388D02*
X12037444Y-13848436D01*
X12037444Y-13848436D02*
X12027920Y-13857960D01*
X12027920Y-13857960D02*
X12008872Y-13867484D01*
X12008872Y-13867484D02*
X11961253Y-13867484D01*
X11961253Y-13867484D02*
X11942206Y-13857960D01*
X11942206Y-13857960D02*
X11932682Y-13848436D01*
X12113634Y-13667484D02*
X12246967Y-13667484D01*
X12246967Y-13667484D02*
X12161253Y-13867484D01*
X12313634Y-13667484D02*
X12313634Y-13705579D01*
X12389825Y-13667484D02*
X12389825Y-13705579D01*
X12685063Y-13943674D02*
X12675539Y-13934150D01*
X12675539Y-13934150D02*
X12656491Y-13905579D01*
X12656491Y-13905579D02*
X12646968Y-13886531D01*
X12646968Y-13886531D02*
X12637444Y-13857960D01*
X12637444Y-13857960D02*
X12627920Y-13810341D01*
X12627920Y-13810341D02*
X12627920Y-13772246D01*
X12627920Y-13772246D02*
X12637444Y-13724627D01*
X12637444Y-13724627D02*
X12646968Y-13696055D01*
X12646968Y-13696055D02*
X12656491Y-13677008D01*
X12656491Y-13677008D02*
X12675539Y-13648436D01*
X12675539Y-13648436D02*
X12685063Y-13638912D01*
X12866015Y-13867484D02*
X12751729Y-13867484D01*
X12808872Y-13867484D02*
X12808872Y-13667484D01*
X12808872Y-13667484D02*
X12789825Y-13696055D01*
X12789825Y-13696055D02*
X12770777Y-13715103D01*
X12770777Y-13715103D02*
X12751729Y-13724627D01*
X13037444Y-13734150D02*
X13037444Y-13867484D01*
X12989825Y-13657960D02*
X12942206Y-13800817D01*
X12942206Y-13800817D02*
X13066015Y-13800817D01*
X13294587Y-13867484D02*
X13294587Y-13667484D01*
X13380301Y-13867484D02*
X13380301Y-13762722D01*
X13380301Y-13762722D02*
X13370777Y-13743674D01*
X13370777Y-13743674D02*
X13351730Y-13734150D01*
X13351730Y-13734150D02*
X13323158Y-13734150D01*
X13323158Y-13734150D02*
X13304110Y-13743674D01*
X13304110Y-13743674D02*
X13294587Y-13753198D01*
X13504110Y-13867484D02*
X13485063Y-13857960D01*
X13485063Y-13857960D02*
X13475539Y-13848436D01*
X13475539Y-13848436D02*
X13466015Y-13829388D01*
X13466015Y-13829388D02*
X13466015Y-13772246D01*
X13466015Y-13772246D02*
X13475539Y-13753198D01*
X13475539Y-13753198D02*
X13485063Y-13743674D01*
X13485063Y-13743674D02*
X13504110Y-13734150D01*
X13504110Y-13734150D02*
X13532682Y-13734150D01*
X13532682Y-13734150D02*
X13551730Y-13743674D01*
X13551730Y-13743674D02*
X13561253Y-13753198D01*
X13561253Y-13753198D02*
X13570777Y-13772246D01*
X13570777Y-13772246D02*
X13570777Y-13829388D01*
X13570777Y-13829388D02*
X13561253Y-13848436D01*
X13561253Y-13848436D02*
X13551730Y-13857960D01*
X13551730Y-13857960D02*
X13532682Y-13867484D01*
X13532682Y-13867484D02*
X13504110Y-13867484D01*
X13685063Y-13867484D02*
X13666015Y-13857960D01*
X13666015Y-13857960D02*
X13656491Y-13838912D01*
X13656491Y-13838912D02*
X13656491Y-13667484D01*
X13837444Y-13857960D02*
X13818396Y-13867484D01*
X13818396Y-13867484D02*
X13780301Y-13867484D01*
X13780301Y-13867484D02*
X13761253Y-13857960D01*
X13761253Y-13857960D02*
X13751730Y-13838912D01*
X13751730Y-13838912D02*
X13751730Y-13762722D01*
X13751730Y-13762722D02*
X13761253Y-13743674D01*
X13761253Y-13743674D02*
X13780301Y-13734150D01*
X13780301Y-13734150D02*
X13818396Y-13734150D01*
X13818396Y-13734150D02*
X13837444Y-13743674D01*
X13837444Y-13743674D02*
X13846968Y-13762722D01*
X13846968Y-13762722D02*
X13846968Y-13781769D01*
X13846968Y-13781769D02*
X13751730Y-13800817D01*
X13923158Y-13857960D02*
X13942206Y-13867484D01*
X13942206Y-13867484D02*
X13980301Y-13867484D01*
X13980301Y-13867484D02*
X13999349Y-13857960D01*
X13999349Y-13857960D02*
X14008872Y-13838912D01*
X14008872Y-13838912D02*
X14008872Y-13829388D01*
X14008872Y-13829388D02*
X13999349Y-13810341D01*
X13999349Y-13810341D02*
X13980301Y-13800817D01*
X13980301Y-13800817D02*
X13951730Y-13800817D01*
X13951730Y-13800817D02*
X13932682Y-13791293D01*
X13932682Y-13791293D02*
X13923158Y-13772246D01*
X13923158Y-13772246D02*
X13923158Y-13762722D01*
X13923158Y-13762722D02*
X13932682Y-13743674D01*
X13932682Y-13743674D02*
X13951730Y-13734150D01*
X13951730Y-13734150D02*
X13980301Y-13734150D01*
X13980301Y-13734150D02*
X13999349Y-13743674D01*
X14075539Y-13943674D02*
X14085063Y-13934150D01*
X14085063Y-13934150D02*
X14104111Y-13905579D01*
X14104111Y-13905579D02*
X14113634Y-13886531D01*
X14113634Y-13886531D02*
X14123158Y-13857960D01*
X14123158Y-13857960D02*
X14132682Y-13810341D01*
X14132682Y-13810341D02*
X14132682Y-13772246D01*
X14132682Y-13772246D02*
X14123158Y-13724627D01*
X14123158Y-13724627D02*
X14113634Y-13696055D01*
X14113634Y-13696055D02*
X14104111Y-13677008D01*
X14104111Y-13677008D02*
X14085063Y-13648436D01*
X14085063Y-13648436D02*
X14075539Y-13638912D01*
D10*
X9070000Y-14000000D02*
X9070000Y-14080000D01*
X9030000Y-14040000D02*
X9110000Y-14040000D01*
D11*
X9408872Y-13931484D02*
X9427920Y-13931484D01*
X9427920Y-13931484D02*
X9446967Y-13941008D01*
X9446967Y-13941008D02*
X9456491Y-13950531D01*
X9456491Y-13950531D02*
X9466015Y-13969579D01*
X9466015Y-13969579D02*
X9475539Y-14007674D01*
X9475539Y-14007674D02*
X9475539Y-14055293D01*
X9475539Y-14055293D02*
X9466015Y-14093388D01*
X9466015Y-14093388D02*
X9456491Y-14112436D01*
X9456491Y-14112436D02*
X9446967Y-14121960D01*
X9446967Y-14121960D02*
X9427920Y-14131484D01*
X9427920Y-14131484D02*
X9408872Y-14131484D01*
X9408872Y-14131484D02*
X9389824Y-14121960D01*
X9389824Y-14121960D02*
X9380301Y-14112436D01*
X9380301Y-14112436D02*
X9370777Y-14093388D01*
X9370777Y-14093388D02*
X9361253Y-14055293D01*
X9361253Y-14055293D02*
X9361253Y-14007674D01*
X9361253Y-14007674D02*
X9370777Y-13969579D01*
X9370777Y-13969579D02*
X9380301Y-13950531D01*
X9380301Y-13950531D02*
X9389824Y-13941008D01*
X9389824Y-13941008D02*
X9408872Y-13931484D01*
X9561253Y-14112436D02*
X9570777Y-14121960D01*
X9570777Y-14121960D02*
X9561253Y-14131484D01*
X9561253Y-14131484D02*
X9551729Y-14121960D01*
X9551729Y-14121960D02*
X9561253Y-14112436D01*
X9561253Y-14112436D02*
X9561253Y-14131484D01*
X9685063Y-14017198D02*
X9666015Y-14007674D01*
X9666015Y-14007674D02*
X9656491Y-13998150D01*
X9656491Y-13998150D02*
X9646967Y-13979103D01*
X9646967Y-13979103D02*
X9646967Y-13969579D01*
X9646967Y-13969579D02*
X9656491Y-13950531D01*
X9656491Y-13950531D02*
X9666015Y-13941008D01*
X9666015Y-13941008D02*
X9685063Y-13931484D01*
X9685063Y-13931484D02*
X9723158Y-13931484D01*
X9723158Y-13931484D02*
X9742205Y-13941008D01*
X9742205Y-13941008D02*
X9751729Y-13950531D01*
X9751729Y-13950531D02*
X9761253Y-13969579D01*
X9761253Y-13969579D02*
X9761253Y-13979103D01*
X9761253Y-13979103D02*
X9751729Y-13998150D01*
X9751729Y-13998150D02*
X9742205Y-14007674D01*
X9742205Y-14007674D02*
X9723158Y-14017198D01*
X9723158Y-14017198D02*
X9685063Y-14017198D01*
X9685063Y-14017198D02*
X9666015Y-14026722D01*
X9666015Y-14026722D02*
X9656491Y-14036246D01*
X9656491Y-14036246D02*
X9646967Y-14055293D01*
X9646967Y-14055293D02*
X9646967Y-14093388D01*
X9646967Y-14093388D02*
X9656491Y-14112436D01*
X9656491Y-14112436D02*
X9666015Y-14121960D01*
X9666015Y-14121960D02*
X9685063Y-14131484D01*
X9685063Y-14131484D02*
X9723158Y-14131484D01*
X9723158Y-14131484D02*
X9742205Y-14121960D01*
X9742205Y-14121960D02*
X9751729Y-14112436D01*
X9751729Y-14112436D02*
X9761253Y-14093388D01*
X9761253Y-14093388D02*
X9761253Y-14055293D01*
X9761253Y-14055293D02*
X9751729Y-14036246D01*
X9751729Y-14036246D02*
X9742205Y-14026722D01*
X9742205Y-14026722D02*
X9723158Y-14017198D01*
X9885063Y-13931484D02*
X9904110Y-13931484D01*
X9904110Y-13931484D02*
X9923158Y-13941008D01*
X9923158Y-13941008D02*
X9932682Y-13950531D01*
X9932682Y-13950531D02*
X9942205Y-13969579D01*
X9942205Y-13969579D02*
X9951729Y-14007674D01*
X9951729Y-14007674D02*
X9951729Y-14055293D01*
X9951729Y-14055293D02*
X9942205Y-14093388D01*
X9942205Y-14093388D02*
X9932682Y-14112436D01*
X9932682Y-14112436D02*
X9923158Y-14121960D01*
X9923158Y-14121960D02*
X9904110Y-14131484D01*
X9904110Y-14131484D02*
X9885063Y-14131484D01*
X9885063Y-14131484D02*
X9866015Y-14121960D01*
X9866015Y-14121960D02*
X9856491Y-14112436D01*
X9856491Y-14112436D02*
X9846967Y-14093388D01*
X9846967Y-14093388D02*
X9837444Y-14055293D01*
X9837444Y-14055293D02*
X9837444Y-14007674D01*
X9837444Y-14007674D02*
X9846967Y-13969579D01*
X9846967Y-13969579D02*
X9856491Y-13950531D01*
X9856491Y-13950531D02*
X9866015Y-13941008D01*
X9866015Y-13941008D02*
X9885063Y-13931484D01*
X10075539Y-13931484D02*
X10094586Y-13931484D01*
X10094586Y-13931484D02*
X10113634Y-13941008D01*
X10113634Y-13941008D02*
X10123158Y-13950531D01*
X10123158Y-13950531D02*
X10132682Y-13969579D01*
X10132682Y-13969579D02*
X10142205Y-14007674D01*
X10142205Y-14007674D02*
X10142205Y-14055293D01*
X10142205Y-14055293D02*
X10132682Y-14093388D01*
X10132682Y-14093388D02*
X10123158Y-14112436D01*
X10123158Y-14112436D02*
X10113634Y-14121960D01*
X10113634Y-14121960D02*
X10094586Y-14131484D01*
X10094586Y-14131484D02*
X10075539Y-14131484D01*
X10075539Y-14131484D02*
X10056491Y-14121960D01*
X10056491Y-14121960D02*
X10046967Y-14112436D01*
X10046967Y-14112436D02*
X10037444Y-14093388D01*
X10037444Y-14093388D02*
X10027920Y-14055293D01*
X10027920Y-14055293D02*
X10027920Y-14007674D01*
X10027920Y-14007674D02*
X10037444Y-13969579D01*
X10037444Y-13969579D02*
X10046967Y-13950531D01*
X10046967Y-13950531D02*
X10056491Y-13941008D01*
X10056491Y-13941008D02*
X10075539Y-13931484D01*
X10227920Y-14131484D02*
X10227920Y-13998150D01*
X10227920Y-14017198D02*
X10237444Y-14007674D01*
X10237444Y-14007674D02*
X10256491Y-13998150D01*
X10256491Y-13998150D02*
X10285063Y-13998150D01*
X10285063Y-13998150D02*
X10304110Y-14007674D01*
X10304110Y-14007674D02*
X10313634Y-14026722D01*
X10313634Y-14026722D02*
X10313634Y-14131484D01*
X10313634Y-14026722D02*
X10323158Y-14007674D01*
X10323158Y-14007674D02*
X10342205Y-13998150D01*
X10342205Y-13998150D02*
X10370777Y-13998150D01*
X10370777Y-13998150D02*
X10389825Y-14007674D01*
X10389825Y-14007674D02*
X10399348Y-14026722D01*
X10399348Y-14026722D02*
X10399348Y-14131484D01*
X10494586Y-14131484D02*
X10494586Y-13998150D01*
X10494586Y-14017198D02*
X10504110Y-14007674D01*
X10504110Y-14007674D02*
X10523158Y-13998150D01*
X10523158Y-13998150D02*
X10551729Y-13998150D01*
X10551729Y-13998150D02*
X10570777Y-14007674D01*
X10570777Y-14007674D02*
X10580301Y-14026722D01*
X10580301Y-14026722D02*
X10580301Y-14131484D01*
X10580301Y-14026722D02*
X10589825Y-14007674D01*
X10589825Y-14007674D02*
X10608872Y-13998150D01*
X10608872Y-13998150D02*
X10637444Y-13998150D01*
X10637444Y-13998150D02*
X10656491Y-14007674D01*
X10656491Y-14007674D02*
X10666015Y-14026722D01*
X10666015Y-14026722D02*
X10666015Y-14131484D01*
X11056491Y-13921960D02*
X10885063Y-14179103D01*
X11313634Y-13931484D02*
X11332682Y-13931484D01*
X11332682Y-13931484D02*
X11351729Y-13941008D01*
X11351729Y-13941008D02*
X11361253Y-13950531D01*
X11361253Y-13950531D02*
X11370777Y-13969579D01*
X11370777Y-13969579D02*
X11380301Y-14007674D01*
X11380301Y-14007674D02*
X11380301Y-14055293D01*
X11380301Y-14055293D02*
X11370777Y-14093388D01*
X11370777Y-14093388D02*
X11361253Y-14112436D01*
X11361253Y-14112436D02*
X11351729Y-14121960D01*
X11351729Y-14121960D02*
X11332682Y-14131484D01*
X11332682Y-14131484D02*
X11313634Y-14131484D01*
X11313634Y-14131484D02*
X11294586Y-14121960D01*
X11294586Y-14121960D02*
X11285063Y-14112436D01*
X11285063Y-14112436D02*
X11275539Y-14093388D01*
X11275539Y-14093388D02*
X11266015Y-14055293D01*
X11266015Y-14055293D02*
X11266015Y-14007674D01*
X11266015Y-14007674D02*
X11275539Y-13969579D01*
X11275539Y-13969579D02*
X11285063Y-13950531D01*
X11285063Y-13950531D02*
X11294586Y-13941008D01*
X11294586Y-13941008D02*
X11313634Y-13931484D01*
X11466015Y-14112436D02*
X11475539Y-14121960D01*
X11475539Y-14121960D02*
X11466015Y-14131484D01*
X11466015Y-14131484D02*
X11456491Y-14121960D01*
X11456491Y-14121960D02*
X11466015Y-14112436D01*
X11466015Y-14112436D02*
X11466015Y-14131484D01*
X11599348Y-13931484D02*
X11618396Y-13931484D01*
X11618396Y-13931484D02*
X11637444Y-13941008D01*
X11637444Y-13941008D02*
X11646967Y-13950531D01*
X11646967Y-13950531D02*
X11656491Y-13969579D01*
X11656491Y-13969579D02*
X11666015Y-14007674D01*
X11666015Y-14007674D02*
X11666015Y-14055293D01*
X11666015Y-14055293D02*
X11656491Y-14093388D01*
X11656491Y-14093388D02*
X11646967Y-14112436D01*
X11646967Y-14112436D02*
X11637444Y-14121960D01*
X11637444Y-14121960D02*
X11618396Y-14131484D01*
X11618396Y-14131484D02*
X11599348Y-14131484D01*
X11599348Y-14131484D02*
X11580301Y-14121960D01*
X11580301Y-14121960D02*
X11570777Y-14112436D01*
X11570777Y-14112436D02*
X11561253Y-14093388D01*
X11561253Y-14093388D02*
X11551729Y-14055293D01*
X11551729Y-14055293D02*
X11551729Y-14007674D01*
X11551729Y-14007674D02*
X11561253Y-13969579D01*
X11561253Y-13969579D02*
X11570777Y-13950531D01*
X11570777Y-13950531D02*
X11580301Y-13941008D01*
X11580301Y-13941008D02*
X11599348Y-13931484D01*
X11732682Y-13931484D02*
X11856491Y-13931484D01*
X11856491Y-13931484D02*
X11789825Y-14007674D01*
X11789825Y-14007674D02*
X11818396Y-14007674D01*
X11818396Y-14007674D02*
X11837444Y-14017198D01*
X11837444Y-14017198D02*
X11846967Y-14026722D01*
X11846967Y-14026722D02*
X11856491Y-14045769D01*
X11856491Y-14045769D02*
X11856491Y-14093388D01*
X11856491Y-14093388D02*
X11846967Y-14112436D01*
X11846967Y-14112436D02*
X11837444Y-14121960D01*
X11837444Y-14121960D02*
X11818396Y-14131484D01*
X11818396Y-14131484D02*
X11761253Y-14131484D01*
X11761253Y-14131484D02*
X11742206Y-14121960D01*
X11742206Y-14121960D02*
X11732682Y-14112436D01*
X12046967Y-14131484D02*
X11932682Y-14131484D01*
X11989825Y-14131484D02*
X11989825Y-13931484D01*
X11989825Y-13931484D02*
X11970777Y-13960055D01*
X11970777Y-13960055D02*
X11951729Y-13979103D01*
X11951729Y-13979103D02*
X11932682Y-13988627D01*
X12227920Y-13931484D02*
X12132682Y-13931484D01*
X12132682Y-13931484D02*
X12123158Y-14026722D01*
X12123158Y-14026722D02*
X12132682Y-14017198D01*
X12132682Y-14017198D02*
X12151729Y-14007674D01*
X12151729Y-14007674D02*
X12199348Y-14007674D01*
X12199348Y-14007674D02*
X12218396Y-14017198D01*
X12218396Y-14017198D02*
X12227920Y-14026722D01*
X12227920Y-14026722D02*
X12237444Y-14045769D01*
X12237444Y-14045769D02*
X12237444Y-14093388D01*
X12237444Y-14093388D02*
X12227920Y-14112436D01*
X12227920Y-14112436D02*
X12218396Y-14121960D01*
X12218396Y-14121960D02*
X12199348Y-14131484D01*
X12199348Y-14131484D02*
X12151729Y-14131484D01*
X12151729Y-14131484D02*
X12132682Y-14121960D01*
X12132682Y-14121960D02*
X12123158Y-14112436D01*
X12313634Y-13931484D02*
X12313634Y-13969579D01*
X12389825Y-13931484D02*
X12389825Y-13969579D01*
X12685063Y-14207674D02*
X12675539Y-14198150D01*
X12675539Y-14198150D02*
X12656491Y-14169579D01*
X12656491Y-14169579D02*
X12646968Y-14150531D01*
X12646968Y-14150531D02*
X12637444Y-14121960D01*
X12637444Y-14121960D02*
X12627920Y-14074341D01*
X12627920Y-14074341D02*
X12627920Y-14036246D01*
X12627920Y-14036246D02*
X12637444Y-13988627D01*
X12637444Y-13988627D02*
X12646968Y-13960055D01*
X12646968Y-13960055D02*
X12656491Y-13941008D01*
X12656491Y-13941008D02*
X12675539Y-13912436D01*
X12675539Y-13912436D02*
X12685063Y-13902912D01*
X12751729Y-13950531D02*
X12761253Y-13941008D01*
X12761253Y-13941008D02*
X12780301Y-13931484D01*
X12780301Y-13931484D02*
X12827920Y-13931484D01*
X12827920Y-13931484D02*
X12846968Y-13941008D01*
X12846968Y-13941008D02*
X12856491Y-13950531D01*
X12856491Y-13950531D02*
X12866015Y-13969579D01*
X12866015Y-13969579D02*
X12866015Y-13988627D01*
X12866015Y-13988627D02*
X12856491Y-14017198D01*
X12856491Y-14017198D02*
X12742206Y-14131484D01*
X12742206Y-14131484D02*
X12866015Y-14131484D01*
X13104110Y-14131484D02*
X13104110Y-13931484D01*
X13189825Y-14131484D02*
X13189825Y-14026722D01*
X13189825Y-14026722D02*
X13180301Y-14007674D01*
X13180301Y-14007674D02*
X13161253Y-13998150D01*
X13161253Y-13998150D02*
X13132682Y-13998150D01*
X13132682Y-13998150D02*
X13113634Y-14007674D01*
X13113634Y-14007674D02*
X13104110Y-14017198D01*
X13313634Y-14131484D02*
X13294587Y-14121960D01*
X13294587Y-14121960D02*
X13285063Y-14112436D01*
X13285063Y-14112436D02*
X13275539Y-14093388D01*
X13275539Y-14093388D02*
X13275539Y-14036246D01*
X13275539Y-14036246D02*
X13285063Y-14017198D01*
X13285063Y-14017198D02*
X13294587Y-14007674D01*
X13294587Y-14007674D02*
X13313634Y-13998150D01*
X13313634Y-13998150D02*
X13342206Y-13998150D01*
X13342206Y-13998150D02*
X13361253Y-14007674D01*
X13361253Y-14007674D02*
X13370777Y-14017198D01*
X13370777Y-14017198D02*
X13380301Y-14036246D01*
X13380301Y-14036246D02*
X13380301Y-14093388D01*
X13380301Y-14093388D02*
X13370777Y-14112436D01*
X13370777Y-14112436D02*
X13361253Y-14121960D01*
X13361253Y-14121960D02*
X13342206Y-14131484D01*
X13342206Y-14131484D02*
X13313634Y-14131484D01*
X13494587Y-14131484D02*
X13475539Y-14121960D01*
X13475539Y-14121960D02*
X13466015Y-14102912D01*
X13466015Y-14102912D02*
X13466015Y-13931484D01*
X13646968Y-14121960D02*
X13627920Y-14131484D01*
X13627920Y-14131484D02*
X13589825Y-14131484D01*
X13589825Y-14131484D02*
X13570777Y-14121960D01*
X13570777Y-14121960D02*
X13561253Y-14102912D01*
X13561253Y-14102912D02*
X13561253Y-14026722D01*
X13561253Y-14026722D02*
X13570777Y-14007674D01*
X13570777Y-14007674D02*
X13589825Y-13998150D01*
X13589825Y-13998150D02*
X13627920Y-13998150D01*
X13627920Y-13998150D02*
X13646968Y-14007674D01*
X13646968Y-14007674D02*
X13656491Y-14026722D01*
X13656491Y-14026722D02*
X13656491Y-14045769D01*
X13656491Y-14045769D02*
X13561253Y-14064817D01*
X13732682Y-14121960D02*
X13751730Y-14131484D01*
X13751730Y-14131484D02*
X13789825Y-14131484D01*
X13789825Y-14131484D02*
X13808872Y-14121960D01*
X13808872Y-14121960D02*
X13818396Y-14102912D01*
X13818396Y-14102912D02*
X13818396Y-14093388D01*
X13818396Y-14093388D02*
X13808872Y-14074341D01*
X13808872Y-14074341D02*
X13789825Y-14064817D01*
X13789825Y-14064817D02*
X13761253Y-14064817D01*
X13761253Y-14064817D02*
X13742206Y-14055293D01*
X13742206Y-14055293D02*
X13732682Y-14036246D01*
X13732682Y-14036246D02*
X13732682Y-14026722D01*
X13732682Y-14026722D02*
X13742206Y-14007674D01*
X13742206Y-14007674D02*
X13761253Y-13998150D01*
X13761253Y-13998150D02*
X13789825Y-13998150D01*
X13789825Y-13998150D02*
X13808872Y-14007674D01*
X13885063Y-14207674D02*
X13894587Y-14198150D01*
X13894587Y-14198150D02*
X13913634Y-14169579D01*
X13913634Y-14169579D02*
X13923158Y-14150531D01*
X13923158Y-14150531D02*
X13932682Y-14121960D01*
X13932682Y-14121960D02*
X13942206Y-14074341D01*
X13942206Y-14074341D02*
X13942206Y-14036246D01*
X13942206Y-14036246D02*
X13932682Y-13988627D01*
X13932682Y-13988627D02*
X13923158Y-13960055D01*
X13923158Y-13960055D02*
X13913634Y-13941008D01*
X13913634Y-13941008D02*
X13894587Y-13912436D01*
X13894587Y-13912436D02*
X13885063Y-13902912D01*
D10*
X9095356Y-14339356D02*
X9095356Y-14268644D01*
X9024644Y-14268644D01*
X9024644Y-14339356D01*
X9095356Y-14339356D01*
D11*
X9475539Y-14395484D02*
X9361253Y-14395484D01*
X9418396Y-14395484D02*
X9418396Y-14195484D01*
X9418396Y-14195484D02*
X9399348Y-14224055D01*
X9399348Y-14224055D02*
X9380301Y-14243103D01*
X9380301Y-14243103D02*
X9361253Y-14252627D01*
X9561253Y-14376436D02*
X9570777Y-14385960D01*
X9570777Y-14385960D02*
X9561253Y-14395484D01*
X9561253Y-14395484D02*
X9551729Y-14385960D01*
X9551729Y-14385960D02*
X9561253Y-14376436D01*
X9561253Y-14376436D02*
X9561253Y-14395484D01*
X9694586Y-14195484D02*
X9713634Y-14195484D01*
X9713634Y-14195484D02*
X9732682Y-14205008D01*
X9732682Y-14205008D02*
X9742205Y-14214531D01*
X9742205Y-14214531D02*
X9751729Y-14233579D01*
X9751729Y-14233579D02*
X9761253Y-14271674D01*
X9761253Y-14271674D02*
X9761253Y-14319293D01*
X9761253Y-14319293D02*
X9751729Y-14357388D01*
X9751729Y-14357388D02*
X9742205Y-14376436D01*
X9742205Y-14376436D02*
X9732682Y-14385960D01*
X9732682Y-14385960D02*
X9713634Y-14395484D01*
X9713634Y-14395484D02*
X9694586Y-14395484D01*
X9694586Y-14395484D02*
X9675539Y-14385960D01*
X9675539Y-14385960D02*
X9666015Y-14376436D01*
X9666015Y-14376436D02*
X9656491Y-14357388D01*
X9656491Y-14357388D02*
X9646967Y-14319293D01*
X9646967Y-14319293D02*
X9646967Y-14271674D01*
X9646967Y-14271674D02*
X9656491Y-14233579D01*
X9656491Y-14233579D02*
X9666015Y-14214531D01*
X9666015Y-14214531D02*
X9675539Y-14205008D01*
X9675539Y-14205008D02*
X9694586Y-14195484D01*
X9885063Y-14195484D02*
X9904110Y-14195484D01*
X9904110Y-14195484D02*
X9923158Y-14205008D01*
X9923158Y-14205008D02*
X9932682Y-14214531D01*
X9932682Y-14214531D02*
X9942205Y-14233579D01*
X9942205Y-14233579D02*
X9951729Y-14271674D01*
X9951729Y-14271674D02*
X9951729Y-14319293D01*
X9951729Y-14319293D02*
X9942205Y-14357388D01*
X9942205Y-14357388D02*
X9932682Y-14376436D01*
X9932682Y-14376436D02*
X9923158Y-14385960D01*
X9923158Y-14385960D02*
X9904110Y-14395484D01*
X9904110Y-14395484D02*
X9885063Y-14395484D01*
X9885063Y-14395484D02*
X9866015Y-14385960D01*
X9866015Y-14385960D02*
X9856491Y-14376436D01*
X9856491Y-14376436D02*
X9846967Y-14357388D01*
X9846967Y-14357388D02*
X9837444Y-14319293D01*
X9837444Y-14319293D02*
X9837444Y-14271674D01*
X9837444Y-14271674D02*
X9846967Y-14233579D01*
X9846967Y-14233579D02*
X9856491Y-14214531D01*
X9856491Y-14214531D02*
X9866015Y-14205008D01*
X9866015Y-14205008D02*
X9885063Y-14195484D01*
X10075539Y-14195484D02*
X10094586Y-14195484D01*
X10094586Y-14195484D02*
X10113634Y-14205008D01*
X10113634Y-14205008D02*
X10123158Y-14214531D01*
X10123158Y-14214531D02*
X10132682Y-14233579D01*
X10132682Y-14233579D02*
X10142205Y-14271674D01*
X10142205Y-14271674D02*
X10142205Y-14319293D01*
X10142205Y-14319293D02*
X10132682Y-14357388D01*
X10132682Y-14357388D02*
X10123158Y-14376436D01*
X10123158Y-14376436D02*
X10113634Y-14385960D01*
X10113634Y-14385960D02*
X10094586Y-14395484D01*
X10094586Y-14395484D02*
X10075539Y-14395484D01*
X10075539Y-14395484D02*
X10056491Y-14385960D01*
X10056491Y-14385960D02*
X10046967Y-14376436D01*
X10046967Y-14376436D02*
X10037444Y-14357388D01*
X10037444Y-14357388D02*
X10027920Y-14319293D01*
X10027920Y-14319293D02*
X10027920Y-14271674D01*
X10027920Y-14271674D02*
X10037444Y-14233579D01*
X10037444Y-14233579D02*
X10046967Y-14214531D01*
X10046967Y-14214531D02*
X10056491Y-14205008D01*
X10056491Y-14205008D02*
X10075539Y-14195484D01*
X10227920Y-14395484D02*
X10227920Y-14262150D01*
X10227920Y-14281198D02*
X10237444Y-14271674D01*
X10237444Y-14271674D02*
X10256491Y-14262150D01*
X10256491Y-14262150D02*
X10285063Y-14262150D01*
X10285063Y-14262150D02*
X10304110Y-14271674D01*
X10304110Y-14271674D02*
X10313634Y-14290722D01*
X10313634Y-14290722D02*
X10313634Y-14395484D01*
X10313634Y-14290722D02*
X10323158Y-14271674D01*
X10323158Y-14271674D02*
X10342205Y-14262150D01*
X10342205Y-14262150D02*
X10370777Y-14262150D01*
X10370777Y-14262150D02*
X10389825Y-14271674D01*
X10389825Y-14271674D02*
X10399348Y-14290722D01*
X10399348Y-14290722D02*
X10399348Y-14395484D01*
X10494586Y-14395484D02*
X10494586Y-14262150D01*
X10494586Y-14281198D02*
X10504110Y-14271674D01*
X10504110Y-14271674D02*
X10523158Y-14262150D01*
X10523158Y-14262150D02*
X10551729Y-14262150D01*
X10551729Y-14262150D02*
X10570777Y-14271674D01*
X10570777Y-14271674D02*
X10580301Y-14290722D01*
X10580301Y-14290722D02*
X10580301Y-14395484D01*
X10580301Y-14290722D02*
X10589825Y-14271674D01*
X10589825Y-14271674D02*
X10608872Y-14262150D01*
X10608872Y-14262150D02*
X10637444Y-14262150D01*
X10637444Y-14262150D02*
X10656491Y-14271674D01*
X10656491Y-14271674D02*
X10666015Y-14290722D01*
X10666015Y-14290722D02*
X10666015Y-14395484D01*
X11056491Y-14185960D02*
X10885063Y-14443103D01*
X11313634Y-14195484D02*
X11332682Y-14195484D01*
X11332682Y-14195484D02*
X11351729Y-14205008D01*
X11351729Y-14205008D02*
X11361253Y-14214531D01*
X11361253Y-14214531D02*
X11370777Y-14233579D01*
X11370777Y-14233579D02*
X11380301Y-14271674D01*
X11380301Y-14271674D02*
X11380301Y-14319293D01*
X11380301Y-14319293D02*
X11370777Y-14357388D01*
X11370777Y-14357388D02*
X11361253Y-14376436D01*
X11361253Y-14376436D02*
X11351729Y-14385960D01*
X11351729Y-14385960D02*
X11332682Y-14395484D01*
X11332682Y-14395484D02*
X11313634Y-14395484D01*
X11313634Y-14395484D02*
X11294586Y-14385960D01*
X11294586Y-14385960D02*
X11285063Y-14376436D01*
X11285063Y-14376436D02*
X11275539Y-14357388D01*
X11275539Y-14357388D02*
X11266015Y-14319293D01*
X11266015Y-14319293D02*
X11266015Y-14271674D01*
X11266015Y-14271674D02*
X11275539Y-14233579D01*
X11275539Y-14233579D02*
X11285063Y-14214531D01*
X11285063Y-14214531D02*
X11294586Y-14205008D01*
X11294586Y-14205008D02*
X11313634Y-14195484D01*
X11466015Y-14376436D02*
X11475539Y-14385960D01*
X11475539Y-14385960D02*
X11466015Y-14395484D01*
X11466015Y-14395484D02*
X11456491Y-14385960D01*
X11456491Y-14385960D02*
X11466015Y-14376436D01*
X11466015Y-14376436D02*
X11466015Y-14395484D01*
X11599348Y-14195484D02*
X11618396Y-14195484D01*
X11618396Y-14195484D02*
X11637444Y-14205008D01*
X11637444Y-14205008D02*
X11646967Y-14214531D01*
X11646967Y-14214531D02*
X11656491Y-14233579D01*
X11656491Y-14233579D02*
X11666015Y-14271674D01*
X11666015Y-14271674D02*
X11666015Y-14319293D01*
X11666015Y-14319293D02*
X11656491Y-14357388D01*
X11656491Y-14357388D02*
X11646967Y-14376436D01*
X11646967Y-14376436D02*
X11637444Y-14385960D01*
X11637444Y-14385960D02*
X11618396Y-14395484D01*
X11618396Y-14395484D02*
X11599348Y-14395484D01*
X11599348Y-14395484D02*
X11580301Y-14385960D01*
X11580301Y-14385960D02*
X11570777Y-14376436D01*
X11570777Y-14376436D02*
X11561253Y-14357388D01*
X11561253Y-14357388D02*
X11551729Y-14319293D01*
X11551729Y-14319293D02*
X11551729Y-14271674D01*
X11551729Y-14271674D02*
X11561253Y-14233579D01*
X11561253Y-14233579D02*
X11570777Y-14214531D01*
X11570777Y-14214531D02*
X11580301Y-14205008D01*
X11580301Y-14205008D02*
X11599348Y-14195484D01*
X11732682Y-14195484D02*
X11856491Y-14195484D01*
X11856491Y-14195484D02*
X11789825Y-14271674D01*
X11789825Y-14271674D02*
X11818396Y-14271674D01*
X11818396Y-14271674D02*
X11837444Y-14281198D01*
X11837444Y-14281198D02*
X11846967Y-14290722D01*
X11846967Y-14290722D02*
X11856491Y-14309769D01*
X11856491Y-14309769D02*
X11856491Y-14357388D01*
X11856491Y-14357388D02*
X11846967Y-14376436D01*
X11846967Y-14376436D02*
X11837444Y-14385960D01*
X11837444Y-14385960D02*
X11818396Y-14395484D01*
X11818396Y-14395484D02*
X11761253Y-14395484D01*
X11761253Y-14395484D02*
X11742206Y-14385960D01*
X11742206Y-14385960D02*
X11732682Y-14376436D01*
X11951729Y-14395484D02*
X11989825Y-14395484D01*
X11989825Y-14395484D02*
X12008872Y-14385960D01*
X12008872Y-14385960D02*
X12018396Y-14376436D01*
X12018396Y-14376436D02*
X12037444Y-14347865D01*
X12037444Y-14347865D02*
X12046967Y-14309769D01*
X12046967Y-14309769D02*
X12046967Y-14233579D01*
X12046967Y-14233579D02*
X12037444Y-14214531D01*
X12037444Y-14214531D02*
X12027920Y-14205008D01*
X12027920Y-14205008D02*
X12008872Y-14195484D01*
X12008872Y-14195484D02*
X11970777Y-14195484D01*
X11970777Y-14195484D02*
X11951729Y-14205008D01*
X11951729Y-14205008D02*
X11942206Y-14214531D01*
X11942206Y-14214531D02*
X11932682Y-14233579D01*
X11932682Y-14233579D02*
X11932682Y-14281198D01*
X11932682Y-14281198D02*
X11942206Y-14300246D01*
X11942206Y-14300246D02*
X11951729Y-14309769D01*
X11951729Y-14309769D02*
X11970777Y-14319293D01*
X11970777Y-14319293D02*
X12008872Y-14319293D01*
X12008872Y-14319293D02*
X12027920Y-14309769D01*
X12027920Y-14309769D02*
X12037444Y-14300246D01*
X12037444Y-14300246D02*
X12046967Y-14281198D01*
X12218396Y-14262150D02*
X12218396Y-14395484D01*
X12170777Y-14185960D02*
X12123158Y-14328817D01*
X12123158Y-14328817D02*
X12246967Y-14328817D01*
X12313634Y-14195484D02*
X12313634Y-14233579D01*
X12389825Y-14195484D02*
X12389825Y-14233579D01*
X12685063Y-14471674D02*
X12675539Y-14462150D01*
X12675539Y-14462150D02*
X12656491Y-14433579D01*
X12656491Y-14433579D02*
X12646968Y-14414531D01*
X12646968Y-14414531D02*
X12637444Y-14385960D01*
X12637444Y-14385960D02*
X12627920Y-14338341D01*
X12627920Y-14338341D02*
X12627920Y-14300246D01*
X12627920Y-14300246D02*
X12637444Y-14252627D01*
X12637444Y-14252627D02*
X12646968Y-14224055D01*
X12646968Y-14224055D02*
X12656491Y-14205008D01*
X12656491Y-14205008D02*
X12675539Y-14176436D01*
X12675539Y-14176436D02*
X12685063Y-14166912D01*
X12846968Y-14262150D02*
X12846968Y-14395484D01*
X12799348Y-14185960D02*
X12751729Y-14328817D01*
X12751729Y-14328817D02*
X12875539Y-14328817D01*
X12932682Y-14195484D02*
X13066015Y-14195484D01*
X13066015Y-14195484D02*
X12980301Y-14395484D01*
X13294587Y-14395484D02*
X13294587Y-14195484D01*
X13380301Y-14395484D02*
X13380301Y-14290722D01*
X13380301Y-14290722D02*
X13370777Y-14271674D01*
X13370777Y-14271674D02*
X13351730Y-14262150D01*
X13351730Y-14262150D02*
X13323158Y-14262150D01*
X13323158Y-14262150D02*
X13304110Y-14271674D01*
X13304110Y-14271674D02*
X13294587Y-14281198D01*
X13504110Y-14395484D02*
X13485063Y-14385960D01*
X13485063Y-14385960D02*
X13475539Y-14376436D01*
X13475539Y-14376436D02*
X13466015Y-14357388D01*
X13466015Y-14357388D02*
X13466015Y-14300246D01*
X13466015Y-14300246D02*
X13475539Y-14281198D01*
X13475539Y-14281198D02*
X13485063Y-14271674D01*
X13485063Y-14271674D02*
X13504110Y-14262150D01*
X13504110Y-14262150D02*
X13532682Y-14262150D01*
X13532682Y-14262150D02*
X13551730Y-14271674D01*
X13551730Y-14271674D02*
X13561253Y-14281198D01*
X13561253Y-14281198D02*
X13570777Y-14300246D01*
X13570777Y-14300246D02*
X13570777Y-14357388D01*
X13570777Y-14357388D02*
X13561253Y-14376436D01*
X13561253Y-14376436D02*
X13551730Y-14385960D01*
X13551730Y-14385960D02*
X13532682Y-14395484D01*
X13532682Y-14395484D02*
X13504110Y-14395484D01*
X13685063Y-14395484D02*
X13666015Y-14385960D01*
X13666015Y-14385960D02*
X13656491Y-14366912D01*
X13656491Y-14366912D02*
X13656491Y-14195484D01*
X13837444Y-14385960D02*
X13818396Y-14395484D01*
X13818396Y-14395484D02*
X13780301Y-14395484D01*
X13780301Y-14395484D02*
X13761253Y-14385960D01*
X13761253Y-14385960D02*
X13751730Y-14366912D01*
X13751730Y-14366912D02*
X13751730Y-14290722D01*
X13751730Y-14290722D02*
X13761253Y-14271674D01*
X13761253Y-14271674D02*
X13780301Y-14262150D01*
X13780301Y-14262150D02*
X13818396Y-14262150D01*
X13818396Y-14262150D02*
X13837444Y-14271674D01*
X13837444Y-14271674D02*
X13846968Y-14290722D01*
X13846968Y-14290722D02*
X13846968Y-14309769D01*
X13846968Y-14309769D02*
X13751730Y-14328817D01*
X13923158Y-14385960D02*
X13942206Y-14395484D01*
X13942206Y-14395484D02*
X13980301Y-14395484D01*
X13980301Y-14395484D02*
X13999349Y-14385960D01*
X13999349Y-14385960D02*
X14008872Y-14366912D01*
X14008872Y-14366912D02*
X14008872Y-14357388D01*
X14008872Y-14357388D02*
X13999349Y-14338341D01*
X13999349Y-14338341D02*
X13980301Y-14328817D01*
X13980301Y-14328817D02*
X13951730Y-14328817D01*
X13951730Y-14328817D02*
X13932682Y-14319293D01*
X13932682Y-14319293D02*
X13923158Y-14300246D01*
X13923158Y-14300246D02*
X13923158Y-14290722D01*
X13923158Y-14290722D02*
X13932682Y-14271674D01*
X13932682Y-14271674D02*
X13951730Y-14262150D01*
X13951730Y-14262150D02*
X13980301Y-14262150D01*
X13980301Y-14262150D02*
X13999349Y-14271674D01*
X14075539Y-14471674D02*
X14085063Y-14462150D01*
X14085063Y-14462150D02*
X14104111Y-14433579D01*
X14104111Y-14433579D02*
X14113634Y-14414531D01*
X14113634Y-14414531D02*
X14123158Y-14385960D01*
X14123158Y-14385960D02*
X14132682Y-14338341D01*
X14132682Y-14338341D02*
X14132682Y-14300246D01*
X14132682Y-14300246D02*
X14123158Y-14252627D01*
X14123158Y-14252627D02*
X14113634Y-14224055D01*
X14113634Y-14224055D02*
X14104111Y-14205008D01*
X14104111Y-14205008D02*
X14085063Y-14176436D01*
X14085063Y-14176436D02*
X14075539Y-14166912D01*
X9010000Y-14668000D02*
X9110000Y-14568000D01*
X9010000Y-14468000D01*
X8910000Y-14568000D01*
X9010000Y-14668000D01*
X9466015Y-14459484D02*
X9370777Y-14459484D01*
X9370777Y-14459484D02*
X9361253Y-14554722D01*
X9361253Y-14554722D02*
X9370777Y-14545198D01*
X9370777Y-14545198D02*
X9389824Y-14535674D01*
X9389824Y-14535674D02*
X9437444Y-14535674D01*
X9437444Y-14535674D02*
X9456491Y-14545198D01*
X9456491Y-14545198D02*
X9466015Y-14554722D01*
X9466015Y-14554722D02*
X9475539Y-14573769D01*
X9475539Y-14573769D02*
X9475539Y-14621388D01*
X9475539Y-14621388D02*
X9466015Y-14640436D01*
X9466015Y-14640436D02*
X9456491Y-14649960D01*
X9456491Y-14649960D02*
X9437444Y-14659484D01*
X9437444Y-14659484D02*
X9389824Y-14659484D01*
X9389824Y-14659484D02*
X9370777Y-14649960D01*
X9370777Y-14649960D02*
X9361253Y-14640436D01*
X9561253Y-14640436D02*
X9570777Y-14649960D01*
X9570777Y-14649960D02*
X9561253Y-14659484D01*
X9561253Y-14659484D02*
X9551729Y-14649960D01*
X9551729Y-14649960D02*
X9561253Y-14640436D01*
X9561253Y-14640436D02*
X9561253Y-14659484D01*
X9694586Y-14459484D02*
X9713634Y-14459484D01*
X9713634Y-14459484D02*
X9732682Y-14469008D01*
X9732682Y-14469008D02*
X9742205Y-14478531D01*
X9742205Y-14478531D02*
X9751729Y-14497579D01*
X9751729Y-14497579D02*
X9761253Y-14535674D01*
X9761253Y-14535674D02*
X9761253Y-14583293D01*
X9761253Y-14583293D02*
X9751729Y-14621388D01*
X9751729Y-14621388D02*
X9742205Y-14640436D01*
X9742205Y-14640436D02*
X9732682Y-14649960D01*
X9732682Y-14649960D02*
X9713634Y-14659484D01*
X9713634Y-14659484D02*
X9694586Y-14659484D01*
X9694586Y-14659484D02*
X9675539Y-14649960D01*
X9675539Y-14649960D02*
X9666015Y-14640436D01*
X9666015Y-14640436D02*
X9656491Y-14621388D01*
X9656491Y-14621388D02*
X9646967Y-14583293D01*
X9646967Y-14583293D02*
X9646967Y-14535674D01*
X9646967Y-14535674D02*
X9656491Y-14497579D01*
X9656491Y-14497579D02*
X9666015Y-14478531D01*
X9666015Y-14478531D02*
X9675539Y-14469008D01*
X9675539Y-14469008D02*
X9694586Y-14459484D01*
X9885063Y-14459484D02*
X9904110Y-14459484D01*
X9904110Y-14459484D02*
X9923158Y-14469008D01*
X9923158Y-14469008D02*
X9932682Y-14478531D01*
X9932682Y-14478531D02*
X9942205Y-14497579D01*
X9942205Y-14497579D02*
X9951729Y-14535674D01*
X9951729Y-14535674D02*
X9951729Y-14583293D01*
X9951729Y-14583293D02*
X9942205Y-14621388D01*
X9942205Y-14621388D02*
X9932682Y-14640436D01*
X9932682Y-14640436D02*
X9923158Y-14649960D01*
X9923158Y-14649960D02*
X9904110Y-14659484D01*
X9904110Y-14659484D02*
X9885063Y-14659484D01*
X9885063Y-14659484D02*
X9866015Y-14649960D01*
X9866015Y-14649960D02*
X9856491Y-14640436D01*
X9856491Y-14640436D02*
X9846967Y-14621388D01*
X9846967Y-14621388D02*
X9837444Y-14583293D01*
X9837444Y-14583293D02*
X9837444Y-14535674D01*
X9837444Y-14535674D02*
X9846967Y-14497579D01*
X9846967Y-14497579D02*
X9856491Y-14478531D01*
X9856491Y-14478531D02*
X9866015Y-14469008D01*
X9866015Y-14469008D02*
X9885063Y-14459484D01*
X10075539Y-14459484D02*
X10094586Y-14459484D01*
X10094586Y-14459484D02*
X10113634Y-14469008D01*
X10113634Y-14469008D02*
X10123158Y-14478531D01*
X10123158Y-14478531D02*
X10132682Y-14497579D01*
X10132682Y-14497579D02*
X10142205Y-14535674D01*
X10142205Y-14535674D02*
X10142205Y-14583293D01*
X10142205Y-14583293D02*
X10132682Y-14621388D01*
X10132682Y-14621388D02*
X10123158Y-14640436D01*
X10123158Y-14640436D02*
X10113634Y-14649960D01*
X10113634Y-14649960D02*
X10094586Y-14659484D01*
X10094586Y-14659484D02*
X10075539Y-14659484D01*
X10075539Y-14659484D02*
X10056491Y-14649960D01*
X10056491Y-14649960D02*
X10046967Y-14640436D01*
X10046967Y-14640436D02*
X10037444Y-14621388D01*
X10037444Y-14621388D02*
X10027920Y-14583293D01*
X10027920Y-14583293D02*
X10027920Y-14535674D01*
X10027920Y-14535674D02*
X10037444Y-14497579D01*
X10037444Y-14497579D02*
X10046967Y-14478531D01*
X10046967Y-14478531D02*
X10056491Y-14469008D01*
X10056491Y-14469008D02*
X10075539Y-14459484D01*
X10227920Y-14659484D02*
X10227920Y-14526150D01*
X10227920Y-14545198D02*
X10237444Y-14535674D01*
X10237444Y-14535674D02*
X10256491Y-14526150D01*
X10256491Y-14526150D02*
X10285063Y-14526150D01*
X10285063Y-14526150D02*
X10304110Y-14535674D01*
X10304110Y-14535674D02*
X10313634Y-14554722D01*
X10313634Y-14554722D02*
X10313634Y-14659484D01*
X10313634Y-14554722D02*
X10323158Y-14535674D01*
X10323158Y-14535674D02*
X10342205Y-14526150D01*
X10342205Y-14526150D02*
X10370777Y-14526150D01*
X10370777Y-14526150D02*
X10389825Y-14535674D01*
X10389825Y-14535674D02*
X10399348Y-14554722D01*
X10399348Y-14554722D02*
X10399348Y-14659484D01*
X10494586Y-14659484D02*
X10494586Y-14526150D01*
X10494586Y-14545198D02*
X10504110Y-14535674D01*
X10504110Y-14535674D02*
X10523158Y-14526150D01*
X10523158Y-14526150D02*
X10551729Y-14526150D01*
X10551729Y-14526150D02*
X10570777Y-14535674D01*
X10570777Y-14535674D02*
X10580301Y-14554722D01*
X10580301Y-14554722D02*
X10580301Y-14659484D01*
X10580301Y-14554722D02*
X10589825Y-14535674D01*
X10589825Y-14535674D02*
X10608872Y-14526150D01*
X10608872Y-14526150D02*
X10637444Y-14526150D01*
X10637444Y-14526150D02*
X10656491Y-14535674D01*
X10656491Y-14535674D02*
X10666015Y-14554722D01*
X10666015Y-14554722D02*
X10666015Y-14659484D01*
X11056491Y-14449960D02*
X10885063Y-14707103D01*
X11313634Y-14459484D02*
X11332682Y-14459484D01*
X11332682Y-14459484D02*
X11351729Y-14469008D01*
X11351729Y-14469008D02*
X11361253Y-14478531D01*
X11361253Y-14478531D02*
X11370777Y-14497579D01*
X11370777Y-14497579D02*
X11380301Y-14535674D01*
X11380301Y-14535674D02*
X11380301Y-14583293D01*
X11380301Y-14583293D02*
X11370777Y-14621388D01*
X11370777Y-14621388D02*
X11361253Y-14640436D01*
X11361253Y-14640436D02*
X11351729Y-14649960D01*
X11351729Y-14649960D02*
X11332682Y-14659484D01*
X11332682Y-14659484D02*
X11313634Y-14659484D01*
X11313634Y-14659484D02*
X11294586Y-14649960D01*
X11294586Y-14649960D02*
X11285063Y-14640436D01*
X11285063Y-14640436D02*
X11275539Y-14621388D01*
X11275539Y-14621388D02*
X11266015Y-14583293D01*
X11266015Y-14583293D02*
X11266015Y-14535674D01*
X11266015Y-14535674D02*
X11275539Y-14497579D01*
X11275539Y-14497579D02*
X11285063Y-14478531D01*
X11285063Y-14478531D02*
X11294586Y-14469008D01*
X11294586Y-14469008D02*
X11313634Y-14459484D01*
X11466015Y-14640436D02*
X11475539Y-14649960D01*
X11475539Y-14649960D02*
X11466015Y-14659484D01*
X11466015Y-14659484D02*
X11456491Y-14649960D01*
X11456491Y-14649960D02*
X11466015Y-14640436D01*
X11466015Y-14640436D02*
X11466015Y-14659484D01*
X11666015Y-14659484D02*
X11551729Y-14659484D01*
X11608872Y-14659484D02*
X11608872Y-14459484D01*
X11608872Y-14459484D02*
X11589825Y-14488055D01*
X11589825Y-14488055D02*
X11570777Y-14507103D01*
X11570777Y-14507103D02*
X11551729Y-14516627D01*
X11761253Y-14659484D02*
X11799348Y-14659484D01*
X11799348Y-14659484D02*
X11818396Y-14649960D01*
X11818396Y-14649960D02*
X11827920Y-14640436D01*
X11827920Y-14640436D02*
X11846967Y-14611865D01*
X11846967Y-14611865D02*
X11856491Y-14573769D01*
X11856491Y-14573769D02*
X11856491Y-14497579D01*
X11856491Y-14497579D02*
X11846967Y-14478531D01*
X11846967Y-14478531D02*
X11837444Y-14469008D01*
X11837444Y-14469008D02*
X11818396Y-14459484D01*
X11818396Y-14459484D02*
X11780301Y-14459484D01*
X11780301Y-14459484D02*
X11761253Y-14469008D01*
X11761253Y-14469008D02*
X11751729Y-14478531D01*
X11751729Y-14478531D02*
X11742206Y-14497579D01*
X11742206Y-14497579D02*
X11742206Y-14545198D01*
X11742206Y-14545198D02*
X11751729Y-14564246D01*
X11751729Y-14564246D02*
X11761253Y-14573769D01*
X11761253Y-14573769D02*
X11780301Y-14583293D01*
X11780301Y-14583293D02*
X11818396Y-14583293D01*
X11818396Y-14583293D02*
X11837444Y-14573769D01*
X11837444Y-14573769D02*
X11846967Y-14564246D01*
X11846967Y-14564246D02*
X11856491Y-14545198D01*
X12027920Y-14459484D02*
X11989825Y-14459484D01*
X11989825Y-14459484D02*
X11970777Y-14469008D01*
X11970777Y-14469008D02*
X11961253Y-14478531D01*
X11961253Y-14478531D02*
X11942206Y-14507103D01*
X11942206Y-14507103D02*
X11932682Y-14545198D01*
X11932682Y-14545198D02*
X11932682Y-14621388D01*
X11932682Y-14621388D02*
X11942206Y-14640436D01*
X11942206Y-14640436D02*
X11951729Y-14649960D01*
X11951729Y-14649960D02*
X11970777Y-14659484D01*
X11970777Y-14659484D02*
X12008872Y-14659484D01*
X12008872Y-14659484D02*
X12027920Y-14649960D01*
X12027920Y-14649960D02*
X12037444Y-14640436D01*
X12037444Y-14640436D02*
X12046967Y-14621388D01*
X12046967Y-14621388D02*
X12046967Y-14573769D01*
X12046967Y-14573769D02*
X12037444Y-14554722D01*
X12037444Y-14554722D02*
X12027920Y-14545198D01*
X12027920Y-14545198D02*
X12008872Y-14535674D01*
X12008872Y-14535674D02*
X11970777Y-14535674D01*
X11970777Y-14535674D02*
X11951729Y-14545198D01*
X11951729Y-14545198D02*
X11942206Y-14554722D01*
X11942206Y-14554722D02*
X11932682Y-14573769D01*
X12142206Y-14659484D02*
X12180301Y-14659484D01*
X12180301Y-14659484D02*
X12199348Y-14649960D01*
X12199348Y-14649960D02*
X12208872Y-14640436D01*
X12208872Y-14640436D02*
X12227920Y-14611865D01*
X12227920Y-14611865D02*
X12237444Y-14573769D01*
X12237444Y-14573769D02*
X12237444Y-14497579D01*
X12237444Y-14497579D02*
X12227920Y-14478531D01*
X12227920Y-14478531D02*
X12218396Y-14469008D01*
X12218396Y-14469008D02*
X12199348Y-14459484D01*
X12199348Y-14459484D02*
X12161253Y-14459484D01*
X12161253Y-14459484D02*
X12142206Y-14469008D01*
X12142206Y-14469008D02*
X12132682Y-14478531D01*
X12132682Y-14478531D02*
X12123158Y-14497579D01*
X12123158Y-14497579D02*
X12123158Y-14545198D01*
X12123158Y-14545198D02*
X12132682Y-14564246D01*
X12132682Y-14564246D02*
X12142206Y-14573769D01*
X12142206Y-14573769D02*
X12161253Y-14583293D01*
X12161253Y-14583293D02*
X12199348Y-14583293D01*
X12199348Y-14583293D02*
X12218396Y-14573769D01*
X12218396Y-14573769D02*
X12227920Y-14564246D01*
X12227920Y-14564246D02*
X12237444Y-14545198D01*
X12313634Y-14459484D02*
X12313634Y-14497579D01*
X12389825Y-14459484D02*
X12389825Y-14497579D01*
X12685063Y-14735674D02*
X12675539Y-14726150D01*
X12675539Y-14726150D02*
X12656491Y-14697579D01*
X12656491Y-14697579D02*
X12646968Y-14678531D01*
X12646968Y-14678531D02*
X12637444Y-14649960D01*
X12637444Y-14649960D02*
X12627920Y-14602341D01*
X12627920Y-14602341D02*
X12627920Y-14564246D01*
X12627920Y-14564246D02*
X12637444Y-14516627D01*
X12637444Y-14516627D02*
X12646968Y-14488055D01*
X12646968Y-14488055D02*
X12656491Y-14469008D01*
X12656491Y-14469008D02*
X12675539Y-14440436D01*
X12675539Y-14440436D02*
X12685063Y-14430912D01*
X12846968Y-14526150D02*
X12846968Y-14659484D01*
X12799348Y-14449960D02*
X12751729Y-14592817D01*
X12751729Y-14592817D02*
X12875539Y-14592817D01*
X13104110Y-14659484D02*
X13104110Y-14459484D01*
X13189825Y-14659484D02*
X13189825Y-14554722D01*
X13189825Y-14554722D02*
X13180301Y-14535674D01*
X13180301Y-14535674D02*
X13161253Y-14526150D01*
X13161253Y-14526150D02*
X13132682Y-14526150D01*
X13132682Y-14526150D02*
X13113634Y-14535674D01*
X13113634Y-14535674D02*
X13104110Y-14545198D01*
X13313634Y-14659484D02*
X13294587Y-14649960D01*
X13294587Y-14649960D02*
X13285063Y-14640436D01*
X13285063Y-14640436D02*
X13275539Y-14621388D01*
X13275539Y-14621388D02*
X13275539Y-14564246D01*
X13275539Y-14564246D02*
X13285063Y-14545198D01*
X13285063Y-14545198D02*
X13294587Y-14535674D01*
X13294587Y-14535674D02*
X13313634Y-14526150D01*
X13313634Y-14526150D02*
X13342206Y-14526150D01*
X13342206Y-14526150D02*
X13361253Y-14535674D01*
X13361253Y-14535674D02*
X13370777Y-14545198D01*
X13370777Y-14545198D02*
X13380301Y-14564246D01*
X13380301Y-14564246D02*
X13380301Y-14621388D01*
X13380301Y-14621388D02*
X13370777Y-14640436D01*
X13370777Y-14640436D02*
X13361253Y-14649960D01*
X13361253Y-14649960D02*
X13342206Y-14659484D01*
X13342206Y-14659484D02*
X13313634Y-14659484D01*
X13494587Y-14659484D02*
X13475539Y-14649960D01*
X13475539Y-14649960D02*
X13466015Y-14630912D01*
X13466015Y-14630912D02*
X13466015Y-14459484D01*
X13646968Y-14649960D02*
X13627920Y-14659484D01*
X13627920Y-14659484D02*
X13589825Y-14659484D01*
X13589825Y-14659484D02*
X13570777Y-14649960D01*
X13570777Y-14649960D02*
X13561253Y-14630912D01*
X13561253Y-14630912D02*
X13561253Y-14554722D01*
X13561253Y-14554722D02*
X13570777Y-14535674D01*
X13570777Y-14535674D02*
X13589825Y-14526150D01*
X13589825Y-14526150D02*
X13627920Y-14526150D01*
X13627920Y-14526150D02*
X13646968Y-14535674D01*
X13646968Y-14535674D02*
X13656491Y-14554722D01*
X13656491Y-14554722D02*
X13656491Y-14573769D01*
X13656491Y-14573769D02*
X13561253Y-14592817D01*
X13732682Y-14649960D02*
X13751730Y-14659484D01*
X13751730Y-14659484D02*
X13789825Y-14659484D01*
X13789825Y-14659484D02*
X13808872Y-14649960D01*
X13808872Y-14649960D02*
X13818396Y-14630912D01*
X13818396Y-14630912D02*
X13818396Y-14621388D01*
X13818396Y-14621388D02*
X13808872Y-14602341D01*
X13808872Y-14602341D02*
X13789825Y-14592817D01*
X13789825Y-14592817D02*
X13761253Y-14592817D01*
X13761253Y-14592817D02*
X13742206Y-14583293D01*
X13742206Y-14583293D02*
X13732682Y-14564246D01*
X13732682Y-14564246D02*
X13732682Y-14554722D01*
X13732682Y-14554722D02*
X13742206Y-14535674D01*
X13742206Y-14535674D02*
X13761253Y-14526150D01*
X13761253Y-14526150D02*
X13789825Y-14526150D01*
X13789825Y-14526150D02*
X13808872Y-14535674D01*
X13885063Y-14735674D02*
X13894587Y-14726150D01*
X13894587Y-14726150D02*
X13913634Y-14697579D01*
X13913634Y-14697579D02*
X13923158Y-14678531D01*
X13923158Y-14678531D02*
X13932682Y-14649960D01*
X13932682Y-14649960D02*
X13942206Y-14602341D01*
X13942206Y-14602341D02*
X13942206Y-14564246D01*
X13942206Y-14564246D02*
X13932682Y-14516627D01*
X13932682Y-14516627D02*
X13923158Y-14488055D01*
X13923158Y-14488055D02*
X13913634Y-14469008D01*
X13913634Y-14469008D02*
X13894587Y-14440436D01*
X13894587Y-14440436D02*
X13885063Y-14430912D01*
M02*
