%TF.GenerationSoftware,KiCad,Pcbnew,8.0.5*%
%TF.CreationDate,2025-03-12T16:07:21-07:00*%
%TF.ProjectId,Mechatronics LED,4d656368-6174-4726-9f6e-696373204c45,rev?*%
%TF.SameCoordinates,Original*%
%TF.FileFunction,Copper,L1,Top*%
%TF.FilePolarity,Positive*%
%FSLAX46Y46*%
G04 Gerber Fmt 4.6, Leading zero omitted, Abs format (unit mm)*
G04 Created by KiCad (PCBNEW 8.0.5) date 2025-03-12 16:07:21*
%MOMM*%
%LPD*%
G01*
G04 APERTURE LIST*
G04 Aperture macros list*
%AMRoundRect*
0 Rectangle with rounded corners*
0 $1 Rounding radius*
0 $2 $3 $4 $5 $6 $7 $8 $9 X,Y pos of 4 corners*
0 Add a 4 corners polygon primitive as box body*
4,1,4,$2,$3,$4,$5,$6,$7,$8,$9,$2,$3,0*
0 Add four circle primitives for the rounded corners*
1,1,$1+$1,$2,$3*
1,1,$1+$1,$4,$5*
1,1,$1+$1,$6,$7*
1,1,$1+$1,$8,$9*
0 Add four rect primitives between the rounded corners*
20,1,$1+$1,$2,$3,$4,$5,0*
20,1,$1+$1,$4,$5,$6,$7,0*
20,1,$1+$1,$6,$7,$8,$9,0*
20,1,$1+$1,$8,$9,$2,$3,0*%
%AMFreePoly0*
4,1,9,3.862500,-0.866500,0.737500,-0.866500,0.737500,-0.450000,-0.737500,-0.450000,-0.737500,0.450000,0.737500,0.450000,0.737500,0.866500,3.862500,0.866500,3.862500,-0.866500,3.862500,-0.866500,$1*%
G04 Aperture macros list end*
%TA.AperFunction,ComponentPad*%
%ADD10C,9.000000*%
%TD*%
%TA.AperFunction,SMDPad,CuDef*%
%ADD11RoundRect,0.250000X0.475000X-0.250000X0.475000X0.250000X-0.475000X0.250000X-0.475000X-0.250000X0*%
%TD*%
%TA.AperFunction,SMDPad,CuDef*%
%ADD12RoundRect,0.250000X-0.475000X0.250000X-0.475000X-0.250000X0.475000X-0.250000X0.475000X0.250000X0*%
%TD*%
%TA.AperFunction,SMDPad,CuDef*%
%ADD13RoundRect,0.225000X0.425000X0.225000X-0.425000X0.225000X-0.425000X-0.225000X0.425000X-0.225000X0*%
%TD*%
%TA.AperFunction,SMDPad,CuDef*%
%ADD14FreePoly0,180.000000*%
%TD*%
%TA.AperFunction,SMDPad,CuDef*%
%ADD15RoundRect,0.225000X-0.250000X0.225000X-0.250000X-0.225000X0.250000X-0.225000X0.250000X0.225000X0*%
%TD*%
%TA.AperFunction,ComponentPad*%
%ADD16R,1.700000X1.700000*%
%TD*%
%TA.AperFunction,ComponentPad*%
%ADD17O,1.700000X1.700000*%
%TD*%
%TA.AperFunction,SMDPad,CuDef*%
%ADD18RoundRect,0.150000X-0.512500X-0.150000X0.512500X-0.150000X0.512500X0.150000X-0.512500X0.150000X0*%
%TD*%
%TA.AperFunction,SMDPad,CuDef*%
%ADD19RoundRect,0.225000X0.225000X0.250000X-0.225000X0.250000X-0.225000X-0.250000X0.225000X-0.250000X0*%
%TD*%
%TA.AperFunction,ComponentPad*%
%ADD20C,1.500000*%
%TD*%
%TA.AperFunction,SMDPad,CuDef*%
%ADD21RoundRect,0.225000X-0.225000X-0.250000X0.225000X-0.250000X0.225000X0.250000X-0.225000X0.250000X0*%
%TD*%
%TA.AperFunction,SMDPad,CuDef*%
%ADD22RoundRect,0.250000X-0.262500X-0.450000X0.262500X-0.450000X0.262500X0.450000X-0.262500X0.450000X0*%
%TD*%
%TA.AperFunction,SMDPad,CuDef*%
%ADD23RoundRect,0.075000X-0.662500X-0.075000X0.662500X-0.075000X0.662500X0.075000X-0.662500X0.075000X0*%
%TD*%
%TA.AperFunction,SMDPad,CuDef*%
%ADD24RoundRect,0.075000X-0.075000X-0.662500X0.075000X-0.662500X0.075000X0.662500X-0.075000X0.662500X0*%
%TD*%
%TA.AperFunction,SMDPad,CuDef*%
%ADD25RoundRect,0.250000X0.262500X0.450000X-0.262500X0.450000X-0.262500X-0.450000X0.262500X-0.450000X0*%
%TD*%
%TA.AperFunction,SMDPad,CuDef*%
%ADD26RoundRect,0.250000X0.250000X0.475000X-0.250000X0.475000X-0.250000X-0.475000X0.250000X-0.475000X0*%
%TD*%
%TA.AperFunction,SMDPad,CuDef*%
%ADD27RoundRect,0.225000X0.250000X-0.225000X0.250000X0.225000X-0.250000X0.225000X-0.250000X-0.225000X0*%
%TD*%
%TA.AperFunction,SMDPad,CuDef*%
%ADD28RoundRect,0.243750X0.456250X-0.243750X0.456250X0.243750X-0.456250X0.243750X-0.456250X-0.243750X0*%
%TD*%
%TA.AperFunction,ViaPad*%
%ADD29C,0.800000*%
%TD*%
%TA.AperFunction,ViaPad*%
%ADD30C,0.700000*%
%TD*%
%TA.AperFunction,Conductor*%
%ADD31C,0.300000*%
%TD*%
%TA.AperFunction,Conductor*%
%ADD32C,0.500000*%
%TD*%
%TA.AperFunction,Conductor*%
%ADD33C,0.250000*%
%TD*%
G04 APERTURE END LIST*
D10*
%TO.P,REF\u002A\u002A,1*%
%TO.N,N/C*%
X186150000Y-123670000D03*
%TD*%
D11*
%TO.P,C3,1*%
%TO.N,GND*%
X145375000Y-89375000D03*
%TO.P,C3,2*%
%TO.N,Net-(U2-PD0)*%
X145375000Y-87475000D03*
%TD*%
D12*
%TO.P,C4,1*%
%TO.N,GND*%
X145375000Y-93075000D03*
%TO.P,C4,2*%
%TO.N,Net-(U2-PD1)*%
X145375000Y-94975000D03*
%TD*%
D10*
%TO.P,REF\u002A\u002A,1*%
%TO.N,N/C*%
X96150000Y-55670000D03*
%TD*%
D13*
%TO.P,U1,1,OUT*%
%TO.N,3V3*%
X172840000Y-89880000D03*
D14*
%TO.P,U1,2,GND*%
%TO.N,GND*%
X172752500Y-88380000D03*
D13*
%TO.P,U1,3,IN*%
%TO.N,VBATSW*%
X172840000Y-86880000D03*
%TD*%
D15*
%TO.P,C12,1*%
%TO.N,GND*%
X173875000Y-116900000D03*
%TO.P,C12,2*%
%TO.N,5V*%
X173875000Y-118450000D03*
%TD*%
D16*
%TO.P,J1,1,VBATSW*%
%TO.N,VBATSW*%
X184960000Y-66120000D03*
D17*
%TO.P,J1,2,VBATSW*%
X187500000Y-66120000D03*
%TO.P,J1,3,VBATSW*%
X184960000Y-68660000D03*
%TO.P,J1,4,VBATSW*%
X187500000Y-68660000D03*
%TO.P,J1,5,VBATSW*%
X184960000Y-71200000D03*
%TO.P,J1,6,VBATSW*%
X187500000Y-71200000D03*
%TO.P,J1,7,GND*%
%TO.N,GND*%
X184960000Y-73740000D03*
%TO.P,J1,8,GND*%
X187500000Y-73740000D03*
%TO.P,J1,9,VAO*%
%TO.N,unconnected-(J1-VAO-Pad9)*%
X184960000Y-76280000D03*
%TO.P,J1,10,EXT_MOTOR_KILL*%
%TO.N,unconnected-(J1-EXT_MOTOR_KILL-Pad10)*%
X187500000Y-76280000D03*
%TO.P,J1,11,BUTTON_IN*%
%TO.N,unconnected-(J1-BUTTON_IN-Pad11)*%
X184960000Y-78820000D03*
%TO.P,J1,12,FAULT*%
%TO.N,unconnected-(J1-FAULT-Pad12)*%
X187500000Y-78820000D03*
%TO.P,J1,13,INT_MOTOR_KILL*%
%TO.N,unconnected-(J1-INT_MOTOR_KILL-Pad13)*%
X184960000Y-81360000D03*
%TO.P,J1,14,POWER_OFF*%
%TO.N,unconnected-(J1-POWER_OFF-Pad14)*%
X187500000Y-81360000D03*
%TO.P,J1,15,GND*%
%TO.N,GND*%
X184960000Y-83900000D03*
%TO.P,J1,16,GND*%
X187500000Y-83900000D03*
%TO.P,J1,17,5V*%
%TO.N,5V*%
X184960000Y-86440000D03*
%TO.P,J1,18,5V*%
X187500000Y-86440000D03*
%TO.P,J1,19,5V*%
X184960000Y-88980000D03*
%TO.P,J1,20,5V*%
X187500000Y-88980000D03*
%TO.P,J1,21,I2C_0_SDA*%
%TO.N,unconnected-(J1-I2C_0_SDA-Pad21)*%
X184960000Y-91520000D03*
%TO.P,J1,22,12C_0_SCL*%
%TO.N,unconnected-(J1-12C_0_SCL-Pad22)*%
X187500000Y-91520000D03*
%TO.P,J1,23,I2C_1_SDA*%
%TO.N,unconnected-(J1-I2C_1_SDA-Pad23)*%
X184960000Y-94060000D03*
%TO.P,J1,24,I2C_1_SCL*%
%TO.N,unconnected-(J1-I2C_1_SCL-Pad24)*%
X187500000Y-94060000D03*
%TO.P,J1,25,GND*%
%TO.N,GND*%
X184960000Y-96600000D03*
%TO.P,J1,26,GND*%
X187500000Y-96600000D03*
%TO.P,J1,27,UART_0_TX*%
%TO.N,unconnected-(J1-UART_0_TX-Pad27)*%
X184960000Y-99140000D03*
%TO.P,J1,28,UART_0_RX*%
%TO.N,unconnected-(J1-UART_0_RX-Pad28)*%
X187500000Y-99140000D03*
%TO.P,J1,29,UART_1_TX*%
%TO.N,UART1_RX*%
X184960000Y-101680000D03*
%TO.P,J1,30,UART_1_RX*%
%TO.N,UART1_TX*%
X187500000Y-101680000D03*
%TO.P,J1,31,UART_2_TX*%
%TO.N,unconnected-(J1-UART_2_TX-Pad31)*%
X184960000Y-104220000D03*
%TO.P,J1,32,UART_2_RX*%
%TO.N,unconnected-(J1-UART_2_RX-Pad32)*%
X187500000Y-104220000D03*
%TO.P,J1,33,GND*%
%TO.N,GND*%
X184960000Y-106760000D03*
%TO.P,J1,34,GND*%
X187500000Y-106760000D03*
%TO.P,J1,35,SPARE_5*%
%TO.N,unconnected-(J1-SPARE_5-Pad35)*%
X184960000Y-109300000D03*
%TO.P,J1,36,SPARE_4*%
%TO.N,unconnected-(J1-SPARE_4-Pad36)*%
X187500000Y-109300000D03*
%TO.P,J1,37,SPARE_3*%
%TO.N,unconnected-(J1-SPARE_3-Pad37)*%
X184960000Y-111840000D03*
%TO.P,J1,38,SPARE_2*%
%TO.N,unconnected-(J1-SPARE_2-Pad38)*%
X187500000Y-111840000D03*
%TO.P,J1,39,SPARE_1*%
%TO.N,unconnected-(J1-SPARE_1-Pad39)*%
X184960000Y-114380000D03*
%TO.P,J1,40,SPARE_0*%
%TO.N,unconnected-(J1-SPARE_0-Pad40)*%
X187500000Y-114380000D03*
%TD*%
D18*
%TO.P,U3,1,NC*%
%TO.N,unconnected-(U3-NC-Pad1)*%
X170850000Y-120075000D03*
%TO.P,U3,2,A*%
%TO.N,TIM2_CH1*%
X170850000Y-121025000D03*
%TO.P,U3,3,GND*%
%TO.N,GND*%
X170850000Y-121975000D03*
%TO.P,U3,4,Y*%
%TO.N,TIM2_5V_SHIFT*%
X173125000Y-121975000D03*
%TO.P,U3,5,VCC*%
%TO.N,5V*%
X173125000Y-120075000D03*
%TD*%
D19*
%TO.P,C8,1*%
%TO.N,3V3*%
X163875000Y-97700000D03*
%TO.P,C8,2*%
%TO.N,GND*%
X162325000Y-97700000D03*
%TD*%
D16*
%TO.P,J3,1,Pin_1*%
%TO.N,3V3*%
X167680000Y-78600000D03*
D17*
%TO.P,J3,2,Pin_2*%
%TO.N,SWDIO*%
X165140000Y-78600000D03*
%TO.P,J3,3,Pin_3*%
%TO.N,SWCLK*%
X162600000Y-78600000D03*
%TO.P,J3,4,Pin_4*%
%TO.N,GND*%
X160060000Y-78600000D03*
%TD*%
D15*
%TO.P,C7,1*%
%TO.N,3V3*%
X166700000Y-88325000D03*
%TO.P,C7,2*%
%TO.N,GND*%
X166700000Y-89875000D03*
%TD*%
D20*
%TO.P,Y1,1,1*%
%TO.N,Net-(U2-PD1)*%
X149925000Y-93650000D03*
%TO.P,Y1,2,2*%
%TO.N,Net-(U2-PD0)*%
X149925000Y-88770000D03*
%TD*%
D11*
%TO.P,C11,1*%
%TO.N,TIM2_5V_SHIFT*%
X175300000Y-122125000D03*
%TO.P,C11,2*%
%TO.N,GND*%
X175300000Y-120225000D03*
%TD*%
D10*
%TO.P,REF\u002A\u002A,1*%
%TO.N,N/C*%
X96150000Y-123670000D03*
%TD*%
D12*
%TO.P,C10,1*%
%TO.N,TIM2_CH1*%
X168650000Y-120075000D03*
%TO.P,C10,2*%
%TO.N,GND*%
X168650000Y-121975000D03*
%TD*%
D21*
%TO.P,C6,1*%
%TO.N,3V3*%
X157725000Y-85325000D03*
%TO.P,C6,2*%
%TO.N,GND*%
X159275000Y-85325000D03*
%TD*%
D22*
%TO.P,R1,1*%
%TO.N,Net-(D1-A)*%
X141825000Y-83525000D03*
%TO.P,R1,2*%
%TO.N,Net-(U2-PC13)*%
X143650000Y-83525000D03*
%TD*%
D10*
%TO.P,REF\u002A\u002A,1*%
%TO.N,N/C*%
X186150000Y-55670000D03*
%TD*%
D21*
%TO.P,C5,1*%
%TO.N,GND*%
X154475000Y-85800000D03*
%TO.P,C5,2*%
%TO.N,Net-(U2-NRST)*%
X156025000Y-85800000D03*
%TD*%
D16*
%TO.P,J2,1,Pin_1*%
%TO.N,GND*%
X170500000Y-126100000D03*
D17*
%TO.P,J2,2,Pin_2*%
%TO.N,TIM2_5V_SHIFT*%
X173040000Y-126100000D03*
%TO.P,J2,3,Pin_3*%
%TO.N,5V*%
X175580000Y-126100000D03*
%TD*%
D23*
%TO.P,U2,1,VBAT*%
%TO.N,3V3*%
X156462500Y-88757500D03*
%TO.P,U2,2,PC13*%
%TO.N,Net-(U2-PC13)*%
X156462500Y-89257500D03*
%TO.P,U2,3,PC14*%
%TO.N,unconnected-(U2-PC14-Pad3)*%
X156462500Y-89757500D03*
%TO.P,U2,4,PC15*%
%TO.N,unconnected-(U2-PC15-Pad4)*%
X156462500Y-90257500D03*
%TO.P,U2,5,PD0*%
%TO.N,Net-(U2-PD0)*%
X156462500Y-90757500D03*
%TO.P,U2,6,PD1*%
%TO.N,Net-(U2-PD1)*%
X156462500Y-91257500D03*
%TO.P,U2,7,NRST*%
%TO.N,Net-(U2-NRST)*%
X156462500Y-91757500D03*
%TO.P,U2,8,VSSA*%
%TO.N,GND*%
X156462500Y-92257500D03*
%TO.P,U2,9,VDDA*%
%TO.N,3V3*%
X156462500Y-92757500D03*
%TO.P,U2,10,PA0*%
%TO.N,TIM2_CH1*%
X156462500Y-93257500D03*
%TO.P,U2,11,PA1*%
%TO.N,unconnected-(U2-PA1-Pad11)*%
X156462500Y-93757500D03*
%TO.P,U2,12,PA2*%
%TO.N,unconnected-(U2-PA2-Pad12)*%
X156462500Y-94257500D03*
D24*
%TO.P,U2,13,PA3*%
%TO.N,unconnected-(U2-PA3-Pad13)*%
X157875000Y-95670000D03*
%TO.P,U2,14,PA4*%
%TO.N,unconnected-(U2-PA4-Pad14)*%
X158375000Y-95670000D03*
%TO.P,U2,15,PA5*%
%TO.N,unconnected-(U2-PA5-Pad15)*%
X158875000Y-95670000D03*
%TO.P,U2,16,PA6*%
%TO.N,unconnected-(U2-PA6-Pad16)*%
X159375000Y-95670000D03*
%TO.P,U2,17,PA7*%
%TO.N,unconnected-(U2-PA7-Pad17)*%
X159875000Y-95670000D03*
%TO.P,U2,18,PB0*%
%TO.N,unconnected-(U2-PB0-Pad18)*%
X160375000Y-95670000D03*
%TO.P,U2,19,PB1*%
%TO.N,unconnected-(U2-PB1-Pad19)*%
X160875000Y-95670000D03*
%TO.P,U2,20,PB2*%
%TO.N,unconnected-(U2-PB2-Pad20)*%
X161375000Y-95670000D03*
%TO.P,U2,21,PB10*%
%TO.N,unconnected-(U2-PB10-Pad21)*%
X161875000Y-95670000D03*
%TO.P,U2,22,PB11*%
%TO.N,unconnected-(U2-PB11-Pad22)*%
X162375000Y-95670000D03*
%TO.P,U2,23,VSS*%
%TO.N,GND*%
X162875000Y-95670000D03*
%TO.P,U2,24,VDD*%
%TO.N,3V3*%
X163375000Y-95670000D03*
D23*
%TO.P,U2,25,PB12*%
%TO.N,unconnected-(U2-PB12-Pad25)*%
X164787500Y-94257500D03*
%TO.P,U2,26,PB13*%
%TO.N,unconnected-(U2-PB13-Pad26)*%
X164787500Y-93757500D03*
%TO.P,U2,27,PB14*%
%TO.N,unconnected-(U2-PB14-Pad27)*%
X164787500Y-93257500D03*
%TO.P,U2,28,PB15*%
%TO.N,unconnected-(U2-PB15-Pad28)*%
X164787500Y-92757500D03*
%TO.P,U2,29,PA8*%
%TO.N,unconnected-(U2-PA8-Pad29)*%
X164787500Y-92257500D03*
%TO.P,U2,30,USART1_TX*%
%TO.N,UART1_TX*%
X164787500Y-91757500D03*
%TO.P,U2,31,USART1_RX*%
%TO.N,UART1_RX*%
X164787500Y-91257500D03*
%TO.P,U2,32,PA11*%
%TO.N,unconnected-(U2-PA11-Pad32)*%
X164787500Y-90757500D03*
%TO.P,U2,33,PA12*%
%TO.N,unconnected-(U2-PA12-Pad33)*%
X164787500Y-90257500D03*
%TO.P,U2,34,PA13*%
%TO.N,SWDIO*%
X164787500Y-89757500D03*
%TO.P,U2,35,VSS*%
%TO.N,GND*%
X164787500Y-89257500D03*
%TO.P,U2,36,VDD*%
%TO.N,3V3*%
X164787500Y-88757500D03*
D24*
%TO.P,U2,37,PA14*%
%TO.N,SWCLK*%
X163375000Y-87345000D03*
%TO.P,U2,38,PA15*%
%TO.N,unconnected-(U2-PA15-Pad38)*%
X162875000Y-87345000D03*
%TO.P,U2,39,PB3*%
%TO.N,unconnected-(U2-PB3-Pad39)*%
X162375000Y-87345000D03*
%TO.P,U2,40,PB4*%
%TO.N,unconnected-(U2-PB4-Pad40)*%
X161875000Y-87345000D03*
%TO.P,U2,41,PB5*%
%TO.N,unconnected-(U2-PB5-Pad41)*%
X161375000Y-87345000D03*
%TO.P,U2,42,PB6*%
%TO.N,unconnected-(U2-PB6-Pad42)*%
X160875000Y-87345000D03*
%TO.P,U2,43,PB7*%
%TO.N,unconnected-(U2-PB7-Pad43)*%
X160375000Y-87345000D03*
%TO.P,U2,44,BOOT0*%
%TO.N,Net-(U2-BOOT0)*%
X159875000Y-87345000D03*
%TO.P,U2,45,PB8*%
%TO.N,unconnected-(U2-PB8-Pad45)*%
X159375000Y-87345000D03*
%TO.P,U2,46,PB9*%
%TO.N,unconnected-(U2-PB9-Pad46)*%
X158875000Y-87345000D03*
%TO.P,U2,47,VSS*%
%TO.N,GND*%
X158375000Y-87345000D03*
%TO.P,U2,48,VDD*%
%TO.N,3V3*%
X157875000Y-87345000D03*
%TD*%
D25*
%TO.P,R2,1*%
%TO.N,Net-(U2-BOOT0)*%
X157437500Y-82950000D03*
%TO.P,R2,2*%
%TO.N,GND*%
X155612500Y-82950000D03*
%TD*%
D26*
%TO.P,C2,1*%
%TO.N,3V3*%
X172970000Y-92100000D03*
%TO.P,C2,2*%
%TO.N,GND*%
X171070000Y-92100000D03*
%TD*%
D27*
%TO.P,C9,1*%
%TO.N,3V3*%
X154400000Y-94400000D03*
%TO.P,C9,2*%
%TO.N,GND*%
X154400000Y-92850000D03*
%TD*%
D22*
%TO.P,R3,1*%
%TO.N,Net-(D2-K)*%
X141737500Y-97075000D03*
%TO.P,R3,2*%
%TO.N,GND*%
X143562500Y-97075000D03*
%TD*%
D28*
%TO.P,D1,1,K*%
%TO.N,GND*%
X142650000Y-87462500D03*
%TO.P,D1,2,A*%
%TO.N,Net-(D1-A)*%
X142650000Y-85587500D03*
%TD*%
%TO.P,D2,1,K*%
%TO.N,Net-(D2-K)*%
X142650000Y-94912500D03*
%TO.P,D2,2,A*%
%TO.N,3V3*%
X142650000Y-93037500D03*
%TD*%
D26*
%TO.P,C1,1*%
%TO.N,VBATSW*%
X172910000Y-84640000D03*
%TO.P,C1,2*%
%TO.N,GND*%
X171010000Y-84640000D03*
%TD*%
D29*
%TO.N,GND*%
X142650000Y-89200000D03*
X168025000Y-89025000D03*
X169800000Y-92100000D03*
D30*
X153975000Y-82950000D03*
X159175000Y-97725000D03*
D29*
X160725000Y-85325000D03*
X166975000Y-121925000D03*
X177075000Y-120800000D03*
D30*
X153375000Y-87075000D03*
X145225000Y-98025000D03*
X145387500Y-91175000D03*
D29*
X172300000Y-117200000D03*
X169700000Y-84300000D03*
D30*
X174700000Y-88375000D03*
X153200000Y-92850000D03*
D29*
%TO.N,3V3*%
X165100000Y-97700000D03*
D30*
X154950000Y-87675000D03*
X156425000Y-84575000D03*
D29*
X142650000Y-91300000D03*
D30*
X174775000Y-92150000D03*
D29*
X156100000Y-95375000D03*
X167975000Y-87100000D03*
%TO.N,5V*%
X177625000Y-99275000D03*
X177625000Y-114650000D03*
%TD*%
D31*
%TO.N,GND*%
X154992500Y-92257500D02*
X154400000Y-92850000D01*
D32*
X144275000Y-97075000D02*
X145225000Y-98025000D01*
X170850000Y-121975000D02*
X168650000Y-121975000D01*
X145375000Y-91187500D02*
X145387500Y-91175000D01*
X172600000Y-116900000D02*
X172300000Y-117200000D01*
D33*
X162325000Y-97175000D02*
X162325000Y-97700000D01*
D32*
X143562500Y-97075000D02*
X144275000Y-97075000D01*
X170670000Y-84300000D02*
X171010000Y-84640000D01*
D31*
X158375000Y-86504380D02*
X159275000Y-85604380D01*
D32*
X159200000Y-97700000D02*
X159175000Y-97725000D01*
X162325000Y-97700000D02*
X159200000Y-97700000D01*
X154475000Y-85975000D02*
X153375000Y-87075000D01*
X173875000Y-116900000D02*
X172600000Y-116900000D01*
X176500000Y-120225000D02*
X177075000Y-120800000D01*
X167175000Y-89875000D02*
X168025000Y-89025000D01*
X169700000Y-84300000D02*
X170670000Y-84300000D01*
D33*
X162875000Y-95670000D02*
X162875000Y-96625000D01*
D32*
X145375000Y-91162500D02*
X145387500Y-91175000D01*
D31*
X159275000Y-85325000D02*
X160725000Y-85325000D01*
X165757500Y-89257500D02*
X166375000Y-89875000D01*
D32*
X167025000Y-121975000D02*
X166975000Y-121925000D01*
D31*
X159275000Y-85604380D02*
X159275000Y-85325000D01*
D32*
X145375000Y-89375000D02*
X145375000Y-91162500D01*
X175300000Y-120225000D02*
X176500000Y-120225000D01*
X145375000Y-93075000D02*
X145375000Y-91187500D01*
X154475000Y-85800000D02*
X154475000Y-85975000D01*
X174695000Y-88380000D02*
X174700000Y-88375000D01*
X166700000Y-89875000D02*
X167175000Y-89875000D01*
D31*
X164787500Y-89257500D02*
X165757500Y-89257500D01*
X156462500Y-92257500D02*
X154992500Y-92257500D01*
D32*
X169800000Y-92100000D02*
X171070000Y-92100000D01*
X172752500Y-88380000D02*
X174695000Y-88380000D01*
X142650000Y-87462500D02*
X142650000Y-89200000D01*
D31*
X158375000Y-87345000D02*
X158375000Y-86504380D01*
D32*
X154400000Y-92850000D02*
X153200000Y-92850000D01*
D33*
X162875000Y-96625000D02*
X162325000Y-97175000D01*
D32*
X155612500Y-82950000D02*
X153975000Y-82950000D01*
X168650000Y-121975000D02*
X167025000Y-121975000D01*
D31*
X166375000Y-89875000D02*
X166700000Y-89875000D01*
D32*
%TO.N,VBATSW*%
X187500000Y-71200000D02*
X184960000Y-71200000D01*
X184960000Y-66120000D02*
X187500000Y-66120000D01*
X172910000Y-84640000D02*
X172910000Y-86810000D01*
D31*
X172910000Y-83250000D02*
X184960000Y-71200000D01*
D32*
X172910000Y-86810000D02*
X172840000Y-86880000D01*
D31*
X172910000Y-84640000D02*
X172910000Y-83250000D01*
D32*
X184960000Y-68660000D02*
X184960000Y-66120000D01*
X187500000Y-68660000D02*
X187500000Y-71200000D01*
X187500000Y-66120000D02*
X187500000Y-68660000D01*
X184960000Y-71200000D02*
X184960000Y-68660000D01*
%TO.N,3V3*%
X142650000Y-93037500D02*
X142650000Y-91300000D01*
X155375000Y-95375000D02*
X156100000Y-95375000D01*
D33*
X163375000Y-96675000D02*
X163875000Y-97175000D01*
D32*
X166700000Y-88325000D02*
X166750000Y-88325000D01*
X166750000Y-88325000D02*
X167975000Y-87100000D01*
D31*
X164787500Y-88757500D02*
X165742500Y-88757500D01*
D32*
X163875000Y-97700000D02*
X165100000Y-97700000D01*
X174725000Y-92100000D02*
X174775000Y-92150000D01*
D31*
X157875000Y-87345000D02*
X157875000Y-85475000D01*
D32*
X172840000Y-89880000D02*
X172840000Y-91970000D01*
D31*
X165742500Y-88757500D02*
X166175000Y-88325000D01*
X155621880Y-92757500D02*
X155300000Y-93079380D01*
X155300000Y-93500000D02*
X154400000Y-94400000D01*
D32*
X156425000Y-84575000D02*
X156975000Y-84575000D01*
X172970000Y-92100000D02*
X174725000Y-92100000D01*
X156975000Y-84575000D02*
X157725000Y-85325000D01*
D31*
X155300000Y-93079380D02*
X155300000Y-93500000D01*
D32*
X172840000Y-91970000D02*
X172970000Y-92100000D01*
D31*
X156462500Y-88757500D02*
X156032500Y-88757500D01*
D33*
X163875000Y-97175000D02*
X163875000Y-97700000D01*
D31*
X157875000Y-85475000D02*
X157725000Y-85325000D01*
D32*
X154400000Y-94400000D02*
X155375000Y-95375000D01*
D33*
X163375000Y-95670000D02*
X163375000Y-96675000D01*
D31*
X166175000Y-88325000D02*
X166700000Y-88325000D01*
X156462500Y-92757500D02*
X155621880Y-92757500D01*
X156032500Y-88757500D02*
X154950000Y-87675000D01*
%TO.N,Net-(U2-PD0)*%
X148630000Y-87475000D02*
X149925000Y-88770000D01*
X151670000Y-88770000D02*
X153657500Y-90757500D01*
X145375000Y-87475000D02*
X148630000Y-87475000D01*
X153657500Y-90757500D02*
X156462500Y-90757500D01*
X149925000Y-88770000D02*
X151670000Y-88770000D01*
%TO.N,Net-(U2-PD1)*%
X151275000Y-93650000D02*
X153667500Y-91257500D01*
X149925000Y-93650000D02*
X151275000Y-93650000D01*
X148600000Y-94975000D02*
X149925000Y-93650000D01*
X145375000Y-94975000D02*
X148600000Y-94975000D01*
D33*
X145685000Y-94665000D02*
X145375000Y-94975000D01*
D31*
X153667500Y-91257500D02*
X156462500Y-91257500D01*
%TO.N,Net-(U2-NRST)*%
X156025000Y-86925000D02*
X156025000Y-85800000D01*
X157550000Y-88450000D02*
X156025000Y-86925000D01*
X157550000Y-91689339D02*
X157550000Y-88450000D01*
X157481839Y-91757500D02*
X157550000Y-91689339D01*
X156462500Y-91757500D02*
X157481839Y-91757500D01*
%TO.N,Net-(D1-A)*%
X141825000Y-84762500D02*
X142650000Y-85587500D01*
X141825000Y-83525000D02*
X141825000Y-84762500D01*
%TO.N,Net-(D2-K)*%
X141650000Y-95912500D02*
X141650000Y-96987500D01*
X142650000Y-94912500D02*
X141650000Y-95912500D01*
X141650000Y-96987500D02*
X141737500Y-97075000D01*
%TO.N,TIM2_CH1*%
X163556240Y-94510620D02*
X168650000Y-99604380D01*
X158556240Y-94510620D02*
X163556240Y-94510620D01*
X169600000Y-121025000D02*
X170850000Y-121025000D01*
X157303120Y-93257500D02*
X156462500Y-93257500D01*
X168650000Y-99604380D02*
X168650000Y-120075000D01*
X168650000Y-120075000D02*
X169600000Y-121025000D01*
X158556240Y-94510620D02*
X157303120Y-93257500D01*
D32*
%TO.N,5V*%
X187500000Y-88980000D02*
X184960000Y-88980000D01*
X173875000Y-118450000D02*
X173875000Y-119325000D01*
X173875000Y-118450000D02*
X177625000Y-114700000D01*
X184960000Y-86440000D02*
X187500000Y-86440000D01*
X177625000Y-114700000D02*
X177625000Y-114650000D01*
X177625000Y-96315000D02*
X184960000Y-88980000D01*
X187500000Y-86440000D02*
X187500000Y-88980000D01*
X184960000Y-88980000D02*
X184960000Y-86440000D01*
X173875000Y-119325000D02*
X173125000Y-120075000D01*
X177625000Y-99275000D02*
X177625000Y-96315000D01*
D31*
%TO.N,SWDIO*%
X163700000Y-88400000D02*
X163700000Y-89625000D01*
X165140000Y-78600000D02*
X165140000Y-86960000D01*
X165140000Y-86960000D02*
X163700000Y-88400000D01*
X163700000Y-89625000D02*
X163832500Y-89757500D01*
X163832500Y-89757500D02*
X164787500Y-89757500D01*
%TO.N,SWCLK*%
X162600000Y-82600000D02*
X162600000Y-78600000D01*
X163375000Y-87345000D02*
X163375000Y-83375000D01*
X163375000Y-83375000D02*
X162600000Y-82600000D01*
%TO.N,Net-(U2-PC13)*%
X143650000Y-83525000D02*
X147675000Y-83525000D01*
X147675000Y-83525000D02*
X153407500Y-89257500D01*
X153407500Y-89257500D02*
X156462500Y-89257500D01*
%TO.N,Net-(U2-BOOT0)*%
X159875000Y-86504380D02*
X160304380Y-86075000D01*
X161475000Y-85635661D02*
X161475000Y-85014339D01*
X159410661Y-82950000D02*
X157437500Y-82950000D01*
X159875000Y-87345000D02*
X159875000Y-86504380D01*
X161035661Y-86075000D02*
X161475000Y-85635661D01*
X160304380Y-86075000D02*
X161035661Y-86075000D01*
X161475000Y-85014339D02*
X159410661Y-82950000D01*
%TO.N,UART1_RX*%
X178319339Y-101680000D02*
X184960000Y-101680000D01*
X167896839Y-91257500D02*
X178319339Y-101680000D01*
X164787500Y-91257500D02*
X167896839Y-91257500D01*
%TO.N,UART1_TX*%
X186300000Y-102880000D02*
X187500000Y-101680000D01*
X165628120Y-91757500D02*
X176750620Y-102880000D01*
X164787500Y-91757500D02*
X165628120Y-91757500D01*
X176750620Y-102880000D02*
X186300000Y-102880000D01*
%TO.N,TIM2_5V_SHIFT*%
X175150000Y-121975000D02*
X175300000Y-122125000D01*
X173125000Y-121975000D02*
X175150000Y-121975000D01*
X173040000Y-124385000D02*
X173040000Y-126100000D01*
X175300000Y-122125000D02*
X173040000Y-124385000D01*
%TD*%
M02*
