%TF.GenerationSoftware,KiCad,Pcbnew,8.0.5*%
%TF.CreationDate,2025-03-12T16:07:22-07:00*%
%TF.ProjectId,Mechatronics LED,4d656368-6174-4726-9f6e-696373204c45,rev?*%
%TF.SameCoordinates,Original*%
%TF.FileFunction,Copper,L3,Inr*%
%TF.FilePolarity,Positive*%
%FSLAX46Y46*%
G04 Gerber Fmt 4.6, Leading zero omitted, Abs format (unit mm)*
G04 Created by KiCad (PCBNEW 8.0.5) date 2025-03-12 16:07:22*
%MOMM*%
%LPD*%
G01*
G04 APERTURE LIST*
%TA.AperFunction,ComponentPad*%
%ADD10C,9.000000*%
%TD*%
%TA.AperFunction,ComponentPad*%
%ADD11R,1.700000X1.700000*%
%TD*%
%TA.AperFunction,ComponentPad*%
%ADD12O,1.700000X1.700000*%
%TD*%
%TA.AperFunction,ComponentPad*%
%ADD13C,1.500000*%
%TD*%
%TA.AperFunction,ViaPad*%
%ADD14C,0.800000*%
%TD*%
%TA.AperFunction,ViaPad*%
%ADD15C,0.700000*%
%TD*%
G04 APERTURE END LIST*
D10*
%TO.N,N/C*%
%TO.C,REF\u002A\u002A*%
X186150000Y-123670000D03*
%TD*%
%TO.N,N/C*%
%TO.C,REF\u002A\u002A*%
X96150000Y-55670000D03*
%TD*%
D11*
%TO.N,VBATSW*%
%TO.C,J1*%
X184960000Y-66120000D03*
D12*
X187500000Y-66120000D03*
X184960000Y-68660000D03*
X187500000Y-68660000D03*
X184960000Y-71200000D03*
X187500000Y-71200000D03*
%TO.N,GND*%
X184960000Y-73740000D03*
X187500000Y-73740000D03*
%TO.N,unconnected-(J1-VAO-Pad9)*%
X184960000Y-76280000D03*
%TO.N,unconnected-(J1-EXT_MOTOR_KILL-Pad10)*%
X187500000Y-76280000D03*
%TO.N,unconnected-(J1-BUTTON_IN-Pad11)*%
X184960000Y-78820000D03*
%TO.N,unconnected-(J1-FAULT-Pad12)*%
X187500000Y-78820000D03*
%TO.N,unconnected-(J1-INT_MOTOR_KILL-Pad13)*%
X184960000Y-81360000D03*
%TO.N,unconnected-(J1-POWER_OFF-Pad14)*%
X187500000Y-81360000D03*
%TO.N,GND*%
X184960000Y-83900000D03*
X187500000Y-83900000D03*
%TO.N,5V*%
X184960000Y-86440000D03*
X187500000Y-86440000D03*
X184960000Y-88980000D03*
X187500000Y-88980000D03*
%TO.N,unconnected-(J1-I2C_0_SDA-Pad21)*%
X184960000Y-91520000D03*
%TO.N,unconnected-(J1-12C_0_SCL-Pad22)*%
X187500000Y-91520000D03*
%TO.N,unconnected-(J1-I2C_1_SDA-Pad23)*%
X184960000Y-94060000D03*
%TO.N,unconnected-(J1-I2C_1_SCL-Pad24)*%
X187500000Y-94060000D03*
%TO.N,GND*%
X184960000Y-96600000D03*
X187500000Y-96600000D03*
%TO.N,unconnected-(J1-UART_0_TX-Pad27)*%
X184960000Y-99140000D03*
%TO.N,unconnected-(J1-UART_0_RX-Pad28)*%
X187500000Y-99140000D03*
%TO.N,UART1_RX*%
X184960000Y-101680000D03*
%TO.N,UART1_TX*%
X187500000Y-101680000D03*
%TO.N,unconnected-(J1-UART_2_TX-Pad31)*%
X184960000Y-104220000D03*
%TO.N,unconnected-(J1-UART_2_RX-Pad32)*%
X187500000Y-104220000D03*
%TO.N,GND*%
X184960000Y-106760000D03*
X187500000Y-106760000D03*
%TO.N,unconnected-(J1-SPARE_5-Pad35)*%
X184960000Y-109300000D03*
%TO.N,unconnected-(J1-SPARE_4-Pad36)*%
X187500000Y-109300000D03*
%TO.N,unconnected-(J1-SPARE_3-Pad37)*%
X184960000Y-111840000D03*
%TO.N,unconnected-(J1-SPARE_2-Pad38)*%
X187500000Y-111840000D03*
%TO.N,unconnected-(J1-SPARE_1-Pad39)*%
X184960000Y-114380000D03*
%TO.N,unconnected-(J1-SPARE_0-Pad40)*%
X187500000Y-114380000D03*
%TD*%
D11*
%TO.N,3V3*%
%TO.C,J3*%
X167680000Y-78600000D03*
D12*
%TO.N,SWDIO*%
X165140000Y-78600000D03*
%TO.N,SWCLK*%
X162600000Y-78600000D03*
%TO.N,GND*%
X160060000Y-78600000D03*
%TD*%
D13*
%TO.N,Net-(U2-PD1)*%
%TO.C,Y1*%
X149925000Y-93650000D03*
%TO.N,Net-(U2-PD0)*%
X149925000Y-88770000D03*
%TD*%
D10*
%TO.N,N/C*%
%TO.C,REF\u002A\u002A*%
X96150000Y-123670000D03*
%TD*%
%TO.N,N/C*%
%TO.C,REF\u002A\u002A*%
X186150000Y-55670000D03*
%TD*%
D11*
%TO.N,GND*%
%TO.C,J2*%
X170500000Y-126100000D03*
D12*
%TO.N,TIM2_5V_SHIFT*%
X173040000Y-126100000D03*
%TO.N,5V*%
X175580000Y-126100000D03*
%TD*%
D14*
%TO.N,GND*%
X142650000Y-89200000D03*
X168025000Y-89025000D03*
X169800000Y-92100000D03*
D15*
X153975000Y-82950000D03*
X159175000Y-97725000D03*
D14*
X160725000Y-85325000D03*
X166975000Y-121925000D03*
X177075000Y-120800000D03*
D15*
X153375000Y-87075000D03*
X145225000Y-98025000D03*
X145387500Y-91175000D03*
D14*
X172300000Y-117200000D03*
X169700000Y-84300000D03*
D15*
X174700000Y-88375000D03*
X153200000Y-92850000D03*
D14*
%TO.N,3V3*%
X165100000Y-97700000D03*
D15*
X154950000Y-87675000D03*
X156425000Y-84575000D03*
D14*
X142650000Y-91300000D03*
D15*
X174775000Y-92150000D03*
D14*
X156100000Y-95375000D03*
X167975000Y-87100000D03*
%TO.N,5V*%
X177625000Y-99275000D03*
X177625000Y-114650000D03*
%TD*%
%TA.AperFunction,Conductor*%
%TO.N,3V3*%
G36*
X184115047Y-50890185D02*
G01*
X184160802Y-50942989D01*
X184170746Y-51012147D01*
X184141721Y-51075703D01*
X184101810Y-51106220D01*
X183778039Y-51262139D01*
X183778033Y-51262142D01*
X183392458Y-51492512D01*
X183029108Y-51756502D01*
X183029080Y-51756524D01*
X182690868Y-52052011D01*
X182690865Y-52052014D01*
X182380465Y-52376667D01*
X182100429Y-52727821D01*
X182100428Y-52727822D01*
X181853004Y-53102654D01*
X181853004Y-53102655D01*
X181640165Y-53498175D01*
X181463636Y-53911187D01*
X181324843Y-54338347D01*
X181224901Y-54776223D01*
X181164611Y-55221307D01*
X181164610Y-55221316D01*
X181144460Y-55669996D01*
X181144460Y-55670003D01*
X181164610Y-56118683D01*
X181164611Y-56118692D01*
X181224901Y-56563776D01*
X181324843Y-57001652D01*
X181324845Y-57001658D01*
X181463639Y-57428821D01*
X181640164Y-57841822D01*
X181853000Y-58237338D01*
X181853004Y-58237344D01*
X181853004Y-58237345D01*
X182100428Y-58612177D01*
X182100429Y-58612178D01*
X182100433Y-58612183D01*
X182380471Y-58963339D01*
X182690858Y-59287979D01*
X182690865Y-59287985D01*
X182690868Y-59287988D01*
X183029080Y-59583475D01*
X183029089Y-59583482D01*
X183029097Y-59583489D01*
X183029107Y-59583496D01*
X183029108Y-59583497D01*
X183392458Y-59847487D01*
X183778033Y-60077857D01*
X183778039Y-60077860D01*
X184182688Y-60272729D01*
X184182702Y-60272735D01*
X184603189Y-60430546D01*
X184603193Y-60430547D01*
X184603203Y-60430551D01*
X185036163Y-60550041D01*
X185478090Y-60630239D01*
X185925427Y-60670500D01*
X185925434Y-60670500D01*
X186374566Y-60670500D01*
X186374573Y-60670500D01*
X186821910Y-60630239D01*
X187263837Y-60550041D01*
X187696797Y-60430551D01*
X188117303Y-60272733D01*
X188521969Y-60077856D01*
X188907537Y-59847490D01*
X189270903Y-59583489D01*
X189609142Y-59287979D01*
X189919529Y-58963339D01*
X190199567Y-58612183D01*
X190447000Y-58237338D01*
X190659836Y-57841822D01*
X190711479Y-57720996D01*
X190755927Y-57667090D01*
X190822464Y-57645770D01*
X190889966Y-57663808D01*
X190937000Y-57715476D01*
X190949500Y-57769733D01*
X190949500Y-121570266D01*
X190929815Y-121637305D01*
X190877011Y-121683060D01*
X190807853Y-121693004D01*
X190744297Y-121663979D01*
X190711479Y-121619001D01*
X190659841Y-121498188D01*
X190659837Y-121498180D01*
X190646227Y-121472888D01*
X190447000Y-121102662D01*
X190421385Y-121063857D01*
X190199571Y-120727822D01*
X190199570Y-120727821D01*
X190106998Y-120611740D01*
X189919529Y-120376661D01*
X189609142Y-120052021D01*
X189609131Y-120052011D01*
X189270919Y-119756524D01*
X189270907Y-119756515D01*
X189270903Y-119756511D01*
X189270891Y-119756502D01*
X188907541Y-119492512D01*
X188521966Y-119262142D01*
X188521960Y-119262139D01*
X188117311Y-119067270D01*
X188117297Y-119067264D01*
X187696810Y-118909453D01*
X187696785Y-118909445D01*
X187263843Y-118789960D01*
X186821916Y-118709762D01*
X186821915Y-118709761D01*
X186821910Y-118709761D01*
X186374573Y-118669500D01*
X185925427Y-118669500D01*
X185478090Y-118709761D01*
X185478085Y-118709761D01*
X185478083Y-118709762D01*
X185036156Y-118789960D01*
X184603214Y-118909445D01*
X184603189Y-118909453D01*
X184182702Y-119067264D01*
X184182688Y-119067270D01*
X183778039Y-119262139D01*
X183778033Y-119262142D01*
X183392458Y-119492512D01*
X183029108Y-119756502D01*
X183029080Y-119756524D01*
X182690868Y-120052011D01*
X182690865Y-120052014D01*
X182380465Y-120376667D01*
X182100429Y-120727821D01*
X182100428Y-120727822D01*
X181853004Y-121102654D01*
X181853004Y-121102655D01*
X181640165Y-121498175D01*
X181615141Y-121556722D01*
X181553688Y-121700500D01*
X181463636Y-121911187D01*
X181324843Y-122338347D01*
X181224901Y-122776223D01*
X181164611Y-123221307D01*
X181164610Y-123221316D01*
X181144460Y-123669996D01*
X181144460Y-123670003D01*
X181164610Y-124118683D01*
X181164611Y-124118692D01*
X181224901Y-124563776D01*
X181324843Y-125001652D01*
X181369496Y-125139081D01*
X181463639Y-125428821D01*
X181640164Y-125841822D01*
X181853000Y-126237338D01*
X181853004Y-126237344D01*
X181853004Y-126237345D01*
X182100428Y-126612177D01*
X182100429Y-126612178D01*
X182238921Y-126785842D01*
X182380471Y-126963339D01*
X182690858Y-127287979D01*
X182690865Y-127287985D01*
X182690868Y-127287988D01*
X183029080Y-127583475D01*
X183029089Y-127583482D01*
X183029097Y-127583489D01*
X183029107Y-127583496D01*
X183029108Y-127583497D01*
X183392458Y-127847487D01*
X183778033Y-128077857D01*
X183778039Y-128077860D01*
X184101810Y-128233780D01*
X184153669Y-128280602D01*
X184171982Y-128348029D01*
X184150934Y-128414653D01*
X184097208Y-128459322D01*
X184048008Y-128469500D01*
X98251992Y-128469500D01*
X98184953Y-128449815D01*
X98139198Y-128397011D01*
X98129254Y-128327853D01*
X98158279Y-128264297D01*
X98198190Y-128233780D01*
X98299065Y-128185200D01*
X98521969Y-128077856D01*
X98907537Y-127847490D01*
X99270903Y-127583489D01*
X99609142Y-127287979D01*
X99919529Y-126963339D01*
X100199567Y-126612183D01*
X100447000Y-126237338D01*
X100659836Y-125841822D01*
X100836361Y-125428821D01*
X100910016Y-125202135D01*
X169149500Y-125202135D01*
X169149500Y-126997870D01*
X169149501Y-126997876D01*
X169155908Y-127057483D01*
X169206202Y-127192328D01*
X169206206Y-127192335D01*
X169292452Y-127307544D01*
X169292455Y-127307547D01*
X169407664Y-127393793D01*
X169407671Y-127393797D01*
X169542517Y-127444091D01*
X169542516Y-127444091D01*
X169549444Y-127444835D01*
X169602127Y-127450500D01*
X171397872Y-127450499D01*
X171457483Y-127444091D01*
X171592331Y-127393796D01*
X171707546Y-127307546D01*
X171793796Y-127192331D01*
X171842810Y-127060916D01*
X171884681Y-127004984D01*
X171950145Y-126980566D01*
X172018418Y-126995417D01*
X172046673Y-127016569D01*
X172168599Y-127138495D01*
X172265384Y-127206265D01*
X172362165Y-127274032D01*
X172362167Y-127274033D01*
X172362170Y-127274035D01*
X172576337Y-127373903D01*
X172804592Y-127435063D01*
X172981034Y-127450500D01*
X173039999Y-127455659D01*
X173040000Y-127455659D01*
X173040001Y-127455659D01*
X173098966Y-127450500D01*
X173275408Y-127435063D01*
X173503663Y-127373903D01*
X173717830Y-127274035D01*
X173911401Y-127138495D01*
X174078495Y-126971401D01*
X174208425Y-126785842D01*
X174263002Y-126742217D01*
X174332500Y-126735023D01*
X174394855Y-126766546D01*
X174411575Y-126785842D01*
X174541500Y-126971395D01*
X174541505Y-126971401D01*
X174708599Y-127138495D01*
X174805384Y-127206265D01*
X174902165Y-127274032D01*
X174902167Y-127274033D01*
X174902170Y-127274035D01*
X175116337Y-127373903D01*
X175344592Y-127435063D01*
X175521034Y-127450500D01*
X175579999Y-127455659D01*
X175580000Y-127455659D01*
X175580001Y-127455659D01*
X175638966Y-127450500D01*
X175815408Y-127435063D01*
X176043663Y-127373903D01*
X176257830Y-127274035D01*
X176451401Y-127138495D01*
X176618495Y-126971401D01*
X176754035Y-126777830D01*
X176853903Y-126563663D01*
X176915063Y-126335408D01*
X176935659Y-126100000D01*
X176915063Y-125864592D01*
X176853903Y-125636337D01*
X176754035Y-125422171D01*
X176748425Y-125414158D01*
X176618494Y-125228597D01*
X176451402Y-125061506D01*
X176451395Y-125061501D01*
X176257834Y-124925967D01*
X176257830Y-124925965D01*
X176257828Y-124925964D01*
X176043663Y-124826097D01*
X176043659Y-124826096D01*
X176043655Y-124826094D01*
X175815413Y-124764938D01*
X175815403Y-124764936D01*
X175580001Y-124744341D01*
X175579999Y-124744341D01*
X175344596Y-124764936D01*
X175344586Y-124764938D01*
X175116344Y-124826094D01*
X175116335Y-124826098D01*
X174902171Y-124925964D01*
X174902169Y-124925965D01*
X174708597Y-125061505D01*
X174541505Y-125228597D01*
X174411575Y-125414158D01*
X174356998Y-125457783D01*
X174287500Y-125464977D01*
X174225145Y-125433454D01*
X174208425Y-125414158D01*
X174078494Y-125228597D01*
X173911402Y-125061506D01*
X173911395Y-125061501D01*
X173717834Y-124925967D01*
X173717830Y-124925965D01*
X173717828Y-124925964D01*
X173503663Y-124826097D01*
X173503659Y-124826096D01*
X173503655Y-124826094D01*
X173275413Y-124764938D01*
X173275403Y-124764936D01*
X173040001Y-124744341D01*
X173039999Y-124744341D01*
X172804596Y-124764936D01*
X172804586Y-124764938D01*
X172576344Y-124826094D01*
X172576335Y-124826098D01*
X172362171Y-124925964D01*
X172362169Y-124925965D01*
X172168600Y-125061503D01*
X172046673Y-125183430D01*
X171985350Y-125216914D01*
X171915658Y-125211930D01*
X171859725Y-125170058D01*
X171842810Y-125139081D01*
X171793797Y-125007671D01*
X171793793Y-125007664D01*
X171707547Y-124892455D01*
X171707544Y-124892452D01*
X171592335Y-124806206D01*
X171592328Y-124806202D01*
X171457482Y-124755908D01*
X171457483Y-124755908D01*
X171397883Y-124749501D01*
X171397881Y-124749500D01*
X171397873Y-124749500D01*
X171397864Y-124749500D01*
X169602129Y-124749500D01*
X169602123Y-124749501D01*
X169542516Y-124755908D01*
X169407671Y-124806202D01*
X169407664Y-124806206D01*
X169292455Y-124892452D01*
X169292452Y-124892455D01*
X169206206Y-125007664D01*
X169206202Y-125007671D01*
X169155908Y-125142517D01*
X169149501Y-125202116D01*
X169149500Y-125202135D01*
X100910016Y-125202135D01*
X100975155Y-125001658D01*
X101075099Y-124563774D01*
X101135389Y-124118693D01*
X101155540Y-123670000D01*
X101135389Y-123221307D01*
X101075099Y-122776226D01*
X100975155Y-122338342D01*
X100840852Y-121925000D01*
X166069540Y-121925000D01*
X166089326Y-122113256D01*
X166089327Y-122113259D01*
X166147818Y-122293277D01*
X166147821Y-122293284D01*
X166242467Y-122457216D01*
X166369129Y-122597888D01*
X166522265Y-122709148D01*
X166522270Y-122709151D01*
X166695192Y-122786142D01*
X166695197Y-122786144D01*
X166880354Y-122825500D01*
X166880355Y-122825500D01*
X167069644Y-122825500D01*
X167069646Y-122825500D01*
X167254803Y-122786144D01*
X167427730Y-122709151D01*
X167580871Y-122597888D01*
X167707533Y-122457216D01*
X167802179Y-122293284D01*
X167860674Y-122113256D01*
X167880460Y-121925000D01*
X167860674Y-121736744D01*
X167802179Y-121556716D01*
X167707533Y-121392784D01*
X167580871Y-121252112D01*
X167580870Y-121252111D01*
X167427734Y-121140851D01*
X167427729Y-121140848D01*
X167254807Y-121063857D01*
X167254802Y-121063855D01*
X167109001Y-121032865D01*
X167069646Y-121024500D01*
X166880354Y-121024500D01*
X166847897Y-121031398D01*
X166695197Y-121063855D01*
X166695192Y-121063857D01*
X166522270Y-121140848D01*
X166522265Y-121140851D01*
X166369129Y-121252111D01*
X166242466Y-121392785D01*
X166147821Y-121556715D01*
X166147818Y-121556722D01*
X166106769Y-121683060D01*
X166089326Y-121736744D01*
X166069540Y-121925000D01*
X100840852Y-121925000D01*
X100836361Y-121911179D01*
X100659836Y-121498178D01*
X100447000Y-121102662D01*
X100421385Y-121063857D01*
X100247215Y-120800000D01*
X176169540Y-120800000D01*
X176189326Y-120988256D01*
X176189327Y-120988259D01*
X176247818Y-121168277D01*
X176247821Y-121168284D01*
X176342467Y-121332216D01*
X176397003Y-121392784D01*
X176469129Y-121472888D01*
X176622265Y-121584148D01*
X176622270Y-121584151D01*
X176795192Y-121661142D01*
X176795197Y-121661144D01*
X176980354Y-121700500D01*
X176980355Y-121700500D01*
X177169644Y-121700500D01*
X177169646Y-121700500D01*
X177354803Y-121661144D01*
X177527730Y-121584151D01*
X177680871Y-121472888D01*
X177807533Y-121332216D01*
X177902179Y-121168284D01*
X177960674Y-120988256D01*
X177980460Y-120800000D01*
X177960674Y-120611744D01*
X177902179Y-120431716D01*
X177807533Y-120267784D01*
X177680871Y-120127112D01*
X177680870Y-120127111D01*
X177527734Y-120015851D01*
X177527729Y-120015848D01*
X177354807Y-119938857D01*
X177354802Y-119938855D01*
X177209001Y-119907865D01*
X177169646Y-119899500D01*
X176980354Y-119899500D01*
X176947897Y-119906398D01*
X176795197Y-119938855D01*
X176795192Y-119938857D01*
X176622270Y-120015848D01*
X176622265Y-120015851D01*
X176469129Y-120127111D01*
X176342466Y-120267785D01*
X176247821Y-120431715D01*
X176247818Y-120431722D01*
X176189327Y-120611740D01*
X176189326Y-120611744D01*
X176169540Y-120800000D01*
X100247215Y-120800000D01*
X100199571Y-120727822D01*
X100199570Y-120727821D01*
X100106998Y-120611740D01*
X99919529Y-120376661D01*
X99609142Y-120052021D01*
X99609131Y-120052011D01*
X99270919Y-119756524D01*
X99270907Y-119756515D01*
X99270903Y-119756511D01*
X99270891Y-119756502D01*
X98907541Y-119492512D01*
X98521966Y-119262142D01*
X98521960Y-119262139D01*
X98117311Y-119067270D01*
X98117297Y-119067264D01*
X97696810Y-118909453D01*
X97696785Y-118909445D01*
X97263843Y-118789960D01*
X96821916Y-118709762D01*
X96821915Y-118709761D01*
X96821910Y-118709761D01*
X96374573Y-118669500D01*
X95925427Y-118669500D01*
X95478090Y-118709761D01*
X95478085Y-118709761D01*
X95478083Y-118709762D01*
X95036156Y-118789960D01*
X94603214Y-118909445D01*
X94603189Y-118909453D01*
X94182702Y-119067264D01*
X94182688Y-119067270D01*
X93778039Y-119262139D01*
X93778033Y-119262142D01*
X93392458Y-119492512D01*
X93029108Y-119756502D01*
X93029080Y-119756524D01*
X92690868Y-120052011D01*
X92690865Y-120052014D01*
X92380465Y-120376667D01*
X92100429Y-120727821D01*
X92100428Y-120727822D01*
X91853004Y-121102654D01*
X91853004Y-121102655D01*
X91640162Y-121498180D01*
X91640158Y-121498188D01*
X91588521Y-121619001D01*
X91544073Y-121672909D01*
X91477535Y-121694229D01*
X91410034Y-121676191D01*
X91363000Y-121624523D01*
X91350500Y-121570266D01*
X91350500Y-117200000D01*
X171394540Y-117200000D01*
X171414326Y-117388256D01*
X171414327Y-117388259D01*
X171472818Y-117568277D01*
X171472821Y-117568284D01*
X171567467Y-117732216D01*
X171694129Y-117872888D01*
X171847265Y-117984148D01*
X171847270Y-117984151D01*
X172020192Y-118061142D01*
X172020197Y-118061144D01*
X172205354Y-118100500D01*
X172205355Y-118100500D01*
X172394644Y-118100500D01*
X172394646Y-118100500D01*
X172579803Y-118061144D01*
X172752730Y-117984151D01*
X172905871Y-117872888D01*
X173032533Y-117732216D01*
X173127179Y-117568284D01*
X173185674Y-117388256D01*
X173205460Y-117200000D01*
X173185674Y-117011744D01*
X173127179Y-116831716D01*
X173032533Y-116667784D01*
X172905871Y-116527112D01*
X172905870Y-116527111D01*
X172752734Y-116415851D01*
X172752729Y-116415848D01*
X172579807Y-116338857D01*
X172579802Y-116338855D01*
X172434001Y-116307865D01*
X172394646Y-116299500D01*
X172205354Y-116299500D01*
X172172897Y-116306398D01*
X172020197Y-116338855D01*
X172020192Y-116338857D01*
X171847270Y-116415848D01*
X171847265Y-116415851D01*
X171694129Y-116527111D01*
X171567466Y-116667785D01*
X171472821Y-116831715D01*
X171472818Y-116831722D01*
X171414327Y-117011740D01*
X171414326Y-117011744D01*
X171394540Y-117200000D01*
X91350500Y-117200000D01*
X91350500Y-114650000D01*
X176719540Y-114650000D01*
X176739326Y-114838256D01*
X176739327Y-114838259D01*
X176797818Y-115018277D01*
X176797821Y-115018284D01*
X176892467Y-115182216D01*
X176954762Y-115251401D01*
X177019129Y-115322888D01*
X177172265Y-115434148D01*
X177172270Y-115434151D01*
X177345192Y-115511142D01*
X177345197Y-115511144D01*
X177530354Y-115550500D01*
X177530355Y-115550500D01*
X177719644Y-115550500D01*
X177719646Y-115550500D01*
X177904803Y-115511144D01*
X178077730Y-115434151D01*
X178230871Y-115322888D01*
X178357533Y-115182216D01*
X178452179Y-115018284D01*
X178510674Y-114838256D01*
X178530460Y-114650000D01*
X178510674Y-114461744D01*
X178452179Y-114281716D01*
X178357533Y-114117784D01*
X178230871Y-113977112D01*
X178230870Y-113977111D01*
X178077734Y-113865851D01*
X178077729Y-113865848D01*
X177904807Y-113788857D01*
X177904802Y-113788855D01*
X177759001Y-113757865D01*
X177719646Y-113749500D01*
X177530354Y-113749500D01*
X177497897Y-113756398D01*
X177345197Y-113788855D01*
X177345192Y-113788857D01*
X177172270Y-113865848D01*
X177172265Y-113865851D01*
X177019129Y-113977111D01*
X176892466Y-114117785D01*
X176797821Y-114281715D01*
X176797818Y-114281722D01*
X176765886Y-114380000D01*
X176739326Y-114461744D01*
X176719540Y-114650000D01*
X91350500Y-114650000D01*
X91350500Y-99275000D01*
X176719540Y-99275000D01*
X176739326Y-99463256D01*
X176739327Y-99463259D01*
X176797818Y-99643277D01*
X176797821Y-99643284D01*
X176892467Y-99807216D01*
X177019129Y-99947888D01*
X177172265Y-100059148D01*
X177172270Y-100059151D01*
X177345192Y-100136142D01*
X177345197Y-100136144D01*
X177530354Y-100175500D01*
X177530355Y-100175500D01*
X177719644Y-100175500D01*
X177719646Y-100175500D01*
X177904803Y-100136144D01*
X178077730Y-100059151D01*
X178230871Y-99947888D01*
X178357533Y-99807216D01*
X178452179Y-99643284D01*
X178510674Y-99463256D01*
X178530460Y-99275000D01*
X178510674Y-99086744D01*
X178452179Y-98906716D01*
X178357533Y-98742784D01*
X178230871Y-98602112D01*
X178194243Y-98575500D01*
X178077734Y-98490851D01*
X178077729Y-98490848D01*
X177904807Y-98413857D01*
X177904802Y-98413855D01*
X177759001Y-98382865D01*
X177719646Y-98374500D01*
X177530354Y-98374500D01*
X177497897Y-98381398D01*
X177345197Y-98413855D01*
X177345192Y-98413857D01*
X177172270Y-98490848D01*
X177172265Y-98490851D01*
X177019129Y-98602111D01*
X176892466Y-98742785D01*
X176797821Y-98906715D01*
X176797818Y-98906722D01*
X176739327Y-99086740D01*
X176739326Y-99086744D01*
X176719540Y-99275000D01*
X91350500Y-99275000D01*
X91350500Y-98025000D01*
X144369815Y-98025000D01*
X144388503Y-98202805D01*
X144388504Y-98202807D01*
X144443747Y-98372829D01*
X144443750Y-98372835D01*
X144533141Y-98527665D01*
X144574812Y-98573946D01*
X144652764Y-98660521D01*
X144652767Y-98660523D01*
X144652770Y-98660526D01*
X144797407Y-98765612D01*
X144960733Y-98838329D01*
X145135609Y-98875500D01*
X145135610Y-98875500D01*
X145314389Y-98875500D01*
X145314391Y-98875500D01*
X145489267Y-98838329D01*
X145652593Y-98765612D01*
X145797230Y-98660526D01*
X145916859Y-98527665D01*
X146006250Y-98372835D01*
X146061497Y-98202803D01*
X146080185Y-98025000D01*
X146061497Y-97847197D01*
X146021793Y-97725000D01*
X158319815Y-97725000D01*
X158338503Y-97902805D01*
X158338504Y-97902807D01*
X158393747Y-98072829D01*
X158393750Y-98072835D01*
X158483141Y-98227665D01*
X158519998Y-98268599D01*
X158602764Y-98360521D01*
X158602767Y-98360523D01*
X158602770Y-98360526D01*
X158747407Y-98465612D01*
X158910733Y-98538329D01*
X159085609Y-98575500D01*
X159085610Y-98575500D01*
X159264389Y-98575500D01*
X159264391Y-98575500D01*
X159439267Y-98538329D01*
X159602593Y-98465612D01*
X159747230Y-98360526D01*
X159866859Y-98227665D01*
X159956250Y-98072835D01*
X160011497Y-97902803D01*
X160030185Y-97725000D01*
X160011497Y-97547197D01*
X159960250Y-97389475D01*
X159956252Y-97377170D01*
X159956249Y-97377164D01*
X159866859Y-97222335D01*
X159820003Y-97170296D01*
X159747235Y-97089478D01*
X159747232Y-97089476D01*
X159747231Y-97089475D01*
X159747230Y-97089474D01*
X159602593Y-96984388D01*
X159439267Y-96911671D01*
X159439265Y-96911670D01*
X159311594Y-96884533D01*
X159264391Y-96874500D01*
X159085609Y-96874500D01*
X159054954Y-96881015D01*
X158910733Y-96911670D01*
X158910728Y-96911672D01*
X158747408Y-96984387D01*
X158602768Y-97089475D01*
X158483140Y-97222336D01*
X158393750Y-97377164D01*
X158393747Y-97377170D01*
X158338504Y-97547192D01*
X158338503Y-97547194D01*
X158319815Y-97725000D01*
X146021793Y-97725000D01*
X146006250Y-97677165D01*
X145916859Y-97522335D01*
X145870003Y-97470296D01*
X145797235Y-97389478D01*
X145797232Y-97389476D01*
X145797231Y-97389475D01*
X145797230Y-97389474D01*
X145652593Y-97284388D01*
X145489267Y-97211671D01*
X145489265Y-97211670D01*
X145361594Y-97184533D01*
X145314391Y-97174500D01*
X145135609Y-97174500D01*
X145104954Y-97181015D01*
X144960733Y-97211670D01*
X144960728Y-97211672D01*
X144797408Y-97284387D01*
X144652768Y-97389475D01*
X144533140Y-97522336D01*
X144443750Y-97677164D01*
X144443747Y-97677170D01*
X144388504Y-97847192D01*
X144388503Y-97847194D01*
X144369815Y-98025000D01*
X91350500Y-98025000D01*
X91350500Y-93650000D01*
X148669723Y-93650000D01*
X148684997Y-93824592D01*
X148688793Y-93867975D01*
X148688793Y-93867979D01*
X148745422Y-94079322D01*
X148745424Y-94079326D01*
X148745425Y-94079330D01*
X148791661Y-94178484D01*
X148837897Y-94277638D01*
X148862998Y-94313486D01*
X148963402Y-94456877D01*
X149118123Y-94611598D01*
X149297361Y-94737102D01*
X149495670Y-94829575D01*
X149707023Y-94886207D01*
X149889926Y-94902208D01*
X149924998Y-94905277D01*
X149925000Y-94905277D01*
X149925002Y-94905277D01*
X149953254Y-94902805D01*
X150142977Y-94886207D01*
X150354330Y-94829575D01*
X150552639Y-94737102D01*
X150731877Y-94611598D01*
X150886598Y-94456877D01*
X151012102Y-94277639D01*
X151104575Y-94079330D01*
X151161207Y-93867977D01*
X151180277Y-93650000D01*
X151161207Y-93432023D01*
X151104575Y-93220670D01*
X151012102Y-93022362D01*
X151012100Y-93022359D01*
X151012099Y-93022357D01*
X150891414Y-92850000D01*
X152344815Y-92850000D01*
X152363503Y-93027805D01*
X152363504Y-93027807D01*
X152418747Y-93197829D01*
X152418750Y-93197835D01*
X152508141Y-93352665D01*
X152544868Y-93393454D01*
X152627764Y-93485521D01*
X152627767Y-93485523D01*
X152627770Y-93485526D01*
X152772407Y-93590612D01*
X152935733Y-93663329D01*
X153110609Y-93700500D01*
X153110610Y-93700500D01*
X153289389Y-93700500D01*
X153289391Y-93700500D01*
X153464267Y-93663329D01*
X153627593Y-93590612D01*
X153772230Y-93485526D01*
X153891859Y-93352665D01*
X153981250Y-93197835D01*
X154036497Y-93027803D01*
X154055185Y-92850000D01*
X154036497Y-92672197D01*
X154000984Y-92562900D01*
X153981252Y-92502170D01*
X153981249Y-92502164D01*
X153891859Y-92347335D01*
X153838664Y-92288256D01*
X153772235Y-92214478D01*
X153772232Y-92214476D01*
X153772231Y-92214475D01*
X153772230Y-92214474D01*
X153627593Y-92109388D01*
X153606507Y-92100000D01*
X168894540Y-92100000D01*
X168914326Y-92288256D01*
X168914327Y-92288259D01*
X168972818Y-92468277D01*
X168972821Y-92468284D01*
X169067467Y-92632216D01*
X169189278Y-92767500D01*
X169194129Y-92772888D01*
X169347265Y-92884148D01*
X169347270Y-92884151D01*
X169520192Y-92961142D01*
X169520197Y-92961144D01*
X169705354Y-93000500D01*
X169705355Y-93000500D01*
X169894644Y-93000500D01*
X169894646Y-93000500D01*
X170079803Y-92961144D01*
X170252730Y-92884151D01*
X170405871Y-92772888D01*
X170532533Y-92632216D01*
X170627179Y-92468284D01*
X170685674Y-92288256D01*
X170705460Y-92100000D01*
X170685674Y-91911744D01*
X170627179Y-91731716D01*
X170532533Y-91567784D01*
X170405871Y-91427112D01*
X170303599Y-91352807D01*
X170252734Y-91315851D01*
X170252729Y-91315848D01*
X170079807Y-91238857D01*
X170079802Y-91238855D01*
X169934001Y-91207865D01*
X169894646Y-91199500D01*
X169705354Y-91199500D01*
X169672897Y-91206398D01*
X169520197Y-91238855D01*
X169520192Y-91238857D01*
X169347270Y-91315848D01*
X169347265Y-91315851D01*
X169194129Y-91427111D01*
X169067466Y-91567785D01*
X168972821Y-91731715D01*
X168972818Y-91731722D01*
X168914327Y-91911740D01*
X168914326Y-91911744D01*
X168894540Y-92100000D01*
X153606507Y-92100000D01*
X153464267Y-92036671D01*
X153464265Y-92036670D01*
X153336594Y-92009533D01*
X153289391Y-91999500D01*
X153110609Y-91999500D01*
X153079954Y-92006015D01*
X152935733Y-92036670D01*
X152935728Y-92036672D01*
X152772408Y-92109387D01*
X152627768Y-92214475D01*
X152508140Y-92347336D01*
X152418750Y-92502164D01*
X152418747Y-92502170D01*
X152363504Y-92672192D01*
X152363503Y-92672194D01*
X152344815Y-92850000D01*
X150891414Y-92850000D01*
X150886599Y-92843124D01*
X150810975Y-92767500D01*
X150731877Y-92688402D01*
X150552639Y-92562898D01*
X150552640Y-92562898D01*
X150552638Y-92562897D01*
X150422407Y-92502170D01*
X150354330Y-92470425D01*
X150354326Y-92470424D01*
X150354322Y-92470422D01*
X150142977Y-92413793D01*
X149925002Y-92394723D01*
X149924998Y-92394723D01*
X149779682Y-92407436D01*
X149707023Y-92413793D01*
X149707020Y-92413793D01*
X149495677Y-92470422D01*
X149495668Y-92470426D01*
X149297361Y-92562898D01*
X149297357Y-92562900D01*
X149118121Y-92688402D01*
X148963402Y-92843121D01*
X148837900Y-93022357D01*
X148837898Y-93022361D01*
X148745426Y-93220668D01*
X148745422Y-93220677D01*
X148688793Y-93432020D01*
X148688793Y-93432024D01*
X148674919Y-93590612D01*
X148669723Y-93650000D01*
X91350500Y-93650000D01*
X91350500Y-91175000D01*
X144532315Y-91175000D01*
X144551003Y-91352805D01*
X144551004Y-91352807D01*
X144606247Y-91522829D01*
X144606250Y-91522835D01*
X144695641Y-91677665D01*
X144737312Y-91723946D01*
X144815264Y-91810521D01*
X144815267Y-91810523D01*
X144815270Y-91810526D01*
X144959907Y-91915612D01*
X145123233Y-91988329D01*
X145298109Y-92025500D01*
X145298110Y-92025500D01*
X145476889Y-92025500D01*
X145476891Y-92025500D01*
X145651767Y-91988329D01*
X145815093Y-91915612D01*
X145959730Y-91810526D01*
X146079359Y-91677665D01*
X146168750Y-91522835D01*
X146169672Y-91519999D01*
X146199852Y-91427112D01*
X146223997Y-91352803D01*
X146242685Y-91175000D01*
X146223997Y-90997197D01*
X146173625Y-90842169D01*
X146168752Y-90827170D01*
X146168749Y-90827164D01*
X146079359Y-90672335D01*
X146032503Y-90620296D01*
X145959735Y-90539478D01*
X145959732Y-90539476D01*
X145959731Y-90539475D01*
X145959730Y-90539474D01*
X145815093Y-90434388D01*
X145651767Y-90361671D01*
X145651765Y-90361670D01*
X145524094Y-90334533D01*
X145476891Y-90324500D01*
X145298109Y-90324500D01*
X145267454Y-90331015D01*
X145123233Y-90361670D01*
X145123228Y-90361672D01*
X144959908Y-90434387D01*
X144815268Y-90539475D01*
X144695640Y-90672336D01*
X144606250Y-90827164D01*
X144606247Y-90827170D01*
X144551004Y-90997192D01*
X144551003Y-90997194D01*
X144532315Y-91175000D01*
X91350500Y-91175000D01*
X91350500Y-89200000D01*
X141744540Y-89200000D01*
X141764326Y-89388256D01*
X141764327Y-89388259D01*
X141822818Y-89568277D01*
X141822821Y-89568284D01*
X141917467Y-89732216D01*
X142024782Y-89851401D01*
X142044129Y-89872888D01*
X142197265Y-89984148D01*
X142197270Y-89984151D01*
X142370192Y-90061142D01*
X142370197Y-90061144D01*
X142555354Y-90100500D01*
X142555355Y-90100500D01*
X142744644Y-90100500D01*
X142744646Y-90100500D01*
X142929803Y-90061144D01*
X143102730Y-89984151D01*
X143255871Y-89872888D01*
X143382533Y-89732216D01*
X143477179Y-89568284D01*
X143535674Y-89388256D01*
X143555460Y-89200000D01*
X143535674Y-89011744D01*
X143477179Y-88831716D01*
X143441546Y-88769997D01*
X148669723Y-88769997D01*
X148669723Y-88770002D01*
X148688793Y-88987975D01*
X148688793Y-88987979D01*
X148745422Y-89199322D01*
X148745424Y-89199326D01*
X148745425Y-89199330D01*
X148791661Y-89298484D01*
X148837897Y-89397638D01*
X148837898Y-89397639D01*
X148963402Y-89576877D01*
X149118123Y-89731598D01*
X149297361Y-89857102D01*
X149495670Y-89949575D01*
X149707023Y-90006207D01*
X149889926Y-90022208D01*
X149924998Y-90025277D01*
X149925000Y-90025277D01*
X149925002Y-90025277D01*
X149953254Y-90022805D01*
X150142977Y-90006207D01*
X150354330Y-89949575D01*
X150552639Y-89857102D01*
X150731877Y-89731598D01*
X150886598Y-89576877D01*
X151012102Y-89397639D01*
X151104575Y-89199330D01*
X151151287Y-89025000D01*
X167119540Y-89025000D01*
X167139326Y-89213256D01*
X167139327Y-89213259D01*
X167197818Y-89393277D01*
X167197821Y-89393284D01*
X167292467Y-89557216D01*
X167383061Y-89657830D01*
X167419129Y-89697888D01*
X167572265Y-89809148D01*
X167572270Y-89809151D01*
X167745192Y-89886142D01*
X167745197Y-89886144D01*
X167930354Y-89925500D01*
X167930355Y-89925500D01*
X168119644Y-89925500D01*
X168119646Y-89925500D01*
X168304803Y-89886144D01*
X168477730Y-89809151D01*
X168630871Y-89697888D01*
X168757533Y-89557216D01*
X168852179Y-89393284D01*
X168910674Y-89213256D01*
X168930460Y-89025000D01*
X168910674Y-88836744D01*
X168852179Y-88656716D01*
X168757533Y-88492784D01*
X168651480Y-88375000D01*
X173844815Y-88375000D01*
X173863503Y-88552805D01*
X173863504Y-88552807D01*
X173918747Y-88722829D01*
X173918750Y-88722835D01*
X174008141Y-88877665D01*
X174049812Y-88923946D01*
X174127764Y-89010521D01*
X174127767Y-89010523D01*
X174127770Y-89010526D01*
X174272407Y-89115612D01*
X174435733Y-89188329D01*
X174610609Y-89225500D01*
X174610610Y-89225500D01*
X174789389Y-89225500D01*
X174789391Y-89225500D01*
X174964267Y-89188329D01*
X175127593Y-89115612D01*
X175272230Y-89010526D01*
X175292532Y-88987979D01*
X175299717Y-88979999D01*
X175391859Y-88877665D01*
X175481250Y-88722835D01*
X175536497Y-88552803D01*
X175555185Y-88375000D01*
X175536497Y-88197197D01*
X175481250Y-88027165D01*
X175391859Y-87872335D01*
X175332099Y-87805965D01*
X175272235Y-87739478D01*
X175272232Y-87739476D01*
X175272231Y-87739475D01*
X175272230Y-87739474D01*
X175127593Y-87634388D01*
X174964267Y-87561671D01*
X174964265Y-87561670D01*
X174833111Y-87533793D01*
X174789391Y-87524500D01*
X174610609Y-87524500D01*
X174579954Y-87531015D01*
X174435733Y-87561670D01*
X174435728Y-87561672D01*
X174272408Y-87634387D01*
X174127768Y-87739475D01*
X174008140Y-87872336D01*
X173918750Y-88027164D01*
X173918747Y-88027170D01*
X173863504Y-88197192D01*
X173863503Y-88197194D01*
X173844815Y-88375000D01*
X168651480Y-88375000D01*
X168630871Y-88352112D01*
X168630870Y-88352111D01*
X168477734Y-88240851D01*
X168477729Y-88240848D01*
X168304807Y-88163857D01*
X168304802Y-88163855D01*
X168159001Y-88132865D01*
X168119646Y-88124500D01*
X167930354Y-88124500D01*
X167897897Y-88131398D01*
X167745197Y-88163855D01*
X167745192Y-88163857D01*
X167572270Y-88240848D01*
X167572265Y-88240851D01*
X167419129Y-88352111D01*
X167292466Y-88492785D01*
X167197821Y-88656715D01*
X167197818Y-88656722D01*
X167139327Y-88836740D01*
X167139326Y-88836744D01*
X167119540Y-89025000D01*
X151151287Y-89025000D01*
X151161207Y-88987977D01*
X151180277Y-88770000D01*
X151178054Y-88744596D01*
X151176150Y-88722829D01*
X151161207Y-88552023D01*
X151104575Y-88340670D01*
X151012102Y-88142362D01*
X151012100Y-88142359D01*
X151012099Y-88142357D01*
X150886599Y-87963124D01*
X150811804Y-87888329D01*
X150731877Y-87808402D01*
X150591345Y-87710000D01*
X150552638Y-87682897D01*
X150428787Y-87625145D01*
X150354330Y-87590425D01*
X150354326Y-87590424D01*
X150354322Y-87590422D01*
X150142977Y-87533793D01*
X149925002Y-87514723D01*
X149924998Y-87514723D01*
X149813245Y-87524500D01*
X149707023Y-87533793D01*
X149707020Y-87533793D01*
X149495677Y-87590422D01*
X149495668Y-87590426D01*
X149297361Y-87682898D01*
X149297357Y-87682900D01*
X149118121Y-87808402D01*
X148963402Y-87963121D01*
X148837900Y-88142357D01*
X148837898Y-88142361D01*
X148745426Y-88340668D01*
X148745422Y-88340677D01*
X148688793Y-88552020D01*
X148688793Y-88552024D01*
X148669723Y-88769997D01*
X143441546Y-88769997D01*
X143382533Y-88667784D01*
X143255871Y-88527112D01*
X143255870Y-88527111D01*
X143102734Y-88415851D01*
X143102729Y-88415848D01*
X142929807Y-88338857D01*
X142929802Y-88338855D01*
X142784001Y-88307865D01*
X142744646Y-88299500D01*
X142555354Y-88299500D01*
X142542788Y-88302171D01*
X142370197Y-88338855D01*
X142370192Y-88338857D01*
X142197270Y-88415848D01*
X142197265Y-88415851D01*
X142044129Y-88527111D01*
X141917466Y-88667785D01*
X141822821Y-88831715D01*
X141822818Y-88831722D01*
X141764327Y-89011740D01*
X141764326Y-89011744D01*
X141744540Y-89200000D01*
X91350500Y-89200000D01*
X91350500Y-87075000D01*
X152519815Y-87075000D01*
X152538503Y-87252805D01*
X152538504Y-87252807D01*
X152593747Y-87422829D01*
X152593750Y-87422835D01*
X152683141Y-87577665D01*
X152710838Y-87608425D01*
X152802764Y-87710521D01*
X152802767Y-87710523D01*
X152802770Y-87710526D01*
X152947407Y-87815612D01*
X153110733Y-87888329D01*
X153285609Y-87925500D01*
X153285610Y-87925500D01*
X153464389Y-87925500D01*
X153464391Y-87925500D01*
X153639267Y-87888329D01*
X153802593Y-87815612D01*
X153947230Y-87710526D01*
X154066859Y-87577665D01*
X154156250Y-87422835D01*
X154211497Y-87252803D01*
X154230185Y-87075000D01*
X154211497Y-86897197D01*
X154156250Y-86727165D01*
X154066859Y-86572335D01*
X154020003Y-86520296D01*
X153947235Y-86439478D01*
X153947232Y-86439476D01*
X153947231Y-86439475D01*
X153947230Y-86439474D01*
X153802593Y-86334388D01*
X153639267Y-86261671D01*
X153639265Y-86261670D01*
X153511594Y-86234533D01*
X153464391Y-86224500D01*
X153285609Y-86224500D01*
X153254954Y-86231015D01*
X153110733Y-86261670D01*
X153110728Y-86261672D01*
X152947408Y-86334387D01*
X152802768Y-86439475D01*
X152683140Y-86572336D01*
X152593750Y-86727164D01*
X152593747Y-86727170D01*
X152538504Y-86897192D01*
X152538503Y-86897194D01*
X152519815Y-87075000D01*
X91350500Y-87075000D01*
X91350500Y-85325000D01*
X159819540Y-85325000D01*
X159839326Y-85513256D01*
X159839327Y-85513259D01*
X159897818Y-85693277D01*
X159897821Y-85693284D01*
X159992467Y-85857216D01*
X160092188Y-85967967D01*
X160119129Y-85997888D01*
X160272265Y-86109148D01*
X160272270Y-86109151D01*
X160445192Y-86186142D01*
X160445197Y-86186144D01*
X160630354Y-86225500D01*
X160630355Y-86225500D01*
X160819644Y-86225500D01*
X160819646Y-86225500D01*
X161004803Y-86186144D01*
X161177730Y-86109151D01*
X161330871Y-85997888D01*
X161457533Y-85857216D01*
X161552179Y-85693284D01*
X161610674Y-85513256D01*
X161630460Y-85325000D01*
X161610674Y-85136744D01*
X161552179Y-84956716D01*
X161457533Y-84792784D01*
X161330871Y-84652112D01*
X161330870Y-84652111D01*
X161177734Y-84540851D01*
X161177729Y-84540848D01*
X161004807Y-84463857D01*
X161004802Y-84463855D01*
X160859001Y-84432865D01*
X160819646Y-84424500D01*
X160630354Y-84424500D01*
X160597897Y-84431398D01*
X160445197Y-84463855D01*
X160445192Y-84463857D01*
X160272270Y-84540848D01*
X160272265Y-84540851D01*
X160119129Y-84652111D01*
X159992466Y-84792785D01*
X159897821Y-84956715D01*
X159897818Y-84956722D01*
X159843791Y-85123002D01*
X159839326Y-85136744D01*
X159819540Y-85325000D01*
X91350500Y-85325000D01*
X91350500Y-84300000D01*
X168794540Y-84300000D01*
X168814326Y-84488256D01*
X168814327Y-84488259D01*
X168872818Y-84668277D01*
X168872821Y-84668284D01*
X168967467Y-84832216D01*
X169063164Y-84938498D01*
X169094129Y-84972888D01*
X169247265Y-85084148D01*
X169247270Y-85084151D01*
X169420192Y-85161142D01*
X169420197Y-85161144D01*
X169605354Y-85200500D01*
X169605355Y-85200500D01*
X169794644Y-85200500D01*
X169794646Y-85200500D01*
X169979803Y-85161144D01*
X170152730Y-85084151D01*
X170305871Y-84972888D01*
X170432533Y-84832216D01*
X170527179Y-84668284D01*
X170585674Y-84488256D01*
X170605460Y-84300000D01*
X170585674Y-84111744D01*
X170527179Y-83931716D01*
X170432533Y-83767784D01*
X170305871Y-83627112D01*
X170248633Y-83585526D01*
X170152734Y-83515851D01*
X170152729Y-83515848D01*
X169979807Y-83438857D01*
X169979802Y-83438855D01*
X169834001Y-83407865D01*
X169794646Y-83399500D01*
X169605354Y-83399500D01*
X169572897Y-83406398D01*
X169420197Y-83438855D01*
X169420192Y-83438857D01*
X169247270Y-83515848D01*
X169247265Y-83515851D01*
X169094129Y-83627111D01*
X168967466Y-83767785D01*
X168872821Y-83931715D01*
X168872818Y-83931722D01*
X168814327Y-84111740D01*
X168814326Y-84111744D01*
X168794540Y-84300000D01*
X91350500Y-84300000D01*
X91350500Y-82950000D01*
X153119815Y-82950000D01*
X153138503Y-83127805D01*
X153138504Y-83127807D01*
X153193747Y-83297829D01*
X153193750Y-83297835D01*
X153283141Y-83452665D01*
X153324812Y-83498946D01*
X153402764Y-83585521D01*
X153402767Y-83585523D01*
X153402770Y-83585526D01*
X153547407Y-83690612D01*
X153710733Y-83763329D01*
X153885609Y-83800500D01*
X153885610Y-83800500D01*
X154064389Y-83800500D01*
X154064391Y-83800500D01*
X154239267Y-83763329D01*
X154402593Y-83690612D01*
X154547230Y-83585526D01*
X154666859Y-83452665D01*
X154756250Y-83297835D01*
X154811497Y-83127803D01*
X154830185Y-82950000D01*
X154811497Y-82772197D01*
X154765294Y-82630000D01*
X154756252Y-82602170D01*
X154756249Y-82602164D01*
X154745186Y-82583002D01*
X154666859Y-82447335D01*
X154620003Y-82395296D01*
X154547235Y-82314478D01*
X154547232Y-82314476D01*
X154547231Y-82314475D01*
X154547230Y-82314474D01*
X154402593Y-82209388D01*
X154239267Y-82136671D01*
X154239265Y-82136670D01*
X154111594Y-82109533D01*
X154064391Y-82099500D01*
X153885609Y-82099500D01*
X153854954Y-82106015D01*
X153710733Y-82136670D01*
X153710728Y-82136672D01*
X153547408Y-82209387D01*
X153402768Y-82314475D01*
X153283140Y-82447336D01*
X153193750Y-82602164D01*
X153193747Y-82602170D01*
X153138504Y-82772192D01*
X153138503Y-82772194D01*
X153119815Y-82950000D01*
X91350500Y-82950000D01*
X91350500Y-78599999D01*
X158704341Y-78599999D01*
X158704341Y-78600000D01*
X158724936Y-78835403D01*
X158724938Y-78835413D01*
X158786094Y-79063655D01*
X158786096Y-79063659D01*
X158786097Y-79063663D01*
X158866004Y-79235023D01*
X158885965Y-79277830D01*
X158885967Y-79277834D01*
X158895909Y-79292032D01*
X159021505Y-79471401D01*
X159188599Y-79638495D01*
X159264157Y-79691401D01*
X159382165Y-79774032D01*
X159382167Y-79774033D01*
X159382170Y-79774035D01*
X159596337Y-79873903D01*
X159824592Y-79935063D01*
X159995319Y-79950000D01*
X160059999Y-79955659D01*
X160060000Y-79955659D01*
X160060001Y-79955659D01*
X160124681Y-79950000D01*
X160295408Y-79935063D01*
X160523663Y-79873903D01*
X160737830Y-79774035D01*
X160931401Y-79638495D01*
X161098495Y-79471401D01*
X161228425Y-79285842D01*
X161283002Y-79242217D01*
X161352500Y-79235023D01*
X161414855Y-79266546D01*
X161431575Y-79285842D01*
X161561500Y-79471395D01*
X161561505Y-79471401D01*
X161728599Y-79638495D01*
X161804157Y-79691401D01*
X161922165Y-79774032D01*
X161922167Y-79774033D01*
X161922170Y-79774035D01*
X162136337Y-79873903D01*
X162364592Y-79935063D01*
X162535319Y-79950000D01*
X162599999Y-79955659D01*
X162600000Y-79955659D01*
X162600001Y-79955659D01*
X162664681Y-79950000D01*
X162835408Y-79935063D01*
X163063663Y-79873903D01*
X163277830Y-79774035D01*
X163471401Y-79638495D01*
X163638495Y-79471401D01*
X163768425Y-79285842D01*
X163823002Y-79242217D01*
X163892500Y-79235023D01*
X163954855Y-79266546D01*
X163971575Y-79285842D01*
X164101500Y-79471395D01*
X164101505Y-79471401D01*
X164268599Y-79638495D01*
X164344157Y-79691401D01*
X164462165Y-79774032D01*
X164462167Y-79774033D01*
X164462170Y-79774035D01*
X164676337Y-79873903D01*
X164904592Y-79935063D01*
X165075319Y-79950000D01*
X165139999Y-79955659D01*
X165140000Y-79955659D01*
X165140001Y-79955659D01*
X165204681Y-79950000D01*
X165375408Y-79935063D01*
X165603663Y-79873903D01*
X165817830Y-79774035D01*
X166011401Y-79638495D01*
X166133717Y-79516178D01*
X166195036Y-79482696D01*
X166264728Y-79487680D01*
X166320662Y-79529551D01*
X166337577Y-79560528D01*
X166386646Y-79692088D01*
X166386649Y-79692093D01*
X166472809Y-79807187D01*
X166472812Y-79807190D01*
X166587906Y-79893350D01*
X166587913Y-79893354D01*
X166722620Y-79943596D01*
X166722627Y-79943598D01*
X166782155Y-79949999D01*
X166782172Y-79950000D01*
X167430000Y-79950000D01*
X167430000Y-79033012D01*
X167487007Y-79065925D01*
X167614174Y-79100000D01*
X167745826Y-79100000D01*
X167872993Y-79065925D01*
X167930000Y-79033012D01*
X167930000Y-79950000D01*
X168577828Y-79950000D01*
X168577844Y-79949999D01*
X168637372Y-79943598D01*
X168637379Y-79943596D01*
X168772086Y-79893354D01*
X168772093Y-79893350D01*
X168887187Y-79807190D01*
X168887190Y-79807187D01*
X168973350Y-79692093D01*
X168973354Y-79692086D01*
X169023596Y-79557379D01*
X169023598Y-79557372D01*
X169029999Y-79497844D01*
X169030000Y-79497827D01*
X169030000Y-78850000D01*
X168113012Y-78850000D01*
X168145925Y-78792993D01*
X168180000Y-78665826D01*
X168180000Y-78534174D01*
X168145925Y-78407007D01*
X168113012Y-78350000D01*
X169030000Y-78350000D01*
X169030000Y-77702172D01*
X169029999Y-77702155D01*
X169023598Y-77642627D01*
X169023596Y-77642620D01*
X168973354Y-77507913D01*
X168973350Y-77507906D01*
X168887190Y-77392812D01*
X168887187Y-77392809D01*
X168772093Y-77306649D01*
X168772086Y-77306645D01*
X168637379Y-77256403D01*
X168637372Y-77256401D01*
X168577844Y-77250000D01*
X167930000Y-77250000D01*
X167930000Y-78166988D01*
X167872993Y-78134075D01*
X167745826Y-78100000D01*
X167614174Y-78100000D01*
X167487007Y-78134075D01*
X167430000Y-78166988D01*
X167430000Y-77250000D01*
X166782155Y-77250000D01*
X166722627Y-77256401D01*
X166722620Y-77256403D01*
X166587913Y-77306645D01*
X166587906Y-77306649D01*
X166472812Y-77392809D01*
X166472809Y-77392812D01*
X166386649Y-77507906D01*
X166386645Y-77507913D01*
X166337578Y-77639470D01*
X166295707Y-77695404D01*
X166230242Y-77719821D01*
X166161969Y-77704969D01*
X166133715Y-77683819D01*
X166084751Y-77634855D01*
X166011401Y-77561505D01*
X166011397Y-77561502D01*
X166011396Y-77561501D01*
X165817834Y-77425967D01*
X165817830Y-77425965D01*
X165746727Y-77392809D01*
X165603663Y-77326097D01*
X165603659Y-77326096D01*
X165603655Y-77326094D01*
X165375413Y-77264938D01*
X165375403Y-77264936D01*
X165140001Y-77244341D01*
X165139999Y-77244341D01*
X164904596Y-77264936D01*
X164904586Y-77264938D01*
X164676344Y-77326094D01*
X164676335Y-77326098D01*
X164462171Y-77425964D01*
X164462169Y-77425965D01*
X164268597Y-77561505D01*
X164101505Y-77728597D01*
X163971575Y-77914158D01*
X163916998Y-77957783D01*
X163847500Y-77964977D01*
X163785145Y-77933454D01*
X163768425Y-77914158D01*
X163638494Y-77728597D01*
X163471402Y-77561506D01*
X163471395Y-77561501D01*
X163277834Y-77425967D01*
X163277830Y-77425965D01*
X163206727Y-77392809D01*
X163063663Y-77326097D01*
X163063659Y-77326096D01*
X163063655Y-77326094D01*
X162835413Y-77264938D01*
X162835403Y-77264936D01*
X162600001Y-77244341D01*
X162599999Y-77244341D01*
X162364596Y-77264936D01*
X162364586Y-77264938D01*
X162136344Y-77326094D01*
X162136335Y-77326098D01*
X161922171Y-77425964D01*
X161922169Y-77425965D01*
X161728597Y-77561505D01*
X161561505Y-77728597D01*
X161431575Y-77914158D01*
X161376998Y-77957783D01*
X161307500Y-77964977D01*
X161245145Y-77933454D01*
X161228425Y-77914158D01*
X161098494Y-77728597D01*
X160931402Y-77561506D01*
X160931395Y-77561501D01*
X160737834Y-77425967D01*
X160737830Y-77425965D01*
X160666727Y-77392809D01*
X160523663Y-77326097D01*
X160523659Y-77326096D01*
X160523655Y-77326094D01*
X160295413Y-77264938D01*
X160295403Y-77264936D01*
X160060001Y-77244341D01*
X160059999Y-77244341D01*
X159824596Y-77264936D01*
X159824586Y-77264938D01*
X159596344Y-77326094D01*
X159596335Y-77326098D01*
X159382171Y-77425964D01*
X159382169Y-77425965D01*
X159188597Y-77561505D01*
X159021505Y-77728597D01*
X158885965Y-77922169D01*
X158885964Y-77922171D01*
X158786098Y-78136335D01*
X158786094Y-78136344D01*
X158724938Y-78364586D01*
X158724936Y-78364596D01*
X158704341Y-78599999D01*
X91350500Y-78599999D01*
X91350500Y-68659999D01*
X183604341Y-68659999D01*
X183604341Y-68660000D01*
X183624936Y-68895403D01*
X183624938Y-68895413D01*
X183686094Y-69123655D01*
X183686096Y-69123659D01*
X183686097Y-69123663D01*
X183690000Y-69132032D01*
X183785965Y-69337830D01*
X183785967Y-69337834D01*
X183894281Y-69492521D01*
X183921501Y-69531396D01*
X183921506Y-69531402D01*
X184088597Y-69698493D01*
X184088603Y-69698498D01*
X184274158Y-69828425D01*
X184317783Y-69883002D01*
X184324977Y-69952500D01*
X184293454Y-70014855D01*
X184274158Y-70031575D01*
X184088597Y-70161505D01*
X183921505Y-70328597D01*
X183785965Y-70522169D01*
X183785964Y-70522171D01*
X183686098Y-70736335D01*
X183686094Y-70736344D01*
X183624938Y-70964586D01*
X183624936Y-70964596D01*
X183604341Y-71199999D01*
X183604341Y-71200000D01*
X183624936Y-71435403D01*
X183624938Y-71435413D01*
X183686094Y-71663655D01*
X183686096Y-71663659D01*
X183686097Y-71663663D01*
X183690000Y-71672032D01*
X183785965Y-71877830D01*
X183785967Y-71877834D01*
X183894281Y-72032521D01*
X183921501Y-72071396D01*
X183921506Y-72071402D01*
X184088597Y-72238493D01*
X184088603Y-72238498D01*
X184274158Y-72368425D01*
X184317783Y-72423002D01*
X184324977Y-72492500D01*
X184293454Y-72554855D01*
X184274158Y-72571575D01*
X184088597Y-72701505D01*
X183921505Y-72868597D01*
X183785965Y-73062169D01*
X183785964Y-73062171D01*
X183686098Y-73276335D01*
X183686094Y-73276344D01*
X183624938Y-73504586D01*
X183624936Y-73504596D01*
X183604341Y-73739999D01*
X183604341Y-73740000D01*
X183624936Y-73975403D01*
X183624938Y-73975413D01*
X183686094Y-74203655D01*
X183686096Y-74203659D01*
X183686097Y-74203663D01*
X183690000Y-74212032D01*
X183785965Y-74417830D01*
X183785967Y-74417834D01*
X183894281Y-74572521D01*
X183921501Y-74611396D01*
X183921506Y-74611402D01*
X184088597Y-74778493D01*
X184088603Y-74778498D01*
X184274158Y-74908425D01*
X184317783Y-74963002D01*
X184324977Y-75032500D01*
X184293454Y-75094855D01*
X184274158Y-75111575D01*
X184088597Y-75241505D01*
X183921505Y-75408597D01*
X183785965Y-75602169D01*
X183785964Y-75602171D01*
X183686098Y-75816335D01*
X183686094Y-75816344D01*
X183624938Y-76044586D01*
X183624936Y-76044596D01*
X183604341Y-76279999D01*
X183604341Y-76280000D01*
X183624936Y-76515403D01*
X183624938Y-76515413D01*
X183686094Y-76743655D01*
X183686096Y-76743659D01*
X183686097Y-76743663D01*
X183690000Y-76752032D01*
X183785965Y-76957830D01*
X183785967Y-76957834D01*
X183894281Y-77112521D01*
X183921501Y-77151396D01*
X183921506Y-77151402D01*
X184088597Y-77318493D01*
X184088603Y-77318498D01*
X184274158Y-77448425D01*
X184317783Y-77503002D01*
X184324977Y-77572500D01*
X184293454Y-77634855D01*
X184274158Y-77651575D01*
X184088597Y-77781505D01*
X183921505Y-77948597D01*
X183785965Y-78142169D01*
X183785964Y-78142171D01*
X183686098Y-78356335D01*
X183686094Y-78356344D01*
X183624938Y-78584586D01*
X183624936Y-78584596D01*
X183604341Y-78819999D01*
X183604341Y-78820000D01*
X183624936Y-79055403D01*
X183624938Y-79055413D01*
X183686094Y-79283655D01*
X183686096Y-79283659D01*
X183686097Y-79283663D01*
X183690000Y-79292032D01*
X183785965Y-79497830D01*
X183785967Y-79497834D01*
X183884458Y-79638493D01*
X183921501Y-79691396D01*
X183921506Y-79691402D01*
X184088597Y-79858493D01*
X184088603Y-79858498D01*
X184274158Y-79988425D01*
X184317783Y-80043002D01*
X184324977Y-80112500D01*
X184293454Y-80174855D01*
X184274158Y-80191575D01*
X184088597Y-80321505D01*
X183921505Y-80488597D01*
X183785965Y-80682169D01*
X183785964Y-80682171D01*
X183686098Y-80896335D01*
X183686094Y-80896344D01*
X183624938Y-81124586D01*
X183624936Y-81124596D01*
X183604341Y-81359999D01*
X183604341Y-81360000D01*
X183624936Y-81595403D01*
X183624938Y-81595413D01*
X183686094Y-81823655D01*
X183686096Y-81823659D01*
X183686097Y-81823663D01*
X183690000Y-81832032D01*
X183785965Y-82037830D01*
X183785967Y-82037834D01*
X183855174Y-82136671D01*
X183921501Y-82231396D01*
X183921506Y-82231402D01*
X184088597Y-82398493D01*
X184088603Y-82398498D01*
X184274158Y-82528425D01*
X184317783Y-82583002D01*
X184324977Y-82652500D01*
X184293454Y-82714855D01*
X184274158Y-82731575D01*
X184088597Y-82861505D01*
X183921505Y-83028597D01*
X183785965Y-83222169D01*
X183785964Y-83222171D01*
X183686098Y-83436335D01*
X183686094Y-83436344D01*
X183624938Y-83664586D01*
X183624936Y-83664596D01*
X183604341Y-83899999D01*
X183604341Y-83900000D01*
X183624936Y-84135403D01*
X183624938Y-84135413D01*
X183686094Y-84363655D01*
X183686096Y-84363659D01*
X183686097Y-84363663D01*
X183768721Y-84540851D01*
X183785965Y-84577830D01*
X183785967Y-84577834D01*
X183894281Y-84732521D01*
X183921501Y-84771396D01*
X183921506Y-84771402D01*
X184088597Y-84938493D01*
X184088603Y-84938498D01*
X184274158Y-85068425D01*
X184317783Y-85123002D01*
X184324977Y-85192500D01*
X184293454Y-85254855D01*
X184274158Y-85271575D01*
X184088597Y-85401505D01*
X183921505Y-85568597D01*
X183785965Y-85762169D01*
X183785964Y-85762171D01*
X183686098Y-85976335D01*
X183686094Y-85976344D01*
X183624938Y-86204586D01*
X183624936Y-86204596D01*
X183604341Y-86439999D01*
X183604341Y-86440000D01*
X183624936Y-86675403D01*
X183624938Y-86675413D01*
X183686094Y-86903655D01*
X183686096Y-86903659D01*
X183686097Y-86903663D01*
X183690000Y-86912032D01*
X183785965Y-87117830D01*
X183785967Y-87117834D01*
X183880477Y-87252807D01*
X183921501Y-87311396D01*
X183921506Y-87311402D01*
X184088597Y-87478493D01*
X184088603Y-87478498D01*
X184274158Y-87608425D01*
X184317783Y-87663002D01*
X184324977Y-87732500D01*
X184293454Y-87794855D01*
X184274158Y-87811575D01*
X184088597Y-87941505D01*
X183921505Y-88108597D01*
X183785965Y-88302169D01*
X183785964Y-88302171D01*
X183686098Y-88516335D01*
X183686094Y-88516344D01*
X183624938Y-88744586D01*
X183624936Y-88744596D01*
X183604341Y-88979999D01*
X183604341Y-88980000D01*
X183624936Y-89215403D01*
X183624938Y-89215413D01*
X183686094Y-89443655D01*
X183686096Y-89443659D01*
X183686097Y-89443663D01*
X183690000Y-89452032D01*
X183785965Y-89657830D01*
X183785967Y-89657834D01*
X183891919Y-89809148D01*
X183921501Y-89851396D01*
X183921506Y-89851402D01*
X184088597Y-90018493D01*
X184088603Y-90018498D01*
X184274158Y-90148425D01*
X184317783Y-90203002D01*
X184324977Y-90272500D01*
X184293454Y-90334855D01*
X184274158Y-90351575D01*
X184088597Y-90481505D01*
X183921505Y-90648597D01*
X183785965Y-90842169D01*
X183785964Y-90842171D01*
X183686098Y-91056335D01*
X183686094Y-91056344D01*
X183624938Y-91284586D01*
X183624936Y-91284596D01*
X183604341Y-91519999D01*
X183604341Y-91520000D01*
X183624936Y-91755403D01*
X183624938Y-91755413D01*
X183686094Y-91983655D01*
X183686096Y-91983659D01*
X183686097Y-91983663D01*
X183710816Y-92036672D01*
X183785965Y-92197830D01*
X183785967Y-92197834D01*
X183849282Y-92288256D01*
X183921501Y-92391396D01*
X183921506Y-92391402D01*
X184088597Y-92558493D01*
X184088603Y-92558498D01*
X184274158Y-92688425D01*
X184317783Y-92743002D01*
X184324977Y-92812500D01*
X184293454Y-92874855D01*
X184274158Y-92891575D01*
X184088597Y-93021505D01*
X183921505Y-93188597D01*
X183785965Y-93382169D01*
X183785964Y-93382171D01*
X183686098Y-93596335D01*
X183686094Y-93596344D01*
X183624938Y-93824586D01*
X183624936Y-93824596D01*
X183604341Y-94059999D01*
X183604341Y-94060000D01*
X183624936Y-94295403D01*
X183624938Y-94295413D01*
X183686094Y-94523655D01*
X183686096Y-94523659D01*
X183686097Y-94523663D01*
X183690000Y-94532032D01*
X183785965Y-94737830D01*
X183785967Y-94737834D01*
X183850207Y-94829577D01*
X183921501Y-94931396D01*
X183921506Y-94931402D01*
X184088597Y-95098493D01*
X184088603Y-95098498D01*
X184274158Y-95228425D01*
X184317783Y-95283002D01*
X184324977Y-95352500D01*
X184293454Y-95414855D01*
X184274158Y-95431575D01*
X184088597Y-95561505D01*
X183921505Y-95728597D01*
X183785965Y-95922169D01*
X183785964Y-95922171D01*
X183686098Y-96136335D01*
X183686094Y-96136344D01*
X183624938Y-96364586D01*
X183624936Y-96364596D01*
X183604341Y-96599999D01*
X183604341Y-96600000D01*
X183624936Y-96835403D01*
X183624938Y-96835413D01*
X183686094Y-97063655D01*
X183686096Y-97063659D01*
X183686097Y-97063663D01*
X183755115Y-97211672D01*
X183785965Y-97277830D01*
X183785967Y-97277834D01*
X183864139Y-97389474D01*
X183921501Y-97471396D01*
X183921506Y-97471402D01*
X184088597Y-97638493D01*
X184088603Y-97638498D01*
X184274158Y-97768425D01*
X184317783Y-97823002D01*
X184324977Y-97892500D01*
X184293454Y-97954855D01*
X184274158Y-97971575D01*
X184088597Y-98101505D01*
X183921505Y-98268597D01*
X183785965Y-98462169D01*
X183785964Y-98462171D01*
X183686098Y-98676335D01*
X183686094Y-98676344D01*
X183624938Y-98904586D01*
X183624936Y-98904596D01*
X183604341Y-99139999D01*
X183604341Y-99140000D01*
X183624936Y-99375403D01*
X183624938Y-99375413D01*
X183686094Y-99603655D01*
X183686096Y-99603659D01*
X183686097Y-99603663D01*
X183704573Y-99643284D01*
X183785965Y-99817830D01*
X183785967Y-99817834D01*
X183877033Y-99947888D01*
X183921501Y-100011396D01*
X183921506Y-100011402D01*
X184088597Y-100178493D01*
X184088603Y-100178498D01*
X184274158Y-100308425D01*
X184317783Y-100363002D01*
X184324977Y-100432500D01*
X184293454Y-100494855D01*
X184274158Y-100511575D01*
X184088597Y-100641505D01*
X183921505Y-100808597D01*
X183785965Y-101002169D01*
X183785964Y-101002171D01*
X183686098Y-101216335D01*
X183686094Y-101216344D01*
X183624938Y-101444586D01*
X183624936Y-101444596D01*
X183604341Y-101679999D01*
X183604341Y-101680000D01*
X183624936Y-101915403D01*
X183624938Y-101915413D01*
X183686094Y-102143655D01*
X183686096Y-102143659D01*
X183686097Y-102143663D01*
X183690000Y-102152032D01*
X183785965Y-102357830D01*
X183785967Y-102357834D01*
X183894281Y-102512521D01*
X183921501Y-102551396D01*
X183921506Y-102551402D01*
X184088597Y-102718493D01*
X184088603Y-102718498D01*
X184274158Y-102848425D01*
X184317783Y-102903002D01*
X184324977Y-102972500D01*
X184293454Y-103034855D01*
X184274158Y-103051575D01*
X184088597Y-103181505D01*
X183921505Y-103348597D01*
X183785965Y-103542169D01*
X183785964Y-103542171D01*
X183686098Y-103756335D01*
X183686094Y-103756344D01*
X183624938Y-103984586D01*
X183624936Y-103984596D01*
X183604341Y-104219999D01*
X183604341Y-104220000D01*
X183624936Y-104455403D01*
X183624938Y-104455413D01*
X183686094Y-104683655D01*
X183686096Y-104683659D01*
X183686097Y-104683663D01*
X183690000Y-104692032D01*
X183785965Y-104897830D01*
X183785967Y-104897834D01*
X183894281Y-105052521D01*
X183921501Y-105091396D01*
X183921506Y-105091402D01*
X184088597Y-105258493D01*
X184088603Y-105258498D01*
X184274158Y-105388425D01*
X184317783Y-105443002D01*
X184324977Y-105512500D01*
X184293454Y-105574855D01*
X184274158Y-105591575D01*
X184088597Y-105721505D01*
X183921505Y-105888597D01*
X183785965Y-106082169D01*
X183785964Y-106082171D01*
X183686098Y-106296335D01*
X183686094Y-106296344D01*
X183624938Y-106524586D01*
X183624936Y-106524596D01*
X183604341Y-106759999D01*
X183604341Y-106760000D01*
X183624936Y-106995403D01*
X183624938Y-106995413D01*
X183686094Y-107223655D01*
X183686096Y-107223659D01*
X183686097Y-107223663D01*
X183690000Y-107232032D01*
X183785965Y-107437830D01*
X183785967Y-107437834D01*
X183894281Y-107592521D01*
X183921501Y-107631396D01*
X183921506Y-107631402D01*
X184088597Y-107798493D01*
X184088603Y-107798498D01*
X184274158Y-107928425D01*
X184317783Y-107983002D01*
X184324977Y-108052500D01*
X184293454Y-108114855D01*
X184274158Y-108131575D01*
X184088597Y-108261505D01*
X183921505Y-108428597D01*
X183785965Y-108622169D01*
X183785964Y-108622171D01*
X183686098Y-108836335D01*
X183686094Y-108836344D01*
X183624938Y-109064586D01*
X183624936Y-109064596D01*
X183604341Y-109299999D01*
X183604341Y-109300000D01*
X183624936Y-109535403D01*
X183624938Y-109535413D01*
X183686094Y-109763655D01*
X183686096Y-109763659D01*
X183686097Y-109763663D01*
X183690000Y-109772032D01*
X183785965Y-109977830D01*
X183785967Y-109977834D01*
X183894281Y-110132521D01*
X183921501Y-110171396D01*
X183921506Y-110171402D01*
X184088597Y-110338493D01*
X184088603Y-110338498D01*
X184274158Y-110468425D01*
X184317783Y-110523002D01*
X184324977Y-110592500D01*
X184293454Y-110654855D01*
X184274158Y-110671575D01*
X184088597Y-110801505D01*
X183921505Y-110968597D01*
X183785965Y-111162169D01*
X183785964Y-111162171D01*
X183686098Y-111376335D01*
X183686094Y-111376344D01*
X183624938Y-111604586D01*
X183624936Y-111604596D01*
X183604341Y-111839999D01*
X183604341Y-111840000D01*
X183624936Y-112075403D01*
X183624938Y-112075413D01*
X183686094Y-112303655D01*
X183686096Y-112303659D01*
X183686097Y-112303663D01*
X183690000Y-112312032D01*
X183785965Y-112517830D01*
X183785967Y-112517834D01*
X183894281Y-112672521D01*
X183921501Y-112711396D01*
X183921506Y-112711402D01*
X184088597Y-112878493D01*
X184088603Y-112878498D01*
X184274158Y-113008425D01*
X184317783Y-113063002D01*
X184324977Y-113132500D01*
X184293454Y-113194855D01*
X184274158Y-113211575D01*
X184088597Y-113341505D01*
X183921505Y-113508597D01*
X183785965Y-113702169D01*
X183785964Y-113702171D01*
X183686098Y-113916335D01*
X183686094Y-113916344D01*
X183624938Y-114144586D01*
X183624936Y-114144596D01*
X183604341Y-114379999D01*
X183604341Y-114380000D01*
X183624936Y-114615403D01*
X183624938Y-114615413D01*
X183686094Y-114843655D01*
X183686096Y-114843659D01*
X183686097Y-114843663D01*
X183690000Y-114852032D01*
X183785965Y-115057830D01*
X183785967Y-115057834D01*
X183873060Y-115182214D01*
X183921505Y-115251401D01*
X184088599Y-115418495D01*
X184185384Y-115486265D01*
X184282165Y-115554032D01*
X184282167Y-115554033D01*
X184282170Y-115554035D01*
X184496337Y-115653903D01*
X184724592Y-115715063D01*
X184912918Y-115731539D01*
X184959999Y-115735659D01*
X184960000Y-115735659D01*
X184960001Y-115735659D01*
X184999234Y-115732226D01*
X185195408Y-115715063D01*
X185423663Y-115653903D01*
X185637830Y-115554035D01*
X185831401Y-115418495D01*
X185998495Y-115251401D01*
X186128425Y-115065842D01*
X186183002Y-115022217D01*
X186252500Y-115015023D01*
X186314855Y-115046546D01*
X186331575Y-115065842D01*
X186461500Y-115251395D01*
X186461505Y-115251401D01*
X186628599Y-115418495D01*
X186725384Y-115486265D01*
X186822165Y-115554032D01*
X186822167Y-115554033D01*
X186822170Y-115554035D01*
X187036337Y-115653903D01*
X187264592Y-115715063D01*
X187452918Y-115731539D01*
X187499999Y-115735659D01*
X187500000Y-115735659D01*
X187500001Y-115735659D01*
X187539234Y-115732226D01*
X187735408Y-115715063D01*
X187963663Y-115653903D01*
X188177830Y-115554035D01*
X188371401Y-115418495D01*
X188538495Y-115251401D01*
X188674035Y-115057830D01*
X188773903Y-114843663D01*
X188835063Y-114615408D01*
X188855659Y-114380000D01*
X188835063Y-114144592D01*
X188773903Y-113916337D01*
X188674035Y-113702171D01*
X188668425Y-113694158D01*
X188538494Y-113508597D01*
X188371402Y-113341506D01*
X188371396Y-113341501D01*
X188185842Y-113211575D01*
X188142217Y-113156998D01*
X188135023Y-113087500D01*
X188166546Y-113025145D01*
X188185842Y-113008425D01*
X188208026Y-112992891D01*
X188371401Y-112878495D01*
X188538495Y-112711401D01*
X188674035Y-112517830D01*
X188773903Y-112303663D01*
X188835063Y-112075408D01*
X188855659Y-111840000D01*
X188835063Y-111604592D01*
X188773903Y-111376337D01*
X188674035Y-111162171D01*
X188668425Y-111154158D01*
X188538494Y-110968597D01*
X188371402Y-110801506D01*
X188371396Y-110801501D01*
X188185842Y-110671575D01*
X188142217Y-110616998D01*
X188135023Y-110547500D01*
X188166546Y-110485145D01*
X188185842Y-110468425D01*
X188208026Y-110452891D01*
X188371401Y-110338495D01*
X188538495Y-110171401D01*
X188674035Y-109977830D01*
X188773903Y-109763663D01*
X188835063Y-109535408D01*
X188855659Y-109300000D01*
X188835063Y-109064592D01*
X188773903Y-108836337D01*
X188674035Y-108622171D01*
X188668425Y-108614158D01*
X188538494Y-108428597D01*
X188371402Y-108261506D01*
X188371396Y-108261501D01*
X188185842Y-108131575D01*
X188142217Y-108076998D01*
X188135023Y-108007500D01*
X188166546Y-107945145D01*
X188185842Y-107928425D01*
X188208026Y-107912891D01*
X188371401Y-107798495D01*
X188538495Y-107631401D01*
X188674035Y-107437830D01*
X188773903Y-107223663D01*
X188835063Y-106995408D01*
X188855659Y-106760000D01*
X188835063Y-106524592D01*
X188773903Y-106296337D01*
X188674035Y-106082171D01*
X188668425Y-106074158D01*
X188538494Y-105888597D01*
X188371402Y-105721506D01*
X188371396Y-105721501D01*
X188185842Y-105591575D01*
X188142217Y-105536998D01*
X188135023Y-105467500D01*
X188166546Y-105405145D01*
X188185842Y-105388425D01*
X188208026Y-105372891D01*
X188371401Y-105258495D01*
X188538495Y-105091401D01*
X188674035Y-104897830D01*
X188773903Y-104683663D01*
X188835063Y-104455408D01*
X188855659Y-104220000D01*
X188835063Y-103984592D01*
X188773903Y-103756337D01*
X188674035Y-103542171D01*
X188668425Y-103534158D01*
X188538494Y-103348597D01*
X188371402Y-103181506D01*
X188371396Y-103181501D01*
X188185842Y-103051575D01*
X188142217Y-102996998D01*
X188135023Y-102927500D01*
X188166546Y-102865145D01*
X188185842Y-102848425D01*
X188208026Y-102832891D01*
X188371401Y-102718495D01*
X188538495Y-102551401D01*
X188674035Y-102357830D01*
X188773903Y-102143663D01*
X188835063Y-101915408D01*
X188855659Y-101680000D01*
X188835063Y-101444592D01*
X188773903Y-101216337D01*
X188674035Y-101002171D01*
X188668425Y-100994158D01*
X188538494Y-100808597D01*
X188371402Y-100641506D01*
X188371396Y-100641501D01*
X188185842Y-100511575D01*
X188142217Y-100456998D01*
X188135023Y-100387500D01*
X188166546Y-100325145D01*
X188185842Y-100308425D01*
X188208026Y-100292891D01*
X188371401Y-100178495D01*
X188538495Y-100011401D01*
X188674035Y-99817830D01*
X188773903Y-99603663D01*
X188835063Y-99375408D01*
X188855659Y-99140000D01*
X188835063Y-98904592D01*
X188773903Y-98676337D01*
X188674035Y-98462171D01*
X188668425Y-98454158D01*
X188538494Y-98268597D01*
X188371402Y-98101506D01*
X188371396Y-98101501D01*
X188185842Y-97971575D01*
X188142217Y-97916998D01*
X188135023Y-97847500D01*
X188166546Y-97785145D01*
X188185842Y-97768425D01*
X188316167Y-97677170D01*
X188371401Y-97638495D01*
X188538495Y-97471401D01*
X188674035Y-97277830D01*
X188773903Y-97063663D01*
X188835063Y-96835408D01*
X188855659Y-96600000D01*
X188835063Y-96364592D01*
X188773903Y-96136337D01*
X188674035Y-95922171D01*
X188668425Y-95914158D01*
X188538494Y-95728597D01*
X188371402Y-95561506D01*
X188371396Y-95561501D01*
X188185842Y-95431575D01*
X188142217Y-95376998D01*
X188135023Y-95307500D01*
X188166546Y-95245145D01*
X188185842Y-95228425D01*
X188208026Y-95212891D01*
X188371401Y-95098495D01*
X188538495Y-94931401D01*
X188674035Y-94737830D01*
X188773903Y-94523663D01*
X188835063Y-94295408D01*
X188855659Y-94060000D01*
X188835063Y-93824592D01*
X188773903Y-93596337D01*
X188674035Y-93382171D01*
X188668425Y-93374158D01*
X188538494Y-93188597D01*
X188371402Y-93021506D01*
X188371396Y-93021501D01*
X188185842Y-92891575D01*
X188142217Y-92836998D01*
X188135023Y-92767500D01*
X188166546Y-92705145D01*
X188185842Y-92688425D01*
X188209025Y-92672192D01*
X188371401Y-92558495D01*
X188538495Y-92391401D01*
X188674035Y-92197830D01*
X188773903Y-91983663D01*
X188835063Y-91755408D01*
X188855659Y-91520000D01*
X188835063Y-91284592D01*
X188773903Y-91056337D01*
X188674035Y-90842171D01*
X188668425Y-90834158D01*
X188538494Y-90648597D01*
X188371402Y-90481506D01*
X188371396Y-90481501D01*
X188185842Y-90351575D01*
X188142217Y-90296998D01*
X188135023Y-90227500D01*
X188166546Y-90165145D01*
X188185842Y-90148425D01*
X188310492Y-90061144D01*
X188371401Y-90018495D01*
X188538495Y-89851401D01*
X188674035Y-89657830D01*
X188773903Y-89443663D01*
X188835063Y-89215408D01*
X188855659Y-88980000D01*
X188835063Y-88744592D01*
X188773903Y-88516337D01*
X188674035Y-88302171D01*
X188668425Y-88294158D01*
X188538494Y-88108597D01*
X188371402Y-87941506D01*
X188371396Y-87941501D01*
X188185842Y-87811575D01*
X188142217Y-87756998D01*
X188135023Y-87687500D01*
X188166546Y-87625145D01*
X188185842Y-87608425D01*
X188229772Y-87577665D01*
X188371401Y-87478495D01*
X188538495Y-87311401D01*
X188674035Y-87117830D01*
X188773903Y-86903663D01*
X188835063Y-86675408D01*
X188855659Y-86440000D01*
X188835063Y-86204592D01*
X188773903Y-85976337D01*
X188674035Y-85762171D01*
X188668425Y-85754158D01*
X188538494Y-85568597D01*
X188371402Y-85401506D01*
X188371396Y-85401501D01*
X188185842Y-85271575D01*
X188142217Y-85216998D01*
X188135023Y-85147500D01*
X188166546Y-85085145D01*
X188185842Y-85068425D01*
X188208026Y-85052891D01*
X188371401Y-84938495D01*
X188538495Y-84771401D01*
X188674035Y-84577830D01*
X188773903Y-84363663D01*
X188835063Y-84135408D01*
X188855659Y-83900000D01*
X188835063Y-83664592D01*
X188778278Y-83452665D01*
X188773905Y-83436344D01*
X188773904Y-83436343D01*
X188773903Y-83436337D01*
X188674035Y-83222171D01*
X188668425Y-83214158D01*
X188538494Y-83028597D01*
X188371402Y-82861506D01*
X188371396Y-82861501D01*
X188185842Y-82731575D01*
X188142217Y-82676998D01*
X188135023Y-82607500D01*
X188166546Y-82545145D01*
X188185842Y-82528425D01*
X188208026Y-82512891D01*
X188371401Y-82398495D01*
X188538495Y-82231401D01*
X188674035Y-82037830D01*
X188773903Y-81823663D01*
X188835063Y-81595408D01*
X188855659Y-81360000D01*
X188835063Y-81124592D01*
X188773903Y-80896337D01*
X188674035Y-80682171D01*
X188668425Y-80674158D01*
X188538494Y-80488597D01*
X188371402Y-80321506D01*
X188371396Y-80321501D01*
X188185842Y-80191575D01*
X188142217Y-80136998D01*
X188135023Y-80067500D01*
X188166546Y-80005145D01*
X188185842Y-79988425D01*
X188208026Y-79972891D01*
X188371401Y-79858495D01*
X188538495Y-79691401D01*
X188674035Y-79497830D01*
X188773903Y-79283663D01*
X188835063Y-79055408D01*
X188855659Y-78820000D01*
X188835063Y-78584592D01*
X188773903Y-78356337D01*
X188674035Y-78142171D01*
X188668425Y-78134158D01*
X188538494Y-77948597D01*
X188371402Y-77781506D01*
X188371396Y-77781501D01*
X188185842Y-77651575D01*
X188142217Y-77596998D01*
X188135023Y-77527500D01*
X188166546Y-77465145D01*
X188185842Y-77448425D01*
X188217918Y-77425965D01*
X188371401Y-77318495D01*
X188538495Y-77151401D01*
X188674035Y-76957830D01*
X188773903Y-76743663D01*
X188835063Y-76515408D01*
X188855659Y-76280000D01*
X188835063Y-76044592D01*
X188773903Y-75816337D01*
X188674035Y-75602171D01*
X188668425Y-75594158D01*
X188538494Y-75408597D01*
X188371402Y-75241506D01*
X188371396Y-75241501D01*
X188185842Y-75111575D01*
X188142217Y-75056998D01*
X188135023Y-74987500D01*
X188166546Y-74925145D01*
X188185842Y-74908425D01*
X188208026Y-74892891D01*
X188371401Y-74778495D01*
X188538495Y-74611401D01*
X188674035Y-74417830D01*
X188773903Y-74203663D01*
X188835063Y-73975408D01*
X188855659Y-73740000D01*
X188835063Y-73504592D01*
X188773903Y-73276337D01*
X188674035Y-73062171D01*
X188668425Y-73054158D01*
X188538494Y-72868597D01*
X188371402Y-72701506D01*
X188371396Y-72701501D01*
X188185842Y-72571575D01*
X188142217Y-72516998D01*
X188135023Y-72447500D01*
X188166546Y-72385145D01*
X188185842Y-72368425D01*
X188208026Y-72352891D01*
X188371401Y-72238495D01*
X188538495Y-72071401D01*
X188674035Y-71877830D01*
X188773903Y-71663663D01*
X188835063Y-71435408D01*
X188855659Y-71200000D01*
X188835063Y-70964592D01*
X188773903Y-70736337D01*
X188674035Y-70522171D01*
X188668425Y-70514158D01*
X188538494Y-70328597D01*
X188371402Y-70161506D01*
X188371396Y-70161501D01*
X188185842Y-70031575D01*
X188142217Y-69976998D01*
X188135023Y-69907500D01*
X188166546Y-69845145D01*
X188185842Y-69828425D01*
X188208026Y-69812891D01*
X188371401Y-69698495D01*
X188538495Y-69531401D01*
X188674035Y-69337830D01*
X188773903Y-69123663D01*
X188835063Y-68895408D01*
X188855659Y-68660000D01*
X188835063Y-68424592D01*
X188773903Y-68196337D01*
X188674035Y-67982171D01*
X188668425Y-67974158D01*
X188538494Y-67788597D01*
X188371402Y-67621506D01*
X188371396Y-67621501D01*
X188185842Y-67491575D01*
X188142217Y-67436998D01*
X188135023Y-67367500D01*
X188166546Y-67305145D01*
X188185842Y-67288425D01*
X188208026Y-67272891D01*
X188371401Y-67158495D01*
X188538495Y-66991401D01*
X188674035Y-66797830D01*
X188773903Y-66583663D01*
X188835063Y-66355408D01*
X188855659Y-66120000D01*
X188835063Y-65884592D01*
X188773903Y-65656337D01*
X188674035Y-65442171D01*
X188538495Y-65248599D01*
X188538494Y-65248597D01*
X188371402Y-65081506D01*
X188371395Y-65081501D01*
X188177834Y-64945967D01*
X188177830Y-64945965D01*
X188177828Y-64945964D01*
X187963663Y-64846097D01*
X187963659Y-64846096D01*
X187963655Y-64846094D01*
X187735413Y-64784938D01*
X187735403Y-64784936D01*
X187500001Y-64764341D01*
X187499999Y-64764341D01*
X187264596Y-64784936D01*
X187264586Y-64784938D01*
X187036344Y-64846094D01*
X187036335Y-64846098D01*
X186822171Y-64945964D01*
X186822169Y-64945965D01*
X186628600Y-65081503D01*
X186506673Y-65203430D01*
X186445350Y-65236914D01*
X186375658Y-65231930D01*
X186319725Y-65190058D01*
X186302810Y-65159081D01*
X186253797Y-65027671D01*
X186253793Y-65027664D01*
X186167547Y-64912455D01*
X186167544Y-64912452D01*
X186052335Y-64826206D01*
X186052328Y-64826202D01*
X185917482Y-64775908D01*
X185917483Y-64775908D01*
X185857883Y-64769501D01*
X185857881Y-64769500D01*
X185857873Y-64769500D01*
X185857864Y-64769500D01*
X184062129Y-64769500D01*
X184062123Y-64769501D01*
X184002516Y-64775908D01*
X183867671Y-64826202D01*
X183867664Y-64826206D01*
X183752455Y-64912452D01*
X183752452Y-64912455D01*
X183666206Y-65027664D01*
X183666202Y-65027671D01*
X183615908Y-65162517D01*
X183609501Y-65222116D01*
X183609500Y-65222135D01*
X183609500Y-67017870D01*
X183609501Y-67017876D01*
X183615908Y-67077483D01*
X183666202Y-67212328D01*
X183666206Y-67212335D01*
X183752452Y-67327544D01*
X183752455Y-67327547D01*
X183867664Y-67413793D01*
X183867671Y-67413797D01*
X183999081Y-67462810D01*
X184055015Y-67504681D01*
X184079432Y-67570145D01*
X184064580Y-67638418D01*
X184043430Y-67666673D01*
X183921503Y-67788600D01*
X183785965Y-67982169D01*
X183785964Y-67982171D01*
X183686098Y-68196335D01*
X183686094Y-68196344D01*
X183624938Y-68424586D01*
X183624936Y-68424596D01*
X183604341Y-68659999D01*
X91350500Y-68659999D01*
X91350500Y-57769733D01*
X91370185Y-57702694D01*
X91422989Y-57656939D01*
X91492147Y-57646995D01*
X91555703Y-57676020D01*
X91588520Y-57720995D01*
X91640164Y-57841822D01*
X91853000Y-58237338D01*
X91853004Y-58237344D01*
X91853004Y-58237345D01*
X92100428Y-58612177D01*
X92100429Y-58612178D01*
X92100433Y-58612183D01*
X92380471Y-58963339D01*
X92690858Y-59287979D01*
X92690865Y-59287985D01*
X92690868Y-59287988D01*
X93029080Y-59583475D01*
X93029089Y-59583482D01*
X93029097Y-59583489D01*
X93029107Y-59583496D01*
X93029108Y-59583497D01*
X93392458Y-59847487D01*
X93778033Y-60077857D01*
X93778039Y-60077860D01*
X94182688Y-60272729D01*
X94182702Y-60272735D01*
X94603189Y-60430546D01*
X94603193Y-60430547D01*
X94603203Y-60430551D01*
X95036163Y-60550041D01*
X95478090Y-60630239D01*
X95925427Y-60670500D01*
X95925434Y-60670500D01*
X96374566Y-60670500D01*
X96374573Y-60670500D01*
X96821910Y-60630239D01*
X97263837Y-60550041D01*
X97696797Y-60430551D01*
X98117303Y-60272733D01*
X98521969Y-60077856D01*
X98907537Y-59847490D01*
X99270903Y-59583489D01*
X99609142Y-59287979D01*
X99919529Y-58963339D01*
X100199567Y-58612183D01*
X100447000Y-58237338D01*
X100659836Y-57841822D01*
X100836361Y-57428821D01*
X100975155Y-57001658D01*
X101075099Y-56563774D01*
X101135389Y-56118693D01*
X101155540Y-55670000D01*
X101135389Y-55221307D01*
X101075099Y-54776226D01*
X100975155Y-54338342D01*
X100836361Y-53911179D01*
X100659836Y-53498178D01*
X100447000Y-53102662D01*
X100446995Y-53102654D01*
X100199571Y-52727822D01*
X100199570Y-52727821D01*
X99919534Y-52376667D01*
X99919532Y-52376665D01*
X99919529Y-52376661D01*
X99609142Y-52052021D01*
X99609131Y-52052011D01*
X99270919Y-51756524D01*
X99270907Y-51756515D01*
X99270903Y-51756511D01*
X99270891Y-51756502D01*
X98907541Y-51492512D01*
X98521966Y-51262142D01*
X98521960Y-51262139D01*
X98198190Y-51106220D01*
X98146331Y-51059398D01*
X98128018Y-50991971D01*
X98149066Y-50925347D01*
X98202792Y-50880678D01*
X98251992Y-50870500D01*
X184048008Y-50870500D01*
X184115047Y-50890185D01*
G37*
%TD.AperFunction*%
%TD*%
M02*
